<?xml version="1.0" encoding="UTF-8"?>
<svg id="Layer_1" data-name="Layer 1" xmlns="http://www.w3.org/2000/svg" xmlns:xlink="http://www.w3.org/1999/xlink" viewBox="0 0 526.1 272.28">
  <defs>
    <style>
      .cls-1 {
        stroke: #17becf;
      }

      .cls-1, .cls-2, .cls-3, .cls-4, .cls-5, .cls-6, .cls-7, .cls-8, .cls-9, .cls-10, .cls-11, .cls-12, .cls-13, .cls-14 {
        fill: none;
      }

      .cls-1, .cls-3, .cls-4, .cls-5, .cls-7, .cls-8, .cls-10, .cls-11, .cls-12, .cls-13, .cls-14 {
        stroke-linecap: square;
      }

      .cls-1, .cls-3, .cls-4, .cls-7, .cls-8, .cls-9, .cls-10, .cls-11, .cls-12, .cls-13, .cls-14 {
        stroke-linejoin: round;
      }

      .cls-1, .cls-3, .cls-4, .cls-7, .cls-8, .cls-10, .cls-11, .cls-12, .cls-13, .cls-14 {
        stroke-width: 1.44px;
      }

      .cls-15 {
        clip-path: url(#clippath-6);
      }

      .cls-16 {
        clip-path: url(#clippath-7);
      }

      .cls-2 {
        stroke-miterlimit: 10;
      }

      .cls-2, .cls-5, .cls-9 {
        stroke: #000;
      }

      .cls-17 {
        clip-path: url(#clippath-4);
      }

      .cls-3 {
        stroke: #bcbd22;
      }

      .cls-18 {
        clip-path: url(#clippath-9);
      }

      .cls-19 {
        clip-path: url(#clippath-10);
      }

      .cls-4 {
        stroke: #1f77b4;
      }

      .cls-20 {
        fill: #fff;
      }

      .cls-5, .cls-9 {
        stroke-width: .77px;
      }

      .cls-21 {
        clip-path: url(#clippath-11);
      }

      .cls-22 {
        clip-path: url(#clippath-1);
      }

      .cls-7 {
        stroke: #2ca02c;
      }

      .cls-8 {
        stroke: #ff7f0e;
      }

      .cls-23 {
        clip-path: url(#clippath-5);
      }

      .cls-24 {
        clip-path: url(#clippath-8);
      }

      .cls-25 {
        clip-path: url(#clippath-3);
      }

      .cls-10 {
        stroke: #d62728;
      }

      .cls-11 {
        stroke: #e377c2;
      }

      .cls-12 {
        stroke: #8c564b;
      }

      .cls-13 {
        stroke: #9467bd;
      }

      .cls-26 {
        clip-path: url(#clippath-2);
      }

      .cls-14 {
        stroke: #7f7f7f;
      }

      .cls-27 {
        clip-path: url(#clippath);
      }
    </style>
    <clipPath id="clippath">
      <rect class="cls-6" x="-33.48" y="-8.05" width="624" height="277"/>
    </clipPath>
    <clipPath id="clippath-1">
      <rect class="cls-6" x="44.52" y="24.95" width="390" height="214"/>
    </clipPath>
    <clipPath id="clippath-2">
      <rect class="cls-6" x="44.52" y="24.95" width="390" height="214"/>
    </clipPath>
    <clipPath id="clippath-3">
      <rect class="cls-6" x="44.52" y="24.95" width="390" height="214"/>
    </clipPath>
    <clipPath id="clippath-4">
      <rect class="cls-6" x="44.52" y="24.95" width="390" height="214"/>
    </clipPath>
    <clipPath id="clippath-5">
      <rect class="cls-6" x="44.52" y="24.95" width="390" height="214"/>
    </clipPath>
    <clipPath id="clippath-6">
      <rect class="cls-6" x="44.52" y="24.95" width="390" height="214"/>
    </clipPath>
    <clipPath id="clippath-7">
      <rect class="cls-6" x="44.52" y="24.95" width="390" height="214"/>
    </clipPath>
    <clipPath id="clippath-8">
      <rect class="cls-6" x="44.52" y="24.95" width="390" height="214"/>
    </clipPath>
    <clipPath id="clippath-9">
      <rect class="cls-6" x="44.52" y="24.95" width="390" height="214"/>
    </clipPath>
    <clipPath id="clippath-10">
      <rect class="cls-6" x="44.52" y="24.95" width="390" height="214"/>
    </clipPath>
    <clipPath id="clippath-11">
      <rect class="cls-6" x="44.52" y="24.95" width="390" height="214"/>
    </clipPath>
  </defs>
  <g class="cls-27">
    <g>
      <path class="cls-20" d="M-33.48,268.95h624V-8.05H-33.48v277Z"/>
      <path class="cls-20" d="M44.52,238.48h390V25.19H44.52v213.29Z"/>
      <path class="cls-9" d="M44.52,238.48v3.37"/>
      <path d="M44.52,246.13c-.49,0-.86.24-1.1.72-.25.48-.37,1.2-.37,2.17s.12,1.68.37,2.16.61.72,1.1.72.86-.24,1.11-.72.37-1.2.37-2.16-.12-1.69-.37-2.17-.61-.72-1.11-.72h0ZM44.52,245.38c.79,0,1.39.31,1.8.93.42.62.62,1.52.62,2.71s-.21,2.08-.62,2.7c-.42.62-1.02.93-1.8.93s-1.39-.31-1.8-.93c-.42-.62-.62-1.52-.62-2.7s.21-2.09.62-2.71c.42-.62,1.02-.93,1.8-.93h0Z"/>
      <path class="cls-9" d="M109.52,238.48v3.37"/>
      <path d="M101.53,251.72h1.55v-5.35l-1.69.34v-.86l1.68-.34h.95v6.21h1.55v.8h-4.04v-.8Z"/>
      <path d="M109.52,246.13c-.49,0-.86.24-1.1.72-.25.48-.37,1.2-.37,2.17s.12,1.68.37,2.16.61.72,1.1.72.86-.24,1.11-.72.37-1.2.37-2.16-.12-1.69-.37-2.17-.61-.72-1.11-.72h0ZM109.52,245.38c.79,0,1.39.31,1.8.93.42.62.62,1.52.62,2.71s-.21,2.08-.62,2.7c-.42.62-1.02.93-1.8.93s-1.39-.31-1.8-.93c-.42-.62-.62-1.52-.62-2.7s.21-2.09.62-2.71c.42-.62,1.02-.93,1.8-.93h0Z"/>
      <path d="M115.65,246.13c-.49,0-.86.24-1.1.72-.25.48-.37,1.2-.37,2.17s.12,1.68.37,2.16.61.72,1.1.72.86-.24,1.11-.72.37-1.2.37-2.16-.12-1.69-.37-2.17-.61-.72-1.11-.72h0ZM115.65,245.38c.79,0,1.39.31,1.8.93.42.62.62,1.52.62,2.71s-.21,2.08-.62,2.7c-.42.62-1.02.93-1.8.93s-1.39-.31-1.8-.93c-.42-.62-.62-1.52-.62-2.7s.21-2.09.62-2.71c.42-.62,1.02-.93,1.8-.93h0Z"/>
      <path class="cls-9" d="M174.52,238.48v3.37"/>
      <path d="M167.18,251.72h3.31v.8h-4.46v-.8c.36-.37.85-.87,1.47-1.5s1.01-1.03,1.17-1.22c.3-.34.52-.63.64-.87.12-.24.18-.47.18-.7,0-.37-.13-.68-.39-.91-.26-.24-.6-.35-1.02-.35-.3,0-.61.05-.94.15-.33.1-.68.26-1.06.47v-.96c.38-.15.74-.27,1.07-.35s.64-.12.91-.12c.73,0,1.31.18,1.74.55.43.36.65.85.65,1.45,0,.29-.05.56-.16.82s-.3.56-.59.91c-.08.09-.33.35-.75.79-.42.43-1.01,1.04-1.78,1.82v.02Z"/>
      <path d="M174.52,246.13c-.49,0-.86.24-1.1.72-.25.48-.37,1.2-.37,2.17s.12,1.68.37,2.16.61.72,1.1.72.86-.24,1.11-.72.37-1.2.37-2.16-.12-1.69-.37-2.17-.61-.72-1.11-.72h0ZM174.52,245.38c.79,0,1.39.31,1.8.93.42.62.62,1.52.62,2.71s-.21,2.08-.62,2.7c-.42.62-1.02.93-1.8.93s-1.39-.31-1.8-.93c-.42-.62-.62-1.52-.62-2.7s.21-2.09.62-2.71c.42-.62,1.02-.93,1.8-.93h0Z"/>
      <path d="M180.65,246.13c-.49,0-.86.24-1.1.72-.25.48-.37,1.2-.37,2.17s.12,1.68.37,2.16.61.72,1.1.72.86-.24,1.11-.72.37-1.2.37-2.16-.12-1.69-.37-2.17-.61-.72-1.11-.72h0ZM180.65,245.38c.79,0,1.39.31,1.8.93.42.62.62,1.52.62,2.71s-.21,2.08-.62,2.7c-.42.62-1.02.93-1.8.93s-1.39-.31-1.8-.93c-.42-.62-.62-1.52-.62-2.7s.21-2.09.62-2.71c.42-.62,1.02-.93,1.8-.93h0Z"/>
      <path class="cls-9" d="M239.52,238.48v3.37"/>
      <path d="M234.24,248.74c.45.1.81.3,1.06.61.26.31.38.69.38,1.14,0,.69-.24,1.23-.71,1.61-.48.38-1.15.57-2.03.57-.29,0-.6-.03-.91-.09s-.63-.15-.97-.26v-.92c.26.15.55.27.86.35.31.08.64.12.98.12.59,0,1.05-.12,1.36-.35s.47-.58.47-1.02c0-.41-.14-.74-.43-.97s-.69-.35-1.21-.35h-.82v-.78h.86c.47,0,.82-.09,1.07-.28s.37-.45.37-.81-.13-.64-.38-.83-.62-.29-1.1-.29c-.26,0-.54.03-.84.09s-.63.14-.98.26v-.84c.36-.1.7-.18,1.01-.23s.61-.08.89-.08c.72,0,1.29.16,1.71.49.42.33.63.77.63,1.33,0,.39-.11.72-.33.98-.22.27-.54.45-.95.56h.01Z"/>
      <path d="M239.52,246.13c-.49,0-.86.24-1.1.72-.25.48-.37,1.2-.37,2.17s.12,1.68.37,2.16.61.72,1.1.72.86-.24,1.11-.72.37-1.2.37-2.16-.12-1.69-.37-2.17-.61-.72-1.11-.72h0ZM239.52,245.38c.79,0,1.39.31,1.8.93.42.62.62,1.52.62,2.71s-.21,2.08-.62,2.7c-.42.62-1.02.93-1.8.93s-1.39-.31-1.8-.93c-.42-.62-.62-1.52-.62-2.7s.21-2.09.62-2.71c.42-.62,1.02-.93,1.8-.93h0Z"/>
      <path d="M245.65,246.13c-.49,0-.86.24-1.1.72-.25.48-.37,1.2-.37,2.17s.12,1.68.37,2.16.61.72,1.1.72.86-.24,1.11-.72.37-1.2.37-2.16-.12-1.69-.37-2.17-.61-.72-1.11-.72h0ZM245.65,245.38c.79,0,1.39.31,1.8.93.42.62.62,1.52.62,2.71s-.21,2.08-.62,2.7c-.42.62-1.02.93-1.8.93s-1.39-.31-1.8-.93c-.42-.62-.62-1.52-.62-2.7s.21-2.09.62-2.71c.42-.62,1.02-.93,1.8-.93h0Z"/>
      <path class="cls-9" d="M304.52,238.48v3.37"/>
      <path d="M298.97,246.33l-2.4,3.74h2.4v-3.74h0ZM298.72,245.51h1.19v4.57h1v.79h-1v1.65h-.94v-1.65h-3.17v-.92l2.92-4.44Z"/>
      <path d="M304.52,246.13c-.49,0-.86.24-1.1.72-.25.48-.37,1.2-.37,2.17s.12,1.68.37,2.16.61.72,1.1.72.86-.24,1.11-.72.37-1.2.37-2.16-.12-1.69-.37-2.17-.61-.72-1.11-.72h0ZM304.52,245.38c.79,0,1.39.31,1.8.93.42.62.62,1.52.62,2.71s-.21,2.08-.62,2.7c-.42.62-1.02.93-1.8.93s-1.39-.31-1.8-.93c-.42-.62-.62-1.52-.62-2.7s.21-2.09.62-2.71c.42-.62,1.02-.93,1.8-.93h0Z"/>
      <path d="M310.65,246.13c-.49,0-.86.24-1.1.72-.25.48-.37,1.2-.37,2.17s.12,1.68.37,2.16.61.72,1.1.72.86-.24,1.11-.72.37-1.2.37-2.16-.12-1.69-.37-2.17-.61-.72-1.11-.72h0ZM310.65,245.38c.79,0,1.39.31,1.8.93.42.62.62,1.52.62,2.71s-.21,2.08-.62,2.7c-.42.62-1.02.93-1.8.93s-1.39-.31-1.8-.93c-.42-.62-.62-1.52-.62-2.7s.21-2.09.62-2.71c.42-.62,1.02-.93,1.8-.93h0Z"/>
      <path class="cls-9" d="M369.52,238.48v3.37"/>
      <path d="M361.37,245.51h3.73v.8h-2.86v1.72c.14-.05.27-.08.41-.11.14-.02.28-.03.42-.03.78,0,1.4.21,1.86.64s.69,1.01.69,1.74-.24,1.34-.71,1.76-1.13.63-1.99.63c-.29,0-.6-.03-.9-.08s-.62-.13-.95-.23v-.95c.28.15.57.27.87.34.3.08.62.11.95.11.54,0,.97-.14,1.29-.43.32-.28.48-.67.48-1.16s-.16-.87-.48-1.16-.75-.43-1.29-.43c-.25,0-.51.03-.76.08-.25.06-.51.14-.77.26v-3.52.02Z"/>
      <path d="M369.52,246.13c-.49,0-.86.24-1.1.72-.25.48-.37,1.2-.37,2.17s.12,1.68.37,2.16.61.72,1.1.72.86-.24,1.11-.72.37-1.2.37-2.16-.12-1.69-.37-2.17-.61-.72-1.11-.72h0ZM369.52,245.38c.79,0,1.39.31,1.8.93.42.62.62,1.52.62,2.71s-.21,2.08-.62,2.7c-.42.62-1.02.93-1.8.93s-1.39-.31-1.8-.93c-.42-.62-.62-1.52-.62-2.7s.21-2.09.62-2.71c.42-.62,1.02-.93,1.8-.93h0Z"/>
      <path d="M375.65,246.13c-.49,0-.86.24-1.1.72-.25.48-.37,1.2-.37,2.17s.12,1.68.37,2.16.61.72,1.1.72.86-.24,1.11-.72.37-1.2.37-2.16-.12-1.69-.37-2.17-.61-.72-1.11-.72h0ZM375.65,245.38c.79,0,1.39.31,1.8.93.42.62.62,1.52.62,2.71s-.21,2.08-.62,2.7c-.42.62-1.02.93-1.8.93s-1.39-.31-1.8-.93c-.42-.62-.62-1.52-.62-2.7s.21-2.09.62-2.71c.42-.62,1.02-.93,1.8-.93h0Z"/>
      <path class="cls-9" d="M434.52,238.48v3.37"/>
      <path d="M428.51,248.64c-.43,0-.76.15-1.01.44s-.37.69-.37,1.2.12.9.37,1.2c.25.29.59.44,1.01.44s.76-.15,1.01-.44.37-.69.37-1.2-.12-.91-.37-1.2-.59-.44-1.01-.44ZM430.4,245.66v.86c-.24-.11-.48-.2-.72-.26s-.48-.09-.72-.09c-.63,0-1.11.21-1.44.63-.33.42-.52,1.06-.57,1.92.18-.27.42-.48.7-.63s.59-.22.92-.22c.71,0,1.26.21,1.67.64.41.43.61,1.01.61,1.74s-.21,1.3-.64,1.73-.99.65-1.7.65c-.81,0-1.43-.31-1.86-.93s-.64-1.52-.64-2.7c0-1.11.26-1.99.79-2.65.53-.66,1.23-.99,2.12-.99.24,0,.48.02.72.07s.5.12.76.21v.02Z"/>
      <path d="M434.52,246.13c-.49,0-.86.24-1.1.72-.25.48-.37,1.2-.37,2.17s.12,1.68.37,2.16.61.72,1.1.72.86-.24,1.11-.72.37-1.2.37-2.16-.12-1.69-.37-2.17-.61-.72-1.11-.72h0ZM434.52,245.38c.79,0,1.39.31,1.8.93.42.62.62,1.52.62,2.71s-.21,2.08-.62,2.7c-.42.62-1.02.93-1.8.93s-1.39-.31-1.8-.93c-.42-.62-.62-1.52-.62-2.7s.21-2.09.62-2.71c.42-.62,1.02-.93,1.8-.93h0Z"/>
      <path d="M440.65,246.13c-.49,0-.86.24-1.1.72-.25.48-.37,1.2-.37,2.17s.12,1.68.37,2.16.61.72,1.1.72.86-.24,1.11-.72.37-1.2.37-2.16-.12-1.69-.37-2.17-.61-.72-1.11-.72h0ZM440.65,245.38c.79,0,1.39.31,1.8.93.42.62.62,1.52.62,2.71s-.21,2.08-.62,2.7c-.42.62-1.02.93-1.8.93s-1.39-.31-1.8-.93c-.42-.62-.62-1.52-.62-2.7s.21-2.09.62-2.71c.42-.62,1.02-.93,1.8-.93h0Z"/>
      <path d="M210.12,258.66h5.94v.8h-2.49v6.21h-.95v-6.21h-2.49v-.8h0Z"/>
      <path d="M216.94,260.42h.87v5.26h-.87v-5.26ZM216.94,258.37h.87v1.1h-.87v-1.1Z"/>
      <path d="M223.72,261.42c.22-.39.48-.68.78-.86s.66-.28,1.06-.28c.55,0,.97.19,1.27.58.3.38.45.93.45,1.64v3.18h-.87v-3.15c0-.5-.09-.88-.27-1.12-.18-.24-.45-.37-.82-.37-.45,0-.8.15-1.06.45-.26.3-.39.7-.39,1.22v2.97h-.87v-3.15c0-.51-.09-.88-.27-1.12-.18-.24-.45-.36-.83-.36-.44,0-.79.15-1.05.45-.26.3-.39.7-.39,1.21v2.97h-.87v-5.26h.87v.82c.2-.32.43-.56.71-.71.28-.15.6-.23.98-.23s.71.1.98.29c.27.19.47.47.59.84h0Z"/>
      <path d="M233.5,262.83v.42h-3.98c.04.6.22,1.05.54,1.36.32.31.77.47,1.34.47.33,0,.65-.04.97-.12.31-.08.62-.2.93-.37v.82c-.31.13-.63.23-.96.3-.33.07-.66.1-.99.1-.84,0-1.51-.24-2-.73-.49-.49-.74-1.15-.74-1.98s.23-1.54.7-2.05c.47-.51,1.09-.76,1.88-.76.71,0,1.27.23,1.68.68.41.45.62,1.07.62,1.86h.01ZM232.64,262.57c0-.47-.14-.85-.4-1.13s-.6-.42-1.03-.42c-.48,0-.87.14-1.16.41-.29.27-.46.66-.5,1.15h3.09Z"/>
      <path d="M235.14,264.48h.99v.81l-.77,1.5h-.61l.39-1.5v-.81Z"/>
      <path d="M244.21,260.42l-.13.67h-1.73l-.56,2.86c-.02.11-.03.2-.04.27,0,.07,0,.13,0,.17,0,.2.06.35.18.44s.31.14.58.14h.87l-.15.72h-.83c-.51,0-.9-.1-1.15-.3-.25-.2-.38-.5-.38-.91,0-.07,0-.15,0-.24,0-.09.02-.18.04-.28l.56-2.86h-.73l.14-.67h.72l.29-1.49h.87l-.29,1.49h1.74Z"/>
      <path d="M247.8,258.37h1.99v.67h-1.13v7.23h1.13v.67h-1.99v-8.58h0Z"/>
      <path d="M255.74,261.42c.22-.39.48-.68.78-.86s.66-.28,1.06-.28c.55,0,.97.19,1.27.58.3.38.45.93.45,1.64v3.18h-.87v-3.15c0-.5-.09-.88-.27-1.12s-.45-.37-.82-.37c-.45,0-.8.15-1.06.45-.26.3-.39.7-.39,1.22v2.97h-.87v-3.15c0-.51-.09-.88-.27-1.12s-.45-.36-.83-.36c-.44,0-.79.15-1.05.45-.26.3-.39.7-.39,1.21v2.97h-.87v-5.26h.87v.82c.2-.32.43-.56.71-.71s.6-.23.98-.23.71.1.98.29c.27.19.47.47.59.84h0Z"/>
      <path d="M264.37,260.57v.82c-.24-.13-.5-.22-.76-.28s-.54-.09-.82-.09c-.43,0-.75.07-.97.2-.21.13-.32.33-.32.59,0,.2.08.36.23.47.15.11.46.22.93.33l.3.07c.61.13,1.05.32,1.31.56s.39.57.39,1c0,.49-.19.88-.58,1.16-.39.28-.92.43-1.6.43-.28,0-.58-.03-.88-.08-.31-.06-.63-.14-.97-.25v-.89c.32.17.63.29.94.37s.62.12.92.12c.41,0,.72-.07.94-.21.22-.14.33-.34.33-.59,0-.23-.08-.41-.24-.54s-.5-.25-1.04-.36l-.3-.07c-.54-.11-.92-.29-1.16-.52-.24-.23-.36-.55-.36-.96,0-.49.18-.88.53-1.15s.85-.4,1.5-.4c.32,0,.62.02.9.07.28.05.54.12.78.21h0Z"/>
      <path d="M268.06,258.37v8.58h-1.99v-.67h1.12v-7.23h-1.12v-.67h1.99Z"/>
      <path class="cls-9" d="M44.52,228.79h-3.37"/>
      <path d="M34.72,226.05c-.49,0-.86.24-1.1.72-.25.48-.37,1.2-.37,2.17s.12,1.68.37,2.16c.25.48.61.72,1.1.72s.86-.24,1.11-.72.37-1.2.37-2.16-.12-1.69-.37-2.17-.61-.72-1.11-.72ZM34.72,225.3c.79,0,1.39.31,1.8.93.42.62.62,1.52.62,2.71s-.21,2.08-.62,2.7c-.42.62-1.02.93-1.8.93s-1.39-.31-1.8-.93c-.42-.62-.62-1.52-.62-2.7s.21-2.09.62-2.71c.42-.62,1.02-.93,1.8-.93Z"/>
      <path class="cls-9" d="M44.52,182.31h-3.37"/>
      <path d="M32.69,178.95h3.73v.8h-2.86v1.72c.14-.05.27-.08.41-.11.14-.02.28-.03.42-.03.78,0,1.4.21,1.86.64s.69,1.01.69,1.74-.24,1.34-.71,1.76c-.47.42-1.13.63-1.99.63-.29,0-.6-.03-.9-.08-.3-.05-.62-.13-.95-.23v-.95c.28.15.57.27.87.34.3.08.62.11.95.11.54,0,.97-.14,1.29-.43.32-.28.48-.67.48-1.16s-.16-.87-.48-1.16c-.32-.29-.75-.43-1.29-.43-.25,0-.51.03-.76.08-.25.06-.51.14-.77.26v-3.52.02Z"/>
      <path class="cls-9" d="M44.52,135.84h-3.37"/>
      <path d="M26.72,138.69h1.55v-5.35l-1.69.34v-.86l1.68-.34h.95v6.21h1.55v.8h-4.04v-.8Z"/>
      <path d="M34.72,133.1c-.49,0-.86.24-1.1.72-.25.48-.37,1.2-.37,2.17s.12,1.68.37,2.16c.25.48.61.72,1.1.72s.86-.24,1.11-.72.37-1.2.37-2.16-.12-1.69-.37-2.17-.61-.72-1.11-.72ZM34.72,132.35c.79,0,1.39.31,1.8.93.42.62.62,1.52.62,2.71s-.21,2.08-.62,2.7c-.42.62-1.02.93-1.8.93s-1.39-.31-1.8-.93c-.42-.62-.62-1.52-.62-2.7s.21-2.09.62-2.71c.42-.62,1.02-.93,1.8-.93Z"/>
      <path class="cls-9" d="M44.52,89.36h-3.37"/>
      <path d="M26.72,92.22h1.55v-5.35l-1.69.34v-.86l1.68-.34h.95v6.21h1.55v.8h-4.04v-.8Z"/>
      <path d="M32.69,86h3.73v.8h-2.86v1.72c.14-.05.27-.08.41-.11.14-.02.28-.03.42-.03.78,0,1.4.21,1.86.64s.69,1.01.69,1.74-.24,1.34-.71,1.76c-.47.42-1.13.63-1.99.63-.29,0-.6-.03-.9-.08-.3-.05-.62-.13-.95-.23v-.95c.28.15.57.27.87.34.3.08.62.11.95.11.54,0,.97-.14,1.29-.43.32-.28.48-.67.48-1.16s-.16-.87-.48-1.16-.75-.43-1.29-.43c-.25,0-.51.03-.76.08-.25.06-.51.14-.77.26v-3.52.02Z"/>
      <path class="cls-9" d="M44.52,42.89h-3.37"/>
      <path d="M27.38,45.74h3.31v.8h-4.46v-.8c.36-.37.85-.87,1.47-1.5.62-.63,1.01-1.03,1.17-1.22.3-.34.52-.63.64-.87.12-.24.18-.47.18-.7,0-.37-.13-.68-.39-.91-.26-.24-.6-.35-1.02-.35-.3,0-.61.05-.94.15-.33.1-.68.26-1.06.47v-.96c.38-.15.74-.27,1.07-.35.33-.08.64-.12.91-.12.73,0,1.31.18,1.74.55.43.36.65.85.65,1.45,0,.29-.05.56-.16.82s-.3.56-.59.91c-.08.09-.33.35-.75.79-.42.43-1.01,1.04-1.78,1.82v.02Z"/>
      <path d="M34.72,40.15c-.49,0-.86.24-1.1.72-.25.48-.37,1.2-.37,2.17s.12,1.68.37,2.16.61.72,1.1.72.86-.24,1.11-.72.37-1.2.37-2.16-.12-1.69-.37-2.17-.61-.72-1.11-.72ZM34.72,39.4c.79,0,1.39.31,1.8.93.42.62.62,1.52.62,2.71s-.21,2.08-.62,2.7c-.42.62-1.02.93-1.8.93s-1.39-.31-1.8-.93c-.42-.62-.62-1.52-.62-2.7s.21-2.09.62-2.71c.42-.62,1.02-.93,1.8-.93Z"/>
      <path d="M19.65,179.1l-7.02,2.68v-.99l5.91-2.22-5.91-2.23v-.99l7.02,2.67v1.08h0Z"/>
      <path d="M16.8,169.86h.42v3.97c.6-.04,1.05-.22,1.36-.54.31-.32.47-.77.47-1.34,0-.33-.04-.65-.12-.96-.08-.31-.2-.62-.37-.93h.82c.13.31.23.63.3.95.07.33.1.66.1.99,0,.84-.24,1.5-.73,1.99s-1.15.73-1.99.73-1.55-.23-2.05-.7c-.51-.46-.76-1.09-.76-1.88,0-.71.23-1.27.68-1.68.46-.41,1.07-.62,1.86-.62v.02ZM16.55,170.73c-.47,0-.85.14-1.13.4-.28.26-.42.6-.42,1.03,0,.48.14.87.41,1.16.27.29.66.46,1.15.5v-3.08h-.01Z"/>
      <path d="M12.34,168.45v-.86h7.32v.86h-7.32Z"/>
      <path d="M14.99,163.74c0,.46.18.83.54,1.1s.86.4,1.49.4,1.13-.13,1.49-.4c.36-.27.54-.64.54-1.1s-.18-.83-.54-1.09c-.36-.27-.86-.4-1.49-.4s-1.12.13-1.48.4c-.37.27-.55.63-.55,1.09ZM14.26,163.74c0-.75.24-1.34.73-1.77.49-.43,1.17-.64,2.03-.64s1.54.21,2.03.64.74,1.02.74,1.77-.25,1.35-.74,1.77c-.49.43-1.17.64-2.03.64s-1.54-.21-2.03-.64-.73-1.02-.73-1.77Z"/>
      <path d="M14.59,156.1h.81c-.14.24-.24.49-.3.73-.07.25-.1.49-.1.74,0,.56.18,1,.53,1.31.36.31.85.46,1.5.46s1.14-.15,1.5-.46c.36-.31.53-.75.53-1.31,0-.25-.03-.5-.1-.74-.07-.25-.17-.49-.3-.73h.8c.11.24.2.49.25.75.06.26.09.53.09.82,0,.79-.25,1.42-.75,1.89s-1.17.7-2.02.7-1.53-.24-2.03-.71c-.49-.47-.74-1.12-.74-1.94,0-.27.03-.52.08-.78.05-.25.14-.5.25-.74h0Z"/>
      <path d="M14.39,154.6v-.86h5.27v.86h-5.27ZM12.34,154.6v-.86h1.1v.86s-1.1,0-1.1,0Z"/>
      <path d="M12.89,151.07h1.5v-1.78h.67v1.78h2.86c.43,0,.71-.06.83-.18s.18-.36.18-.72v-.89h.72v.89c0,.67-.12,1.13-.37,1.38s-.7.38-1.36.38h-2.86v.63h-.67v-.63h-1.5v-.87h0Z"/>
      <path d="M20.14,145.97c.63.24,1.04.48,1.23.71.19.23.29.54.29.93v.69h-.72v-.51c0-.24-.06-.42-.17-.55s-.38-.28-.8-.44l-.39-.15-5.18,2.13v-.92l4.12-1.64-4.12-1.64v-.92l5.76,2.31h-.02Z"/>
      <path d="M16.32,142.62v-.66h4.36v-2.39h.56v3.05h-4.92Z"/>
      <path d="M19.24,135.75h.3v2.78c.42-.03.73-.15.95-.38.22-.22.33-.54.33-.94,0-.23-.03-.46-.09-.68-.06-.22-.14-.43-.26-.65h.57c.09.22.16.44.21.67s.07.46.07.69c0,.59-.17,1.05-.51,1.4-.34.34-.81.51-1.39.51s-1.08-.16-1.44-.49c-.35-.33-.53-.76-.53-1.32,0-.5.16-.89.48-1.18s.75-.43,1.3-.43v.02ZM19.06,136.35c-.33,0-.59.1-.79.28s-.3.42-.3.72c0,.34.1.61.29.81s.46.32.81.35v-2.16h-.01Z"/>
      <path d="M16.11,132.89h.5v.58c0,.22.04.37.13.45.09.08.25.13.47.13h.33v-1h.47v1h3.22v.61h-3.22v.58h-.47v-.58h-.26c-.41,0-.71-.1-.9-.29-.19-.19-.28-.49-.28-.91v-.57h.01Z"/>
      <path d="M16.5,131.78h1.05v-1.25h.47v1.25h2c.3,0,.49-.04.58-.12s.13-.25.13-.5v-.62h.51v.62c0,.47-.09.79-.26.97-.17.18-.49.27-.95.27h-2v.44h-.47v-.44h-1.05v-.61h0Z"/>
      <path d="M18.46,128.99v-.99h.81l1.5.77v.61l-1.5-.38h-.81Z"/>
      <path d="M18.82,117.02h.84v2.82h-.84c-.3-.55-.72-.99-1.24-1.3-.52-.31-1.1-.47-1.73-.47-.75,0-1.36.21-1.81.62-.45.41-.68.96-.68,1.63s.23,1.22.68,1.64c.46.41,1.06.62,1.81.62.63,0,1.21-.15,1.73-.46.52-.31.93-.75,1.24-1.31h.84v2.82h-.84v-1.5c-.44.49-.89.86-1.35,1.09-.47.23-.99.34-1.57.34-1,0-1.8-.3-2.42-.9-.62-.6-.93-1.37-.93-2.33s.31-1.73.93-2.33c.61-.6,1.41-.9,2.37-.9.61,0,1.14.11,1.61.33.46.22.92.59,1.36,1.09v-1.5h0Z"/>
      <path d="M12.34,112.77v-1.99h.67v1.13h7.24v-1.13h.67v1.99h-8.59.01Z"/>
      <path d="M15.19,105.89c-.06.1-.1.2-.12.32-.03.11-.04.24-.04.38,0,.49.16.86.48,1.13.32.26.77.39,1.37.39h2.77v.87h-5.27v-.87h.82c-.32-.18-.56-.42-.71-.71-.16-.29-.23-.65-.23-1.06,0-.06,0-.12.01-.2,0-.07.02-.15.03-.24h.89Z"/>
      <path d="M17.01,102.59c0,.7.08,1.18.24,1.45s.43.4.82.4c.31,0,.55-.1.73-.3.18-.2.27-.48.27-.82,0-.48-.17-.86-.51-1.15s-.79-.43-1.36-.43h-.19v.86h0ZM16.65,100.86h3v.86h-.8c.32.2.55.44.71.74.15.29.23.65.23,1.08,0,.54-.15.97-.45,1.28-.3.32-.71.48-1.22.48-.59,0-1.04-.2-1.34-.59-.3-.4-.45-.99-.45-1.77v-1.21h-.09c-.4,0-.71.13-.92.39-.22.26-.33.63-.33,1.1,0,.3.04.59.11.88.07.28.18.56.32.82h-.8c-.12-.32-.21-.62-.27-.92-.06-.3-.09-.59-.09-.87,0-.76.2-1.33.59-1.71s.99-.56,1.8-.56Z"/>
      <path d="M15.19,95.62h-2.85v-.86h7.32v.86h-.79c.31.18.55.41.7.69.15.28.23.61.23,1,0,.64-.25,1.15-.76,1.55s-1.18.6-2,.6-1.5-.2-2-.6c-.51-.4-.76-.92-.76-1.55,0-.39.08-.72.23-1s.38-.51.7-.69h-.02ZM17.02,98.57c.64,0,1.13-.13,1.5-.39.36-.26.54-.62.54-1.08s-.18-.82-.54-1.08-.86-.4-1.5-.4-1.13.13-1.5.4c-.36.26-.54.62-.54,1.08s.18.82.54,1.08.86.39,1.5.39Z"/>
      <path d="M12.63,91.44v-.8l7.91,2.44v.8l-7.91-2.44Z"/>
      <path d="M14.54,86.39h.82c-.13.24-.22.5-.28.76-.06.26-.09.54-.09.82,0,.43.07.75.2.96.13.21.33.32.59.32.2,0,.36-.08.47-.23.11-.15.22-.46.33-.93l.07-.3c.13-.61.32-1.05.56-1.31.24-.26.57-.39,1-.39.49,0,.88.19,1.16.58s.43.92.43,1.59c0,.28-.03.58-.08.88-.06.31-.14.63-.25.96h-.89c.17-.32.29-.63.37-.94.08-.31.12-.62.12-.92,0-.41-.07-.72-.21-.94s-.34-.33-.59-.33c-.23,0-.41.08-.54.24-.13.16-.25.5-.36,1.04l-.07.3c-.11.54-.29.92-.52,1.16-.23.24-.55.36-.96.36-.5,0-.88-.18-1.15-.53s-.4-.85-.4-1.49c0-.32.02-.62.07-.9s.12-.54.21-.78v.02Z"/>
      <path d="M12.34,82.71h8.59v1.99h-.67v-1.12h-7.24v1.12h-.67v-1.99h0Z"/>
      <g class="cls-22">
        <path class="cls-4" d="M47.77,228.79h543.71"/>
      </g>
      <g class="cls-26">
        <path class="cls-8" d="M47.77,228.79h5.2l10.4-5.06,15.6-7.66,5.2.18,5.2-.45h0l5.2-.06,5.2,3,5.2-2.48h0l5.2.17,5.2,2.16,5.2-.08h0l5.2.31,5.2-.35,5.2.15h0l5.2.03,5.2-2.57,5.2.29h0l5.2,2.15,5.2-2.27,10.4-.1,5.2-.05,5.2,2.44h0l10.4-4.81,10.4,4.87,5.2-2.63,10.4.2,5.2-.44,10.4.78,10.4-.66h0l5.2.45,5.2-2.71,5.2,2.03h0l5.2.83h5.2l5.2-.71h0l5.2.34h5.2l5.2-.22h0l5.85.61,4.55-2.71,5.2,1.94h0l5.2.62,5.2.17,5.2-.6h0l5.2-2.57,5.2,2.89,5.2,2.49h0l10.4-5.19,5.2,2.34h0l5.85.54,4.55-2.58,5.2,2.17h0l5.2.14,5.2-.1,5.2-.21h0l5.85-1.94,4.55,2.4,5.2-.11h0l5.85-2.15,4.55,2.01,5.2-.13h0l5.2.26h5.2l5.2-2.74h0l5.85.56,4.55,2.18,5.2-.39h0l5.2-2.01,5.2-.15,5.2,2.34h0l5.85.65,4.55-2.89,5.2,1.92h0l5.2.59,10.4-.25h0l5.85.41,5.2-2.54,5.2-.3h0l5.2.1,9.75,4.72h0l5.2-1.96,5.2-2.63,5.2,2.29h0l5.85.21,4.55-2.86,5.2,2.35h0l5.85,1.07,4.55-.44,5.2-.65h0l5.85-1.73,4.55,2.15,5.2-.32h0l2.91-1.13h0"/>
      </g>
      <g class="cls-25">
        <path class="cls-7" d="M45.17,228.79l5.2-2.61h0l5.2-5.06,5.2-2.46,5.2-5.05h0l5.2-5.24,5.2.03,5.2,2.38h0l5.2.04,5.2-2.05,10.4-.06,5.2-2.97,5.2-4.9h0l5.2-1.8,5.2-1.26h5.2l5.2-.82,5.2-1.07,5.2-.34h0l5.2.96,5.2-1.23,5.2-.59h0l5.2,1.35,5.2-1.71,5.2,1.16h0l5.2.15,5.2-2.06,5.2-.08h0l10.4-.39,5.2-.11h0l5.2.65h5.2l5.2,1h0l5.2-1.28h5.2l5.2,2.89h0l5.2-5.01,5.2,1.09,5.2,3.45h0l5.85-3.62,4.55-1.99,5.2,2.27h5.85l4.55,1.22,5.2,1.04h0l5.2-4.35h5.2l5.2.77h0l5.85,1.24,4.55-.15,5.2.33h0l5.2-.89,5.2-1.5,5.2,2.1h0l5.2-.93,5.2.59,5.2.99h0l5.2-2.59,5.2-.21,5.2,1.07h0l5.85.87,4.55,1.23,5.2-3.18h0l5.85,1.28,4.55,1.23,5.2-3.4h0l5.85.49,4.55,3.59,5.2-.52h0l5.2-3.57,5.2,1.8,5.2-.36h0l5.2.03,10.4-.56h0l5.2,1.06h5.2l5.2,1.81h0l5.85-1.04,4.55-1.33,5.2,1.44h0l5.2-.73,5.2-.34,5.2,1.91h0l5.2-2.05,5.85-1.93,5.2,2.1h0l5.2,2.62,4.55-1.56,5.2-.4h0l10.4-.08,5.2-.82h0l5.2.24,5.2,2.55,5.2-1.11h0l5.85-.74,4.55-.39,5.2-1.99h0l5.85,1.81,4.55,1.86,5.2-.45h0l5.85-1.01,4.55-.2h0"/>
      </g>
      <g class="cls-17">
        <path class="cls-10" d="M45.82,228.79l4.55-2.82,5.2-7.49h0l5.2-9.14,5.2-8.8,5.2-3.36h0l5.2-2.7,5.2-3.19,5.2,3.99h0l5.2-1.47,5.2-2.68,5.2,2.54h0l5.2-3.23,5.2-2.4,5.2-.38h0l5.85-3.59,4.55-2.63,5.2.05h0l5.2-.75,5.2-.47,5.2-2.83h0l5.2-.73,5.2,1.54,5.2-2.53h0l5.85-1.04,4.55,3.1,5.2-.06h0l5.2-4.21,5.2.71,5.2,1.24h0l5.2-.81,5.2.71,5.2-1.16h0l5.2-.44,5.2,2.06,5.2-.5h0l5.85-2.85,4.55-.4,5.2,2.22h0l5.85,1.03,4.55-2.25,5.2.48h0l5.85.68,4.55-2.6,5.2,2.36h0l5.85-.52,4.55.02,5.2,1.18h0l5.85-2.74,4.55,2.86,5.2-.66h0l5.85-1.15,4.55,2.09,5.2-2.72h0l5.2-.75,5.2,2.84,5.2-.91h0l5.85-1.28,4.55.56,5.2-.92h0l5.85,1.99,4.55.64,5.2-3.87h0l5.85,1.7,4.55,1.98h11.05l4.55-3.77,5.2.11h0l5.85,1.51,4.55,2.28,5.2.09h0l5.85-3.64,5.2.02,4.55,4.03h0l5.2-2.31,5.2-2.55,5.2,2.94h0l5.2.62,5.2-.54,5.2-3.46h0l5.2.65,5.2,3.47,5.2-3.12h0l5.85.14,4.55,2.24,5.2-3.14h0l5.85,1.52,4.55.48,5.2-1.12h0l5.85-.48,4.55-2.07,5.2,3.19,5.85.35,5.2-3.06,4.55-1.09h0l5.85.83,4.55,4.13,5.2-.74h0l5.85-2.9,4.55,2.22,5.85-.75h0l5.2-3.21,4.55,3.19,5.2,1.1h0l5.51-2.51h0"/>
      </g>
      <g class="cls-23">
        <path class="cls-13" d="M45.17,228.79l5.2-2.61,5.2-8.04h0l5.2-14.15,5.2-12.19,5.2-3.69h0l5.2-2.61,5.2-.73,5.2-2.17h0l5.2-3.82,5.2-.24,5.2-2.43h0l5.2-.89,5.2.13,5.2-3.63h0l5.2-2.75,5.2-2.1,5.2-3.74,5.2-2.65,5.2-3.31,5.2,2.34h0l5.2.21,5.2-4.14,5.2-.1h0l10.4-.87,5.2-.08h0l5.2-1.11,5.2.02,5.2-.95h0l5.2-.16h5.2l5.2-1.57h0l5.2.56,10.4-1.49h0l5.85,3,4.55-1.82,5.2-2.71h0l10.4,4.73,5.2-.46h0l5.85-3.23,4.55.02,5.2,1.19h0l5.2.16h5.2l5.2-1.81h0l5.85.67,4.55,1.8,5.2-1.05h0l5.85-1.7,4.55,1.17,5.2-.46h0l5.2-.05,5.2,1.83,5.2-.36h0l5.2-.68,5.2-.12,5.2-1.33h0l5.85.3,4.55.03,5.2.58h0l5.2.75,5.2-3.33,5.2,1.48h0l5.85,1.04,4.55-1.58,5.2-.92h0l5.85.56,4.55,2.14,5.2-.94h0l5.85-.51,4.55.03,5.2-1.48h0l5.2.35,5.2,2.59,5.2-1.94h0l5.2-1.65,5.2,1.72,5.2,1.29h0l5.85-1.17,4.55-1.54,5.2,1.31h0l5.2.45,5.2-.46,5.2-.86h0l10.4-.51,5.2.83h0l5.85,1.05,4.55-.28,5.2-2.32h0l5.2,1.37,5.2-.8,5.2-1.45h0l5.85,3.61,4.55-1.59,5.2-.97h0l5.2.77,5.2-.45,5.2,1.46h0l5.85-.07,4.55-.26,5.2.66h0l5.51.9h0"/>
      </g>
      <g class="cls-15">
        <path class="cls-12" d="M45.82,228.79l4.55-5.65,5.2-9.99h0l5.2-12.28,5.2-10.24,10.4-10.23,5.2-4.15,5.2-4.63h0l5.2-2.84,5.2-2.54,5.2-2.42h0l5.2-1.61,5.2-4.86,5.2-.56h0l5.2-2.8,5.2-2.44,5.2,1.07h0l5.2-4.76,5.2-3.44,5.2-.57h0l5.2.62,5.2-1.63,5.2-3.14h0l5.2-2.49,5.2.14,10.4-1.59,5.2.02,5.2-1.06h0l5.85-1.95,4.55-.68,5.2.47h0l5.85,1.14,4.55-.98,5.2-1.58h0l10.4-2.08,5.2,1.19h0l5.2.41,5.2-.56,5.2-2.82h0l5.2,2.15,5.2-1.01,5.2-2.99h0l5.85,1.04,4.55.63,5.2-1.31h0l5.2-.89,5.2,3.06,5.2-2.63h0l5.2-1.83,5.2,3.08,5.2-.63h0l5.85.74,4.55-.59,5.2-1.61h0l10.4-.04,5.2-.59h0l5.2.23,5.2,1.46,5.2-1.59h0l5.85-.53,4.55.42,5.2-1.37h0l5.2,2.1,5.2.54,5.2-3.39,5.2,2.56,5.2,1.98,5.2-3.45h0l5.85,1.1,4.55,1.49,5.2-.33,10.4.12,5.2,1.21h0l5.85-.35,4.55,1.65,5.2-1.56h0l5.85-.47,4.55,2.07,5.2-1.04h0l5.85-.27,4.55,1.08,5.2.42h0l5.2-1.33,5.2.03,5.2.44h0l5.2.64,5.2-2.52,5.85.49h0l5.2,3.9,4.55-1.98,11.05,1.63,4.55-4.55,5.2.28h0l5.85,4.06,4.55-1.64,5.2-1.27h0l5.85,1.57,4.55-.98,5.2.24h0l5.51,2.53h0"/>
      </g>
      <g class="cls-16">
        <path class="cls-11" d="M47.77,228.79l5.2-5.47,5.2-12.49,5.2-17.33h0l5.2-12.99,5.2-5.32,5.2-9.76h0l5.2-4.13,5.2-2.28,5.2-5.16h0l5.2-2.97,5.2-2.73,5.2-3.36h0l5.2-1.97,5.2-1.37,5.2-5.48h0l5.2-1.69,5.2.75,5.2-2.52h0l5.85-2.42,4.55,1.16,5.2-2.58h0l5.2-.78,5.2.04,5.2-3.78h0l5.2-.23,5.2-2.52,5.2-.99h0l5.85-.76,4.55-2.25,5.2-2.44h0l10.4-1.39,5.2-.35h0l5.2,2.06,5.2-.61,5.2-3.06h0l5.2-1.59,5.2,1.59,5.2,1.01h0l10.4-5.12,5.2-.21h0l5.85,2.26,4.55-1.22,5.2-.2h0l5.2.08,5.2-.66,5.2,2.69h0l5.85-3.65,4.55-.7,5.2,2.65h0l5.2.24,5.2.02,5.2-2.66h0l5.2.18,5.2.77,5.2-1.36h0l5.85.25,4.55-1.18,5.2-.85h0l5.85,2.66,4.55.23,5.2-2.5h0l5.85,3.32,4.55-.7,5.2-2.53h0l5.2.58,5.2.04,5.2,2.91h0l5.85-.33,4.55-4.42,5.2,1.71h0l5.85,2.35,4.55-3.04,11.05,1.35,4.55-1.45,5.85,2.96h0l5.2-.56,4.55.27,5.2,1.28,5.85-1.74,4.55.94,5.2.08h0l5.85-1.04,4.55.94,5.2-.99h0l5.85-.26,4.55,2.24,5.2-1.23h0l5.2.65,5.85-.55,5.2-1.37h0l5.2.52,4.55.2,5.2,1h0l11.05.19,5.2-.14,5.2-1.52,4.55-1.72,5.2,2.87h0l5.85,1.05,4.55-2.91,2.91.08h0"/>
      </g>
      <g class="cls-24">
        <path class="cls-14" d="M45.82,228.79l4.55-5.23h0l5.2-15.17,5.2-19.29,5.2-12.63,5.2-9.22,5.2-10,5.2-5.9h0l5.2-2.34,5.2-5.27,5.2-7.83,5.2-2.51,5.2-1.69,5.2-4.66h0l5.2-7.31,5.2-1.71,5.2,2.5h0l5.85-4.36,4.55-3.91,5.2,1.3h0l10.4-2.87,5.2-2.36h0l5.2-3.13,5.2,1.39,5.2-.82h0l5.2-.32,5.2.22,5.2-2.06h0l10.4,2.16,5.2-4.74h0l10.4-.02,5.2-3.44h0l5.2-.71,5.2-2.58,5.2-.33h0l5.2.36,10.4-2.65h0l10.4.7,5.2-.63h0l15.6-2.19h0l5.2.81,5.2.07,5.2-2.29h0l5.2.06,5.2.26,5.2,1.51h0l5.2.8,5.2-1.36,5.2,1.13h0l5.85-1.54,4.55-2.71,5.2,3.91h0l10.4-.67,5.2,1.31h0l5.85-1.75,4.55.27,5.2.17h0l5.2.43,5.2.04,5.2-1.37h0l5.85,1.04,4.55,1.49,5.2.52h0l5.2-1.41h5.85l4.55,1.33h0l5.2-2.37,5.2,1.79,5.2,1.25h0l5.2-3.92,5.2.03,5.2,2.36h0l5.2-1.85,5.2.04,5.2.9h0l5.85-.87,4.55,1.2,5.2.23h0l5.85-.83,4.55-.04,5.2,1.01h0l5.85-.06,4.55-.48,5.2-1.36h0l5.2,1.07,5.2.07,5.2-.35h0l5.85.98,5.2-2.49,4.55.88h0l5.2,1.94,5.2-1.63,5.2-.05h0l5.85,2.02,4.55-2.69,5.2-1.83h0l5.85,3.1,4.86,1.67h0"/>
      </g>
      <g class="cls-18">
        <path class="cls-3" d="M45.17,228.79l5.2-5.23h0l5.2-17.7,5.2-20.13,5.2-15.15h0l5.2-10.74,5.2-7.47,5.2-8.84h0l5.2-6.64,5.2-3.25,5.2-6.06h0l5.2-6.72,10.4-9.09h0l5.2-6.89,5.2-5.04,5.2.02h0l5.2-.87,5.2-4.59,5.2-1.33h0l5.2,1.65,5.2-4.76,5.2-2.64h0l5.2,2.74,5.2.92,5.2-.68h0l5.2-4.29,5.2-2.91,5.2,2.11h0l5.2-.78,5.2,1.69,5.2,2.21h0l5.2-2.14,5.2-2.59,5.2.85h0l5.2-.21,5.2.05,5.2,1.79h0l5.2.79,5.2-1.31,5.2-1.61h0l5.85,3.23,4.55-2.77,5.2-.61h0l5.85,2.1,4.55-3.27,5.2-.66h0l5.2.72,5.2-2.56,5.2-2.09h0l5.85.23,4.55-.1,5.2,1.46h0l5.2-3.92,5.2-1.44,5.2.92h0l5.2-3.86,5.2,2.19,5.2,1.49h0l5.85-2.35,4.55-.9,5.2,1.07h0l5.2,1.26,5.2.05,5.2-2.65h0l5.85.7,4.55-.45,5.2-1.47h5.85l5.2-1.54,4.55,2.32h0l5.2-.87,5.2-2.56,5.2,1.13h0l5.2,2.67,5.2-.91,5.2-1.46h0l5.2,1.67,5.2.03,5.2-.5h0l5.85,1.15,4.55-.38,5.2.63h0l5.2-.2,5.2-1.5,5.2,2.46h0l5.2-.57,5.85-.06,4.55,3.34h0l5.85-1.97,5.2-3.45,5.2,3.24h0l5.2,1.97,4.55-2.85,5.2,1.74h0l5.2-1.02,5.2.04,5.2.25h0l5.85-.18,4.55,3.75,5.2-3.07h0l5.85-2.57,4.55,2.23,5.2.44h0l5.2-1.42,5.2-.85h0"/>
      </g>
      <g class="cls-19">
        <path class="cls-1" d="M45.82,228.79l4.55-2.82,5.2-17.48h0l5.2-22.78,5.2-15.4,5.2-12.72h0l5.2-10.28,5.2-8.58,5.2-4.36,5.2-5.59,5.2-9.44,5.2-7.34h0l10.4-8.09,5.2-5.98h0l5.2-3.72,5.2-2.09,5.2-.34h0l5.2-2.44,5.2-3.63,5.2-.99h0l5.2-2.2,5.2-2.75,5.2-2.89h0l5.2,1.63,5.2-.52,5.2-5.47h0l5.2.42,5.2.08,5.2-2.17h0l5.2.03,5.2.4,5.2-.8h0l5.85-1.68,4.55,1.04,5.2.54h0l5.2-1.28,5.2.03,5.2-1.14h0l5.2-.2,5.2-.92,5.2-.65h0l5.2.95,5.2-3.06,5.2.74h0l5.2,2.62,5.2-3.03,5.2-.72h0l5.2,1.75,5.2-4.2,5.2.61h0l5.2,1.26,5.2-3.01,5.2-1.02h0l5.85.4,4.55,1.64,5.2-1.8h0l5.2,1.4,5.2.04,5.2-5.33h0l5.2,1.14,5.2,2.65,5.2-1.72h0l5.85-2.54h4.55l5.2,2.56h0l5.2-.04,5.2-3.17,5.2,1.16h0l5.2.07,5.2-3.57,5.2,1.02h0l5.2,1.96,5.2-2.49,5.2-.66h0l5.85-.61,4.55-.98,5.2,2.62,5.85-.97,4.55-.18,5.2,2.14h0l5.85-1.95,4.55-1.74,5.2.66h0l5.85.03,4.55,3.27,5.2-.43h0l5.2-1.89,5.2,2.61,5.2,1.47h0l5.2-1.43,5.2-2.5,5.85.86h0l5.2,2.39,4.55-.09,16.25-2.05,5.2,1.86h0l5.2-.68,4.55.77,5.2.25h0l5.85-1.59,4.55,1.65,5.2-1.39h0l5.51.7h0"/>
      </g>
      <g class="cls-21">
        <path class="cls-4" d="M45.17,228.79l5.2-5.21,5.2-18.76h0l5.2-23.51,5.2-16.65,5.2-12.17h0l5.2-12.82,5.2-9.4,5.2-4.29h0l5.2-7.2,5.2-8.09,10.4-9.56,5.2-4.67,5.2-4.12h0l5.2-8.12,5.2-4.92,5.2-.27h0l5.2-4.55,5.2-3.76,5.2-4.24h0l5.2-2.01,5.2.11,5.2-.23h0l5.2,2.06,5.2-1.4,5.2-5.06h0l5.2-1.92,5.2.03,5.2-2.11h0l5.2-.36,5.2.03,5.2-1.12h0l5.2-.74,5.2-1.74,5.2-1.6h0l5.85,1.95,4.55-.81,5.2-1.69h0l5.85.42,4.55,1.64,5.2.7h0l5.85-2.72,4.55.03,5.2,1.4h0l5.2-1.41,5.2-2.55,5.2,3.44h0l5.85-.04,4.55-1.69,5.2,1.79h0l5.85-.21,9.75-1.82h0l5.2.84,5.2.44,5.2-.04h0l5.2-.87,5.2-1.09,5.2-.4h0l5.85-.91,4.55-2.54,5.2.45h0l5.2,1.69,5.2-1.77,5.2.02h0l5.85.52,4.55-.94,5.2-.28h0l5.85.16,4.55,1.56,10.4-.75,5.2.07,5.2-.85h0l5.85-.38,4.55,1.4,5.2-.06h0l10.4,1.48,5.2-2.92h0l5.85-1.49,4.55-1.01,5.2,1.73h0l5.2-.61,10.4-.49h0l5.85-2.36,4.55,1.24,5.85.16h0l5.2-2.47,4.55-.49,5.2-1.61h0l5.2,1.55,5.2.68,5.2-.87h0l5.85.13,4.55-1.02,5.2.13h0l5.2-.12,5.2-1.05,5.2,2.63h0l5.85.74,4.55-4.18,5.2.64h0l5.51,3.13h0"/>
      </g>
      <path class="cls-5" d="M44.52,238.48V25.19"/>
      <path class="cls-2" d="M434.52,238.48V25.19"/>
      <path class="cls-5" d="M44.52,238.48h390"/>
      <path class="cls-5" d="M44.52,25.19h390"/>
      <path d="M102.89,11.27v1.78c-.46-.21-.91-.36-1.35-.47s-.85-.16-1.25-.16c-.52,0-.9.07-1.15.21s-.37.36-.37.66c0,.23.08.4.25.53.17.13.47.23.91.32l.92.19c.94.19,1.6.47,2,.86.4.38.59.93.59,1.63,0,.93-.28,1.62-.83,2.07-.55.45-1.39.68-2.53.68-.53,0-1.07-.05-1.61-.15s-1.08-.25-1.61-.45v-1.83c.54.28,1.06.5,1.56.65.5.14.99.22,1.45.22s.84-.08,1.09-.24.38-.38.38-.68c0-.26-.09-.46-.26-.61s-.51-.27-1.02-.38l-.84-.19c-.84-.18-1.46-.47-1.85-.86-.39-.39-.58-.93-.58-1.59,0-.84.27-1.48.81-1.93s1.32-.68,2.34-.68c.46,0,.94.03,1.43.1s.99.17,1.52.31h0Z"/>
      <path d="M107.46,11.31v1.79h2.08v1.44h-2.08v2.68c0,.29.06.49.18.6.12.1.35.16.7.16h1.04v1.44h-1.73c-.8,0-1.36-.17-1.7-.5-.33-.33-.5-.9-.5-1.7v-2.68h-1.01v-1.44h1.01v-1.79h2.02,0Z"/>
      <path d="M117.09,16.25v.57h-4.72c.05.47.22.83.51,1.07s.7.36,1.23.36c.42,0,.86-.06,1.31-.19.45-.13.91-.32,1.38-.57v1.55c-.48.18-.96.32-1.43.41-.48.09-.96.14-1.43.14-1.14,0-2.03-.29-2.67-.87-.63-.58-.95-1.4-.95-2.44s.31-1.84.93-2.43,1.48-.89,2.57-.89c.99,0,1.79.3,2.38.9.6.6.89,1.39.89,2.39ZM115.01,15.58c0-.38-.11-.69-.34-.93-.22-.24-.52-.35-.88-.35-.39,0-.71.11-.95.33s-.4.54-.46.95h2.63Z"/>
      <path d="M120.64,18.51v3.31h-2.02v-8.71h2.02v.92c.28-.37.59-.64.93-.81.34-.17.73-.26,1.17-.26.78,0,1.42.31,1.92.93s.75,1.41.75,2.39-.25,1.77-.75,2.39c-.5.62-1.14.93-1.92.93-.44,0-.83-.09-1.17-.26-.34-.18-.65-.45-.93-.82h0ZM121.98,14.42c-.43,0-.76.16-1,.48-.23.32-.35.77-.35,1.37s.12,1.05.35,1.37c.23.32.56.48,1,.48s.76-.16.99-.47c.23-.32.34-.77.34-1.38s-.11-1.06-.34-1.37c-.23-.32-.56-.47-.99-.47h0Z"/>
      <path d="M134.09,14.74c.45,0,.78-.08.98-.25s.3-.45.3-.83-.1-.66-.3-.82c-.2-.17-.52-.25-.98-.25h-.91v2.16h.91ZM133.18,16.23v3.18h-2.17v-8.41h3.32c1.11,0,1.92.19,2.44.56.52.37.78.96.78,1.76,0,.56-.13,1.01-.4,1.37-.27.36-.67.62-1.22.79.3.07.56.22.8.46s.47.6.71,1.08l1.18,2.39h-2.31l-1.03-2.09c-.21-.42-.42-.71-.63-.86-.21-.16-.49-.23-.85-.23h-.62Z"/>
      <path d="M146.12,16.25v.57h-4.72c.05.47.22.83.51,1.07s.7.36,1.23.36c.42,0,.86-.06,1.31-.19.45-.13.91-.32,1.38-.57v1.55c-.48.18-.96.32-1.43.41-.48.09-.96.14-1.43.14-1.14,0-2.03-.29-2.67-.87-.63-.58-.95-1.4-.95-2.44s.31-1.84.93-2.43,1.48-.89,2.57-.89c.99,0,1.79.3,2.38.9.6.6.89,1.39.89,2.39h0ZM144.04,15.58c0-.38-.11-.69-.34-.93-.22-.24-.52-.35-.88-.35-.39,0-.71.11-.95.33-.24.22-.4.54-.46.95h2.63Z"/>
      <path d="M152.59,13.3v1.53c-.43-.18-.85-.32-1.25-.41s-.78-.14-1.14-.14c-.38,0-.67.05-.86.14-.19.1-.28.24-.28.44,0,.16.07.29.21.37.14.09.39.15.76.19l.36.05c1.04.13,1.73.35,2.09.65s.54.77.54,1.42-.25,1.18-.75,1.52-1.24.51-2.22.51c-.42,0-.85-.03-1.3-.1s-.9-.16-1.37-.3v-1.53c.4.19.82.34,1.24.44s.85.15,1.29.15c.4,0,.69-.05.89-.16s.3-.27.3-.49c0-.18-.07-.31-.21-.4s-.41-.16-.82-.21l-.36-.05c-.9-.11-1.53-.32-1.89-.63-.36-.3-.54-.77-.54-1.39,0-.67.23-1.16.69-1.49.46-.32,1.16-.49,2.11-.49.37,0,.76.03,1.17.08.41.06.86.14,1.34.26v.04Z"/>
      <path d="M156.55,18.51v3.31h-2.02v-8.71h2.02v.92c.28-.37.59-.64.93-.81s.73-.26,1.17-.26c.78,0,1.42.31,1.92.93s.75,1.41.75,2.39-.25,1.77-.75,2.39c-.5.62-1.14.93-1.92.93-.44,0-.83-.09-1.17-.26-.34-.18-.65-.45-.93-.82h0ZM157.89,14.42c-.43,0-.76.16-1,.48-.23.32-.35.77-.35,1.37s.12,1.05.35,1.37c.23.32.56.48,1,.48s.76-.16.99-.47c.23-.32.34-.77.34-1.38s-.11-1.06-.34-1.37c-.23-.32-.56-.47-.99-.47h0Z"/>
      <path d="M165.81,14.4c-.45,0-.79.16-1.02.48-.23.32-.35.78-.35,1.39s.12,1.07.35,1.39c.23.32.58.48,1.02.48s.78-.16,1.01-.48.35-.79.35-1.39-.12-1.07-.35-1.39c-.23-.32-.57-.48-1.01-.48ZM165.81,12.96c1.09,0,1.94.29,2.55.88.61.59.92,1.4.92,2.43s-.31,1.85-.92,2.44-1.46.88-2.55.88-1.94-.29-2.56-.88c-.62-.59-.92-1.4-.92-2.44s.31-1.85.92-2.43c.62-.59,1.47-.88,2.56-.88Z"/>
      <path d="M177.09,15.58v3.84h-2.03v-2.94c0-.54,0-.92-.04-1.13-.02-.21-.07-.36-.13-.46-.08-.13-.19-.24-.32-.31s-.29-.11-.46-.11c-.42,0-.75.16-.99.49-.24.32-.36.77-.36,1.35v3.11h-2.02v-6.31h2.02v.92c.3-.37.63-.64.97-.81s.72-.26,1.14-.26c.73,0,1.28.22,1.66.67s.57,1.1.57,1.95h0Z"/>
      <path d="M183.9,13.3v1.53c-.43-.18-.85-.32-1.25-.41s-.78-.14-1.14-.14c-.38,0-.67.05-.86.14-.19.1-.28.24-.28.44,0,.16.07.29.21.37.14.09.39.15.76.19l.36.05c1.04.13,1.73.35,2.09.65s.54.77.54,1.42-.25,1.18-.75,1.52-1.24.51-2.22.51c-.42,0-.85-.03-1.3-.1s-.9-.16-1.37-.3v-1.53c.4.19.82.34,1.24.44s.85.15,1.29.15c.4,0,.69-.05.89-.16s.3-.27.3-.49c0-.18-.07-.31-.21-.4s-.41-.16-.82-.21l-.36-.05c-.9-.11-1.53-.32-1.89-.63-.36-.3-.54-.77-.54-1.39,0-.67.23-1.16.69-1.49.46-.32,1.16-.49,2.11-.49.37,0,.76.03,1.17.08.41.06.86.14,1.34.26v.04Z"/>
      <path d="M192.15,16.25v.57h-4.72c.05.47.22.83.51,1.07s.7.36,1.23.36c.42,0,.86-.06,1.31-.19.45-.13.91-.32,1.38-.57v1.55c-.48.18-.96.32-1.43.41-.48.09-.96.14-1.43.14-1.14,0-2.03-.29-2.67-.87-.63-.58-.95-1.4-.95-2.44s.31-1.84.93-2.43,1.48-.89,2.57-.89c.99,0,1.79.3,2.38.9.6.6.89,1.39.89,2.39h0ZM190.07,15.58c0-.38-.11-.69-.34-.93-.22-.24-.52-.35-.88-.35-.39,0-.71.11-.95.33-.24.22-.4.54-.46.95h2.63Z"/>
      <path d="M204.47,18.96c-.4.21-.82.36-1.25.47-.43.11-.88.16-1.35.16-1.4,0-2.52-.39-3.33-1.18-.82-.78-1.23-1.85-1.23-3.19s.41-2.41,1.23-3.19c.82-.78,1.93-1.18,3.33-1.18.47,0,.92.05,1.35.16.43.1.85.26,1.25.47v1.74c-.4-.27-.8-.47-1.19-.6-.39-.13-.8-.19-1.23-.19-.78,0-1.38.25-1.83.74-.44.5-.66,1.18-.66,2.05s.22,1.55.66,2.05,1.05.74,1.83.74c.43,0,.84-.06,1.23-.19.39-.13.79-.33,1.19-.6v1.74Z"/>
      <path d="M209.19,14.4c-.45,0-.79.16-1.02.48-.23.32-.35.78-.35,1.39s.12,1.07.35,1.39c.23.32.58.48,1.02.48s.78-.16,1.01-.48.35-.79.35-1.39-.12-1.07-.35-1.39c-.23-.32-.57-.48-1.01-.48ZM209.19,12.96c1.09,0,1.94.29,2.55.88.61.59.92,1.4.92,2.43s-.31,1.85-.92,2.44-1.46.88-2.55.88-1.94-.29-2.56-.88c-.62-.59-.92-1.4-.92-2.44s.31-1.85.92-2.43c.62-.59,1.47-.88,2.56-.88Z"/>
      <path d="M219.98,14.16c.26-.39.56-.69.91-.89.35-.2.74-.31,1.16-.31.73,0,1.28.22,1.66.67s.57,1.1.57,1.95v3.84h-2.03v-3.67c0-.45-.07-.77-.2-.97-.13-.2-.34-.3-.64-.3-.38,0-.68.16-.89.47-.21.32-.32.77-.32,1.37v3.1h-2.03v-3.29c0-.7-.06-1.15-.18-1.35s-.33-.3-.64-.3c-.39,0-.69.16-.9.48-.21.32-.32.77-.32,1.36v3.11h-2.03v-6.31h2.03v.92c.25-.36.53-.62.86-.8.32-.18.68-.27,1.06-.27.44,0,.82.11,1.16.32s.59.5.76.88h0Z"/>
      <path d="M228.18,18.51v3.31h-2.02v-8.71h2.02v.92c.28-.37.59-.64.93-.81s.73-.26,1.17-.26c.78,0,1.42.31,1.92.93s.75,1.41.75,2.39-.25,1.77-.75,2.39c-.5.62-1.14.93-1.92.93-.44,0-.83-.09-1.17-.26-.34-.18-.65-.45-.93-.82h0ZM229.52,14.42c-.43,0-.76.16-1,.48-.23.32-.35.77-.35,1.37s.12,1.05.35,1.37c.23.32.56.48,1,.48s.76-.16.99-.47c.23-.32.34-.77.34-1.38s-.11-1.06-.34-1.37c-.23-.32-.56-.47-.99-.47h0Z"/>
      <path d="M237.27,16.58c-.42,0-.74.07-.95.21-.21.14-.32.35-.32.63,0,.25.09.46.26.6.17.14.41.22.71.22.38,0,.7-.14.96-.41.26-.27.39-.61.39-1.02v-.23s-1.05,0-1.05,0ZM240.35,15.82v3.6h-2.04v-.94c-.27.38-.58.66-.92.84-.34.17-.75.26-1.23.26-.65,0-1.19-.19-1.59-.57-.41-.38-.61-.88-.61-1.49,0-.74.25-1.28.76-1.63.51-.35,1.31-.52,2.4-.52h1.19v-.16c0-.32-.13-.55-.38-.7-.25-.15-.64-.22-1.18-.22-.43,0-.83.04-1.21.13-.37.09-.72.22-1.04.39v-1.54c.43-.11.87-.19,1.3-.24.44-.05.87-.08,1.31-.08,1.14,0,1.96.22,2.47.67s.76,1.18.76,2.19h0Z"/>
      <path d="M246.93,14.83c-.18-.08-.35-.14-.53-.18-.17-.04-.35-.06-.53-.06-.52,0-.92.17-1.2.5s-.42.81-.42,1.43v2.91h-2.02v-6.31h2.02v1.04c.26-.41.56-.71.89-.9.34-.19.74-.28,1.21-.28h.22c.08,0,.19.02.34.04v1.83l.02-.02Z"/>
      <path d="M247.93,13.11h2.02v6.31h-2.02v-6.31ZM247.93,10.65h2.02v1.65h-2.02v-1.65Z"/>
      <path d="M256.83,13.3v1.53c-.43-.18-.85-.32-1.25-.41s-.78-.14-1.14-.14c-.38,0-.67.05-.86.14-.19.1-.28.24-.28.44,0,.16.07.29.21.37.14.09.39.15.76.19l.36.05c1.04.13,1.73.35,2.09.65s.54.77.54,1.42-.25,1.18-.75,1.52-1.24.51-2.22.51c-.42,0-.85-.03-1.3-.1s-.9-.16-1.37-.3v-1.53c.4.19.82.34,1.24.44s.85.15,1.29.15c.4,0,.69-.05.89-.16s.3-.27.3-.49c0-.18-.07-.31-.21-.4-.14-.09-.41-.16-.82-.21l-.36-.05c-.9-.11-1.53-.32-1.89-.63-.36-.3-.54-.77-.54-1.39,0-.67.23-1.16.69-1.49.46-.32,1.16-.49,2.11-.49.37,0,.76.03,1.17.08.41.06.86.14,1.34.26v.04Z"/>
      <path d="M261.78,14.4c-.45,0-.79.16-1.02.48-.23.32-.35.78-.35,1.39s.12,1.07.35,1.39.58.48,1.02.48.78-.16,1.01-.48.35-.79.35-1.39-.12-1.07-.35-1.39-.57-.48-1.01-.48ZM261.78,12.96c1.09,0,1.94.29,2.55.88.61.59.92,1.4.92,2.43s-.31,1.85-.92,2.44c-.61.59-1.46.88-2.55.88s-1.94-.29-2.56-.88c-.62-.59-.92-1.4-.92-2.44s.31-1.85.92-2.43c.62-.59,1.47-.88,2.56-.88Z"/>
      <path d="M273.06,15.58v3.84h-2.03v-2.94c0-.54-.01-.92-.04-1.13-.02-.21-.07-.36-.13-.46-.08-.13-.19-.24-.32-.31s-.29-.11-.46-.11c-.42,0-.75.16-.99.49-.24.32-.36.77-.36,1.35v3.11h-2.02v-6.31h2.02v.92c.3-.37.63-.64.97-.81s.72-.26,1.14-.26c.73,0,1.28.22,1.66.67s.57,1.1.57,1.95h-.01Z"/>
      <path d="M282.34,20.94h-1.68c-.58-.93-1-1.81-1.27-2.65s-.41-1.67-.41-2.49.14-1.66.41-2.5c.28-.84.7-1.73,1.27-2.65h1.68c-.48.89-.84,1.76-1.08,2.61s-.36,1.69-.36,2.52.12,1.67.36,2.52.6,1.73,1.09,2.62v.02Z"/>
      <path d="M284.33,11h2.76l1.92,4.5,1.93-4.5h2.76v8.41h-2.05v-6.15l-1.94,4.54h-1.38l-1.94-4.54v6.15h-2.06v-8.41h0Z"/>
      <path d="M298.74,14.4c-.45,0-.79.16-1.02.48-.23.32-.35.78-.35,1.39s.12,1.07.35,1.39.58.48,1.02.48.78-.16,1.01-.48.35-.79.35-1.39-.12-1.07-.35-1.39-.57-.48-1.01-.48ZM298.74,12.96c1.09,0,1.94.29,2.55.88.61.59.92,1.4.92,2.43s-.31,1.85-.92,2.44c-.61.59-1.46.88-2.55.88s-1.94-.29-2.56-.88c-.62-.59-.92-1.4-.92-2.44s.31-1.85.92-2.43c.62-.59,1.47-.88,2.56-.88Z"/>
      <path d="M305.88,11.31v1.79h2.08v1.44h-2.08v2.68c0,.29.06.49.18.6.12.1.35.16.7.16h1.04v1.44h-1.73c-.8,0-1.36-.17-1.7-.5-.33-.33-.5-.9-.5-1.7v-2.68h-1.01v-1.44h1.01v-1.79h2.02,0Z"/>
      <path d="M312.21,14.4c-.45,0-.79.16-1.02.48-.23.32-.35.78-.35,1.39s.12,1.07.35,1.39.58.48,1.02.48.78-.16,1.01-.48.35-.79.35-1.39-.12-1.07-.35-1.39-.57-.48-1.01-.48ZM312.21,12.96c1.09,0,1.94.29,2.55.88.61.59.92,1.4.92,2.43s-.31,1.85-.92,2.44c-.61.59-1.46.88-2.55.88s-1.94-.29-2.56-.88c-.62-.59-.92-1.4-.92-2.44s.31-1.85.92-2.43c.62-.59,1.47-.88,2.56-.88Z"/>
      <path d="M321.83,14.83c-.18-.08-.35-.14-.53-.18-.17-.04-.35-.06-.53-.06-.52,0-.92.17-1.2.5s-.42.81-.42,1.43v2.91h-2.02v-6.31h2.02v1.04c.26-.41.56-.71.89-.9.34-.19.74-.28,1.21-.28h.22c.08,0,.19.02.34.04v1.83l.02-.02Z"/>
      <path d="M325.95,11h2.18l2.23,6.21,2.23-6.21h2.18l-3.12,8.41h-2.59l-3.12-8.41h0Z"/>
      <path d="M341.48,16.25v.57h-4.72c.05.47.22.83.51,1.07s.7.36,1.23.36c.42,0,.86-.06,1.31-.19.45-.13.91-.32,1.38-.57v1.55c-.48.18-.96.32-1.43.41-.48.09-.96.14-1.43.14-1.14,0-2.03-.29-2.67-.87-.63-.58-.95-1.4-.95-2.44s.31-1.84.93-2.43,1.48-.89,2.57-.89c.99,0,1.79.3,2.38.9.6.6.89,1.39.89,2.39h0ZM339.4,15.58c0-.38-.11-.69-.34-.93-.22-.24-.52-.35-.88-.35-.39,0-.71.11-.95.33-.24.22-.4.54-.46.95h2.63Z"/>
      <path d="M343.01,10.65h2.02v8.77h-2.02v-8.77Z"/>
      <path d="M349.97,14.4c-.45,0-.79.16-1.02.48-.23.32-.35.78-.35,1.39s.12,1.07.35,1.39.58.48,1.02.48.78-.16,1.01-.48.35-.79.35-1.39-.12-1.07-.35-1.39-.57-.48-1.01-.48ZM349.97,12.96c1.09,0,1.94.29,2.55.88.61.59.92,1.4.92,2.43s-.31,1.85-.92,2.44c-.61.59-1.46.88-2.55.88s-1.94-.29-2.56-.88c-.62-.59-.92-1.4-.92-2.44s.31-1.85.92-2.43c.62-.59,1.47-.88,2.56-.88Z"/>
      <path d="M360.01,13.3v1.65c-.27-.19-.55-.33-.83-.42s-.56-.14-.86-.14c-.56,0-1,.16-1.32.49-.31.33-.47.79-.47,1.38s.16,1.05.47,1.38.75.49,1.32.49c.32,0,.62-.05.9-.14s.55-.23.79-.42v1.65c-.32.12-.64.2-.96.26-.32.06-.65.09-.98.09-1.14,0-2.03-.29-2.68-.88-.64-.58-.96-1.4-.96-2.44s.32-1.85.96-2.44c.64-.58,1.54-.88,2.68-.88.33,0,.66.03.98.09s.64.14.96.26v.02Z"/>
      <path d="M361.76,13.11h2.02v6.31h-2.02v-6.31ZM361.76,10.65h2.02v1.65h-2.02v-1.65Z"/>
      <path d="M367.92,11.31v1.79h2.08v1.44h-2.08v2.68c0,.29.06.49.18.6.12.1.35.16.7.16h1.04v1.44h-1.73c-.8,0-1.36-.17-1.7-.5-.33-.33-.5-.9-.5-1.7v-2.68h-1.01v-1.44h1.01v-1.79h2.02,0Z"/>
      <path d="M370.41,13.11h2.02l1.7,4.28,1.44-4.28h2.02l-2.66,6.91c-.27.7-.58,1.19-.93,1.47-.36.28-.82.42-1.41.42h-1.17v-1.32h.63c.34,0,.59-.05.75-.16s.28-.3.36-.59l.06-.17-2.82-6.55h.01Z"/>
      <path d="M378.73,20.94c.48-.89.84-1.77,1.08-2.62s.36-1.7.36-2.52-.12-1.67-.36-2.52-.6-1.72-1.08-2.61h1.68c.57.92,1,1.8,1.27,2.65.28.84.42,1.68.42,2.5s-.14,1.65-.41,2.49-.7,1.72-1.27,2.65h-1.68v-.02Z"/>
      <g>
        <rect class="cls-20" x="437.52" y="64.95" width="85" height="134"/>
        <rect class="cls-2" x="437.52" y="64.95" width="85" height="134"/>
      </g>
      <path class="cls-4" d="M441.74,72.44h16.04"/>
      <path d="M466.69,69.17c-.35.6-.61,1.19-.78,1.78s-.25,1.18-.25,1.78.09,1.2.26,1.79c.17.59.43,1.19.78,1.78h-.63c-.39-.61-.68-1.22-.88-1.81-.19-.59-.29-1.18-.29-1.76s.1-1.17.29-1.76c.19-.59.49-1.19.88-1.81h.63-.01Z"/>
      <path d="M469.88,69.93c-.41,0-.71.2-.92.6-.2.4-.31,1-.31,1.81s.1,1.4.31,1.8.51.6.92.6.72-.2.92-.6c.21-.4.31-1,.31-1.8s-.1-1.41-.31-1.81c-.2-.4-.51-.6-.92-.6ZM469.88,69.3c.66,0,1.16.26,1.5.78.35.52.52,1.27.52,2.25s-.17,1.73-.52,2.25c-.35.52-.85.78-1.5.78s-1.16-.26-1.5-.78c-.35-.52-.52-1.27-.52-2.25s.17-1.74.52-2.25c.35-.52.85-.78,1.5-.78Z"/>
      <path d="M478.27,72.68c-.23,0-.41.1-.54.29s-.19.46-.19.81.06.61.19.8.31.29.54.29.4-.1.53-.29.19-.46.19-.8-.06-.61-.19-.8-.3-.29-.53-.29h0ZM478.27,72.18c.41,0,.74.14.98.43.24.29.36.67.36,1.16s-.12.87-.37,1.16c-.24.29-.57.43-.98.43s-.75-.14-.99-.43-.36-.67-.36-1.16.12-.88.37-1.16.57-.43.99-.43ZM474.22,69.8c-.22,0-.4.1-.53.29s-.19.46-.19.8.06.61.19.81c.13.19.31.29.53.29s.41-.1.53-.29c.13-.19.19-.46.19-.81s-.07-.6-.2-.8c-.13-.2-.31-.29-.53-.29h.01ZM477.76,69.3h.63l-3.66,6.06h-.63l3.66-6.06ZM474.22,69.3c.41,0,.74.14.99.43s.37.67.37,1.16-.12.88-.37,1.17c-.24.28-.57.43-.99.43s-.74-.14-.99-.43c-.24-.29-.36-.67-.36-1.16s.12-.87.36-1.16.57-.43.98-.43h0Z"/>
      <path d="M487.12,72.88v.35h-3.31c.03.5.18.87.45,1.13.27.26.64.39,1.12.39.28,0,.54-.03.8-.1.26-.07.52-.17.77-.31v.68c-.26.11-.52.19-.8.25-.27.06-.55.09-.83.09-.7,0-1.25-.2-1.66-.61s-.61-.96-.61-1.65.19-1.29.58-1.71c.39-.42.91-.63,1.57-.63.59,0,1.06.19,1.4.57s.52.89.52,1.55ZM486.39,72.66c0-.39-.12-.71-.33-.94-.22-.24-.5-.35-.86-.35-.4,0-.72.11-.97.34-.24.23-.38.55-.42.96h2.58Z"/>
      <path d="M490.52,69.16v.6h-.69c-.26,0-.44.05-.54.16-.1.1-.15.29-.15.56v.39h1.19v.56h-1.19v3.82h-.72v-3.82h-.69v-.56h.69v-.31c0-.49.11-.84.34-1.07.23-.22.59-.34,1.08-.34h.68Z"/>
      <path d="M493.34,69.16v.6h-.69c-.26,0-.44.05-.54.16-.1.1-.15.29-.15.56v.39h1.19v.56h-1.19v3.82h-.72v-3.82h-.69v-.56h.69v-.31c0-.49.11-.84.34-1.07.23-.22.59-.34,1.08-.34h.68Z"/>
      <path d="M495.65,71.37c-.39,0-.69.15-.92.45-.22.3-.34.71-.34,1.24s.11.94.33,1.24c.22.3.53.45.92.45s.69-.15.91-.45c.22-.3.34-.72.34-1.24s-.11-.93-.34-1.23c-.22-.3-.53-.46-.91-.46h.01ZM495.65,70.76c.63,0,1.12.2,1.48.61.36.41.54.97.54,1.69s-.18,1.28-.54,1.69c-.36.41-.85.61-1.48.61s-1.12-.2-1.48-.61c-.36-.41-.53-.97-.53-1.69s.18-1.28.53-1.69c.36-.41.85-.61,1.48-.61Z"/>
      <path d="M501.4,71.54c-.08-.05-.17-.08-.26-.1-.1-.02-.2-.03-.31-.03-.41,0-.72.13-.94.4-.22.26-.33.64-.33,1.14v2.31h-.72v-4.38h.72v.68c.15-.27.35-.46.59-.59s.54-.19.89-.19c.05,0,.1,0,.16.01.06,0,.13.02.2.03v.74-.02Z"/>
      <path d="M502.86,69.62v1.24h1.48v.56h-1.48v2.38c0,.36.05.59.15.69.1.1.3.15.6.15h.74v.6h-.74c-.56,0-.94-.1-1.15-.31s-.32-.59-.32-1.13v-2.38h-.53v-.56h.53v-1.24s.72,0,.72,0Z"/>
      <path d="M505.18,69.17h.63c.39.62.68,1.22.88,1.81.19.59.29,1.17.29,1.76s-.1,1.17-.29,1.76c-.19.59-.49,1.19-.88,1.81h-.63c.35-.6.61-1.19.78-1.78s.26-1.19.26-1.79-.09-1.2-.26-1.78c-.17-.59-.43-1.18-.78-1.78h0Z"/>
      <path class="cls-8" d="M441.74,84.2h16.04"/>
      <path d="M466.69,80.93c-.35.6-.61,1.19-.78,1.78s-.25,1.18-.25,1.78.09,1.2.26,1.79c.17.59.43,1.19.78,1.78h-.63c-.39-.61-.68-1.22-.88-1.81-.19-.59-.29-1.18-.29-1.76s.1-1.17.29-1.76c.19-.59.49-1.19.88-1.81h.63-.01Z"/>
      <path d="M468.33,86.34h1.29v-4.46l-1.41.28v-.72l1.4-.28h.79v5.18h1.29v.66h-3.37v-.66h0Z"/>
      <path d="M474.98,81.69c-.41,0-.71.2-.92.6-.2.4-.31,1-.31,1.81s.1,1.4.31,1.8.51.6.92.6.72-.2.92-.6c.21-.4.31-1,.31-1.8s-.1-1.41-.31-1.81c-.2-.4-.51-.6-.92-.6ZM474.98,81.06c.66,0,1.16.26,1.5.78.35.52.52,1.27.52,2.25s-.17,1.73-.52,2.25c-.35.52-.85.78-1.5.78s-1.16-.26-1.5-.78c-.35-.52-.52-1.27-.52-2.25s.17-1.74.52-2.25c.35-.52.85-.78,1.5-.78Z"/>
      <path d="M483.37,84.44c-.23,0-.41.1-.54.29s-.19.46-.19.81.06.61.19.8.31.29.54.29.4-.1.53-.29.19-.46.19-.8-.06-.61-.19-.8-.3-.29-.53-.29h0ZM483.37,83.94c.41,0,.74.14.98.43.24.29.36.67.36,1.16s-.12.87-.37,1.16c-.24.29-.57.43-.98.43s-.75-.14-.99-.43-.36-.67-.36-1.16.12-.88.37-1.16.57-.43.99-.43ZM479.33,81.56c-.22,0-.4.1-.53.29s-.19.46-.19.8.06.61.19.81c.13.19.31.29.53.29s.41-.1.53-.29c.13-.19.19-.46.19-.81s-.07-.6-.2-.8c-.13-.2-.31-.29-.53-.29h.01ZM482.87,81.06h.63l-3.66,6.06h-.63l3.66-6.06ZM479.33,81.06c.41,0,.74.14.99.43s.37.67.37,1.16-.12.88-.37,1.17c-.24.28-.57.43-.99.43s-.74-.14-.99-.43c-.24-.29-.36-.67-.36-1.16s.12-.87.36-1.16.57-.43.98-.43h0Z"/>
      <path d="M492.22,84.64v.35h-3.31c.03.5.18.87.45,1.13.27.26.64.39,1.12.39.28,0,.54-.03.8-.1.26-.07.52-.17.77-.31v.68c-.26.11-.52.19-.8.25-.27.06-.55.09-.83.09-.7,0-1.25-.2-1.66-.61s-.61-.96-.61-1.65.19-1.29.58-1.71c.39-.42.91-.63,1.57-.63.59,0,1.06.19,1.4.57s.52.89.52,1.55ZM491.5,84.42c0-.39-.12-.71-.33-.94-.22-.24-.5-.35-.86-.35-.4,0-.72.11-.97.34-.24.23-.38.55-.42.96h2.58Z"/>
      <path d="M495.62,80.92v.6h-.69c-.26,0-.44.05-.54.16-.1.1-.15.29-.15.56v.39h1.19v.56h-1.19v3.82h-.72v-3.82h-.69v-.56h.69v-.31c0-.49.11-.84.34-1.07.23-.22.59-.34,1.08-.34h.68Z"/>
      <path d="M498.45,80.92v.6h-.69c-.26,0-.44.05-.54.16-.1.1-.15.29-.15.56v.39h1.19v.56h-1.19v3.82h-.72v-3.82h-.69v-.56h.69v-.31c0-.49.11-.84.34-1.07.23-.22.59-.34,1.08-.34h.68Z"/>
      <path d="M500.75,83.13c-.39,0-.69.15-.92.45-.22.3-.34.71-.34,1.24s.11.94.33,1.24c.22.3.53.45.92.45s.69-.15.91-.45c.22-.3.34-.72.34-1.24s-.11-.93-.34-1.23c-.22-.3-.53-.46-.91-.46h.01ZM500.75,82.52c.63,0,1.12.2,1.48.61.36.41.54.97.54,1.69s-.18,1.28-.54,1.69c-.36.41-.85.61-1.48.61s-1.12-.2-1.48-.61c-.36-.41-.53-.97-.53-1.69s.18-1.28.53-1.69c.36-.41.85-.61,1.48-.61Z"/>
      <path d="M506.5,83.3c-.08-.05-.17-.08-.26-.1-.1-.02-.2-.03-.31-.03-.41,0-.72.13-.94.4-.22.26-.33.64-.33,1.14v2.31h-.72v-4.38h.72v.68c.15-.27.35-.46.59-.59s.54-.19.89-.19c.05,0,.1,0,.16.01.06,0,.13.02.2.03v.74-.02Z"/>
      <path d="M507.97,81.38v1.24h1.48v.56h-1.48v2.38c0,.36.05.59.15.69.1.1.3.15.6.15h.74v.6h-.74c-.56,0-.94-.1-1.15-.31s-.32-.59-.32-1.13v-2.38h-.53v-.56h.53v-1.24h.72,0Z"/>
      <path d="M510.29,80.93h.63c.39.62.68,1.22.88,1.81.19.59.29,1.17.29,1.76s-.1,1.17-.29,1.76c-.19.59-.49,1.19-.88,1.81h-.63c.35-.6.61-1.19.78-1.78.17-.59.26-1.19.26-1.79s-.09-1.2-.26-1.78c-.17-.59-.43-1.18-.78-1.78h0Z"/>
      <path class="cls-7" d="M441.74,95.96h16.04"/>
      <path d="M466.69,92.69c-.35.6-.61,1.19-.78,1.78s-.25,1.18-.25,1.78.09,1.2.26,1.79c.17.59.43,1.19.78,1.78h-.63c-.39-.61-.68-1.22-.88-1.81-.19-.59-.29-1.18-.29-1.76s.1-1.17.29-1.76c.19-.59.49-1.19.88-1.81h.63-.01Z"/>
      <path d="M468.87,98.1h2.76v.66h-3.71v-.66c.3-.31.71-.73,1.23-1.25.52-.52.84-.86.98-1.01.25-.28.43-.52.53-.72.1-.2.15-.39.15-.58,0-.31-.11-.56-.33-.76-.22-.2-.5-.29-.85-.29-.25,0-.51.04-.79.13-.27.09-.57.22-.88.39v-.8c.32-.13.62-.22.89-.29.28-.07.53-.1.76-.1.61,0,1.09.15,1.45.45.36.3.54.71.54,1.21,0,.24-.05.47-.14.68-.09.21-.25.47-.49.76-.07.08-.27.29-.62.66-.35.36-.84.87-1.48,1.52h0Z"/>
      <path d="M474.98,93.45c-.41,0-.71.2-.92.6-.2.4-.31,1-.31,1.81s.1,1.4.31,1.8.51.6.92.6.72-.2.92-.6c.21-.4.31-1,.31-1.8s-.1-1.41-.31-1.81c-.2-.4-.51-.6-.92-.6ZM474.98,92.82c.66,0,1.16.26,1.5.78.35.52.52,1.27.52,2.25s-.17,1.73-.52,2.25c-.35.52-.85.78-1.5.78s-1.16-.26-1.5-.78c-.35-.52-.52-1.27-.52-2.25s.17-1.74.52-2.25c.35-.52.85-.78,1.5-.78Z"/>
      <path d="M483.37,96.2c-.23,0-.41.1-.54.29s-.19.46-.19.81.06.61.19.8.31.29.54.29.4-.1.53-.29.19-.46.19-.8-.06-.61-.19-.8-.3-.29-.53-.29h0ZM483.37,95.7c.41,0,.74.14.98.43.24.29.36.67.36,1.16s-.12.87-.37,1.16c-.24.29-.57.43-.98.43s-.75-.14-.99-.43-.36-.67-.36-1.16.12-.88.37-1.16.57-.43.99-.43ZM479.33,93.32c-.22,0-.4.1-.53.29s-.19.46-.19.8.06.61.19.81c.13.19.31.29.53.29s.41-.1.53-.29c.13-.19.19-.46.19-.81s-.07-.6-.2-.8c-.13-.2-.31-.29-.53-.29h.01ZM482.87,92.82h.63l-3.66,6.06h-.63l3.66-6.06ZM479.33,92.82c.41,0,.74.14.99.43s.37.67.37,1.16-.12.88-.37,1.17c-.24.28-.57.43-.99.43s-.74-.14-.99-.43c-.24-.29-.36-.67-.36-1.16s.12-.87.36-1.16.57-.43.98-.43h0Z"/>
      <path d="M492.22,96.39v.35h-3.31c.03.5.18.87.45,1.13.27.26.64.39,1.12.39.28,0,.54-.03.8-.1.26-.07.52-.17.77-.31v.68c-.26.11-.52.19-.8.25-.27.06-.55.09-.83.09-.7,0-1.25-.2-1.66-.61s-.61-.96-.61-1.65.19-1.29.58-1.71c.39-.42.91-.63,1.57-.63.59,0,1.06.19,1.4.57s.52.89.52,1.55ZM491.5,96.18c0-.39-.12-.71-.33-.94-.22-.24-.5-.35-.86-.35-.4,0-.72.11-.97.34-.24.23-.38.55-.42.96h2.58Z"/>
      <path d="M495.62,92.68v.6h-.69c-.26,0-.44.05-.54.16-.1.1-.15.29-.15.56v.39h1.19v.56h-1.19v3.82h-.72v-3.82h-.69v-.56h.69v-.31c0-.49.11-.84.34-1.07.23-.22.59-.34,1.08-.34h.68Z"/>
      <path d="M498.45,92.68v.6h-.69c-.26,0-.44.05-.54.16-.1.1-.15.29-.15.56v.39h1.19v.56h-1.19v3.82h-.72v-3.82h-.69v-.56h.69v-.31c0-.49.11-.84.34-1.07.23-.22.59-.34,1.08-.34h.68Z"/>
      <path d="M500.75,94.89c-.39,0-.69.15-.92.45-.22.3-.34.71-.34,1.24s.11.94.33,1.24c.22.3.53.45.92.45s.69-.15.91-.45c.22-.3.34-.72.34-1.24s-.11-.93-.34-1.23c-.22-.3-.53-.46-.91-.46h.01ZM500.75,94.28c.63,0,1.12.2,1.48.61.36.41.54.97.54,1.69s-.18,1.28-.54,1.69c-.36.41-.85.61-1.48.61s-1.12-.2-1.48-.61c-.36-.41-.53-.97-.53-1.69s.18-1.28.53-1.69c.36-.41.85-.61,1.48-.61Z"/>
      <path d="M506.5,95.06c-.08-.05-.17-.08-.26-.1-.1-.02-.2-.03-.31-.03-.41,0-.72.13-.94.4-.22.26-.33.64-.33,1.14v2.31h-.72v-4.38h.72v.68c.15-.27.35-.46.59-.59s.54-.19.89-.19c.05,0,.1,0,.16.01.06,0,.13.02.2.03v.74-.02Z"/>
      <path d="M507.97,93.14v1.24h1.48v.56h-1.48v2.38c0,.36.05.59.15.69.1.1.3.15.6.15h.74v.6h-.74c-.56,0-.94-.1-1.15-.31s-.32-.59-.32-1.13v-2.38h-.53v-.56h.53v-1.24h.72,0Z"/>
      <path d="M510.29,92.69h.63c.39.62.68,1.22.88,1.81.19.59.29,1.17.29,1.76s-.1,1.17-.29,1.76c-.19.59-.49,1.19-.88,1.81h-.63c.35-.6.61-1.19.78-1.78.17-.59.26-1.19.26-1.79s-.09-1.2-.26-1.78c-.17-.59-.43-1.18-.78-1.78h0Z"/>
      <path class="cls-10" d="M441.74,107.72h16.04"/>
      <path d="M466.69,104.45c-.35.6-.61,1.19-.78,1.78s-.25,1.18-.25,1.78.09,1.2.26,1.79c.17.59.43,1.19.78,1.78h-.63c-.39-.61-.68-1.22-.88-1.81-.19-.59-.29-1.18-.29-1.76s.1-1.17.29-1.76c.19-.59.49-1.19.88-1.81h.63-.01Z"/>
      <path d="M470.59,107.38c.38.08.67.25.89.51.21.26.32.57.32.95,0,.58-.2,1.02-.6,1.34s-.96.47-1.69.47c-.24,0-.5-.02-.76-.07s-.53-.12-.8-.22v-.76c.22.13.46.22.72.29s.53.1.82.1c.5,0,.87-.1,1.13-.29.26-.2.39-.48.39-.85,0-.34-.12-.61-.36-.81-.24-.19-.58-.29-1.01-.29h-.68v-.65h.71c.39,0,.69-.08.89-.23.21-.16.31-.38.31-.67s-.11-.53-.32-.69c-.21-.16-.52-.24-.91-.24-.22,0-.45.02-.7.07s-.52.12-.82.22v-.7c.3-.08.58-.15.84-.19s.51-.06.74-.06c.6,0,1.08.14,1.43.41.35.27.53.64.53,1.1,0,.32-.09.6-.28.82s-.45.38-.79.46v-.02Z"/>
      <path d="M474.98,105.21c-.41,0-.71.2-.92.6-.2.4-.31,1-.31,1.81s.1,1.4.31,1.8.51.6.92.6.72-.2.92-.6c.21-.4.31-1,.31-1.8s-.1-1.41-.31-1.81c-.2-.4-.51-.6-.92-.6ZM474.98,104.58c.66,0,1.16.26,1.5.78.35.52.52,1.27.52,2.25s-.17,1.73-.52,2.25c-.35.52-.85.78-1.5.78s-1.16-.26-1.5-.78c-.35-.52-.52-1.27-.52-2.25s.17-1.74.52-2.25c.35-.52.85-.78,1.5-.78Z"/>
      <path d="M483.37,107.96c-.23,0-.41.1-.54.29s-.19.46-.19.81.06.61.19.8.31.29.54.29.4-.1.53-.29.19-.46.19-.8-.06-.61-.19-.8-.3-.29-.53-.29h0ZM483.37,107.46c.41,0,.74.14.98.43.24.29.36.67.36,1.16s-.12.87-.37,1.16c-.24.29-.57.43-.98.43s-.75-.14-.99-.43-.36-.67-.36-1.16.12-.88.37-1.16.57-.43.99-.43ZM479.33,105.08c-.22,0-.4.1-.53.29s-.19.46-.19.8.06.61.19.81c.13.19.31.29.53.29s.41-.1.53-.29c.13-.19.19-.46.19-.81s-.07-.6-.2-.8c-.13-.2-.31-.29-.53-.29h.01ZM482.87,104.58h.63l-3.66,6.06h-.63l3.66-6.06ZM479.33,104.58c.41,0,.74.14.99.43s.37.67.37,1.16-.12.88-.37,1.17c-.24.28-.57.43-.99.43s-.74-.14-.99-.43c-.24-.29-.36-.67-.36-1.16s.12-.87.36-1.16.57-.43.98-.43h0Z"/>
      <path d="M492.22,108.15v.35h-3.31c.03.5.18.87.45,1.13.27.26.64.39,1.12.39.28,0,.54-.03.8-.1.26-.07.52-.17.77-.31v.68c-.26.11-.52.19-.8.25-.27.06-.55.09-.83.09-.7,0-1.25-.2-1.66-.61s-.61-.96-.61-1.65.19-1.29.58-1.71c.39-.42.91-.63,1.57-.63.59,0,1.06.19,1.4.57s.52.89.52,1.55ZM491.5,107.94c0-.39-.12-.71-.33-.94-.22-.24-.5-.35-.86-.35-.4,0-.72.11-.97.34-.24.23-.38.55-.42.96h2.58Z"/>
      <path d="M495.62,104.44v.6h-.69c-.26,0-.44.05-.54.16-.1.1-.15.29-.15.56v.39h1.19v.56h-1.19v3.82h-.72v-3.82h-.69v-.56h.69v-.31c0-.49.11-.84.34-1.07.23-.22.59-.34,1.08-.34h.68Z"/>
      <path d="M498.45,104.44v.6h-.69c-.26,0-.44.05-.54.16-.1.1-.15.29-.15.56v.39h1.19v.56h-1.19v3.82h-.72v-3.82h-.69v-.56h.69v-.31c0-.49.11-.84.34-1.07.23-.22.59-.34,1.08-.34h.68Z"/>
      <path d="M500.75,106.65c-.39,0-.69.15-.92.45-.22.3-.34.71-.34,1.24s.11.94.33,1.24c.22.3.53.45.92.45s.69-.15.91-.45c.22-.3.34-.72.34-1.24s-.11-.93-.34-1.23c-.22-.3-.53-.46-.91-.46h.01ZM500.75,106.04c.63,0,1.12.2,1.48.61.36.41.54.97.54,1.69s-.18,1.28-.54,1.69c-.36.41-.85.61-1.48.61s-1.12-.2-1.48-.61c-.36-.41-.53-.97-.53-1.69s.18-1.28.53-1.69c.36-.41.85-.61,1.48-.61Z"/>
      <path d="M506.5,106.82c-.08-.05-.17-.08-.26-.1-.1-.02-.2-.03-.31-.03-.41,0-.72.13-.94.4-.22.26-.33.64-.33,1.14v2.31h-.72v-4.38h.72v.68c.15-.27.35-.46.59-.59s.54-.19.89-.19c.05,0,.1,0,.16.01.06,0,.13.02.2.03v.74-.02Z"/>
      <path d="M507.97,104.9v1.24h1.48v.56h-1.48v2.38c0,.36.05.59.15.69.1.1.3.15.6.15h.74v.6h-.74c-.56,0-.94-.1-1.15-.31s-.32-.59-.32-1.13v-2.38h-.53v-.56h.53v-1.24h.72,0Z"/>
      <path d="M510.29,104.45h.63c.39.62.68,1.22.88,1.81.19.59.29,1.17.29,1.76s-.1,1.17-.29,1.76c-.19.59-.49,1.19-.88,1.81h-.63c.35-.6.61-1.19.78-1.78.17-.59.26-1.19.26-1.79s-.09-1.2-.26-1.78c-.17-.59-.43-1.18-.78-1.78h0Z"/>
      <path class="cls-13" d="M441.74,119.48h16.04"/>
      <path d="M466.69,116.21c-.35.6-.61,1.19-.78,1.78s-.25,1.18-.25,1.78.09,1.2.26,1.79.43,1.19.78,1.78h-.63c-.39-.61-.68-1.22-.88-1.81-.19-.59-.29-1.18-.29-1.76s.1-1.17.29-1.76c.19-.59.49-1.19.88-1.81h.63-.01Z"/>
      <path d="M470.36,117.13l-2,3.12h2v-3.12ZM470.16,116.44h1v3.81h.83v.66h-.83v1.38h-.79v-1.38h-2.64v-.76l2.43-3.7h0Z"/>
      <path d="M474.98,116.97c-.41,0-.71.2-.92.6-.2.4-.31,1-.31,1.81s.1,1.4.31,1.8c.21.4.51.6.92.6s.72-.2.92-.6c.21-.4.31-1,.31-1.8s-.1-1.41-.31-1.81c-.2-.4-.51-.6-.92-.6ZM474.98,116.34c.66,0,1.16.26,1.5.78.35.52.52,1.27.52,2.25s-.17,1.73-.52,2.25c-.35.52-.85.78-1.5.78s-1.16-.26-1.5-.78c-.35-.52-.52-1.27-.52-2.25s.17-1.74.52-2.25c.35-.52.85-.78,1.5-.78Z"/>
      <path d="M483.37,119.72c-.23,0-.41.1-.54.29s-.19.46-.19.81.06.61.19.8.31.29.54.29.4-.1.53-.29c.13-.19.19-.46.19-.8s-.06-.61-.19-.8-.3-.29-.53-.29h0ZM483.37,119.22c.41,0,.74.14.98.43.24.29.36.67.36,1.16s-.12.87-.37,1.16c-.24.29-.57.43-.98.43s-.75-.14-.99-.43-.36-.67-.36-1.16.12-.88.37-1.16.57-.43.99-.43ZM479.33,116.84c-.22,0-.4.1-.53.29s-.19.46-.19.8.06.61.19.81c.13.19.31.29.53.29s.41-.1.53-.29c.13-.19.19-.46.19-.81s-.07-.6-.2-.8c-.13-.2-.31-.29-.53-.29h.01ZM482.87,116.34h.63l-3.66,6.06h-.63l3.66-6.06ZM479.33,116.34c.41,0,.74.14.99.43s.37.67.37,1.16-.12.88-.37,1.17c-.24.28-.57.43-.99.43s-.74-.14-.99-.43c-.24-.29-.36-.67-.36-1.16s.12-.87.36-1.16.57-.43.98-.43h0Z"/>
      <path d="M492.22,119.91v.35h-3.31c.03.5.18.87.45,1.13.27.26.64.39,1.12.39.28,0,.54-.03.8-.1.26-.07.52-.17.77-.31v.68c-.26.11-.52.19-.8.25-.27.06-.55.09-.83.09-.7,0-1.25-.2-1.66-.61s-.61-.96-.61-1.65.19-1.29.58-1.71c.39-.42.91-.63,1.57-.63.59,0,1.06.19,1.4.57s.52.89.52,1.55ZM491.5,119.7c0-.39-.12-.71-.33-.94-.22-.24-.5-.35-.86-.35-.4,0-.72.11-.97.34-.24.23-.38.55-.42.96h2.58Z"/>
      <path d="M495.62,116.2v.6h-.69c-.26,0-.44.05-.54.16-.1.1-.15.29-.15.56v.39h1.19v.56h-1.19v3.82h-.72v-3.82h-.69v-.56h.69v-.31c0-.49.11-.84.34-1.07.23-.22.59-.34,1.08-.34h.68Z"/>
      <path d="M498.45,116.2v.6h-.69c-.26,0-.44.05-.54.16-.1.1-.15.29-.15.56v.39h1.19v.56h-1.19v3.82h-.72v-3.82h-.69v-.56h.69v-.31c0-.49.11-.84.34-1.07.23-.22.59-.34,1.08-.34h.68Z"/>
      <path d="M500.75,118.41c-.39,0-.69.15-.92.45-.22.3-.34.71-.34,1.24s.11.94.33,1.24.53.45.92.45.69-.15.91-.45.34-.72.34-1.24-.11-.93-.34-1.23c-.22-.3-.53-.46-.91-.46h.01ZM500.75,117.8c.63,0,1.12.2,1.48.61.36.41.54.97.54,1.69s-.18,1.28-.54,1.69c-.36.41-.85.61-1.48.61s-1.12-.2-1.48-.61c-.36-.41-.53-.97-.53-1.69s.18-1.28.53-1.69c.36-.41.85-.61,1.48-.61Z"/>
      <path d="M506.5,118.58c-.08-.05-.17-.08-.26-.1-.1-.02-.2-.03-.31-.03-.41,0-.72.13-.94.4-.22.26-.33.64-.33,1.14v2.31h-.72v-4.38h.72v.68c.15-.27.35-.46.59-.59s.54-.19.89-.19c.05,0,.1,0,.16.01.06,0,.13.02.2.03v.74-.02Z"/>
      <path d="M507.97,116.66v1.24h1.48v.56h-1.48v2.38c0,.36.05.59.15.69s.3.15.6.15h.74v.6h-.74c-.56,0-.94-.1-1.15-.31-.21-.21-.32-.59-.32-1.13v-2.38h-.53v-.56h.53v-1.24h.72,0Z"/>
      <path d="M510.29,116.21h.63c.39.62.68,1.22.88,1.81.19.59.29,1.17.29,1.76s-.1,1.17-.29,1.76-.49,1.19-.88,1.81h-.63c.35-.6.61-1.19.78-1.78.17-.59.26-1.19.26-1.79s-.09-1.2-.26-1.78c-.17-.59-.43-1.18-.78-1.78h0Z"/>
      <path class="cls-12" d="M441.74,131.24h16.04"/>
      <path d="M466.69,127.97c-.35.6-.61,1.19-.78,1.78s-.25,1.18-.25,1.78.09,1.2.26,1.79.43,1.19.78,1.78h-.63c-.39-.61-.68-1.22-.88-1.81-.19-.59-.29-1.18-.29-1.76s.1-1.17.29-1.76.49-1.19.88-1.81h.63-.01Z"/>
      <path d="M468.2,128.2h3.11v.67h-2.38v1.43c.11-.04.23-.07.34-.09.12-.02.23-.03.35-.03.65,0,1.17.18,1.55.54.38.36.57.84.57,1.45s-.2,1.12-.59,1.47c-.39.35-.94.52-1.66.52-.25,0-.5-.02-.75-.06s-.52-.1-.79-.19v-.79c.23.13.48.22.73.29.25.06.52.09.79.09.45,0,.81-.12,1.07-.36s.4-.56.4-.97-.13-.73-.4-.97c-.26-.24-.62-.36-1.07-.36-.21,0-.42.02-.63.07s-.42.12-.64.22v-2.93h0Z"/>
      <path d="M474.98,128.73c-.41,0-.71.2-.92.6-.2.4-.31,1-.31,1.81s.1,1.4.31,1.8c.21.4.51.6.92.6s.72-.2.92-.6c.21-.4.31-1,.31-1.8s-.1-1.41-.31-1.81c-.2-.4-.51-.6-.92-.6ZM474.98,128.1c.66,0,1.16.26,1.5.78.35.52.52,1.27.52,2.25s-.17,1.73-.52,2.25c-.35.52-.85.78-1.5.78s-1.16-.26-1.5-.78c-.35-.52-.52-1.27-.52-2.25s.17-1.74.52-2.25c.35-.52.85-.78,1.5-.78Z"/>
      <path d="M483.37,131.48c-.23,0-.41.1-.54.29-.13.19-.19.46-.19.81s.06.61.19.8.31.29.54.29.4-.1.53-.29c.13-.19.19-.46.19-.8s-.06-.61-.19-.8-.3-.29-.53-.29h0ZM483.37,130.98c.41,0,.74.14.98.43.24.29.36.67.36,1.16s-.12.87-.37,1.16c-.24.29-.57.43-.98.43s-.75-.14-.99-.43-.36-.67-.36-1.16.12-.88.37-1.16.57-.43.99-.43ZM479.33,128.6c-.22,0-.4.1-.53.29-.13.19-.19.46-.19.8s.06.61.19.81c.13.19.31.29.53.29s.41-.1.53-.29c.13-.19.19-.46.19-.81s-.07-.6-.2-.8-.31-.29-.53-.29h.01ZM482.87,128.1h.63l-3.66,6.06h-.63l3.66-6.06ZM479.33,128.1c.41,0,.74.14.99.43s.37.67.37,1.16-.12.88-.37,1.17c-.24.28-.57.43-.99.43s-.74-.14-.99-.43c-.24-.29-.36-.67-.36-1.16s.12-.87.36-1.16c.24-.29.57-.43.98-.43h0Z"/>
      <path d="M492.22,131.68v.35h-3.31c.03.5.18.87.45,1.13.27.26.64.39,1.12.39.28,0,.54-.03.8-.1.26-.07.52-.17.77-.31v.68c-.26.11-.52.19-.8.25-.27.06-.55.09-.83.09-.7,0-1.25-.2-1.66-.61s-.61-.96-.61-1.65.19-1.29.58-1.71c.39-.42.91-.63,1.57-.63.59,0,1.06.19,1.4.57s.52.89.52,1.55ZM491.5,131.46c0-.39-.12-.71-.33-.94-.22-.24-.5-.35-.86-.35-.4,0-.72.11-.97.34-.24.23-.38.55-.42.96h2.58Z"/>
      <path d="M495.62,127.96v.6h-.69c-.26,0-.44.05-.54.16-.1.1-.15.29-.15.56v.39h1.19v.56h-1.19v3.82h-.72v-3.82h-.69v-.56h.69v-.31c0-.49.11-.84.34-1.07.23-.22.59-.34,1.08-.34h.68Z"/>
      <path d="M498.45,127.96v.6h-.69c-.26,0-.44.05-.54.16-.1.1-.15.29-.15.56v.39h1.19v.56h-1.19v3.82h-.72v-3.82h-.69v-.56h.69v-.31c0-.49.11-.84.34-1.07.23-.22.59-.34,1.08-.34h.68Z"/>
      <path d="M500.75,130.17c-.39,0-.69.15-.92.45-.22.3-.34.71-.34,1.24s.11.94.33,1.24.53.45.92.45.69-.15.91-.45.34-.72.34-1.24-.11-.93-.34-1.23c-.22-.3-.53-.46-.91-.46h.01ZM500.75,129.56c.63,0,1.12.2,1.48.61.36.41.54.97.54,1.69s-.18,1.28-.54,1.69c-.36.41-.85.61-1.48.61s-1.12-.2-1.48-.61c-.36-.41-.53-.97-.53-1.69s.18-1.28.53-1.69c.36-.41.85-.61,1.48-.61Z"/>
      <path d="M506.5,130.34c-.08-.05-.17-.08-.26-.1-.1-.02-.2-.03-.31-.03-.41,0-.72.13-.94.4-.22.26-.33.64-.33,1.14v2.31h-.72v-4.38h.72v.68c.15-.27.35-.46.59-.59.24-.13.54-.19.89-.19.05,0,.1,0,.16,0,.06,0,.13.02.2.03v.74-.02Z"/>
      <path d="M507.97,128.42v1.24h1.48v.56h-1.48v2.38c0,.36.05.59.15.69s.3.15.6.15h.74v.6h-.74c-.56,0-.94-.1-1.15-.31-.21-.21-.32-.59-.32-1.13v-2.38h-.53v-.56h.53v-1.24h.72,0Z"/>
      <path d="M510.29,127.97h.63c.39.62.68,1.22.88,1.81.19.59.29,1.17.29,1.76s-.1,1.17-.29,1.76-.49,1.19-.88,1.81h-.63c.35-.6.61-1.19.78-1.78.17-.59.26-1.19.26-1.79s-.09-1.2-.26-1.78c-.17-.59-.43-1.18-.78-1.78h0Z"/>
      <path class="cls-11" d="M441.74,143h16.04"/>
      <path d="M466.69,139.73c-.35.6-.61,1.19-.78,1.78s-.25,1.18-.25,1.78.09,1.2.26,1.79.43,1.19.78,1.78h-.63c-.39-.61-.68-1.22-.88-1.81-.19-.59-.29-1.18-.29-1.76s.1-1.17.29-1.76.49-1.19.88-1.81h.63-.01Z"/>
      <path d="M469.98,142.57c-.36,0-.64.12-.84.36-.21.24-.31.57-.31,1s.1.75.31,1c.21.24.49.37.84.37s.64-.12.84-.37c.21-.24.31-.58.31-1s-.1-.75-.31-1c-.21-.24-.49-.36-.84-.36ZM471.55,140.09v.72c-.2-.09-.4-.16-.6-.21s-.4-.08-.6-.08c-.52,0-.92.18-1.2.53-.27.35-.43.88-.47,1.6.15-.23.35-.4.58-.52.23-.12.49-.18.77-.18.59,0,1.05.18,1.39.53.34.36.51.84.51,1.45s-.18,1.08-.53,1.44c-.36.36-.83.54-1.42.54-.68,0-1.19-.26-1.55-.78s-.54-1.27-.54-2.25c0-.92.22-1.66.66-2.21s1.03-.82,1.77-.82c.2,0,.4.02.6.06s.41.1.63.18h0Z"/>
      <path d="M474.98,140.48c-.41,0-.71.2-.92.6-.2.4-.31,1-.31,1.81s.1,1.4.31,1.8c.21.4.51.6.92.6s.72-.2.92-.6c.21-.4.31-1,.31-1.8s-.1-1.41-.31-1.81c-.2-.4-.51-.6-.92-.6ZM474.98,139.86c.66,0,1.16.26,1.5.78.35.52.52,1.27.52,2.25s-.17,1.73-.52,2.25c-.35.52-.85.78-1.5.78s-1.16-.26-1.5-.78c-.35-.52-.52-1.27-.52-2.25s.17-1.74.52-2.25c.35-.52.85-.78,1.5-.78Z"/>
      <path d="M483.37,143.23c-.23,0-.41.1-.54.29-.13.19-.19.46-.19.81s.06.61.19.8.31.29.54.29.4-.1.53-.29c.13-.19.19-.46.19-.8s-.06-.61-.19-.8-.3-.29-.53-.29h0ZM483.37,142.74c.41,0,.74.14.98.43.24.29.36.67.36,1.16s-.12.87-.37,1.16c-.24.29-.57.43-.98.43s-.75-.14-.99-.43-.36-.67-.36-1.16.12-.88.37-1.16.57-.43.99-.43ZM479.33,140.36c-.22,0-.4.1-.53.29-.13.19-.19.46-.19.8s.06.61.19.81c.13.19.31.29.53.29s.41-.1.53-.29c.13-.19.19-.46.19-.81s-.07-.6-.2-.8-.31-.29-.53-.29h.01ZM482.87,139.86h.63l-3.66,6.06h-.63l3.66-6.06ZM479.33,139.86c.41,0,.74.14.99.43s.37.67.37,1.16-.12.88-.37,1.17c-.24.28-.57.43-.99.43s-.74-.14-.99-.43c-.24-.29-.36-.67-.36-1.16s.12-.87.36-1.16c.24-.29.57-.43.98-.43h0Z"/>
      <path d="M492.22,143.43v.35h-3.31c.03.5.18.87.45,1.13.27.26.64.39,1.12.39.28,0,.54-.03.8-.1.26-.07.52-.17.77-.31v.68c-.26.11-.52.19-.8.25-.27.06-.55.09-.83.09-.7,0-1.25-.2-1.66-.61s-.61-.96-.61-1.65.19-1.29.58-1.71c.39-.42.91-.63,1.57-.63.59,0,1.06.19,1.4.57s.52.89.52,1.55ZM491.5,143.22c0-.39-.12-.71-.33-.94-.22-.24-.5-.35-.86-.35-.4,0-.72.11-.97.34-.24.23-.38.55-.42.96h2.58Z"/>
      <path d="M495.62,139.72v.6h-.69c-.26,0-.44.05-.54.16-.1.1-.15.29-.15.56v.39h1.19v.56h-1.19v3.82h-.72v-3.82h-.69v-.56h.69v-.31c0-.49.11-.84.34-1.07.23-.22.59-.34,1.08-.34h.68Z"/>
      <path d="M498.45,139.72v.6h-.69c-.26,0-.44.05-.54.16-.1.1-.15.29-.15.56v.39h1.19v.56h-1.19v3.82h-.72v-3.82h-.69v-.56h.69v-.31c0-.49.11-.84.34-1.07.23-.22.59-.34,1.08-.34h.68Z"/>
      <path d="M500.75,141.93c-.39,0-.69.15-.92.45-.22.3-.34.71-.34,1.24s.11.94.33,1.24.53.45.92.45.69-.15.91-.45.34-.72.34-1.24-.11-.93-.34-1.23c-.22-.3-.53-.46-.91-.46h.01ZM500.75,141.32c.63,0,1.12.2,1.48.61.36.41.54.97.54,1.69s-.18,1.28-.54,1.69c-.36.41-.85.61-1.48.61s-1.12-.2-1.48-.61c-.36-.41-.53-.97-.53-1.69s.18-1.28.53-1.69c.36-.41.85-.61,1.48-.61Z"/>
      <path d="M506.5,142.1c-.08-.05-.17-.08-.26-.1-.1-.02-.2-.03-.31-.03-.41,0-.72.13-.94.4-.22.26-.33.64-.33,1.14v2.31h-.72v-4.38h.72v.68c.15-.27.35-.46.59-.59.24-.13.54-.19.89-.19.05,0,.1,0,.16,0,.06,0,.13.02.2.03v.74-.02Z"/>
      <path d="M507.97,140.18v1.24h1.48v.56h-1.48v2.38c0,.36.05.59.15.69s.3.15.6.15h.74v.6h-.74c-.56,0-.94-.1-1.15-.31-.21-.21-.32-.59-.32-1.13v-2.38h-.53v-.56h.53v-1.24h.72,0Z"/>
      <path d="M510.29,139.73h.63c.39.62.68,1.22.88,1.81.19.59.29,1.17.29,1.76s-.1,1.17-.29,1.76-.49,1.19-.88,1.81h-.63c.35-.6.61-1.19.78-1.78.17-.59.26-1.19.26-1.79s-.09-1.2-.26-1.78c-.17-.59-.43-1.18-.78-1.78h0Z"/>
      <path class="cls-14" d="M441.74,154.76h16.04"/>
      <path d="M466.69,151.49c-.35.6-.61,1.19-.78,1.78s-.25,1.18-.25,1.78.09,1.2.26,1.79.43,1.19.78,1.78h-.63c-.39-.61-.68-1.22-.88-1.81-.19-.59-.29-1.18-.29-1.76s.1-1.17.29-1.76.49-1.19.88-1.81h.63-.01Z"/>
      <path d="M467.99,151.72h3.76v.34l-2.12,5.5h-.83l2-5.18h-2.81v-.67h0Z"/>
      <path d="M474.98,152.24c-.41,0-.71.2-.92.6-.2.4-.31,1-.31,1.81s.1,1.4.31,1.8c.21.4.51.6.92.6s.72-.2.92-.6c.21-.4.31-1,.31-1.8s-.1-1.41-.31-1.81c-.2-.4-.51-.6-.92-.6ZM474.98,151.62c.66,0,1.16.26,1.5.78.35.52.52,1.27.52,2.25s-.17,1.73-.52,2.25c-.35.52-.85.78-1.5.78s-1.16-.26-1.5-.78c-.35-.52-.52-1.27-.52-2.25s.17-1.74.52-2.25c.35-.52.85-.78,1.5-.78Z"/>
      <path d="M483.37,154.99c-.23,0-.41.1-.54.29-.13.19-.19.46-.19.81s.06.61.19.8.31.29.54.29.4-.1.53-.29c.13-.19.19-.46.19-.8s-.06-.61-.19-.8-.3-.29-.53-.29h0ZM483.37,154.5c.41,0,.74.14.98.43.24.29.36.67.36,1.16s-.12.87-.37,1.16c-.24.29-.57.43-.98.43s-.75-.14-.99-.43-.36-.67-.36-1.16.12-.88.37-1.16.57-.43.99-.43ZM479.33,152.12c-.22,0-.4.1-.53.29-.13.19-.19.46-.19.8s.06.61.19.81c.13.19.31.29.53.29s.41-.1.53-.29c.13-.19.19-.46.19-.81s-.07-.6-.2-.8-.31-.29-.53-.29h.01ZM482.87,151.62h.63l-3.66,6.06h-.63l3.66-6.06ZM479.33,151.62c.41,0,.74.14.99.43s.37.67.37,1.16-.12.88-.37,1.17c-.24.28-.57.43-.99.43s-.74-.14-.99-.43c-.24-.29-.36-.67-.36-1.16s.12-.87.36-1.16c.24-.29.57-.43.98-.43h0Z"/>
      <path d="M492.22,155.19v.35h-3.31c.03.5.18.87.45,1.13.27.26.64.39,1.12.39.28,0,.54-.03.8-.1.26-.07.52-.17.77-.31v.68c-.26.11-.52.19-.8.25-.27.06-.55.09-.83.09-.7,0-1.25-.2-1.66-.61s-.61-.96-.61-1.65.19-1.29.58-1.71c.39-.42.91-.63,1.57-.63.59,0,1.06.19,1.4.57s.52.89.52,1.55ZM491.5,154.98c0-.39-.12-.71-.33-.94-.22-.24-.5-.35-.86-.35-.4,0-.72.11-.97.34-.24.23-.38.55-.42.96h2.58Z"/>
      <path d="M495.62,151.48v.6h-.69c-.26,0-.44.05-.54.16-.1.1-.15.29-.15.56v.39h1.19v.56h-1.19v3.82h-.72v-3.82h-.69v-.56h.69v-.31c0-.49.11-.84.34-1.07.23-.22.59-.34,1.08-.34h.68Z"/>
      <path d="M498.45,151.48v.6h-.69c-.26,0-.44.05-.54.16-.1.1-.15.29-.15.56v.39h1.19v.56h-1.19v3.82h-.72v-3.82h-.69v-.56h.69v-.31c0-.49.11-.84.34-1.07.23-.22.59-.34,1.08-.34h.68Z"/>
      <path d="M500.75,153.69c-.39,0-.69.15-.92.45-.22.3-.34.71-.34,1.24s.11.94.33,1.24.53.45.92.45.69-.15.91-.45.34-.72.34-1.24-.11-.93-.34-1.23c-.22-.3-.53-.46-.91-.46h.01ZM500.75,153.08c.63,0,1.12.2,1.48.61.36.41.54.97.54,1.69s-.18,1.28-.54,1.69c-.36.41-.85.61-1.48.61s-1.12-.2-1.48-.61c-.36-.41-.53-.97-.53-1.69s.18-1.28.53-1.69c.36-.41.85-.61,1.48-.61Z"/>
      <path d="M506.5,153.86c-.08-.05-.17-.08-.26-.1-.1-.02-.2-.03-.31-.03-.41,0-.72.13-.94.4-.22.26-.33.64-.33,1.14v2.31h-.72v-4.38h.72v.68c.15-.27.35-.46.59-.59.24-.13.54-.19.89-.19.05,0,.1,0,.16,0,.06,0,.13.02.2.03v.74-.02Z"/>
      <path d="M507.97,151.94v1.24h1.48v.56h-1.48v2.38c0,.36.05.59.15.69s.3.15.6.15h.74v.6h-.74c-.56,0-.94-.1-1.15-.31-.21-.21-.32-.59-.32-1.13v-2.38h-.53v-.56h.53v-1.24h.72,0Z"/>
      <path d="M510.29,151.49h.63c.39.62.68,1.22.88,1.81.19.59.29,1.17.29,1.76s-.1,1.17-.29,1.76-.49,1.19-.88,1.81h-.63c.35-.6.61-1.19.78-1.78.17-.59.26-1.19.26-1.79s-.09-1.2-.26-1.78c-.17-.59-.43-1.18-.78-1.78h0Z"/>
      <path class="cls-3" d="M441.74,166.52h16.04"/>
      <path d="M466.69,163.25c-.35.6-.61,1.19-.78,1.78s-.25,1.18-.25,1.78.09,1.2.26,1.79.43,1.19.78,1.78h-.63c-.39-.61-.68-1.22-.88-1.81-.19-.59-.29-1.18-.29-1.76s.1-1.17.29-1.76.49-1.19.88-1.81h.63-.01Z"/>
      <path d="M469.88,166.55c-.38,0-.67.1-.89.3-.21.2-.32.48-.32.83s.11.63.32.83c.22.2.51.3.89.3s.67-.1.89-.3.33-.48.33-.83-.11-.63-.32-.83c-.21-.2-.51-.3-.89-.3h0ZM469.09,166.22c-.34-.08-.6-.24-.79-.47s-.28-.52-.28-.85c0-.47.17-.84.5-1.11s.79-.41,1.37-.41,1.04.14,1.37.41.5.64.5,1.11c0,.33-.09.62-.28.85-.19.23-.45.39-.79.47.38.09.68.26.89.52.21.26.32.57.32.95,0,.57-.17,1-.52,1.3-.35.3-.84.45-1.49.45s-1.14-.15-1.49-.45c-.35-.3-.52-.74-.52-1.3,0-.37.11-.69.32-.95.21-.26.51-.43.89-.52h0ZM468.8,164.97c0,.3.09.54.28.71.19.17.46.25.8.25s.61-.08.8-.25.29-.41.29-.71-.1-.54-.29-.71c-.19-.17-.46-.25-.8-.25s-.61.08-.8.25-.28.41-.28.71Z"/>
      <path d="M474.98,164c-.41,0-.71.2-.92.6-.2.4-.31,1-.31,1.81s.1,1.4.31,1.8c.21.4.51.6.92.6s.72-.2.92-.6c.21-.4.31-1,.31-1.8s-.1-1.41-.31-1.81c-.2-.4-.51-.6-.92-.6ZM474.98,163.38c.66,0,1.16.26,1.5.78.35.52.52,1.27.52,2.25s-.17,1.73-.52,2.25c-.35.52-.85.78-1.5.78s-1.16-.26-1.5-.78c-.35-.52-.52-1.27-.52-2.25s.17-1.74.52-2.25c.35-.52.85-.78,1.5-.78Z"/>
      <path d="M483.37,166.75c-.23,0-.41.1-.54.29-.13.19-.19.46-.19.81s.06.61.19.8.31.29.54.29.4-.1.53-.29c.13-.19.19-.46.19-.8s-.06-.61-.19-.8-.3-.29-.53-.29h0ZM483.37,166.26c.41,0,.74.14.98.43.24.29.36.67.36,1.16s-.12.87-.37,1.16c-.24.29-.57.43-.98.43s-.75-.14-.99-.43-.36-.67-.36-1.16.12-.88.37-1.16.57-.43.99-.43ZM479.33,163.88c-.22,0-.4.1-.53.29-.13.19-.19.46-.19.8s.06.61.19.81c.13.19.31.29.53.29s.41-.1.53-.29c.13-.19.19-.46.19-.81s-.07-.6-.2-.8-.31-.29-.53-.29h.01ZM482.87,163.38h.63l-3.66,6.06h-.63l3.66-6.06ZM479.33,163.38c.41,0,.74.14.99.43s.37.67.37,1.16-.12.88-.37,1.17c-.24.28-.57.43-.99.43s-.74-.14-.99-.43c-.24-.29-.36-.67-.36-1.16s.12-.87.36-1.16c.24-.29.57-.43.98-.43h0Z"/>
      <path d="M492.22,166.95v.35h-3.31c.03.5.18.87.45,1.13.27.26.64.39,1.12.39.28,0,.54-.03.8-.1.26-.07.52-.17.77-.31v.68c-.26.11-.52.19-.8.25-.27.06-.55.09-.83.09-.7,0-1.25-.2-1.66-.61s-.61-.96-.61-1.65.19-1.29.58-1.71c.39-.42.91-.63,1.57-.63.59,0,1.06.19,1.4.57s.52.89.52,1.55ZM491.5,166.74c0-.39-.12-.71-.33-.94-.22-.24-.5-.35-.86-.35-.4,0-.72.11-.97.34-.24.23-.38.55-.42.96h2.58Z"/>
      <path d="M495.62,163.24v.6h-.69c-.26,0-.44.05-.54.16-.1.1-.15.29-.15.56v.39h1.19v.56h-1.19v3.82h-.72v-3.82h-.69v-.56h.69v-.31c0-.49.11-.84.34-1.07.23-.22.59-.34,1.08-.34h.68Z"/>
      <path d="M498.45,163.24v.6h-.69c-.26,0-.44.05-.54.16-.1.1-.15.29-.15.56v.39h1.19v.56h-1.19v3.82h-.72v-3.82h-.69v-.56h.69v-.31c0-.49.11-.84.34-1.07.23-.22.59-.34,1.08-.34h.68Z"/>
      <path d="M500.75,165.45c-.39,0-.69.15-.92.45-.22.3-.34.71-.34,1.24s.11.94.33,1.24.53.45.92.45.69-.15.91-.45.34-.72.34-1.24-.11-.93-.34-1.23c-.22-.3-.53-.46-.91-.46h.01ZM500.75,164.84c.63,0,1.12.2,1.48.61.36.41.54.97.54,1.69s-.18,1.28-.54,1.69c-.36.41-.85.61-1.48.61s-1.12-.2-1.48-.61c-.36-.41-.53-.97-.53-1.69s.18-1.28.53-1.69c.36-.41.85-.61,1.48-.61Z"/>
      <path d="M506.5,165.62c-.08-.05-.17-.08-.26-.1-.1-.02-.2-.03-.31-.03-.41,0-.72.13-.94.4-.22.26-.33.64-.33,1.14v2.31h-.72v-4.38h.72v.68c.15-.27.35-.46.59-.59.24-.13.54-.19.89-.19.05,0,.1,0,.16,0,.06,0,.13.02.2.03v.74-.02Z"/>
      <path d="M507.97,163.7v1.24h1.48v.56h-1.48v2.38c0,.36.05.59.15.69s.3.15.6.15h.74v.6h-.74c-.56,0-.94-.1-1.15-.31-.21-.21-.32-.59-.32-1.13v-2.38h-.53v-.56h.53v-1.24h.72,0Z"/>
      <path d="M510.29,163.25h.63c.39.62.68,1.22.88,1.81.19.59.29,1.17.29,1.76s-.1,1.17-.29,1.76-.49,1.19-.88,1.81h-.63c.35-.6.61-1.19.78-1.78.17-.59.26-1.19.26-1.79s-.09-1.2-.26-1.78c-.17-.59-.43-1.18-.78-1.78h0Z"/>
      <path class="cls-1" d="M441.74,178.28h16.04"/>
      <path d="M466.69,175.01c-.35.6-.61,1.19-.78,1.78s-.25,1.18-.25,1.78.09,1.2.26,1.79.43,1.19.78,1.78h-.63c-.39-.61-.68-1.22-.88-1.81-.19-.59-.29-1.18-.29-1.76s.1-1.17.29-1.76.49-1.19.88-1.81h.63-.01Z"/>
      <path d="M468.21,180.96v-.72c.2.09.4.17.6.22s.4.07.6.07c.52,0,.92-.18,1.2-.53s.43-.88.47-1.6c-.15.22-.34.4-.58.52-.23.12-.49.18-.77.18-.58,0-1.05-.18-1.39-.53-.34-.35-.51-.84-.51-1.45s.18-1.08.53-1.44c.36-.36.83-.54,1.42-.54.68,0,1.19.26,1.55.78s.54,1.27.54,2.25c0,.92-.22,1.66-.66,2.2-.44.55-1.02.82-1.76.82-.2,0-.4-.02-.6-.06s-.41-.1-.63-.18h-.01ZM469.79,178.49c.36,0,.64-.12.84-.36.21-.24.31-.58.31-1s-.1-.75-.31-1c-.21-.24-.49-.37-.84-.37s-.64.12-.84.37-.31.58-.31,1,.1.76.31,1,.49.36.84.36Z"/>
      <path d="M474.98,175.76c-.41,0-.71.2-.92.6-.2.4-.31,1-.31,1.81s.1,1.4.31,1.8c.21.4.51.6.92.6s.72-.2.92-.6c.21-.4.31-1,.31-1.8s-.1-1.41-.31-1.81c-.2-.4-.51-.6-.92-.6ZM474.98,175.14c.66,0,1.16.26,1.5.78.35.52.52,1.27.52,2.25s-.17,1.73-.52,2.25c-.35.52-.85.78-1.5.78s-1.16-.26-1.5-.78c-.35-.52-.52-1.27-.52-2.25s.17-1.74.52-2.25c.35-.52.85-.78,1.5-.78Z"/>
      <path d="M483.37,178.51c-.23,0-.41.1-.54.29-.13.19-.19.46-.19.81s.06.61.19.8.31.29.54.29.4-.1.53-.29c.13-.19.19-.46.19-.8s-.06-.61-.19-.8-.3-.29-.53-.29h0ZM483.37,178.02c.41,0,.74.14.98.43.24.29.36.67.36,1.16s-.12.87-.37,1.16c-.24.29-.57.43-.98.43s-.75-.14-.99-.43-.36-.67-.36-1.16.12-.88.37-1.16.57-.43.99-.43ZM479.33,175.64c-.22,0-.4.1-.53.29-.13.19-.19.46-.19.8s.06.61.19.81c.13.19.31.29.53.29s.41-.1.53-.29c.13-.19.19-.46.19-.81s-.07-.6-.2-.8-.31-.29-.53-.29h.01ZM482.87,175.14h.63l-3.66,6.06h-.63l3.66-6.06ZM479.33,175.14c.41,0,.74.14.99.43s.37.67.37,1.16-.12.88-.37,1.17c-.24.28-.57.43-.99.43s-.74-.14-.99-.43c-.24-.29-.36-.67-.36-1.16s.12-.87.36-1.16c.24-.29.57-.43.98-.43h0Z"/>
      <path d="M492.22,178.71v.35h-3.31c.03.5.18.87.45,1.13.27.26.64.39,1.12.39.28,0,.54-.03.8-.1.26-.07.52-.17.77-.31v.68c-.26.11-.52.19-.8.25-.27.06-.55.09-.83.09-.7,0-1.25-.2-1.66-.61s-.61-.96-.61-1.65.19-1.29.58-1.71c.39-.42.91-.63,1.57-.63.59,0,1.06.19,1.4.57s.52.89.52,1.55ZM491.5,178.5c0-.39-.12-.71-.33-.94-.22-.24-.5-.35-.86-.35-.4,0-.72.11-.97.34-.24.23-.38.55-.42.96h2.58Z"/>
      <path d="M495.62,175v.6h-.69c-.26,0-.44.05-.54.16-.1.1-.15.29-.15.56v.39h1.19v.56h-1.19v3.82h-.72v-3.82h-.69v-.56h.69v-.31c0-.49.11-.84.34-1.07.23-.22.59-.34,1.08-.34h.68Z"/>
      <path d="M498.45,175v.6h-.69c-.26,0-.44.05-.54.16-.1.1-.15.29-.15.56v.39h1.19v.56h-1.19v3.82h-.72v-3.82h-.69v-.56h.69v-.31c0-.49.11-.84.34-1.07.23-.22.59-.34,1.08-.34h.68Z"/>
      <path d="M500.75,177.21c-.39,0-.69.15-.92.45-.22.3-.34.71-.34,1.24s.11.94.33,1.24.53.45.92.45.69-.15.91-.45.34-.72.34-1.24-.11-.93-.34-1.23c-.22-.3-.53-.46-.91-.46h.01ZM500.75,176.6c.63,0,1.12.2,1.48.61.36.41.54.97.54,1.69s-.18,1.28-.54,1.69c-.36.41-.85.61-1.48.61s-1.12-.2-1.48-.61c-.36-.41-.53-.97-.53-1.69s.18-1.28.53-1.69c.36-.41.85-.61,1.48-.61Z"/>
      <path d="M506.5,177.38c-.08-.05-.17-.08-.26-.1-.1-.02-.2-.03-.31-.03-.41,0-.72.13-.94.4-.22.26-.33.64-.33,1.14v2.31h-.72v-4.38h.72v.68c.15-.27.35-.46.59-.59.24-.13.54-.19.89-.19.05,0,.1,0,.16,0,.06,0,.13.02.2.03v.74-.02Z"/>
      <path d="M507.97,175.46v1.24h1.48v.56h-1.48v2.38c0,.36.05.59.15.69s.3.15.6.15h.74v.6h-.74c-.56,0-.94-.1-1.15-.31-.21-.21-.32-.59-.32-1.13v-2.38h-.53v-.56h.53v-1.24h.72,0Z"/>
      <path d="M510.29,175.01h.63c.39.62.68,1.22.88,1.81.19.59.29,1.17.29,1.76s-.1,1.17-.29,1.76-.49,1.19-.88,1.81h-.63c.35-.6.61-1.19.78-1.78.17-.59.26-1.19.26-1.79s-.09-1.2-.26-1.78c-.17-.59-.43-1.18-.78-1.78h0Z"/>
      <path class="cls-4" d="M441.74,190.04h16.04"/>
      <path d="M466.69,186.77c-.35.6-.61,1.19-.78,1.78s-.25,1.18-.25,1.78.09,1.2.26,1.79.43,1.19.78,1.78h-.63c-.39-.61-.68-1.22-.88-1.81-.19-.59-.29-1.18-.29-1.76s.1-1.17.29-1.76.49-1.19.88-1.81h.63-.01Z"/>
      <path d="M468.33,192.18h1.29v-4.46l-1.41.28v-.72l1.4-.28h.79v5.18h1.29v.66h-3.37v-.66h0Z"/>
      <path d="M474.98,187.52c-.41,0-.71.2-.92.6-.2.4-.31,1-.31,1.81s.1,1.4.31,1.8c.21.4.51.6.92.6s.72-.2.92-.6c.21-.4.31-1,.31-1.8s-.1-1.41-.31-1.81c-.2-.4-.51-.6-.92-.6ZM474.98,186.9c.66,0,1.16.26,1.5.78.35.52.52,1.27.52,2.25s-.17,1.73-.52,2.25c-.35.52-.85.78-1.5.78s-1.16-.26-1.5-.78c-.35-.52-.52-1.27-.52-2.25s.17-1.74.52-2.25c.35-.52.85-.78,1.5-.78Z"/>
      <path d="M480.09,187.52c-.41,0-.71.2-.92.6-.2.4-.31,1-.31,1.81s.1,1.4.31,1.8c.21.4.51.6.92.6s.72-.2.92-.6c.21-.4.31-1,.31-1.8s-.1-1.41-.31-1.81c-.2-.4-.51-.6-.92-.6ZM480.09,186.9c.66,0,1.16.26,1.5.78.35.52.52,1.27.52,2.25s-.17,1.73-.52,2.25c-.35.52-.85.78-1.5.78s-1.16-.26-1.5-.78c-.35-.52-.52-1.27-.52-2.25s.17-1.74.52-2.25c.35-.52.85-.78,1.5-.78Z"/>
      <path d="M488.47,190.27c-.23,0-.41.1-.54.29-.13.19-.19.46-.19.81s.06.61.19.8.31.29.54.29.4-.1.53-.29c.13-.19.19-.46.19-.8s-.06-.61-.19-.8-.3-.29-.53-.29h0ZM488.47,189.78c.41,0,.74.14.98.43.24.29.36.67.36,1.16s-.12.87-.37,1.16c-.24.29-.57.43-.98.43s-.75-.14-.99-.43-.36-.67-.36-1.16.12-.88.37-1.16.57-.43.99-.43ZM484.43,187.4c-.22,0-.4.1-.53.29-.13.19-.19.46-.19.8s.06.61.19.81c.13.19.31.29.53.29s.41-.1.53-.29c.13-.19.19-.46.19-.81s-.07-.6-.2-.8-.31-.29-.53-.29h.01ZM487.97,186.9h.63l-3.66,6.06h-.63l3.66-6.06ZM484.43,186.9c.41,0,.74.14.99.43s.37.67.37,1.16-.12.88-.37,1.17c-.24.28-.57.43-.99.43s-.74-.14-.99-.43c-.24-.29-.36-.67-.36-1.16s.12-.87.36-1.16c.24-.29.57-.43.98-.43h0Z"/>
      <path d="M497.32,190.47v.35h-3.31c.03.5.18.87.45,1.13.27.26.64.39,1.12.39.28,0,.54-.03.8-.1.26-.07.52-.17.77-.31v.68c-.26.11-.52.19-.8.25-.27.06-.55.09-.83.09-.7,0-1.25-.2-1.66-.61s-.61-.96-.61-1.65.19-1.29.58-1.71c.39-.42.91-.63,1.57-.63.59,0,1.06.19,1.4.57s.52.89.52,1.55ZM496.6,190.26c0-.39-.12-.71-.33-.94-.22-.24-.5-.35-.86-.35-.4,0-.72.11-.97.34-.24.23-.38.55-.42.96h2.58Z"/>
      <path d="M500.73,186.76v.6h-.69c-.26,0-.44.05-.54.16-.1.1-.15.29-.15.56v.39h1.19v.56h-1.19v3.82h-.72v-3.82h-.69v-.56h.69v-.31c0-.49.11-.84.34-1.07.23-.22.59-.34,1.08-.34h.68Z"/>
      <path d="M503.55,186.76v.6h-.69c-.26,0-.44.05-.54.16-.1.1-.15.29-.15.56v.39h1.19v.56h-1.19v3.82h-.72v-3.82h-.69v-.56h.69v-.31c0-.49.11-.84.34-1.07.23-.22.59-.34,1.08-.34h.68Z"/>
      <path d="M505.85,188.97c-.39,0-.69.15-.92.45-.22.3-.34.71-.34,1.24s.11.94.33,1.24.53.45.92.45.69-.15.91-.45.34-.72.34-1.24-.11-.93-.34-1.23c-.22-.3-.53-.46-.91-.46h.01ZM505.85,188.36c.63,0,1.12.2,1.48.61.36.41.54.97.54,1.69s-.18,1.28-.54,1.69c-.36.41-.85.61-1.48.61s-1.12-.2-1.48-.61c-.36-.41-.53-.97-.53-1.69s.18-1.28.53-1.69c.36-.41.85-.61,1.48-.61Z"/>
      <path d="M511.6,189.14c-.08-.05-.17-.08-.26-.1-.1-.02-.2-.03-.31-.03-.41,0-.72.13-.94.4-.22.26-.33.64-.33,1.14v2.31h-.72v-4.38h.72v.68c.15-.27.35-.46.59-.59.24-.13.54-.19.89-.19.05,0,.1,0,.16,0,.06,0,.13.02.2.03v.74-.02Z"/>
      <path d="M513.07,187.22v1.24h1.48v.56h-1.48v2.38c0,.36.05.59.15.69.1.1.3.15.6.15h.74v.6h-.74c-.56,0-.94-.1-1.15-.31-.21-.21-.32-.59-.32-1.13v-2.38h-.53v-.56h.53v-1.24h.72Z"/>
      <path d="M515.39,186.77h.63c.39.62.68,1.22.88,1.81.19.59.29,1.17.29,1.76s-.1,1.17-.29,1.76-.49,1.19-.88,1.81h-.63c.35-.6.61-1.19.78-1.78.17-.59.26-1.19.26-1.79s-.09-1.2-.26-1.78c-.17-.59-.43-1.18-.78-1.78h0Z"/>
    </g>
  </g>
</svg>