<?xml version="1.0" encoding="UTF-8"?>
<svg id="Layer_1" xmlns="http://www.w3.org/2000/svg" version="1.1" xmlns:xlink="http://www.w3.org/1999/xlink" viewBox="0 0 523 268">
  <!-- Generator: Adobe Illustrator 30.0.0, SVG Export Plug-In . SVG Version: 2.1.1 Build 123)  -->
  <defs>
    <style>
      .st0 {
        clip-path: url(#clippath-6);
      }

      .st1 {
        clip-path: url(#clippath-7);
      }

      .st2 {
        stroke: #9467bd;
      }

      .st2, .st3, .st4, .st5, .st6, .st7, .st8, .st9, .st10, .st11, .st12, .st13, .st14 {
        fill: none;
      }

      .st2, .st3, .st4, .st5, .st7, .st8, .st9, .st10, .st11, .st12, .st13 {
        stroke-linecap: square;
      }

      .st2, .st3, .st4, .st5, .st7, .st8, .st9, .st11, .st12, .st13 {
        stroke-width: 1.4px;
      }

      .st2, .st3, .st4, .st5, .st7, .st8, .st9, .st11, .st12, .st13, .st14 {
        stroke-linejoin: round;
      }

      .st3 {
        stroke: #d62728;
      }

      .st15 {
        clip-path: url(#clippath-4);
      }

      .st16 {
        clip-path: url(#clippath-9);
      }

      .st17 {
        clip-path: url(#clippath-10);
      }

      .st4 {
        stroke: #17becf;
      }

      .st18 {
        fill: #fff;
      }

      .st5 {
        stroke: #7f7f7f;
      }

      .st19 {
        clip-path: url(#clippath-11);
      }

      .st7 {
        stroke: #e377c2;
      }

      .st20 {
        clip-path: url(#clippath-1);
      }

      .st21 {
        isolation: isolate;
      }

      .st22 {
        clip-path: url(#clippath-5);
      }

      .st8 {
        stroke: #1f77b4;
      }

      .st23 {
        clip-path: url(#clippath-8);
      }

      .st9 {
        stroke: #8c564b;
      }

      .st10, .st14 {
        stroke: #000;
        stroke-width: .8px;
      }

      .st24 {
        clip-path: url(#clippath-3);
      }

      .st11 {
        stroke: #2ca02c;
      }

      .st25 {
        clip-path: url(#clippath-12);
      }

      .st12 {
        stroke: #ff7f0e;
      }

      .st13 {
        stroke: #bcbd22;
      }

      .st26 {
        clip-path: url(#clippath-2);
      }

      .st27 {
        clip-path: url(#clippath);
      }
    </style>
    <clipPath id="clippath">
      <rect class="st6" x="-37" y="-9" width="624" height="277"/>
    </clipPath>
    <clipPath id="clippath-1">
      <rect class="st6" x="41" y="24" width="390" height="214"/>
    </clipPath>
    <clipPath id="clippath-2">
      <rect class="st6" x="41" y="24" width="390" height="214"/>
    </clipPath>
    <clipPath id="clippath-3">
      <rect class="st6" x="41" y="24" width="390" height="214"/>
    </clipPath>
    <clipPath id="clippath-4">
      <rect class="st6" x="41" y="24" width="390" height="214"/>
    </clipPath>
    <clipPath id="clippath-5">
      <rect class="st6" x="41" y="24" width="390" height="214"/>
    </clipPath>
    <clipPath id="clippath-6">
      <rect class="st6" x="41" y="24" width="390" height="214"/>
    </clipPath>
    <clipPath id="clippath-7">
      <rect class="st6" x="41" y="24" width="390" height="214"/>
    </clipPath>
    <clipPath id="clippath-8">
      <rect class="st6" x="41" y="24" width="390" height="214"/>
    </clipPath>
    <clipPath id="clippath-9">
      <rect class="st6" x="41" y="24" width="390" height="214"/>
    </clipPath>
    <clipPath id="clippath-10">
      <rect class="st6" x="41" y="24" width="390" height="214"/>
    </clipPath>
    <clipPath id="clippath-11">
      <rect class="st6" x="41" y="24" width="390" height="214"/>
    </clipPath>
    <clipPath id="clippath-12">
      <rect class="st6" x="434" y="64" width="85" height="134"/>
    </clipPath>
  </defs>
  <g class="st27">
    <g>
      <path class="st18" d="M41,237.5h390V24.2H41v213.3Z"/>
      <path class="st14" d="M41,237.5v3.4"/>
      <path d="M41,245.2c-.5,0-.9.2-1.1.7-.2.5-.4,1.2-.4,2.2s0,1.7.4,2.2c.2.5.6.7,1.1.7s.9-.2,1.1-.7c.2-.5.4-1.2.4-2.2s0-1.7-.4-2.2c-.2-.5-.6-.7-1.1-.7ZM41,244.4c.8,0,1.4.3,1.8.9.4.6.6,1.5.6,2.7s-.2,2.1-.6,2.7c-.4.6-1,.9-1.8.9s-1.4-.3-1.8-.9c-.4-.6-.6-1.5-.6-2.7s.2-2.1.6-2.7c.4-.6,1-.9,1.8-.9Z"/>
      <path class="st14" d="M106,237.5v3.4"/>
      <path d="M98,250.8h1.6v-5.4l-1.7.3v-.9l1.7-.3h.9v6.2h1.6v.8h-4v-.8h0Z"/>
      <path d="M106,245.2c-.5,0-.9.2-1.1.7s-.4,1.2-.4,2.2,0,1.7.4,2.2c.2.5.6.7,1.1.7s.9-.2,1.1-.7.4-1.2.4-2.2,0-1.7-.4-2.2c-.2-.5-.6-.7-1.1-.7ZM106,244.4c.8,0,1.4.3,1.8.9.4.6.6,1.5.6,2.7s-.2,2.1-.6,2.7c-.4.6-1,.9-1.8.9s-1.4-.3-1.8-.9c-.4-.6-.6-1.5-.6-2.7s.2-2.1.6-2.7c.4-.6,1-.9,1.8-.9Z"/>
      <path d="M112.1,245.2c-.5,0-.9.2-1.1.7s-.4,1.2-.4,2.2,0,1.7.4,2.2c.2.5.6.7,1.1.7s.9-.2,1.1-.7.4-1.2.4-2.2,0-1.7-.4-2.2c-.2-.5-.6-.7-1.1-.7ZM112.1,244.4c.8,0,1.4.3,1.8.9.4.6.6,1.5.6,2.7s-.2,2.1-.6,2.7c-.4.6-1,.9-1.8.9s-1.4-.3-1.8-.9c-.4-.6-.6-1.5-.6-2.7s.2-2.1.6-2.7c.4-.6,1-.9,1.8-.9Z"/>
      <path class="st14" d="M171,237.5v3.4"/>
      <path d="M163.7,250.8h3.3v.8h-4.5v-.8l1.5-1.5,1.2-1.2c.3-.3.5-.6.6-.9.1-.2.2-.5.2-.7,0-.4-.1-.7-.4-.9-.3-.2-.6-.4-1-.4s-.6,0-.9.2c-.3.1-.7.3-1.1.5v-1c.4-.2.7-.3,1.1-.3s.6-.1.9-.1c.7,0,1.3.2,1.7.5.4.4.6.8.6,1.5s0,.6-.2.8c-.1.3-.3.6-.6.9,0,0-.3.4-.7.8l-1.8,1.8h0Z"/>
      <path d="M171,245.2c-.5,0-.9.2-1.1.7-.2.5-.4,1.2-.4,2.2s.1,1.7.4,2.2c.2.5.6.7,1.1.7s.9-.2,1.1-.7c.2-.5.4-1.2.4-2.2s-.1-1.7-.4-2.2c-.2-.5-.6-.7-1.1-.7ZM171,244.4c.8,0,1.4.3,1.8.9.4.6.6,1.5.6,2.7s-.2,2.1-.6,2.7c-.4.6-1,.9-1.8.9s-1.4-.3-1.8-.9c-.4-.6-.6-1.5-.6-2.7s.2-2.1.6-2.7c.4-.6,1-.9,1.8-.9Z"/>
      <path d="M177.1,245.2c-.5,0-.9.2-1.1.7-.2.5-.4,1.2-.4,2.2s.1,1.7.4,2.2c.2.5.6.7,1.1.7s.9-.2,1.1-.7c.2-.5.4-1.2.4-2.2s-.1-1.7-.4-2.2c-.2-.5-.6-.7-1.1-.7ZM177.1,244.4c.8,0,1.4.3,1.8.9.4.6.6,1.5.6,2.7s-.2,2.1-.6,2.7c-.4.6-1,.9-1.8.9s-1.4-.3-1.8-.9c-.4-.6-.6-1.5-.6-2.7s.2-2.1.6-2.7c.4-.6,1-.9,1.8-.9Z"/>
      <path class="st14" d="M236,237.5v3.4"/>
      <path d="M230.7,247.8c.5,0,.8.3,1.1.6s.4.7.4,1.1c0,.7-.2,1.2-.7,1.6-.5.4-1.2.6-2,.6h-.9c-.3,0-.6-.1-1-.3v-.9c.3.2.6.3.9.3s.6.1,1,.1c.6,0,1-.1,1.4-.4.3-.2.5-.6.5-1s-.1-.7-.4-1c-.3-.2-.7-.4-1.2-.4h-.8v-.8h.9c.5,0,.8,0,1.1-.3s.4-.5.4-.8-.1-.6-.4-.8c-.3-.2-.6-.3-1.1-.3h-.8c-.3,0-.6.1-1,.3v-.8c.4-.1.7-.2,1-.2h.9c.7,0,1.3.2,1.7.5s.6.8.6,1.3-.1.7-.3,1-.5.5-.9.6h-.4Z"/>
      <path d="M236,245.2c-.5,0-.9.2-1.1.7-.2.5-.4,1.2-.4,2.2s.1,1.7.4,2.2c.2.5.6.7,1.1.7s.9-.2,1.1-.7c.2-.5.4-1.2.4-2.2s-.1-1.7-.4-2.2c-.2-.5-.6-.7-1.1-.7ZM236,244.4c.8,0,1.4.3,1.8.9.4.6.6,1.5.6,2.7s-.2,2.1-.6,2.7c-.4.6-1,.9-1.8.9s-1.4-.3-1.8-.9c-.4-.6-.6-1.5-.6-2.7s.2-2.1.6-2.7c.4-.6,1-.9,1.8-.9Z"/>
      <path d="M242.1,245.2c-.5,0-.9.2-1.1.7-.2.5-.4,1.2-.4,2.2s.1,1.7.4,2.2c.2.5.6.7,1.1.7s.9-.2,1.1-.7c.2-.5.4-1.2.4-2.2s-.1-1.7-.4-2.2c-.2-.5-.6-.7-1.1-.7ZM242.1,244.4c.8,0,1.4.3,1.8.9.4.6.6,1.5.6,2.7s-.2,2.1-.6,2.7c-.4.6-1,.9-1.8.9s-1.4-.3-1.8-.9c-.4-.6-.6-1.5-.6-2.7s.2-2.1.6-2.7c.4-.6,1-.9,1.8-.9Z"/>
      <path class="st14" d="M301,237.5v3.4"/>
      <path d="M295.4,245.4l-2.4,3.7h2.4v-3.7ZM295.2,244.6h1.2v4.6h1v.8h-1v1.7h-.9v-1.7h-3.2v-.9l2.9-4.4h0Z"/>
      <path d="M301,245.2c-.5,0-.9.2-1.1.7s-.4,1.2-.4,2.2.1,1.7.4,2.2c.2.5.6.7,1.1.7s.9-.2,1.1-.7.4-1.2.4-2.2-.1-1.7-.4-2.2c-.2-.5-.6-.7-1.1-.7ZM301,244.4c.8,0,1.4.3,1.8.9.4.6.6,1.5.6,2.7s-.2,2.1-.6,2.7c-.4.6-1,.9-1.8.9s-1.4-.3-1.8-.9c-.4-.6-.6-1.5-.6-2.7s.2-2.1.6-2.7c.4-.6,1-.9,1.8-.9Z"/>
      <path d="M307.1,245.2c-.5,0-.9.2-1.1.7s-.4,1.2-.4,2.2.1,1.7.4,2.2c.2.5.6.7,1.1.7s.9-.2,1.1-.7.4-1.2.4-2.2-.1-1.7-.4-2.2c-.2-.5-.6-.7-1.1-.7ZM307.1,244.4c.8,0,1.4.3,1.8.9.4.6.6,1.5.6,2.7s-.2,2.1-.6,2.7c-.4.6-1,.9-1.8.9s-1.4-.3-1.8-.9c-.4-.6-.6-1.5-.6-2.7s.2-2.1.6-2.7c.4-.6,1-.9,1.8-.9Z"/>
      <path class="st14" d="M366,237.5v3.4"/>
      <path d="M357.8,244.6h3.7v.8h-2.9v1.7c.1,0,.3,0,.4-.1h.4c.8,0,1.4.2,1.9.6.5.4.7,1,.7,1.7s-.2,1.3-.7,1.8c-.5.4-1.1.6-2,.6h-.9c-.3,0-.6-.1-.9-.2v-1c.3.2.6.3.9.3s.6.1,1,.1,1-.1,1.3-.4c.3-.3.5-.7.5-1.2s-.2-.9-.5-1.2-.7-.4-1.3-.4h-.8c-.3,0-.5.1-.8.3v-3.5h0Z"/>
      <path d="M366,245.2c-.5,0-.9.2-1.1.7s-.4,1.2-.4,2.2.1,1.7.4,2.2c.2.5.6.7,1.1.7s.9-.2,1.1-.7.4-1.2.4-2.2-.1-1.7-.4-2.2c-.2-.5-.6-.7-1.1-.7ZM366,244.4c.8,0,1.4.3,1.8.9.4.6.6,1.5.6,2.7s-.2,2.1-.6,2.7c-.4.6-1,.9-1.8.9s-1.4-.3-1.8-.9c-.4-.6-.6-1.5-.6-2.7s.2-2.1.6-2.7c.4-.6,1-.9,1.8-.9Z"/>
      <path d="M372.1,245.2c-.5,0-.9.2-1.1.7s-.4,1.2-.4,2.2.1,1.7.4,2.2c.2.5.6.7,1.1.7s.9-.2,1.1-.7.4-1.2.4-2.2-.1-1.7-.4-2.2c-.2-.5-.6-.7-1.1-.7ZM372.1,244.4c.8,0,1.4.3,1.8.9.4.6.6,1.5.6,2.7s-.2,2.1-.6,2.7c-.4.6-1,.9-1.8.9s-1.4-.3-1.8-.9c-.4-.6-.6-1.5-.6-2.7s.2-2.1.6-2.7c.4-.6,1-.9,1.8-.9Z"/>
      <path class="st14" d="M431,237.5v3.4"/>
      <path d="M425,247.7c-.4,0-.8.1-1,.4-.2.3-.4.7-.4,1.2s.1.9.4,1.2c.2.3.6.4,1,.4s.8-.1,1-.4c.2-.3.4-.7.4-1.2s-.1-.9-.4-1.2c-.2-.3-.6-.4-1-.4ZM426.9,244.7v.9c-.2-.1-.5-.2-.7-.3h-.7c-.6,0-1.1.2-1.4.6-.3.4-.5,1.1-.6,1.9.2-.3.4-.5.7-.6.3-.1.6-.2.9-.2.7,0,1.3.2,1.7.6.4.4.6,1,.6,1.7s-.2,1.3-.6,1.7-1,.7-1.7.7-1.4-.3-1.9-.9c-.4-.6-.6-1.5-.6-2.7s.3-2,.8-2.7,1.2-1,2.1-1,.5,0,.7,0,.5.1.8.2h0Z"/>
      <path d="M431,245.2c-.5,0-.9.2-1.1.7s-.4,1.2-.4,2.2.1,1.7.4,2.2c.2.5.6.7,1.1.7s.9-.2,1.1-.7.4-1.2.4-2.2-.1-1.7-.4-2.2c-.2-.5-.6-.7-1.1-.7ZM431,244.4c.8,0,1.4.3,1.8.9.4.6.6,1.5.6,2.7s-.2,2.1-.6,2.7c-.4.6-1,.9-1.8.9s-1.4-.3-1.8-.9c-.4-.6-.6-1.5-.6-2.7s.2-2.1.6-2.7c.4-.6,1-.9,1.8-.9Z"/>
      <path d="M437.1,245.2c-.5,0-.9.2-1.1.7s-.4,1.2-.4,2.2.1,1.7.4,2.2c.2.5.6.7,1.1.7s.9-.2,1.1-.7.4-1.2.4-2.2-.1-1.7-.4-2.2c-.2-.5-.6-.7-1.1-.7ZM437.1,244.4c.8,0,1.4.3,1.8.9.4.6.6,1.5.6,2.7s-.2,2.1-.6,2.7c-.4.6-1,.9-1.8.9s-1.4-.3-1.8-.9c-.4-.6-.6-1.5-.6-2.7s.2-2.1.6-2.7c.4-.6,1-.9,1.8-.9Z"/>
      <path d="M206.6,257.7h5.9v.8h-2.5v6.2h-1v-6.2h-2.5v-.8h.1Z"/>
      <path d="M213.4,259.5h.9v5.3h-.9v-5.3ZM213.4,257.4h.9v1.1h-.9v-1.1Z"/>
      <path d="M220.2,260.5c.2-.4.5-.7.8-.9.3-.2.7-.3,1.1-.3s1,.2,1.3.6.4.9.4,1.6v3.2h-.9v-3.1c0-.5,0-.9-.3-1.1-.2-.2-.5-.4-.8-.4s-.8.1-1.1.4-.4.7-.4,1.2v3h-.9v-3.1c0-.5,0-.9-.3-1.1-.2-.2-.5-.4-.8-.4s-.8.1-1.1.4-.4.7-.4,1.2v3h-.9v-5.3h.9v.8c.2-.3.4-.6.7-.7.3-.2.6-.2,1-.2s.7,0,1,.3c.3.2.5.5.6.8h0Z"/>
      <path d="M230,261.9v.4h-4c0,.6.2,1,.5,1.4.3.3.8.5,1.3.5s.7,0,1-.1c.3,0,.6-.2.9-.4v.8c-.3.1-.6.2-1,.3-.3,0-.7.1-1,.1-.8,0-1.5-.2-2-.7s-.7-1.2-.7-2,.2-1.5.7-2,1.1-.8,1.9-.8,1.3.2,1.7.7.6,1.1.6,1.9h.1ZM229.1,261.6c0-.5-.1-.8-.4-1.1-.3-.3-.6-.4-1-.4s-.9.1-1.2.4-.5.7-.5,1.2h3.1,0Z"/>
      <path d="M231.6,263.5h1v.8l-.8,1.5h-.6l.4-1.5v-.8h0Z"/>
      <path d="M240.7,259.5v.7h-1.9l-.6,2.9v.5c0,.2,0,.3.2.4.1,0,.3.1.6.1h.9v.7h-1c-.5,0-.9-.1-1.1-.3-.3-.2-.4-.5-.4-.9s0-.2,0-.2v-.3l.6-2.9h-.7v-.7h.9l.3-1.5h.9l-.3,1.5h1.7,0Z"/>
      <path d="M244.3,257.4h2v.7h-1.1v7.2h1.1v.7h-2v-8.6h0Z"/>
      <path d="M252.2,260.5c.2-.4.5-.7.8-.9.3-.2.7-.3,1.1-.3s1,.2,1.3.6.4.9.4,1.6v3.2h-.9v-3.1c0-.5,0-.9-.3-1.1-.2-.2-.5-.4-.8-.4s-.8.1-1.1.4-.4.7-.4,1.2v3h-.9v-3.1c0-.5,0-.9-.3-1.1-.2-.2-.5-.4-.8-.4s-.8.1-1.1.4-.4.7-.4,1.2v3h-.9v-5.3h.9v.8c.2-.3.4-.6.7-.7.3-.2.6-.2,1-.2s.7,0,1,.3c.3.2.5.5.6.8h0Z"/>
      <path d="M260.9,259.6v.8c-.2-.1-.5-.2-.8-.3h-.8c-.4,0-.8,0-1,.2-.2.1-.3.3-.3.6s0,.4.2.5.5.2.9.3h.3c.6.2,1.1.4,1.3.6.3.2.4.6.4,1s-.2.9-.6,1.2c-.4.3-.9.4-1.6.4h-.9c-.3,0-.6-.1-1-.2v-.9c.3.2.6.3.9.4.3,0,.6.1.9.1s.7,0,.9-.2c.2-.1.3-.3.3-.6s0-.4-.2-.5-.5-.2-1-.4h-.3c-.5-.2-.9-.4-1.2-.6-.2-.2-.4-.6-.4-1s.2-.9.5-1.1c.4-.3.8-.4,1.5-.4h.9c.3,0,.5.1.8.2h.3Z"/>
      <path d="M264.5,257.4v8.6h-2v-.7h1.1v-7.2h-1.1v-.7h2Z"/>
      <path class="st14" d="M41,227.8h-3.4"/>
      <path d="M31.2,225.1c-.5,0-.9.2-1.1.7s-.4,1.2-.4,2.2.1,1.7.4,2.2c.2.5.6.7,1.1.7s.9-.2,1.1-.7c.2-.5.4-1.2.4-2.2s0-1.7-.4-2.2c-.2-.5-.6-.7-1.1-.7ZM31.2,224.4c.8,0,1.4.3,1.8.9.4.6.6,1.5.6,2.7s-.2,2.1-.6,2.7c-.4.6-1,.9-1.8.9s-1.4-.3-1.8-.9c-.4-.6-.6-1.5-.6-2.7s.2-2.1.6-2.7c.4-.6,1-.9,1.8-.9Z"/>
      <path class="st14" d="M41,181.4h-3.4"/>
      <path d="M29.2,178h3.7v.8h-2.9v1.7c.1,0,.3,0,.4-.1h.4c.8,0,1.4.2,1.9.6.5.4.7,1,.7,1.7s-.2,1.3-.7,1.8c-.5.4-1.1.6-2,.6h-.9c-.3,0-.6-.1-.9-.2v-1c.3.2.6.3.9.3s.6.1,1,.1,1-.1,1.3-.4c.3-.3.5-.7.5-1.2s-.2-.9-.5-1.2-.7-.4-1.3-.4h-.8c-.3,0-.5.1-.8.3v-3.5h0Z"/>
      <path class="st14" d="M41,134.9h-3.4"/>
      <path d="M23.2,137.7h1.6v-5.4l-1.7.3v-.9l1.7-.3h.9v6.2h1.6v.8h-4v-.8h-.1Z"/>
      <path d="M31.2,132.2c-.5,0-.9.2-1.1.7s-.4,1.2-.4,2.2.1,1.7.4,2.2c.2.5.6.7,1.1.7s.9-.2,1.1-.7c.2-.5.4-1.2.4-2.2s0-1.7-.4-2.2c-.2-.5-.6-.7-1.1-.7ZM31.2,131.4c.8,0,1.4.3,1.8.9.4.6.6,1.5.6,2.7s-.2,2.1-.6,2.7c-.4.6-1,.9-1.8.9s-1.4-.3-1.8-.9c-.4-.6-.6-1.5-.6-2.7s.2-2.1.6-2.7c.4-.6,1-.9,1.8-.9Z"/>
      <path class="st14" d="M41,88.4h-3.4"/>
      <path d="M23.2,91.3h1.6v-5.4l-1.7.3v-.9l1.7-.3h.9v6.2h1.6v.8h-4v-.8h-.1Z"/>
      <path d="M29.2,85.1h3.7v.8h-2.9v1.7h.8c.8,0,1.4.2,1.9.6s.7,1,.7,1.7-.2,1.3-.7,1.8c-.5.4-1.1.6-2,.6h-.9c-.3,0-.6,0-.9-.2v-1c.3.2.6.3.9.3h1c.4,0,1,0,1.3-.4.3-.3.5-.7.5-1.2s-.2-.9-.5-1.2c-.3-.3-.7-.4-1.3-.4h-.8c-.3,0-.5,0-.8.3v-3.5h0Z"/>
      <path class="st14" d="M41,41.9h-3.4"/>
      <path d="M23.9,44.8h3.3v.8h-4.5v-.8c.4-.4.9-.9,1.5-1.5s1-1,1.2-1.2c.3-.3.5-.6.6-.9.1-.2.2-.5.2-.7,0-.4-.1-.7-.4-.9s-.6-.4-1-.4-.6,0-.9.2c-.3,0-.7.3-1.1.5v-1c.4-.2.7-.3,1.1-.3h.9c.7,0,1.3.2,1.7.5.4.4.6.8.6,1.5s0,.6-.2.8c-.1.3-.3.6-.6.9,0,0-.3.4-.7.8-.4.4-1,1-1.8,1.8h0Z"/>
      <path d="M31.2,39.2c-.5,0-.9.2-1.1.7s-.4,1.2-.4,2.2.1,1.7.4,2.2c.2.5.6.7,1.1.7s.9-.2,1.1-.7c.2-.5.4-1.2.4-2.2s0-1.7-.4-2.2c-.2-.5-.6-.7-1.1-.7ZM31.2,38.5c.8,0,1.4.3,1.8.9.4.6.6,1.5.6,2.7s-.2,2.1-.6,2.7c-.4.6-1,.9-1.8.9s-1.4-.3-1.8-.9c-.4-.6-.6-1.5-.6-2.7s.2-2.1.6-2.7c.4-.6,1-.9,1.8-.9Z"/>
      <path d="M16.1,178.1l-7,2.7v-1l5.9-2.2-5.9-2.2v-1l7,2.7v1.1h0Z"/>
      <path d="M13.3,168.9h.4v4c.6,0,1-.2,1.4-.5.3-.3.5-.8.5-1.3s0-.7-.1-1c0-.3-.2-.6-.4-.9h.8c.1.3.2.6.3,1,0,.3.1.7.1,1,0,.8-.2,1.5-.7,2-.5.5-1.2.7-2,.7s-1.5-.2-2.1-.7c-.5-.5-.8-1.1-.8-1.9s.2-1.3.7-1.7,1.1-.6,1.9-.6h0ZM13,169.8c-.5,0-.8.1-1.1.4-.3.3-.4.6-.4,1s.1.9.4,1.2c.3.3.7.5,1.2.5v-3.1h0Z"/>
      <path d="M8.8,167.5v-.9h7.3v.9h-7.3Z"/>
      <path d="M11.5,162.8c0,.5.2.8.5,1.1.4.3.9.4,1.5.4s1.1-.1,1.5-.4c.4-.3.5-.6.5-1.1s-.2-.8-.5-1.1c-.4-.3-.9-.4-1.5-.4s-1.1.1-1.5.4c-.4.3-.5.6-.5,1.1ZM10.7,162.8c0-.8.2-1.3.7-1.8.5-.4,1.2-.6,2-.6s1.5.2,2,.6c.5.4.7,1,.7,1.8s-.2,1.3-.7,1.8c-.5.4-1.2.6-2,.6s-1.5-.2-2-.6c-.5-.4-.7-1-.7-1.8Z"/>
      <path d="M11.1,155.2h.8c-.1.2-.2.5-.3.7,0,.2-.1.5-.1.7,0,.6.2,1,.5,1.3.4.3.9.5,1.5.5s1.1-.2,1.5-.5.5-.7.5-1.3,0-.5-.1-.7c0-.2-.2-.5-.3-.7h.8c.1.2.2.5.3.7v.8c0,.8-.2,1.4-.7,1.9s-1.2.7-2,.7-1.5-.2-2-.7-.7-1.1-.7-1.9v-.8c0-.3.1-.5.2-.7h.1Z"/>
      <path d="M10.9,153.7v-.9h5.3v.9h-5.3ZM8.8,153.7v-.9h1.1v.9h-1.1Z"/>
      <path d="M9.4,150.1h1.5v-1.8h.7v1.8h2.9c.4,0,.7,0,.8-.2.1-.1.2-.4.2-.7v-.9h.7v.9c0,.7-.1,1.1-.4,1.4-.2.3-.7.4-1.4.4h-2.9v.6h-.7v-.6h-1.5v-.9h0Z"/>
      <path d="M16.6,145c.6.2,1,.5,1.2.7s.3.5.3.9v.7h-.7v-.5c0-.2,0-.4-.2-.6s-.4-.3-.8-.4l-.4-.2-5.2,2.1v-.9l4.1-1.6-4.1-1.6v-.9s5.8,2.3,5.8,2.3Z"/>
      <path d="M12.8,141.7v-.7h4.4v-2.4h.6v3.1h-5Z"/>
      <path d="M15.7,134.8h.3v2.8c.4,0,.7-.2,1-.4.2-.2.3-.5.3-.9v-.7c0-.2-.1-.4-.3-.7h.6c0,.2.2.4.2.7v.7c0,.6-.2,1.1-.5,1.4-.3.3-.8.5-1.4.5s-1.1-.2-1.4-.5c-.4-.3-.5-.8-.5-1.3s.2-.9.5-1.2.8-.4,1.3-.4h-.1ZM15.5,135.4c-.3,0-.6,0-.8.3-.2.2-.3.4-.3.7s0,.6.3.8c.2.2.5.3.8.4v-2.2Z"/>
      <path d="M12.6,131.9h.5v.6c0,.2,0,.4.1.5,0,0,.2.1.5.1h.3v-1h.5v1h3.2v.6h-3.2v.6h-.5v-.6h-.3c-.4,0-.7,0-.9-.3-.2-.2-.3-.5-.3-.9v-.6h0Z"/>
      <path d="M13,130.8h1v-1.2h.5v1.2h2c.3,0,.5,0,.6-.1,0,0,.1-.2.1-.5v-.6h.5v.6c0,.5,0,.8-.3,1-.2.2-.5.3-1,.3h-2v.4h-.5v-.4h-1v-.6h0Z"/>
      <path d="M14.9,128v-1h.8l1.5.8v.6l-1.5-.4h-.8Z"/>
      <path d="M15.3,116.1h.8v2.8h-.8c-.3-.6-.7-1-1.2-1.3s-1.1-.5-1.7-.5-1.4.2-1.8.6c-.5.4-.7,1-.7,1.6s.2,1.2.7,1.6,1.1.6,1.8.6,1.2-.2,1.7-.5.9-.7,1.2-1.3h.8v2.8h-.8v-1.5c-.4.5-.9.9-1.4,1.1s-1,.3-1.6.3c-1,0-1.8-.3-2.4-.9s-.9-1.4-.9-2.3.3-1.7.9-2.3c.6-.6,1.4-.9,2.4-.9s1.1,0,1.6.3c.5.2.9.6,1.4,1.1v-1.5.2h0Z"/>
      <path d="M8.8,111.8v-2h.7v1.1h7.2v-1.1h.7v2h-8.6Z"/>
      <path d="M11.7,104.9s0,.2-.1.3v.4c0,.5.2.9.5,1.1.3.3.8.4,1.4.4h2.8v.9h-5.3v-.9h.8c-.3-.2-.6-.4-.7-.7-.2-.3-.2-.6-.2-1.1s0,0,0-.2v-.2h.9,0Z"/>
      <path d="M13.5,101.6c0,.7,0,1.2.2,1.5s.4.4.8.4.6,0,.7-.3c.2-.2.3-.5.3-.8s-.2-.9-.5-1.2c-.3-.3-.8-.4-1.4-.4h-.2v.9h0ZM13.1,99.9h3v.9h-.8c.3.2.6.4.7.7.2.3.2.7.2,1.1s-.2,1-.5,1.3c-.3.3-.7.5-1.2.5s-1-.2-1.3-.6-.5-1-.5-1.8v-1.2h0c-.4,0-.7,0-.9.4s-.3.6-.3,1.1,0,.6.1.9c0,.3.2.6.3.8h-.8c-.1-.3-.2-.6-.3-.9v-.9c0-.8.2-1.3.6-1.7.4-.4,1-.6,1.8-.6,0,0-.1,0-.1,0Z"/>
      <path d="M11.7,94.7h-2.8v-.9h7.3v.9h-.8c.3.2.5.4.7.7.2.3.2.6.2,1,0,.6-.3,1.2-.8,1.6-.5.4-1.2.6-2,.6s-1.5-.2-2-.6-.8-.9-.8-1.6,0-.7.2-1,.4-.5.7-.7h0ZM13.5,97.6c.6,0,1.1,0,1.5-.4s.5-.6.5-1.1-.2-.8-.5-1.1c-.4-.3-.9-.4-1.5-.4s-1.1,0-1.5.4-.5.6-.5,1.1.2.8.5,1.1c.4.3.9.4,1.5.4Z"/>
      <path d="M9.1,90.5v-.8l7.9,2.4v.8l-7.9-2.4Z"/>
      <path d="M11,85.4h.8c-.1.2-.2.5-.3.8v.8c0,.4,0,.8.2,1,.1.2.3.3.6.3s.4,0,.5-.2.2-.5.3-.9v-.3c.2-.6.4-1,.6-1.3.2-.3.6-.4,1-.4s.9.2,1.2.6.4.9.4,1.6v.9c0,.3-.1.6-.2,1h-.9c.2-.3.3-.6.4-.9,0-.3.1-.6.1-.9s0-.7-.2-.9c-.1-.2-.3-.3-.6-.3s-.4,0-.5.2-.2.5-.4,1v.3c-.2.5-.4.9-.6,1.2-.2.2-.6.4-1,.4s-.9-.2-1.1-.5c-.3-.4-.4-.8-.4-1.5v-.9c0-.3.1-.5.2-.8v-.3h-.1Z"/>
      <path d="M8.8,81.8h8.6v2h-.7v-1.1h-7.2v1.1h-.7s0-2,0-2Z"/>
      <g class="st20">
        <path class="st8" d="M44.2,227.8h543.7"/>
      </g>
      <g class="st26">
        <path class="st12" d="M44.2,227.8h5.2l10.4-5.1,15.6-7.7,5.2.2,5.2-.4h5.2l5.2,2.9,5.2-2.5h0l5.2.2,5.2,2.2h5.2l5.2.2,5.2-.4,5.2.2h5.2l5.2-2.5,5.2.3h0l5.2,2.1,5.2-2.3h10.4c0-.1,5.2-.2,5.2-.2l5.2,2.4h0l10.4-4.8,10.4,4.9,5.2-2.6,10.4.2,5.2-.4,10.4.8,10.4-.7h0l5.2.4,5.2-2.7,5.2,2h0l5.2.8h5.2l5.2-.7h0l5.2.3h5.2l5.2-.2h0l5.8.6,4.5-2.7,5.2,1.9h0l5.2.6,5.2.2,5.2-.6h0l5.2-2.6,5.2,2.9,5.2,2.5h0l10.4-5.2,5.2,2.3h0l5.8.5,4.5-2.6,5.2,2.2h5.2c0,.1,5.2,0,5.2,0l5.2-.2h0l5.8-1.9,4.6,2.4h5.2c0-.1,5.9-2.3,5.9-2.3l4.6,2h5.2c0-.1,5.2.1,5.2.1h5.2l5.2-2.7h0l5.9.6,4.5,2.2,5.2-.4h0l5.2-2h5.2c0-.1,5.2,2.2,5.2,2.2h0l5.8.7,4.6-2.9,5.2,1.9h0l5.2.6,10.4-.3h0l5.9.4,5.2-2.5,5.2-.3h5.2l9.7,4.8h0l5.2-2,5.2-2.6,5.2,2.3h0l5.8.2,4.5-2.9,5.2,2.3h0l5.8,1.1,4.5-.4,5.2-.7h0l5.9-1.7,4.6,2.2,5.2-.3h0l2.9-1.1h0"/>
      </g>
      <g class="st24">
        <path class="st11" d="M41.6,227.8l5.2-2.6h0l5.2-5.1,5.2-2.5,5.2-5.1h0l5.2-5.2h5.2l5.2,2.4h5.2l5.2-2h10.4l5.2-3,5.2-4.9h0l5.2-1.8,5.2-1.3h5.2l5.2-.8,5.2-1.1,5.2-.3h0l5.2,1,5.2-1.2,5.2-.6h0l5.2,1.3,5.2-1.7,5.2,1.2h5.2c0,.1,5.2-1.9,5.2-1.9h5.2l10.4-.5h5.2c0-.1,5.2.5,5.2.5h5.2l5.2,1h0l5.2-1.3h5.2l5.2,2.9h0l5.2-5,5.2,1.1,5.2,3.5h0l5.9-3.6,4.6-2,5.2,2.3h5.9l4.5,1.2,5.2,1h0l5.2-4.3h5.2l5.2.8h0l5.8,1.2h4.6c0-.1,5.2.2,5.2.2h0l5.2-.9,5.2-1.5,5.2,2.1h0l5.2-.9,5.2.6,5.2,1h0l5.2-2.6,5.2-.2,5.2,1.1h0l5.9.9,4.6,1.2,5.2-3.2h0l5.9,1.3,4.6,1.2,5.2-3.4h0l5.9.5,4.5,3.6,5.2-.5h0l5.2-3.6,5.2,1.8,5.2-.4h5.2l10.4-.5h0l5.2,1.1h5.2l5.2,1.8h0l5.8-1,4.5-1.3,5.2,1.4h0l5.2-.7,5.2-.3,5.2,1.9h0l5.2-2.1,5.8-1.9,5.2,2.1h0l5.2,2.6,4.6-1.6,5.2-.4h10.4l5.2-.9h0l5.2.2,5.2,2.5,5.2-1.1h0l5.9-.7,4.6-.4,5.2-2h0l5.9,1.8,4.6,1.9,5.2-.4h0l5.8-1,4.5-.2h0"/>
      </g>
      <g class="st15">
        <path class="st3" d="M42.3,227.8l4.5-2.8,5.2-7.5h0l5.2-9.1,5.2-8.8,5.2-3.4h0l5.2-2.7,5.2-3.2,5.2,4h0l5.2-1.5,5.2-2.7,5.2,2.5h0l5.2-3.2,5.2-2.4,5.2-.4h0l5.8-3.6,4.5-2.6h5.2l5.2-.7,5.2-.5,5.2-2.8h0l5.2-.7,5.2,1.5,5.2-2.5h0l5.9-1,4.5,3.1h5.2l5.2-4.3,5.2.7,5.2,1.2h0l5.2-.8,5.2.7,5.2-1.2h0l5.2-.4,5.2,2.1,5.2-.5h0l5.8-2.8,4.5-.4,5.2,2.2h0l5.8,1,4.5-2.2,5.2.5h0l5.9.7,4.6-2.6,5.2,2.4h0l5.9-.5h4.6l5.2,1.2h0l5.9-2.7,4.5,2.9,5.2-.7h0l5.8-1.2,4.5,2.1,5.2-2.7h0l5.2-.7,5.2,2.8,5.2-.9h0l5.8-1.3,4.6.6,5.2-.9h0l5.8,2,4.5.6,5.2-3.9h0l5.9,1.7,4.5,2h11.1l4.6-3.8h5.2c0,.1,5.8,1.6,5.8,1.6l4.6,2.3h5.2l5.8-3.6h5.2l4.6,4h0l5.2-2.3,5.2-2.5,5.2,2.9h0l5.2.6,5.2-.5,5.2-3.5h0l5.2.7,5.2,3.5,5.2-3.1h5.8c0,.1,4.5,2.4,4.5,2.4l5.2-3.1h0l5.8,1.5,4.5.5,5.2-1.1h0l5.9-.5,4.6-2.1,5.2,3.2,5.9.4,5.2-3.1,4.6-1.1h0l5.9.8,4.5,4.1,5.2-.7h0l5.8-2.9,4.5,2.2,5.9-.8h0l5.2-3.2,4.6,3.2,5.2,1.1h0l5.5-2.5h0"/>
      </g>
      <g class="st22">
        <path class="st2" d="M41.6,227.8l5.2-2.6,5.2-8h0l5.2-14.2,5.2-12.2,5.2-3.7h0l5.2-2.6,5.2-.7,5.2-2.2h0l5.2-3.8,5.2-.2,5.2-2.4h0l5.2-.9h5.2c0,.1,5.2-3.5,5.2-3.5h0l5.2-2.8,5.2-2.1,5.2-3.7,5.2-2.6,5.2-3.3,5.2,2.3h0l5.2.2,5.2-4.1h5.2c0-.1,10.4-1,10.4-1h5.2l5.2-1.2h5.2l5.2-.9h0l5.2-.2h5.2l5.2-1.6h0l5.2.6,10.4-1.5h0l5.8,3,4.5-1.8,5.2-2.7h0l10.4,4.7,5.2-.5h0l5.9-3.2h4.6l5.2,1.2h0l5.2.2h5.2l5.2-1.8h0l5.9.7,4.5,1.8,5.2-1.1h0l5.8-1.7,4.5,1.2,5.2-.5h5.2l5.2,1.8,5.2-.4h0l5.2-.7h5.2c0-.1,5.2-1.5,5.2-1.5h0l5.8.3h4.5l5.2.6h0l5.2.7,5.2-3.3,5.2,1.5h0l5.9,1,4.6-1.6,5.2-.9h0l5.8.6,4.6,2.1,5.2-.9h0l5.8-.5h4.5l5.2-1.5h0l5.2.4,5.2,2.6,5.2-1.9h0l5.2-1.6,5.2,1.7,5.2,1.3h0l5.9-1.2,4.6-1.5,5.2,1.3h0l5.2.4,5.2-.5,5.2-.9h0l10.4-.5,5.2.8h0l5.9,1,4.6-.3,5.2-2.3h0l5.2,1.4,5.2-.8,5.2-1.4h0l5.9,3.6,4.5-1.6,5.2-1h0l5.2.8,5.2-.5,5.2,1.5h5.8l4.6-.3,5.2.7h0l5.5.9h0"/>
      </g>
      <g class="st0">
        <path class="st9" d="M42.3,227.8l4.5-5.6,5.2-10h0l5.2-12.3,5.2-10.2,10.4-10.2,5.2-4.2,5.2-4.6h0l5.2-2.8,5.2-2.5,5.2-2.4h0l5.2-1.6,5.2-4.9,5.2-.6h0l5.2-2.8,5.2-2.4,5.2,1.1h0l5.2-4.8,5.2-3.4,5.2-.6h0l5.2.6,5.2-1.6,5.2-3.1h0l5.2-2.5h5.2c0,.1,10.4-1.5,10.4-1.5h5.2l5.2-1h0l5.9-2,4.6-.7,5.2.5h0l5.9,1.1,4.6-1,5.2-1.6h0l10.4-2.1,5.2,1.2h0l5.2.4,5.2-.6,5.2-2.8h0l5.2,2.2,5.2-1,5.2-3h0l5.9,1,4.6.6,5.2-1.3h0l5.2-.9,5.2,3.1,5.2-2.6h0l5.2-1.8,5.2,3.1,5.2-.6h0l5.8.7,4.6-.6,5.2-1.6h10.4l5.2-.6h0l5.2.2,5.2,1.5,5.2-1.6h0l5.9-.5,4.5.4,5.2-1.4h0l5.2,2.1,5.2.5,5.2-3.4,5.2,2.6,5.2,2,5.2-3.4h0l5.8,1.1,4.5,1.5,5.2-.3h10.4l5.2,1.3h0l5.8-.3,4.6,1.7,5.2-1.6h0l5.9-.5,4.6,2.1,5.2-1h0l5.8-.3,4.5,1.1,5.2.4h0l5.2-1.3h5.2l5.2.5h0l5.2.6,5.2-2.5,5.9.5h0l5.2,3.9,4.6-2,11.1,1.6,4.5-4.6,5.2.3h0l5.8,4.1,4.5-1.6,5.2-1.3h0l5.8,1.6,4.6-1,5.2.2h0l5.5,2.5h0"/>
      </g>
      <g class="st1">
        <path class="st7" d="M44.2,227.8l5.2-5.5,5.2-12.5,5.2-17.3h0l5.2-13,5.2-5.3,5.2-9.8h0l5.2-4.1,5.2-2.3,5.2-5.2h0l5.2-3,5.2-2.7,5.2-3.4h0l5.2-2,5.2-1.4,5.2-5.5h0l5.2-1.7,5.2.7,5.2-2.5h0l5.9-2.4,4.5,1.2,5.2-2.6h0l5.2-.8h5.2l5.2-3.7h0l5.2-.2,5.2-2.5,5.2-1h0l5.9-.8,4.5-2.2,5.2-2.4h0l10.4-1.4,5.2-.4h0l5.2,2.1,5.2-.6,5.2-3.1h0l5.2-1.6,5.2,1.6,5.2,1h0l10.4-5.1,5.2-.2h0l5.8,2.3,4.5-1.2,5.2-.2h5.2l5.2-.6,5.2,2.7h0l5.9-3.7,4.6-.7,5.2,2.7h0l5.2.2h5.2l5.2-2.6h0l5.2.2,5.2.8,5.2-1.4h0l5.8.2,4.6-1.2,5.2-.8h0l5.8,2.7,4.6.2,5.2-2.5h0l5.8,3.3,4.5-.7,5.2-2.5h0l5.2.6h5.2l5.2,2.9h0l5.9-.3,4.6-4.4,5.2,1.7h0l5.9,2.3,4.6-3,11.1,1.3,4.5-1.4,5.8,3h0l5.2-.6,4.5.3,5.2,1.3,5.8-1.7,4.6.9h5.2l5.9-1,4.6.9,5.2-1h0l5.9-.3,4.5,2.2,5.2-1.2h0l5.2.6,5.9-.6,5.2-1.4h0l5.2.5,4.6.2,5.2,1h0l11.1.2h5.2l5.2-1.7,4.5-1.7,5.2,2.9h0l5.9,1.1,4.5-2.9h2.9"/>
      </g>
      <g class="st23">
        <path class="st5" d="M42.3,227.8l4.5-5.2h0l5.2-15.2,5.2-19.3,5.2-12.6,5.2-9.2,5.2-10,5.2-5.9h0l5.2-2.3,5.2-5.3,5.2-7.8,5.2-2.5,5.2-1.7,5.2-4.7h0l5.2-7.3,5.2-1.7,5.2,2.5h0l5.9-4.4,4.6-3.9,5.2,1.3h0l10.4-2.9,5.2-2.4h0l5.2-3.1,5.2,1.4,5.2-.8h0l5.2-.3,5.2.2,5.2-2.1h0l10.4,2.2,5.2-4.7h10.4l5.2-3.5h0l5.2-.7,5.2-2.6,5.2-.3h0l5.2.4,10.4-2.6h0l10.4.7,5.2-.6h0l15.6-2.2h0l5.2.8h5.2l5.2-2.2h5.2l5.2.3,5.2,1.5h0l5.2.8,5.2-1.4,5.2,1.1h0l5.8-1.5,4.5-2.7,5.2,3.9h0l10.4-.7,5.2,1.3h0l5.9-1.7,4.6.3,5.2.2h0l5.2.4h5.2l5.2-1.3h0l5.9,1,4.5,1.5,5.2.5h0l5.2-1.4h5.8l4.5,1.3h0l5.2-2.4,5.2,1.8,5.2,1.2h0l5.2-3.9h5.2l5.2,2.4h0l5.2-1.9h5.2l5.2.9h0l5.9-.9,4.6,1.2,5.2.2h0l5.9-.8h4.6l5.2,1h5.9l4.6-.5,5.2-1.4h0l5.2,1.1h5.2l5.2-.3h0l5.9,1,5.2-2.5,4.5.9h0l5.2,1.9,5.2-1.6h5.2l5.9,2,4.6-2.7,5.2-1.8h0l5.8,3.1,4.9,1.7h0"/>
      </g>
      <g class="st16">
        <path class="st13" d="M41.6,227.8l5.2-5.2h0l5.2-17.7,5.2-20.1,5.2-15.1h0l5.2-10.7,5.2-7.5,5.2-8.8h0l5.2-6.6,5.2-3.3,5.2-6.1h0l5.2-6.7,10.4-9.1h0l5.2-6.9,5.2-5h5.2l5.2-.8,5.2-4.6,5.2-1.3h0l5.2,1.7,5.2-4.8,5.2-2.6h0l5.2,2.7,5.2.9,5.2-.7h0l5.2-4.3,5.2-2.9,5.2,2.1h0l5.2-.8,5.2,1.7,5.2,2.2h0l5.2-2.1,5.2-2.6,5.2.9h0l5.2-.2h5.2l5.2,1.8h0l5.2.8,5.2-1.3,5.2-1.6h0l5.9,3.2,4.6-2.8,5.2-.6h0l5.9,2.1,4.5-3.3,5.2-.7h0l5.2.7,5.2-2.6,5.2-2.1h0l5.8.2h4.6l5.2,1.4h0l5.2-3.9,5.2-1.4,5.2.9h0l5.2-3.9,5.2,2.2,5.2,1.5h0l5.8-2.3,4.5-.9,5.2,1.1h0l5.2,1.3h5.2l5.2-2.6h0l5.9.7,4.6-.5,5.2-1.5h5.9l5.2-1.5,4.6,2.3h0l5.2-.9,5.2-2.6,5.2,1.1h0l5.2,2.7,5.2-.9,5.2-1.5h0l5.2,1.7h5.2l5.2-.5h0l5.8,1.1,4.5-.4,5.2.6h0l5.2-.2,5.2-1.5,5.2,2.5h0l5.2-.6h5.8l4.5,3.3h0l5.9-2,5.2-3.5,5.2,3.2h0l5.2,2,4.5-2.8,5.2,1.7h0l5.2-1h5.2l5.2.3h0l5.9-.2,4.6,3.8,5.2-3.1h0l5.9-2.6,4.6,2.2,5.2.4h0l5.2-1.4,5.2-.9h0"/>
      </g>
      <g class="st17">
        <path class="st4" d="M42.3,227.8l4.5-2.8,5.2-17.5h0l5.2-22.8,5.2-15.4,5.2-12.7h0l5.2-10.3,5.2-8.6,5.2-4.4,5.2-5.6,5.2-9.4,5.2-7.3h0l10.4-8.1,5.2-6h0l5.2-3.7,5.2-2.1,5.2-.3h0l5.2-2.4,5.2-3.6,5.2-1h0l5.2-2.2,5.2-2.7,5.2-2.9h0l5.2,1.6,5.2-.5,5.2-5.5h0l5.2.4h5.2l5.2-2.1h5.2l5.2.4,5.2-.8h0l5.9-1.7,4.6,1,5.2.5h0l5.2-1.3h5.2l5.2-1.1h0l5.2-.2,5.2-.9,5.2-.7h0l5.2,1,5.2-3.1,5.2.7h0l5.2,2.6,5.2-3,5.2-.7h0l5.2,1.8,5.2-4.2,5.2.6h0l5.2,1.3,5.2-3,5.2-1h0l5.8.4,4.6,1.6,5.2-1.8h0l5.2,1.4h5.2l5.2-5.3h0l5.2,1.1,5.2,2.7,5.2-1.7h0l5.9-2.5h4.5l5.2,2.6h5.2l5.2-3.2,5.2,1.2h5.2l5.2-3.5,5.2,1h0l5.2,2,5.2-2.5,5.2-.7h0l5.8-.6,4.5-1,5.2,2.6,5.8-1,4.6-.2,5.2,2.1h0l5.9-2,4.6-1.7,5.2.7h5.8l4.5,3.3,5.2-.4h0l5.2-1.9,5.2,2.6,5.2,1.5h0l5.2-1.4,5.2-2.5,5.9.9h0l5.2,2.4h4.6l16.2-2.1,5.2,1.9h0l5.2-.7,4.5.8,5.2.3h0l5.8-1.6,4.6,1.6,5.2-1.4h0l5.5.7h0"/>
      </g>
      <g class="st19">
        <path class="st8" d="M41.6,227.8l5.2-5.2,5.2-18.8h0l5.2-23.5,5.2-16.6,5.2-12.2h0l5.2-12.8,5.2-9.4,5.2-4.3h0l5.2-7.2,5.2-8.1,10.4-9.6,5.2-4.7,5.2-4.1h0l5.2-8.1,5.2-4.9,5.2-.3h0l5.2-4.5,5.2-3.8,5.2-4.2h0l5.2-2h10.4l5.2,2.1,5.2-1.4,5.2-5.1h0l5.2-1.9h5.2l5.2-2.1h0l5.2-.4h5.2l5.2-1.1h0l5.2-.7,5.2-1.7,5.2-1.6h0l5.8,1.9,4.5-.8,5.2-1.7h0l5.8.4,4.5,1.6,5.2.7h0l5.9-2.7h4.6l5.2,1.4h0l5.2-1.4,5.2-2.5,5.2,3.4h5.9l4.5-1.7,5.2,1.8h0l5.8-.2,9.7-1.8h0l5.2.8,5.2.4h5.2l5.2-.9,5.2-1.1,5.2-.4h0l5.8-.9,4.5-2.5,5.2.4h0l5.2,1.7,5.2-1.8h5.2l5.9.5,4.6-.9,5.2-.3h0l5.8.2,4.6,1.6,10.4-.7h5.2l5.2-.8h0l5.8-.4,4.5,1.4h5.2l10.4,1.4,5.2-2.9h0l5.9-1.5,4.6-1,5.2,1.7h0l5.2-.6,10.4-.5h0l5.8-2.4,4.5,1.2,5.9.2h0l5.2-2.5,4.6-.5,5.2-1.6h0l5.2,1.6,5.2.7,5.2-.9h5.9l4.5-.9h10.4l5.2-1.1,5.2,2.6h0l5.8.7,4.6-4.2,5.2.6h0l5.5,3.1h0"/>
      </g>
      <path class="st10" d="M41,237.5V24.2"/>
      <path class="st10" d="M431,237.5V24.2"/>
      <path class="st10" d="M41,237.5h390"/>
      <path class="st10" d="M41,24.2h390"/>
      <path d="M99.4,10.3v1.8c-.5-.2-.9-.4-1.4-.5-.4-.1-.9-.2-1.2-.2s-.9,0-1.2.2c-.2.1-.4.4-.4.7s0,.4.3.5c.2.1.5.2.9.3l.9.2c.9.2,1.6.5,2,.9s.6.9.6,1.6-.3,1.6-.8,2.1c-.6.5-1.4.7-2.5.7s-1.1,0-1.6-.2c-.5-.1-1.1-.3-1.6-.5v-1.8c.5.3,1.1.5,1.6.6s1,.2,1.5.2.8,0,1.1-.2c.3-.2.4-.4.4-.7s0-.5-.3-.6-.5-.3-1-.4l-.8-.2c-.8-.2-1.5-.5-1.8-.9-.4-.4-.6-.9-.6-1.6s.3-1.5.8-1.9c.5-.5,1.3-.7,2.3-.7s.9,0,1.4.1c.5,0,1,.2,1.5.3v.2h-.1Z"/>
      <path d="M103.9,10.4v1.8h2.1v1.4h-2.1v2.7c0,.3,0,.5.2.6,0,.1.3.2.7.2h1v1.4h-1.7c-.8,0-1.4-.2-1.7-.5-.3-.3-.5-.9-.5-1.7v-2.7h-1v-1.4h1v-1.8h2Z"/>
      <path d="M113.6,15.3v.6h-4.7c0,.5.2.8.5,1.1.3.2.7.4,1.2.4s.9,0,1.3-.2c.4-.1.9-.3,1.4-.6v1.6c-.5.2-1,.3-1.4.4-.5,0-1,.1-1.4.1-1.1,0-2-.3-2.7-.9-.6-.6-.9-1.4-.9-2.4s.3-1.8.9-2.4c.6-.6,1.5-.9,2.6-.9s1.8.3,2.4.9c.6.6.9,1.4.9,2.4h-.1ZM111.5,14.6c0-.4,0-.7-.3-.9-.2-.2-.5-.4-.9-.4s-.7.1-1,.3c-.2.2-.4.5-.5,1,0,0,2.7,0,2.7,0Z"/>
      <path d="M117.1,17.6v3.3h-2v-8.7h2v.9c.3-.4.6-.6.9-.8s.7-.3,1.2-.3c.8,0,1.4.3,1.9.9.5.6.8,1.4.8,2.4s-.3,1.8-.8,2.4-1.1.9-1.9.9-.8,0-1.2-.3c-.3-.2-.6-.4-.9-.8h0ZM118.5,13.5c-.4,0-.8.2-1,.5s-.3.8-.3,1.4,0,1.1.3,1.4c.2.3.6.5,1,.5s.8-.2,1-.5.3-.8.3-1.4,0-1.1-.3-1.4c-.2-.3-.6-.5-1-.5Z"/>
      <path d="M130.6,13.8c.5,0,.8,0,1-.3.2-.2.3-.4.3-.8s0-.7-.3-.8c-.2-.2-.5-.2-1-.2h-.9v2.2h.9ZM129.7,15.3v3.2h-2.2v-8.4h3.3c1.1,0,1.9.2,2.4.6.5.4.8,1,.8,1.8s-.1,1-.4,1.4c-.3.4-.7.6-1.2.8.3,0,.6.2.8.5.2.2.5.6.7,1.1l1.2,2.4h-2.3l-1-2.1c-.2-.4-.4-.7-.6-.9-.2-.2-.5-.2-.8-.2h-.6v-.2h0Z"/>
      <path d="M142.6,15.3v.6h-4.7c0,.5.2.8.5,1.1.3.2.7.4,1.2.4s.9,0,1.3-.2c.4-.1.9-.3,1.4-.6v1.6c-.5.2-1,.3-1.4.4-.5,0-1,.1-1.4.1-1.1,0-2-.3-2.7-.9-.6-.6-.9-1.4-.9-2.4s.3-1.8.9-2.4c.6-.6,1.5-.9,2.6-.9s1.8.3,2.4.9c.6.6.9,1.4.9,2.4h-.1ZM140.5,14.6c0-.4-.1-.7-.3-.9s-.5-.4-.9-.4-.7.1-1,.3c-.2.2-.4.5-.5,1,0,0,2.7,0,2.7,0Z"/>
      <path d="M149.1,12.4v1.5c-.4-.2-.8-.3-1.3-.4-.4,0-.8-.1-1.1-.1s-.7,0-.9.1c-.2,0-.3.2-.3.4s0,.3.2.4c.1,0,.4.1.8.2h.4c1,.2,1.7.4,2.1.7.4.3.5.8.5,1.4s-.2,1.2-.7,1.5-1.2.5-2.2.5h-1.3c-.4,0-.9-.2-1.4-.3v-1.5c.4.2.8.3,1.2.4.4,0,.9.1,1.3.1s.7,0,.9-.2c.2-.1.3-.3.3-.5s0-.3-.2-.4c-.1,0-.4-.2-.8-.2h-.4c-.9-.2-1.5-.4-1.9-.7s-.5-.8-.5-1.4.2-1.2.7-1.5,1.2-.5,2.1-.5h1.2c.4,0,.9.1,1.3.3v.2h0Z"/>
      <path d="M153,17.6v3.3h-2v-8.7h2v.9c.3-.4.6-.6.9-.8.3-.2.7-.3,1.2-.3.8,0,1.4.3,1.9.9.5.6.8,1.4.8,2.4s-.3,1.8-.8,2.4-1.1.9-1.9.9-.8,0-1.2-.3c-.3-.2-.6-.4-.9-.8h0ZM154.4,13.5c-.4,0-.8.2-1,.5s-.3.8-.3,1.4.1,1.1.3,1.4.6.5,1,.5.8-.2,1-.5.3-.8.3-1.4-.1-1.1-.3-1.4c-.2-.3-.6-.5-1-.5Z"/>
      <path d="M162.3,13.4c-.4,0-.8.2-1,.5s-.4.8-.4,1.4.1,1.1.4,1.4c.2.3.6.5,1,.5s.8-.2,1-.5.4-.8.4-1.4-.1-1.1-.4-1.4c-.2-.3-.6-.5-1-.5ZM162.3,12c1.1,0,1.9.3,2.5.9.6.6.9,1.4.9,2.4s-.3,1.8-.9,2.4c-.6.6-1.5.9-2.5.9s-1.9-.3-2.6-.9c-.6-.6-.9-1.4-.9-2.4s.3-1.8.9-2.4c.6-.6,1.5-.9,2.6-.9Z"/>
      <path d="M173.6,14.6v3.8h-2v-4c0-.2,0-.4-.1-.5,0-.1-.2-.2-.3-.3-.1,0-.3-.1-.5-.1-.4,0-.8.2-1,.5s-.4.8-.4,1.3v3.1h-2v-6.3h2v.9c.3-.4.6-.6,1-.8.3-.2.7-.3,1.1-.3.7,0,1.3.2,1.7.7.4.4.6,1.1.6,1.9h-.1Z"/>
      <path d="M180.4,12.4v1.5c-.4-.2-.8-.3-1.3-.4-.4,0-.8-.1-1.1-.1s-.7,0-.9.1c-.2,0-.3.2-.3.4s0,.3.2.4c.1,0,.4.1.8.2h.4c1,.2,1.7.4,2.1.7.4.3.5.8.5,1.4s-.2,1.2-.7,1.5-1.2.5-2.2.5h-1.3c-.4,0-.9-.2-1.4-.3v-1.5c.4.2.8.3,1.2.4.4,0,.9.1,1.3.1s.7,0,.9-.2c.2-.1.3-.3.3-.5s0-.3-.2-.4c-.1,0-.4-.2-.8-.2h-.4c-.9-.2-1.5-.4-1.9-.7s-.5-.8-.5-1.4.2-1.2.7-1.5,1.2-.5,2.1-.5h1.2c.4,0,.9.1,1.3.3v.2h0Z"/>
      <path d="M188.6,15.3v.6h-4.7c0,.5.2.8.5,1.1.3.2.7.4,1.2.4s.9,0,1.3-.2c.4-.1.9-.3,1.4-.6v1.6c-.5.2-1,.3-1.4.4-.5,0-1,.1-1.4.1-1.1,0-2-.3-2.7-.9-.6-.6-.9-1.4-.9-2.4s.3-1.8.9-2.4c.6-.6,1.5-.9,2.6-.9s1.8.3,2.4.9c.6.6.9,1.4.9,2.4h-.1ZM186.5,14.6c0-.4-.1-.7-.3-.9s-.5-.4-.9-.4-.7.1-1,.3c-.2.2-.4.5-.5,1,0,0,2.7,0,2.7,0Z"/>
      <path d="M201,18c-.4.2-.8.4-1.2.5s-.9.2-1.4.2c-1.4,0-2.5-.4-3.3-1.2-.8-.8-1.2-1.8-1.2-3.2s.4-2.4,1.2-3.2c.8-.8,1.9-1.2,3.3-1.2s.9,0,1.4.2c.4.1.8.3,1.2.5v1.7c-.4-.3-.8-.5-1.2-.6s-.8-.2-1.2-.2c-.8,0-1.4.2-1.8.7-.4.5-.7,1.2-.7,2.1s.2,1.6.7,2c.4.5,1.1.7,1.8.7s.8,0,1.2-.2c.4-.1.8-.3,1.2-.6v1.7h0Z"/>
      <path d="M205.7,13.4c-.4,0-.8.2-1,.5s-.4.8-.4,1.4.1,1.1.4,1.4c.2.3.6.5,1,.5s.8-.2,1-.5.4-.8.4-1.4-.1-1.1-.4-1.4c-.2-.3-.6-.5-1-.5ZM205.7,12c1.1,0,1.9.3,2.5.9.6.6.9,1.4.9,2.4s-.3,1.8-.9,2.4c-.6.6-1.5.9-2.5.9s-1.9-.3-2.6-.9c-.6-.6-.9-1.4-.9-2.4s.3-1.8.9-2.4c.6-.6,1.5-.9,2.6-.9Z"/>
      <path d="M216.5,13.2c.3-.4.6-.7.9-.9.4-.2.7-.3,1.2-.3s1.3.2,1.7.7c.4.4.6,1.1.6,1.9v3.8h-2v-3.7c0-.4,0-.8-.2-1-.1-.2-.3-.3-.6-.3s-.7.2-.9.5-.3.8-.3,1.4v3.1h-2v-3.3c0-.7,0-1.1-.2-1.3-.1-.2-.3-.3-.6-.3s-.7.2-.9.5-.3.8-.3,1.4v3.1h-2v-6.3h2v.9c.2-.4.5-.6.9-.8.3-.2.7-.3,1.1-.3s.8.1,1.2.3c.3.2.6.5.8.9,0,0-.4,0-.4,0Z"/>
      <path d="M224.7,17.6v3.3h-2v-8.7h2v.9c.3-.4.6-.6.9-.8.3-.2.7-.3,1.2-.3.8,0,1.4.3,1.9.9.5.6.8,1.4.8,2.4s-.3,1.8-.8,2.4-1.1.9-1.9.9-.8,0-1.2-.3c-.3-.2-.6-.4-.9-.8h0ZM226,13.5c-.4,0-.8.2-1,.5s-.3.8-.3,1.4.1,1.1.3,1.4.6.5,1,.5.8-.2,1-.5.3-.8.3-1.4-.1-1.1-.3-1.4c-.2-.3-.6-.5-1-.5Z"/>
      <path d="M233.7,15.6c-.4,0-.7,0-1,.2-.2.1-.3.4-.3.6s0,.5.3.6c.2.1.4.2.7.2s.7-.1,1-.4.4-.6.4-1v-.2h-1.1,0ZM236.8,14.9v3.6h-2v-.9c-.3.4-.6.7-.9.8-.3.2-.7.3-1.2.3s-1.2-.2-1.6-.6c-.4-.4-.6-.9-.6-1.5s.3-1.3.8-1.6,1.3-.5,2.4-.5h1.2v-.2c0-.3-.1-.6-.4-.7-.3-.1-.6-.2-1.2-.2s-.8,0-1.2.1c-.4,0-.7.2-1,.4v-1.5c.4-.1.9-.2,1.3-.2h1.3c1.1,0,2,.2,2.5.7.5.4.8,1.2.8,2.2l-.2-.2h0Z"/>
      <path d="M243.4,13.9c-.2,0-.4-.1-.5-.2h-.5c-.5,0-.9.2-1.2.5s-.4.8-.4,1.4v2.9h-2v-6.3h2v1c.3-.4.6-.7.9-.9.3-.2.7-.3,1.2-.3s.1,0,.2,0h.3v1.8h0Z"/>
      <path d="M244.4,12.2h2v6.3h-2v-6.3ZM244.4,9.7h2v1.6h-2v-1.6Z"/>
      <path d="M253.3,12.4v1.5c-.4-.2-.8-.3-1.3-.4-.4,0-.8-.1-1.1-.1s-.7,0-.9.1c-.2,0-.3.2-.3.4s0,.3.2.4c.1,0,.4.1.8.2h.4c1,.2,1.7.4,2.1.7.4.3.5.8.5,1.4s-.2,1.2-.7,1.5-1.2.5-2.2.5h-1.3c-.4,0-.9-.2-1.4-.3v-1.5c.4.2.8.3,1.2.4.4,0,.9.1,1.3.1s.7,0,.9-.2c.2-.1.3-.3.3-.5s0-.3-.2-.4c-.1,0-.4-.2-.8-.2h-.4c-.9-.2-1.5-.4-1.9-.7s-.5-.8-.5-1.4.2-1.2.7-1.5,1.2-.5,2.1-.5h1.2c.4,0,.9.1,1.3.3v.2h0Z"/>
      <path d="M258.3,13.4c-.4,0-.8.2-1,.5s-.4.8-.4,1.4.1,1.1.4,1.4c.2.3.6.5,1,.5s.8-.2,1-.5.4-.8.4-1.4-.1-1.1-.4-1.4c-.2-.3-.6-.5-1-.5ZM258.3,12c1.1,0,1.9.3,2.5.9.6.6.9,1.4.9,2.4s-.3,1.8-.9,2.4-1.5.9-2.5.9-1.9-.3-2.6-.9c-.6-.6-.9-1.4-.9-2.4s.3-1.8.9-2.4c.6-.6,1.5-.9,2.6-.9Z"/>
      <path d="M269.5,14.6v3.8h-2v-4c0-.2,0-.4-.1-.5,0-.1-.2-.2-.3-.3-.1,0-.3-.1-.5-.1-.4,0-.8.2-1,.5s-.4.8-.4,1.3v3.1h-2v-6.3h2v.9c.3-.4.6-.6,1-.8.3-.2.7-.3,1.1-.3.7,0,1.3.2,1.7.7.4.4.6,1.1.6,1.9h-.1Z"/>
      <path d="M278.8,20h-1.7c-.6-.9-1-1.8-1.3-2.6-.3-.8-.4-1.7-.4-2.5s.1-1.7.4-2.5.7-1.7,1.3-2.6h1.7c-.5.9-.8,1.8-1.1,2.6-.2.9-.4,1.7-.4,2.5s.1,1.7.4,2.5c.2.9.6,1.7,1.1,2.6Z"/>
      <path d="M280.8,10.1h2.8l1.9,4.5,1.9-4.5h2.8v8.4h-2.1v-6.2l-1.9,4.5h-1.4l-1.9-4.5v6.2h-2.1v-8.4h0Z"/>
      <path d="M295.2,13.4c-.4,0-.8.2-1,.5s-.4.8-.4,1.4.1,1.1.4,1.4c.2.3.6.5,1,.5s.8-.2,1-.5.4-.8.4-1.4-.1-1.1-.4-1.4c-.2-.3-.6-.5-1-.5ZM295.2,12c1.1,0,1.9.3,2.5.9.6.6.9,1.4.9,2.4s-.3,1.8-.9,2.4-1.5.9-2.5.9-1.9-.3-2.6-.9c-.6-.6-.9-1.4-.9-2.4s.3-1.8.9-2.4c.6-.6,1.5-.9,2.6-.9Z"/>
      <path d="M302.4,10.4v1.8h2.1v1.4h-2.1v2.7c0,.3,0,.5.2.6.1.1.3.2.7.2h1v1.4h-1.7c-.8,0-1.4-.2-1.7-.5-.3-.3-.5-.9-.5-1.7v-2.7h-1v-1.4h1v-1.8h2Z"/>
      <path d="M308.7,13.4c-.4,0-.8.2-1,.5s-.4.8-.4,1.4.1,1.1.4,1.4c.2.3.6.5,1,.5s.8-.2,1-.5.4-.8.4-1.4-.1-1.1-.4-1.4c-.2-.3-.6-.5-1-.5ZM308.7,12c1.1,0,1.9.3,2.5.9.6.6.9,1.4.9,2.4s-.3,1.8-.9,2.4-1.5.9-2.5.9-1.9-.3-2.6-.9c-.6-.6-.9-1.4-.9-2.4s.3-1.8.9-2.4c.6-.6,1.5-.9,2.6-.9Z"/>
      <path d="M318.3,13.9c-.2,0-.4-.1-.5-.2h-.5c-.5,0-.9.2-1.2.5-.3.3-.4.8-.4,1.4v2.9h-2v-6.3h2v1c.3-.4.6-.7.9-.9s.7-.3,1.2-.3.1,0,.2,0h.3v1.8h0Z"/>
      <path d="M322.4,10.1h2.2l2.2,6.2,2.2-6.2h2.2l-3.1,8.4h-2.6l-3.1-8.4h0Z"/>
      <path d="M338,15.3v.6h-4.7c0,.5.2.8.5,1.1.3.2.7.4,1.2.4s.9,0,1.3-.2c.4-.1.9-.3,1.4-.6v1.6c-.5.2-1,.3-1.4.4-.5,0-1,.1-1.4.1-1.1,0-2-.3-2.7-.9-.6-.6-.9-1.4-.9-2.4s.3-1.8.9-2.4c.6-.6,1.5-.9,2.6-.9s1.8.3,2.4.9c.6.6.9,1.4.9,2.4h0ZM335.9,14.6c0-.4-.1-.7-.3-.9-.2-.2-.5-.4-.9-.4s-.7.1-1,.3c-.2.2-.4.5-.5,1h2.7,0Z"/>
      <path d="M339.5,9.7h2v8.8h-2v-8.8Z"/>
      <path d="M346.5,13.4c-.4,0-.8.2-1,.5s-.4.8-.4,1.4.1,1.1.4,1.4c.2.3.6.5,1,.5s.8-.2,1-.5.4-.8.4-1.4-.1-1.1-.4-1.4c-.2-.3-.6-.5-1-.5ZM346.5,12c1.1,0,1.9.3,2.5.9.6.6.9,1.4.9,2.4s-.3,1.8-.9,2.4-1.5.9-2.5.9-1.9-.3-2.6-.9c-.6-.6-.9-1.4-.9-2.4s.3-1.8.9-2.4c.6-.6,1.5-.9,2.6-.9Z"/>
      <path d="M356.5,12.4v1.6c-.3-.2-.6-.3-.8-.4-.3,0-.6-.1-.9-.1-.6,0-1,.2-1.3.5s-.5.8-.5,1.4.2,1.1.5,1.4.8.5,1.3.5.6,0,.9-.1c.3,0,.5-.2.8-.4v1.7c-.3.1-.6.2-1,.3h-1c-1.1,0-2-.3-2.7-.9-.6-.6-1-1.4-1-2.4s.3-1.9,1-2.4c.6-.6,1.5-.9,2.7-.9s.7,0,1,0,.6.1,1,.3h0Z"/>
      <path d="M358.2,12.2h2v6.3h-2v-6.3ZM358.2,9.7h2v1.6h-2v-1.6Z"/>
      <path d="M364.4,10.4v1.8h2.1v1.4h-2.1v2.7c0,.3,0,.5.2.6.1.1.3.2.7.2h1v1.4h-1.7c-.8,0-1.4-.2-1.7-.5-.3-.3-.5-.9-.5-1.7v-2.7h-1v-1.4h1v-1.8h2Z"/>
      <path d="M366.9,12.2h2l1.7,4.3,1.4-4.3h2l-2.7,6.9c-.3.7-.6,1.2-.9,1.5-.4.3-.8.4-1.4.4h-1.2v-1.3h.6c.3,0,.6,0,.7-.2.2-.1.3-.3.4-.6v-.2l-2.8-6.6h.2,0Z"/>
      <path d="M375.2,20c.5-.9.8-1.8,1.1-2.6.2-.9.4-1.7.4-2.5s-.1-1.7-.4-2.5c-.2-.9-.6-1.7-1.1-2.6h1.7c.6.9,1,1.8,1.3,2.6s.4,1.7.4,2.5-.1,1.7-.4,2.5-.7,1.7-1.3,2.6h-1.7Z"/>
      <g class="st25">
        <image id="img12" class="st21" width="85" height="134" transform="translate(434 64)" xlink:href="romi_all_step_responses_3-1.png"/>
      </g>
      <path class="st8" d="M438.2,71.5h16"/>
      <path d="M463.2,68.2c-.3.6-.6,1.2-.8,1.8-.2.6-.3,1.2-.3,1.8s0,1.2.3,1.8c.2.6.4,1.2.8,1.8h-.6c-.4-.6-.7-1.2-.9-1.8-.2-.6-.3-1.2-.3-1.8s0-1.2.3-1.8c.2-.6.5-1.2.9-1.8h.6Z"/>
      <path d="M466.4,69c-.4,0-.7.2-.9.6-.2.4-.3,1-.3,1.8s.1,1.4.3,1.8c.2.4.5.6.9.6s.7-.2.9-.6c.2-.4.3-1,.3-1.8s-.1-1.4-.3-1.8c-.2-.4-.5-.6-.9-.6ZM466.4,68.4c.7,0,1.2.3,1.5.8s.5,1.3.5,2.3-.2,1.7-.5,2.3c-.3.5-.8.8-1.5.8s-1.2-.3-1.5-.8-.5-1.3-.5-2.3.2-1.7.5-2.3c.3-.5.8-.8,1.5-.8Z"/>
      <path d="M474.7,71.7c-.2,0-.4,0-.5.3-.1.2-.2.5-.2.8s0,.6.2.8c.1.2.3.3.5.3s.4,0,.5-.3c.1-.2.2-.5.2-.8s0-.6-.2-.8c-.1-.2-.3-.3-.5-.3ZM474.7,71.2c.4,0,.7,0,1,.4.2.3.4.7.4,1.2s-.1.9-.4,1.2c-.2.3-.6.4-1,.4s-.7,0-1-.4c-.2-.3-.4-.7-.4-1.2s.1-.9.4-1.2.6-.4,1-.4ZM470.7,68.8c-.2,0-.4,0-.5.3-.1.2-.2.5-.2.8s0,.6.2.8c.1.2.3.3.5.3s.4,0,.5-.3c.1-.2.2-.5.2-.8s0-.6-.2-.8c-.1-.2-.3-.3-.5-.3ZM474.2,68.4h.6l-3.7,6.1h-.6l3.7-6.1ZM470.7,68.4c.4,0,.7,0,1,.4.2.3.4.7.4,1.2s-.1.9-.4,1.2c-.2.3-.6.4-1,.4s-.7,0-1-.4c-.2-.3-.4-.7-.4-1.2s.1-.9.4-1.2c.2-.3.6-.4,1-.4Z"/>
      <path d="M483.6,71.9v.4h-3.3c0,.5.2.9.4,1.1.3.3.6.4,1.1.4h.8c.3,0,.5-.2.8-.3v.7c-.3,0-.5.2-.8.3h-.8c-.7,0-1.3-.2-1.7-.6-.4-.4-.6-1-.6-1.7s.2-1.3.6-1.7c.4-.4.9-.6,1.6-.6s1.1.2,1.4.6.5.9.5,1.5h0ZM482.9,71.7c0-.4-.1-.7-.3-.9-.2-.2-.5-.4-.9-.4s-.7,0-1,.3c-.2.2-.4.5-.4,1h2.6,0Z"/>
      <path d="M487,68.2v.6h-.7c-.3,0-.4,0-.5.2-.1,0-.2.3-.2.6v.4h1.2v.6h-1.2v3.8h-.7v-3.8h-.7v-.6h.7v-.3c0-.5.1-.8.3-1.1.2-.2.6-.3,1.1-.3h.7Z"/>
      <path d="M489.8,68.2v.6h-.7c-.3,0-.4,0-.5.2-.1,0-.2.3-.2.6v.4h1.2v.6h-1.2v3.8h-.7v-3.8h-.7v-.6h.7v-.3c0-.5.1-.8.3-1.1.2-.2.6-.3,1.1-.3h.7Z"/>
      <path d="M492.1,70.4c-.4,0-.7.2-.9.5-.2.3-.3.7-.3,1.2s.1.9.3,1.2c.2.3.5.5.9.5s.7-.2.9-.5c.2-.3.3-.7.3-1.2s-.1-.9-.3-1.2c-.2-.3-.5-.5-.9-.5ZM492.1,69.8c.6,0,1.1.2,1.5.6s.5,1,.5,1.7-.2,1.3-.5,1.7c-.4.4-.8.6-1.5.6s-1.1-.2-1.5-.6-.5-1-.5-1.7.2-1.3.5-1.7c.4-.4.8-.6,1.5-.6Z"/>
      <path d="M497.9,70.6h-.6c-.4,0-.7,0-.9.4-.2.3-.3.6-.3,1.1v2.3h-.7v-4.4h.7v.7c.2-.3.3-.5.6-.6.2,0,.5-.2.9-.2s.1,0,.2,0h.2v.7h-.1Z"/>
      <path d="M499.3,68.7v1.2h1.5v.6h-1.5v2.4c0,.4,0,.6.1.7,0,0,.3.2.6.2h.7v.6h-.7c-.6,0-.9,0-1.2-.3-.2-.2-.3-.6-.3-1.1v-2.4h-.5v-.6h.5v-1.2h.8Z"/>
      <path d="M501.7,68.2h.6c.4.6.7,1.2.9,1.8.2.6.3,1.2.3,1.8s0,1.2-.3,1.8c-.2.6-.5,1.2-.9,1.8h-.6c.3-.6.6-1.2.8-1.8.2-.6.3-1.2.3-1.8s0-1.2-.3-1.8c-.2-.6-.4-1.2-.8-1.8Z"/>
      <path class="st12" d="M438.2,83.3h16"/>
      <path d="M463.2,80c-.3.6-.6,1.2-.8,1.8-.2.6-.3,1.2-.3,1.8s0,1.2.3,1.8c.2.6.4,1.2.8,1.8h-.6c-.4-.6-.7-1.2-.9-1.8-.2-.6-.3-1.2-.3-1.8s0-1.2.3-1.8c.2-.6.5-1.2.9-1.8h.6Z"/>
      <path d="M464.8,85.4h1.3v-4.5l-1.4.3v-.7l1.4-.3h.8v5.2h1.3v.7h-3.4v-.7h0Z"/>
      <path d="M471.5,80.7c-.4,0-.7.2-.9.6-.2.4-.3,1-.3,1.8s.1,1.4.3,1.8c.2.4.5.6.9.6s.7-.2.9-.6c.2-.4.3-1,.3-1.8s-.1-1.4-.3-1.8c-.2-.4-.5-.6-.9-.6ZM471.5,80.1c.7,0,1.2.3,1.5.8s.5,1.3.5,2.3-.2,1.7-.5,2.3c-.3.5-.8.8-1.5.8s-1.2-.3-1.5-.8-.5-1.3-.5-2.3.2-1.7.5-2.3c.3-.5.8-.8,1.5-.8Z"/>
      <path d="M479.8,83.5c-.2,0-.4,0-.5.3-.1.2-.2.5-.2.8s0,.6.2.8c.1.2.3.3.5.3s.4,0,.5-.3c.1-.2.2-.5.2-.8s0-.6-.2-.8c-.1-.2-.3-.3-.5-.3ZM479.8,83c.4,0,.7,0,1,.4.2.3.4.7.4,1.2s-.1.9-.4,1.2c-.2.3-.6.4-1,.4s-.7,0-1-.4c-.2-.3-.4-.7-.4-1.2s.1-.9.4-1.2.6-.4,1-.4ZM475.8,80.6c-.2,0-.4,0-.5.3-.1.2-.2.5-.2.8s0,.6.2.8c.1.2.3.3.5.3s.4,0,.5-.3c.1-.2.2-.5.2-.8s0-.6-.2-.8c-.1-.2-.3-.3-.5-.3ZM479.3,80.1h.6l-3.7,6.1h-.6l3.7-6.1ZM475.8,80.1c.4,0,.7,0,1,.4.2.3.4.7.4,1.2s-.1.9-.4,1.2c-.2.3-.6.4-1,.4s-.7,0-1-.4c-.2-.3-.4-.7-.4-1.2s.1-.9.4-1.2c.2-.3.6-.4,1-.4Z"/>
      <path d="M488.7,83.7v.4h-3.3c0,.5.2.9.4,1.1.3.3.6.4,1.1.4h.8c.3,0,.5-.2.8-.3v.7c-.3,0-.5.2-.8.3h-.8c-.7,0-1.3-.2-1.7-.6-.4-.4-.6-1-.6-1.7s.2-1.3.6-1.7c.4-.4.9-.6,1.6-.6s1.1.2,1.4.6.5.9.5,1.5h0ZM488,83.5c0-.4-.1-.7-.3-.9-.2-.2-.5-.4-.9-.4s-.7,0-1,.3c-.2.2-.4.5-.4,1h2.6,0Z"/>
      <path d="M492.1,80v.6h-.7c-.3,0-.4,0-.5.2-.1,0-.2.3-.2.6v.4h1.2v.6h-1.2v3.8h-.7v-3.8h-.7v-.6h.7v-.3c0-.5.1-.8.3-1.1.2-.2.6-.3,1.1-.3h.7Z"/>
      <path d="M494.9,80v.6h-.7c-.3,0-.4,0-.5.2-.1,0-.2.3-.2.6v.4h1.2v.6h-1.2v3.8h-.7v-3.8h-.7v-.6h.7v-.3c0-.5.1-.8.3-1.1.2-.2.6-.3,1.1-.3h.7Z"/>
      <path d="M497.2,82.2c-.4,0-.7.2-.9.5-.2.3-.3.7-.3,1.2s.1.9.3,1.2c.2.3.5.5.9.5s.7-.2.9-.5c.2-.3.3-.7.3-1.2s-.1-.9-.3-1.2c-.2-.3-.5-.5-.9-.5ZM497.2,81.6c.6,0,1.1.2,1.5.6s.5,1,.5,1.7-.2,1.3-.5,1.7c-.4.4-.8.6-1.5.6s-1.1-.2-1.5-.6-.5-1-.5-1.7.2-1.3.5-1.7c.4-.4.8-.6,1.5-.6Z"/>
      <path d="M503,82.3h-.6c-.4,0-.7,0-.9.4-.2.3-.3.6-.3,1.1v2.3h-.7v-4.4h.7v.7c.2-.3.3-.5.6-.6.2,0,.5-.2.9-.2s.1,0,.2,0h.2v.7h-.1Z"/>
      <path d="M504.4,80.4v1.2h1.5v.6h-1.5v2.4c0,.4,0,.6.1.7,0,0,.3.2.6.2h.7v.6h-.7c-.6,0-.9,0-1.2-.3-.2-.2-.3-.6-.3-1.1v-2.4h-.5v-.6h.5v-1.2h.8Z"/>
      <path d="M506.8,80h.6c.4.6.7,1.2.9,1.8.2.6.3,1.2.3,1.8s0,1.2-.3,1.8c-.2.6-.5,1.2-.9,1.8h-.6c.3-.6.6-1.2.8-1.8.2-.6.3-1.2.3-1.8s0-1.2-.3-1.8c-.2-.6-.4-1.2-.8-1.8Z"/>
      <path class="st11" d="M438.2,95h16"/>
      <path d="M463.2,91.7c-.3.6-.6,1.2-.8,1.8-.2.6-.3,1.2-.3,1.8s0,1.2.3,1.8c.2.6.4,1.2.8,1.8h-.6c-.4-.6-.7-1.2-.9-1.8-.2-.6-.3-1.2-.3-1.8s0-1.2.3-1.8c.2-.6.5-1.2.9-1.8h.6Z"/>
      <path d="M465.3,97.2h2.8v.7h-3.7v-.7c.3-.3.7-.7,1.2-1.2s.8-.9,1-1c.3-.3.4-.5.5-.7s.2-.4.2-.6c0-.3-.1-.6-.3-.8-.2-.2-.5-.3-.9-.3h-.8c-.3,0-.6.2-.9.4v-.8c.3,0,.6-.2.9-.3h.8c.6,0,1.1.2,1.4.5.4.3.5.7.5,1.2s0,.5-.1.7c0,.2-.3.5-.5.8,0,0-.3.3-.6.7-.3.4-.8.9-1.5,1.5v-.2h0Z"/>
      <path d="M471.5,92.5c-.4,0-.7.2-.9.6-.2.4-.3,1-.3,1.8s.1,1.4.3,1.8c.2.4.5.6.9.6s.7-.2.9-.6c.2-.4.3-1,.3-1.8s-.1-1.4-.3-1.8c-.2-.4-.5-.6-.9-.6ZM471.5,91.9c.7,0,1.2.3,1.5.8s.5,1.3.5,2.3-.2,1.7-.5,2.3c-.3.5-.8.8-1.5.8s-1.2-.3-1.5-.8-.5-1.3-.5-2.3.2-1.7.5-2.3c.3-.5.8-.8,1.5-.8Z"/>
      <path d="M479.8,95.2c-.2,0-.4,0-.5.3-.1.2-.2.5-.2.8s0,.6.2.8c.1.2.3.3.5.3s.4,0,.5-.3c.1-.2.2-.5.2-.8s0-.6-.2-.8c-.1-.2-.3-.3-.5-.3ZM479.8,94.7c.4,0,.7,0,1,.4.2.3.4.7.4,1.2s-.1.9-.4,1.2c-.2.3-.6.4-1,.4s-.7,0-1-.4c-.2-.3-.4-.7-.4-1.2s.1-.9.4-1.2.6-.4,1-.4ZM475.8,92.4c-.2,0-.4,0-.5.3-.1.2-.2.5-.2.8s0,.6.2.8c.1.2.3.3.5.3s.4,0,.5-.3c.1-.2.2-.5.2-.8s0-.6-.2-.8c-.1-.2-.3-.3-.5-.3ZM479.3,91.9h.6l-3.7,6.1h-.6l3.7-6.1ZM475.8,91.9c.4,0,.7,0,1,.4.2.3.4.7.4,1.2s-.1.9-.4,1.2c-.2.3-.6.4-1,.4s-.7,0-1-.4c-.2-.3-.4-.7-.4-1.2s.1-.9.4-1.2c.2-.3.6-.4,1-.4Z"/>
      <path d="M488.7,95.4v.4h-3.3c0,.5.2.9.4,1.1.3.3.6.4,1.1.4h.8c.3,0,.5-.2.8-.3v.7c-.3,0-.5.2-.8.3h-.8c-.7,0-1.3-.2-1.7-.6-.4-.4-.6-1-.6-1.7s.2-1.3.6-1.7c.4-.4.9-.6,1.6-.6s1.1.2,1.4.6.5.9.5,1.5h0ZM488,95.2c0-.4-.1-.7-.3-.9-.2-.2-.5-.4-.9-.4s-.7,0-1,.3c-.2.2-.4.5-.4,1h2.6,0Z"/>
      <path d="M492.1,91.7v.6h-.7c-.3,0-.4,0-.5.2-.1,0-.2.3-.2.6v.4h1.2v.6h-1.2v3.8h-.7v-3.8h-.7v-.6h.7v-.3c0-.5.1-.8.3-1.1.2-.2.6-.3,1.1-.3h.7Z"/>
      <path d="M494.9,91.7v.6h-.7c-.3,0-.4,0-.5.2-.1,0-.2.3-.2.6v.4h1.2v.6h-1.2v3.8h-.7v-3.8h-.7v-.6h.7v-.3c0-.5.1-.8.3-1.1.2-.2.6-.3,1.1-.3h.7Z"/>
      <path d="M497.2,93.9c-.4,0-.7.2-.9.5-.2.3-.3.7-.3,1.2s.1.9.3,1.2c.2.3.5.5.9.5s.7-.2.9-.5c.2-.3.3-.7.3-1.2s-.1-.9-.3-1.2c-.2-.3-.5-.5-.9-.5ZM497.2,93.3c.6,0,1.1.2,1.5.6s.5,1,.5,1.7-.2,1.3-.5,1.7c-.4.4-.8.6-1.5.6s-1.1-.2-1.5-.6-.5-1-.5-1.7.2-1.3.5-1.7c.4-.4.8-.6,1.5-.6Z"/>
      <path d="M503,94.1h-.6c-.4,0-.7,0-.9.4-.2.3-.3.6-.3,1.1v2.3h-.7v-4.4h.7v.7c.2-.3.3-.5.6-.6.2,0,.5-.2.9-.2s.1,0,.2,0h.2v.7h-.1Z"/>
      <path d="M504.4,92.2v1.2h1.5v.6h-1.5v2.4c0,.4,0,.6.1.7,0,0,.3.2.6.2h.7v.6h-.7c-.6,0-.9,0-1.2-.3-.2-.2-.3-.6-.3-1.1v-2.4h-.5v-.6h.5v-1.2h.8Z"/>
      <path d="M506.8,91.7h.6c.4.6.7,1.2.9,1.8.2.6.3,1.2.3,1.8s0,1.2-.3,1.8c-.2.6-.5,1.2-.9,1.8h-.6c.3-.6.6-1.2.8-1.8.2-.6.3-1.2.3-1.8s0-1.2-.3-1.8c-.2-.6-.4-1.2-.8-1.8Z"/>
      <path class="st3" d="M438.2,106.8h16"/>
      <path d="M463.2,103.5c-.3.6-.6,1.2-.8,1.8-.2.6-.3,1.2-.3,1.8s0,1.2.3,1.8c.2.6.4,1.2.8,1.8h-.6c-.4-.6-.7-1.2-.9-1.8-.2-.6-.3-1.2-.3-1.8s0-1.2.3-1.8c.2-.6.5-1.2.9-1.8h.6Z"/>
      <path d="M467.1,106.4c.4,0,.7.2.9.5.2.3.3.6.3.9,0,.6-.2,1-.6,1.3s-1,.5-1.7.5h-.8c-.3,0-.5,0-.8-.2v-.8c.2,0,.5.2.7.3h.8c.5,0,.9,0,1.1-.3.3-.2.4-.5.4-.9s-.1-.6-.4-.8c-.2-.2-.6-.3-1-.3h-.7v-.6h.7c.4,0,.7,0,.9-.2.2-.2.3-.4.3-.7s-.1-.5-.3-.7c-.2-.2-.5-.2-.9-.2h-.7c-.2,0-.5,0-.8.2v-.7c.3,0,.6,0,.8-.2h.7c.6,0,1.1,0,1.4.4.4.3.5.6.5,1.1s0,.6-.3.8c-.2.2-.4.4-.8.5h.3Z"/>
      <path d="M471.5,104.3c-.4,0-.7.2-.9.6-.2.4-.3,1-.3,1.8s.1,1.4.3,1.8c.2.4.5.6.9.6s.7-.2.9-.6c.2-.4.3-1,.3-1.8s-.1-1.4-.3-1.8c-.2-.4-.5-.6-.9-.6ZM471.5,103.6c.7,0,1.2.3,1.5.8s.5,1.3.5,2.3-.2,1.7-.5,2.3c-.3.5-.8.8-1.5.8s-1.2-.3-1.5-.8-.5-1.3-.5-2.3.2-1.7.5-2.3c.3-.5.8-.8,1.5-.8Z"/>
      <path d="M479.8,107c-.2,0-.4,0-.5.3-.1.2-.2.5-.2.8s0,.6.2.8c.1.2.3.3.5.3s.4,0,.5-.3c.1-.2.2-.5.2-.8s0-.6-.2-.8c-.1-.2-.3-.3-.5-.3ZM479.8,106.5c.4,0,.7,0,1,.4.2.3.4.7.4,1.2s-.1.9-.4,1.2c-.2.3-.6.4-1,.4s-.7,0-1-.4c-.2-.3-.4-.7-.4-1.2s.1-.9.4-1.2.6-.4,1-.4ZM475.8,104.1c-.2,0-.4,0-.5.3-.1.2-.2.5-.2.8s0,.6.2.8c.1.2.3.3.5.3s.4,0,.5-.3c.1-.2.2-.5.2-.8s0-.6-.2-.8c-.1-.2-.3-.3-.5-.3ZM479.3,103.6h.6l-3.7,6.1h-.6l3.7-6.1ZM475.8,103.6c.4,0,.7,0,1,.4.2.3.4.7.4,1.2s-.1.9-.4,1.2c-.2.3-.6.4-1,.4s-.7,0-1-.4c-.2-.3-.4-.7-.4-1.2s.1-.9.4-1.2c.2-.3.6-.4,1-.4Z"/>
      <path d="M488.7,107.2v.4h-3.3c0,.5.2.9.4,1.1.3.3.6.4,1.1.4h.8c.3,0,.5-.2.8-.3v.7c-.3,0-.5.2-.8.3h-.8c-.7,0-1.3-.2-1.7-.6-.4-.4-.6-1-.6-1.7s.2-1.3.6-1.7c.4-.4.9-.6,1.6-.6s1.1.2,1.4.6.5.9.5,1.5h0ZM488,107c0-.4-.1-.7-.3-.9-.2-.2-.5-.4-.9-.4s-.7,0-1,.3c-.2.2-.4.5-.4,1h2.6,0Z"/>
      <path d="M492.1,103.5v.6h-.7c-.3,0-.4,0-.5.2-.1,0-.2.3-.2.6v.4h1.2v.6h-1.2v3.8h-.7v-3.8h-.7v-.6h.7v-.3c0-.5.1-.8.3-1.1.2-.2.6-.3,1.1-.3h.7Z"/>
      <path d="M494.9,103.5v.6h-.7c-.3,0-.4,0-.5.2-.1,0-.2.3-.2.6v.4h1.2v.6h-1.2v3.8h-.7v-3.8h-.7v-.6h.7v-.3c0-.5.1-.8.3-1.1.2-.2.6-.3,1.1-.3h.7Z"/>
      <path d="M497.2,105.7c-.4,0-.7.2-.9.5-.2.3-.3.7-.3,1.2s.1.9.3,1.2c.2.3.5.5.9.5s.7-.2.9-.5c.2-.3.3-.7.3-1.2s-.1-.9-.3-1.2c-.2-.3-.5-.5-.9-.5ZM497.2,105.1c.6,0,1.1.2,1.5.6s.5,1,.5,1.7-.2,1.3-.5,1.7c-.4.4-.8.6-1.5.6s-1.1-.2-1.5-.6-.5-1-.5-1.7.2-1.3.5-1.7c.4-.4.8-.6,1.5-.6Z"/>
      <path d="M503,105.9h-.6c-.4,0-.7,0-.9.4-.2.3-.3.6-.3,1.1v2.3h-.7v-4.4h.7v.7c.2-.3.3-.5.6-.6.2,0,.5-.2.9-.2s.1,0,.2,0h.2v.7h-.1Z"/>
      <path d="M504.4,104v1.2h1.5v.6h-1.5v2.4c0,.4,0,.6.1.7,0,0,.3.2.6.2h.7v.6h-.7c-.6,0-.9,0-1.2-.3-.2-.2-.3-.6-.3-1.1v-2.4h-.5v-.6h.5v-1.2h.8Z"/>
      <path d="M506.8,103.5h.6c.4.6.7,1.2.9,1.8.2.6.3,1.2.3,1.8s0,1.2-.3,1.8c-.2.6-.5,1.2-.9,1.8h-.6c.3-.6.6-1.2.8-1.8.2-.6.3-1.2.3-1.8s0-1.2-.3-1.8c-.2-.6-.4-1.2-.8-1.8Z"/>
      <path class="st2" d="M438.2,118.5h16"/>
      <path d="M463.2,115.3c-.3.6-.6,1.2-.8,1.8-.2.6-.3,1.2-.3,1.8s0,1.2.3,1.8c.2.6.4,1.2.8,1.8h-.6c-.4-.6-.7-1.2-.9-1.8-.2-.6-.3-1.2-.3-1.8s0-1.2.3-1.8c.2-.6.5-1.2.9-1.8h.6Z"/>
      <path d="M466.8,116.2l-2,3.1h2v-3.1ZM466.6,115.5h1v3.8h.8v.7h-.8v1.4h-.8v-1.4h-2.6v-.8l2.4-3.7Z"/>
      <path d="M471.5,116c-.4,0-.7.2-.9.6-.2.4-.3,1-.3,1.8s.1,1.4.3,1.8c.2.4.5.6.9.6s.7-.2.9-.6c.2-.4.3-1,.3-1.8s-.1-1.4-.3-1.8c-.2-.4-.5-.6-.9-.6ZM471.5,115.4c.7,0,1.2.3,1.5.8s.5,1.3.5,2.3-.2,1.7-.5,2.3c-.3.5-.8.8-1.5.8s-1.2-.3-1.5-.8-.5-1.3-.5-2.3.2-1.7.5-2.3c.3-.5.8-.8,1.5-.8Z"/>
      <path d="M479.8,118.8c-.2,0-.4,0-.5.3-.1.2-.2.5-.2.8s0,.6.2.8c.1.2.3.3.5.3s.4,0,.5-.3c.1-.2.2-.5.2-.8s0-.6-.2-.8c-.1-.2-.3-.3-.5-.3ZM479.8,118.3c.4,0,.7,0,1,.4.2.3.4.7.4,1.2s-.1.9-.4,1.2c-.2.3-.6.4-1,.4s-.7,0-1-.4c-.2-.3-.4-.7-.4-1.2s.1-.9.4-1.2.6-.4,1-.4ZM475.8,115.9c-.2,0-.4,0-.5.3-.1.2-.2.5-.2.8s0,.6.2.8c.1.2.3.3.5.3s.4,0,.5-.3c.1-.2.2-.5.2-.8s0-.6-.2-.8c-.1-.2-.3-.3-.5-.3ZM479.3,115.4h.6l-3.7,6.1h-.6l3.7-6.1ZM475.8,115.4c.4,0,.7,0,1,.4.2.3.4.7.4,1.2s-.1.9-.4,1.2c-.2.3-.6.4-1,.4s-.7,0-1-.4c-.2-.3-.4-.7-.4-1.2s.1-.9.4-1.2c.2-.3.6-.4,1-.4Z"/>
      <path d="M488.7,119v.4h-3.3c0,.5.2.9.4,1.1.3.3.6.4,1.1.4h.8c.3,0,.5-.2.8-.3v.7c-.3,0-.5.2-.8.3h-.8c-.7,0-1.3-.2-1.7-.6-.4-.4-.6-1-.6-1.7s.2-1.3.6-1.7c.4-.4.9-.6,1.6-.6s1.1.2,1.4.6.5.9.5,1.5h0ZM488,118.8c0-.4-.1-.7-.3-.9-.2-.2-.5-.4-.9-.4s-.7,0-1,.3c-.2.2-.4.5-.4,1h2.6,0Z"/>
      <path d="M492.1,115.2v.6h-.7c-.3,0-.4,0-.5.2-.1,0-.2.3-.2.6v.4h1.2v.6h-1.2v3.8h-.7v-3.8h-.7v-.6h.7v-.3c0-.5.1-.8.3-1.1.2-.2.6-.3,1.1-.3h.7Z"/>
      <path d="M494.9,115.2v.6h-.7c-.3,0-.4,0-.5.2-.1,0-.2.3-.2.6v.4h1.2v.6h-1.2v3.8h-.7v-3.8h-.7v-.6h.7v-.3c0-.5.1-.8.3-1.1.2-.2.6-.3,1.1-.3h.7Z"/>
      <path d="M497.2,117.5c-.4,0-.7.2-.9.5-.2.3-.3.7-.3,1.2s.1.9.3,1.2c.2.3.5.5.9.5s.7-.2.9-.5c.2-.3.3-.7.3-1.2s-.1-.9-.3-1.2c-.2-.3-.5-.5-.9-.5ZM497.2,116.8c.6,0,1.1.2,1.5.6s.5,1,.5,1.7-.2,1.3-.5,1.7c-.4.4-.8.6-1.5.6s-1.1-.2-1.5-.6-.5-1-.5-1.7.2-1.3.5-1.7c.4-.4.8-.6,1.5-.6Z"/>
      <path d="M503,117.6h-.6c-.4,0-.7,0-.9.4-.2.3-.3.6-.3,1.1v2.3h-.7v-4.4h.7v.7c.2-.3.3-.5.6-.6.2,0,.5-.2.9-.2s.1,0,.2,0h.2v.7h-.1Z"/>
      <path d="M504.4,115.7v1.2h1.5v.6h-1.5v2.4c0,.4,0,.6.1.7,0,0,.3.2.6.2h.7v.6h-.7c-.6,0-.9,0-1.2-.3-.2-.2-.3-.6-.3-1.1v-2.4h-.5v-.6h.5v-1.2h.8Z"/>
      <path d="M506.8,115.3h.6c.4.6.7,1.2.9,1.8.2.6.3,1.2.3,1.8s0,1.2-.3,1.8c-.2.6-.5,1.2-.9,1.8h-.6c.3-.6.6-1.2.8-1.8.2-.6.3-1.2.3-1.8s0-1.2-.3-1.8c-.2-.6-.4-1.2-.8-1.8Z"/>
      <path class="st9" d="M438.2,130.3h16"/>
      <path d="M463.2,127c-.3.6-.6,1.2-.8,1.8-.2.6-.3,1.2-.3,1.8s0,1.2.3,1.8c.2.6.4,1.2.8,1.8h-.6c-.4-.6-.7-1.2-.9-1.8-.2-.6-.3-1.2-.3-1.8s0-1.2.3-1.8c.2-.6.5-1.2.9-1.8h.6Z"/>
      <path d="M464.7,127.3h3.1v.7h-2.4v1.4h.6c.7,0,1.2.2,1.6.5.4.4.6.8.6,1.5s-.2,1.1-.6,1.5c-.4.3-.9.5-1.7.5s-.5,0-.8,0-.5-.1-.8-.2v-.8c.2.1.5.2.7.3h.8c.5,0,.8-.1,1.1-.4.3-.2.4-.6.4-1s-.1-.7-.4-1c-.3-.2-.6-.4-1.1-.4h-.6c-.2,0-.4.1-.6.2v-2.9h.1,0Z"/>
      <path d="M471.5,127.8c-.4,0-.7.2-.9.6-.2.4-.3,1-.3,1.8s.1,1.4.3,1.8c.2.4.5.6.9.6s.7-.2.9-.6c.2-.4.3-1,.3-1.8s-.1-1.4-.3-1.8c-.2-.4-.5-.6-.9-.6ZM471.5,127.1c.7,0,1.2.3,1.5.8.3.5.5,1.3.5,2.3s-.2,1.7-.5,2.3c-.3.5-.8.8-1.5.8s-1.2-.3-1.5-.8-.5-1.3-.5-2.3.2-1.7.5-2.3c.3-.5.8-.8,1.5-.8Z"/>
      <path d="M479.8,130.5c-.2,0-.4,0-.5.3-.1.2-.2.5-.2.8s0,.6.2.8c.1.2.3.3.5.3s.4,0,.5-.3c.1-.2.2-.5.2-.8s0-.6-.2-.8c-.1-.2-.3-.3-.5-.3ZM479.8,130c.4,0,.7.1,1,.4.2.3.4.7.4,1.2s-.1.9-.4,1.2c-.2.3-.6.4-1,.4s-.7-.1-1-.4c-.2-.3-.4-.7-.4-1.2s.1-.9.4-1.2.6-.4,1-.4ZM475.8,127.6c-.2,0-.4,0-.5.3-.1.2-.2.5-.2.8s0,.6.2.8c.1.2.3.3.5.3s.4,0,.5-.3c.1-.2.2-.5.2-.8s0-.6-.2-.8c-.1-.2-.3-.3-.5-.3ZM479.3,127.1h.6l-3.7,6.1h-.6l3.7-6.1ZM475.8,127.1c.4,0,.7,0,1,.4.2.3.4.7.4,1.2s-.1.9-.4,1.2c-.2.3-.6.4-1,.4s-.7-.1-1-.4c-.2-.3-.4-.7-.4-1.2s.1-.9.4-1.2c.2-.3.6-.4,1-.4Z"/>
      <path d="M488.7,130.7v.4h-3.3c0,.5.2.9.4,1.1.3.3.6.4,1.1.4s.5,0,.8-.1c.3,0,.5-.2.8-.3v.7c-.3.1-.5.2-.8.3h-.8c-.7,0-1.3-.2-1.7-.6-.4-.4-.6-1-.6-1.7s.2-1.3.6-1.7.9-.6,1.6-.6,1.1.2,1.4.6c.3.4.5.9.5,1.5h0ZM488,130.5c0-.4-.1-.7-.3-.9-.2-.2-.5-.4-.9-.4s-.7.1-1,.3c-.2.2-.4.5-.4,1h2.6,0Z"/>
      <path d="M492.1,127v.6h-.7c-.3,0-.4,0-.5.2-.1,0-.2.3-.2.6v.4h1.2v.6h-1.2v3.8h-.7v-3.8h-.7v-.6h.7v-.3c0-.5.1-.8.3-1.1.2-.2.6-.3,1.1-.3h.7Z"/>
      <path d="M494.9,127v.6h-.7c-.3,0-.4,0-.5.2-.1,0-.2.3-.2.6v.4h1.2v.6h-1.2v3.8h-.7v-3.8h-.7v-.6h.7v-.3c0-.5.1-.8.3-1.1.2-.2.6-.3,1.1-.3h.7Z"/>
      <path d="M497.2,129.2c-.4,0-.7.2-.9.5-.2.3-.3.7-.3,1.2s.1.9.3,1.2c.2.3.5.5.9.5s.7-.2.9-.5c.2-.3.3-.7.3-1.2s-.1-.9-.3-1.2c-.2-.3-.5-.5-.9-.5ZM497.2,128.6c.6,0,1.1.2,1.5.6.4.4.5,1,.5,1.7s-.2,1.3-.5,1.7c-.4.4-.8.6-1.5.6s-1.1-.2-1.5-.6c-.4-.4-.5-1-.5-1.7s.2-1.3.5-1.7c.4-.4.8-.6,1.5-.6Z"/>
      <path d="M503,129.4s-.2,0-.3-.1h-.3c-.4,0-.7.1-.9.4-.2.3-.3.6-.3,1.1v2.3h-.7v-4.4h.7v.7c.2-.3.3-.5.6-.6.2-.1.5-.2.9-.2s.1,0,.2,0h.2v.7h-.1Z"/>
      <path d="M504.4,127.5v1.2h1.5v.6h-1.5v2.4c0,.4,0,.6.1.7,0,.1.3.2.6.2h.7v.6h-.7c-.6,0-.9-.1-1.2-.3-.2-.2-.3-.6-.3-1.1v-2.4h-.5v-.6h.5v-1.2h.8Z"/>
      <path d="M506.8,127h.6c.4.6.7,1.2.9,1.8.2.6.3,1.2.3,1.8s0,1.2-.3,1.8c-.2.6-.5,1.2-.9,1.8h-.6c.3-.6.6-1.2.8-1.8.2-.6.3-1.2.3-1.8s0-1.2-.3-1.8c-.2-.6-.4-1.2-.8-1.8Z"/>
      <path class="st7" d="M438.2,142.1h16"/>
      <path d="M463.2,138.8c-.3.6-.6,1.2-.8,1.8-.2.6-.3,1.2-.3,1.8s0,1.2.3,1.8c.2.6.4,1.2.8,1.8h-.6c-.4-.6-.7-1.2-.9-1.8-.2-.6-.3-1.2-.3-1.8s0-1.2.3-1.8c.2-.6.5-1.2.9-1.8h.6Z"/>
      <path d="M466.5,141.6c-.4,0-.6.1-.8.4-.2.2-.3.6-.3,1s.1.8.3,1c.2.2.5.4.8.4s.6-.1.8-.4c.2-.2.3-.6.3-1s-.1-.8-.3-1c-.2-.2-.5-.4-.8-.4ZM468,139.1v.7c-.2,0-.4-.2-.6-.2h-.6c-.5,0-.9.2-1.2.5-.3.4-.4.9-.5,1.6.2-.2.3-.4.6-.5.2-.1.5-.2.8-.2.6,0,1.1.2,1.4.5.3.4.5.8.5,1.5s-.2,1.1-.5,1.4-.8.5-1.4.5-1.2-.3-1.6-.8-.5-1.3-.5-2.3.2-1.7.7-2.2c.4-.5,1-.8,1.8-.8s.4,0,.6,0,.4,0,.6.2h0Z"/>
      <path d="M471.5,139.5c-.4,0-.7.2-.9.6-.2.4-.3,1-.3,1.8s.1,1.4.3,1.8c.2.4.5.6.9.6s.7-.2.9-.6c.2-.4.3-1,.3-1.8s-.1-1.4-.3-1.8c-.2-.4-.5-.6-.9-.6ZM471.5,138.9c.7,0,1.2.3,1.5.8s.5,1.3.5,2.3-.2,1.7-.5,2.3c-.3.5-.8.8-1.5.8s-1.2-.3-1.5-.8-.5-1.3-.5-2.3.2-1.7.5-2.3c.3-.5.8-.8,1.5-.8Z"/>
      <path d="M479.8,142.3c-.2,0-.4,0-.5.3-.1.2-.2.5-.2.8s0,.6.2.8c.1.2.3.3.5.3s.4,0,.5-.3c.1-.2.2-.5.2-.8s0-.6-.2-.8c-.1-.2-.3-.3-.5-.3ZM479.8,141.8c.4,0,.7.1,1,.4.2.3.4.7.4,1.2s-.1.9-.4,1.2c-.2.3-.6.4-1,.4s-.7-.1-1-.4c-.2-.3-.4-.7-.4-1.2s.1-.9.4-1.2.6-.4,1-.4ZM475.8,139.4c-.2,0-.4,0-.5.3-.1.2-.2.5-.2.8s0,.6.2.8c.1.2.3.3.5.3s.4,0,.5-.3c.1-.2.2-.5.2-.8s0-.6-.2-.8c-.1-.2-.3-.3-.5-.3ZM479.3,138.9h.6l-3.7,6.1h-.6l3.7-6.1ZM475.8,138.9c.4,0,.7.1,1,.4.2.3.4.7.4,1.2s-.1.9-.4,1.2c-.2.3-.6.4-1,.4s-.7-.1-1-.4c-.2-.3-.4-.7-.4-1.2s.1-.9.4-1.2c.2-.3.6-.4,1-.4Z"/>
      <path d="M488.7,142.5v.4h-3.3c0,.5.2.9.4,1.1.3.3.6.4,1.1.4s.5,0,.8-.1c.3,0,.5-.2.8-.3v.7c-.3.1-.5.2-.8.3h-.8c-.7,0-1.3-.2-1.7-.6-.4-.4-.6-1-.6-1.7s.2-1.3.6-1.7.9-.6,1.6-.6,1.1.2,1.4.6c.3.4.5.9.5,1.5h0ZM488,142.3c0-.4-.1-.7-.3-.9-.2-.2-.5-.4-.9-.4s-.7.1-1,.3c-.2.2-.4.5-.4,1h2.6,0Z"/>
      <path d="M492.1,138.8v.6h-.7c-.3,0-.4,0-.5.2-.1.1-.2.3-.2.6v.4h1.2v.6h-1.2v3.8h-.7v-3.8h-.7v-.6h.7v-.3c0-.5.1-.8.3-1.1.2-.2.6-.3,1.1-.3h.7Z"/>
      <path d="M494.9,138.8v.6h-.7c-.3,0-.4,0-.5.2-.1.1-.2.3-.2.6v.4h1.2v.6h-1.2v3.8h-.7v-3.8h-.7v-.6h.7v-.3c0-.5.1-.8.3-1.1.2-.2.6-.3,1.1-.3h.7Z"/>
      <path d="M497.2,141c-.4,0-.7.2-.9.5-.2.3-.3.7-.3,1.2s.1.9.3,1.2c.2.3.5.5.9.5s.7-.2.9-.5c.2-.3.3-.7.3-1.2s-.1-.9-.3-1.2c-.2-.3-.5-.5-.9-.5ZM497.2,140.4c.6,0,1.1.2,1.5.6.4.4.5,1,.5,1.7s-.2,1.3-.5,1.7c-.4.4-.8.6-1.5.6s-1.1-.2-1.5-.6c-.4-.4-.5-1-.5-1.7s.2-1.3.5-1.7c.4-.4.8-.6,1.5-.6Z"/>
      <path d="M503,141.1s-.2,0-.3-.1h-.3c-.4,0-.7.1-.9.4-.2.3-.3.6-.3,1.1v2.3h-.7v-4.4h.7v.7c.2-.3.3-.5.6-.6.2-.1.5-.2.9-.2s.1,0,.2,0h.2v.7h-.1Z"/>
      <path d="M504.4,139.2v1.2h1.5v.6h-1.5v2.4c0,.4,0,.6.1.7,0,.1.3.2.6.2h.7v.6h-.7c-.6,0-.9-.1-1.2-.3-.2-.2-.3-.6-.3-1.1v-2.4h-.5v-.6h.5v-1.2h.8Z"/>
      <path d="M506.8,138.8h.6c.4.6.7,1.2.9,1.8.2.6.3,1.2.3,1.8s0,1.2-.3,1.8c-.2.6-.5,1.2-.9,1.8h-.6c.3-.6.6-1.2.8-1.8.2-.6.3-1.2.3-1.8s0-1.2-.3-1.8c-.2-.6-.4-1.2-.8-1.8Z"/>
      <path class="st5" d="M438.2,153.8h16"/>
      <path d="M463.2,150.5c-.3.6-.6,1.2-.8,1.8-.2.6-.3,1.2-.3,1.8s0,1.2.3,1.8c.2.6.4,1.2.8,1.8h-.6c-.4-.6-.7-1.2-.9-1.8-.2-.6-.3-1.2-.3-1.8s0-1.2.3-1.8c.2-.6.5-1.2.9-1.8h.6Z"/>
      <path d="M464.5,150.8h3.8v.3l-2.1,5.5h-.8l2-5.2h-2.8v-.7h-.1Z"/>
      <path d="M471.5,151.3c-.4,0-.7.2-.9.6-.2.4-.3,1-.3,1.8s.1,1.4.3,1.8c.2.4.5.6.9.6s.7-.2.9-.6c.2-.4.3-1,.3-1.8s-.1-1.4-.3-1.8c-.2-.4-.5-.6-.9-.6ZM471.5,150.7c.7,0,1.2.3,1.5.8s.5,1.3.5,2.3-.2,1.7-.5,2.3c-.3.5-.8.8-1.5.8s-1.2-.3-1.5-.8-.5-1.3-.5-2.3.2-1.7.5-2.3c.3-.5.8-.8,1.5-.8Z"/>
      <path d="M479.8,154c-.2,0-.4,0-.5.3-.1.2-.2.5-.2.8s0,.6.2.8c.1.2.3.3.5.3s.4,0,.5-.3c.1-.2.2-.5.2-.8s0-.6-.2-.8c-.1-.2-.3-.3-.5-.3ZM479.8,153.5c.4,0,.7.1,1,.4.2.3.4.7.4,1.2s-.1.9-.4,1.2c-.2.3-.6.4-1,.4s-.7-.1-1-.4c-.2-.3-.4-.7-.4-1.2s.1-.9.4-1.2.6-.4,1-.4ZM475.8,151.2c-.2,0-.4,0-.5.3-.1.2-.2.5-.2.8s0,.6.2.8c.1.2.3.3.5.3s.4,0,.5-.3c.1-.2.2-.5.2-.8s0-.6-.2-.8c-.1-.2-.3-.3-.5-.3ZM479.3,150.7h.6l-3.7,6.1h-.6l3.7-6.1ZM475.8,150.7c.4,0,.7.1,1,.4.2.3.4.7.4,1.2s-.1.9-.4,1.2c-.2.3-.6.4-1,.4s-.7-.1-1-.4c-.2-.3-.4-.7-.4-1.2s.1-.9.4-1.2c.2-.3.6-.4,1-.4Z"/>
      <path d="M488.7,154.2v.4h-3.3c0,.5.2.9.4,1.1.3.3.6.4,1.1.4s.5,0,.8-.1c.3,0,.5-.2.8-.3v.7c-.3.1-.5.2-.8.3h-.8c-.7,0-1.3-.2-1.7-.6-.4-.4-.6-1-.6-1.7s.2-1.3.6-1.7.9-.6,1.6-.6,1.1.2,1.4.6c.3.4.5.9.5,1.5h0ZM488,154c0-.4-.1-.7-.3-.9-.2-.2-.5-.4-.9-.4s-.7.1-1,.3c-.2.2-.4.5-.4,1h2.6,0Z"/>
      <path d="M492.1,150.5v.6h-.7c-.3,0-.4,0-.5.2-.1.1-.2.3-.2.6v.4h1.2v.6h-1.2v3.8h-.7v-3.8h-.7v-.6h.7v-.3c0-.5.1-.8.3-1.1.2-.2.6-.3,1.1-.3h.7Z"/>
      <path d="M494.9,150.5v.6h-.7c-.3,0-.4,0-.5.2-.1.1-.2.3-.2.6v.4h1.2v.6h-1.2v3.8h-.7v-3.8h-.7v-.6h.7v-.3c0-.5.1-.8.3-1.1.2-.2.6-.3,1.1-.3h.7Z"/>
      <path d="M497.2,152.7c-.4,0-.7.2-.9.5-.2.3-.3.7-.3,1.2s.1.9.3,1.2c.2.3.5.5.9.5s.7-.2.9-.5c.2-.3.3-.7.3-1.2s-.1-.9-.3-1.2c-.2-.3-.5-.5-.9-.5ZM497.2,152.1c.6,0,1.1.2,1.5.6.4.4.5,1,.5,1.7s-.2,1.3-.5,1.7c-.4.4-.8.6-1.5.6s-1.1-.2-1.5-.6c-.4-.4-.5-1-.5-1.7s.2-1.3.5-1.7c.4-.4.8-.6,1.5-.6Z"/>
      <path d="M503,152.9s-.2,0-.3-.1h-.3c-.4,0-.7.1-.9.4-.2.3-.3.6-.3,1.1v2.3h-.7v-4.4h.7v.7c.2-.3.3-.5.6-.6.2-.1.5-.2.9-.2s.1,0,.2,0h.2v.7h-.1Z"/>
      <path d="M504.4,151v1.2h1.5v.6h-1.5v2.4c0,.4,0,.6.1.7,0,.1.3.2.6.2h.7v.6h-.7c-.6,0-.9-.1-1.2-.3-.2-.2-.3-.6-.3-1.1v-2.4h-.5v-.6h.5v-1.2h.8Z"/>
      <path d="M506.8,150.5h.6c.4.6.7,1.2.9,1.8.2.6.3,1.2.3,1.8s0,1.2-.3,1.8c-.2.6-.5,1.2-.9,1.8h-.6c.3-.6.6-1.2.8-1.8.2-.6.3-1.2.3-1.8s0-1.2-.3-1.8c-.2-.6-.4-1.2-.8-1.8Z"/>
      <path class="st13" d="M438.2,165.6h16"/>
      <path d="M463.2,162.3c-.3.6-.6,1.2-.8,1.8-.2.6-.3,1.2-.3,1.8s0,1.2.3,1.8c.2.6.4,1.2.8,1.8h-.6c-.4-.6-.7-1.2-.9-1.8-.2-.6-.3-1.2-.3-1.8s0-1.2.3-1.8c.2-.6.5-1.2.9-1.8h.6Z"/>
      <path d="M466.4,165.6c-.4,0-.7.1-.9.3-.2.2-.3.5-.3.8s.1.6.3.8c.2.2.5.3.9.3s.7-.1.9-.3c.2-.2.3-.5.3-.8s-.1-.6-.3-.8c-.2-.2-.5-.3-.9-.3ZM465.6,165.3c-.3,0-.6-.2-.8-.5-.2-.2-.3-.5-.3-.9s.2-.8.5-1.1.8-.4,1.4-.4,1,.1,1.4.4c.3.3.5.6.5,1.1s0,.6-.3.9c-.2.2-.5.4-.8.5.4,0,.7.3.9.5.2.3.3.6.3.9,0,.6-.2,1-.5,1.3s-.8.5-1.5.5-1.1-.2-1.5-.5c-.3-.3-.5-.7-.5-1.3s.1-.7.3-.9c.2-.3.5-.4.9-.5ZM465.3,164c0,.3,0,.5.3.7.2.2.5.3.8.3s.6,0,.8-.3c.2-.2.3-.4.3-.7s0-.5-.3-.7c-.2-.2-.5-.3-.8-.3s-.6,0-.8.3c-.2.2-.3.4-.3.7Z"/>
      <path d="M471.5,163.1c-.4,0-.7.2-.9.6-.2.4-.3,1-.3,1.8s.1,1.4.3,1.8c.2.4.5.6.9.6s.7-.2.9-.6c.2-.4.3-1,.3-1.8s-.1-1.4-.3-1.8c-.2-.4-.5-.6-.9-.6ZM471.5,162.4c.7,0,1.2.3,1.5.8s.5,1.3.5,2.3-.2,1.7-.5,2.3c-.3.5-.8.8-1.5.8s-1.2-.3-1.5-.8-.5-1.3-.5-2.3.2-1.7.5-2.3c.3-.5.8-.8,1.5-.8Z"/>
      <path d="M479.8,165.8c-.2,0-.4,0-.5.3-.1.2-.2.5-.2.8s0,.6.2.8c.1.2.3.3.5.3s.4,0,.5-.3c.1-.2.2-.5.2-.8s0-.6-.2-.8c-.1-.2-.3-.3-.5-.3ZM479.8,165.3c.4,0,.7.1,1,.4.2.3.4.7.4,1.2s-.1.9-.4,1.2c-.2.3-.6.4-1,.4s-.7-.1-1-.4c-.2-.3-.4-.7-.4-1.2s.1-.9.4-1.2.6-.4,1-.4ZM475.8,162.9c-.2,0-.4,0-.5.3-.1.2-.2.5-.2.8s0,.6.2.8c.1.2.3.3.5.3s.4,0,.5-.3c.1-.2.2-.5.2-.8s0-.6-.2-.8c-.1-.2-.3-.3-.5-.3ZM479.3,162.4h.6l-3.7,6.1h-.6l3.7-6.1ZM475.8,162.4c.4,0,.7.1,1,.4.2.3.4.7.4,1.2s-.1.9-.4,1.2c-.2.3-.6.4-1,.4s-.7-.1-1-.4c-.2-.3-.4-.7-.4-1.2s.1-.9.4-1.2c.2-.3.6-.4,1-.4Z"/>
      <path d="M488.7,166v.4h-3.3c0,.5.2.9.4,1.1.3.3.6.4,1.1.4s.5,0,.8-.1c.3,0,.5-.2.8-.3v.7c-.3.1-.5.2-.8.3h-.8c-.7,0-1.3-.2-1.7-.6-.4-.4-.6-1-.6-1.7s.2-1.3.6-1.7.9-.6,1.6-.6,1.1.2,1.4.6c.3.4.5.9.5,1.5h0ZM488,165.8c0-.4-.1-.7-.3-.9-.2-.2-.5-.4-.9-.4s-.7.1-1,.3c-.2.2-.4.5-.4,1h2.6,0Z"/>
      <path d="M492.1,162.3v.6h-.7c-.3,0-.4,0-.5.2-.1.1-.2.3-.2.6v.4h1.2v.6h-1.2v3.8h-.7v-3.8h-.7v-.6h.7v-.3c0-.5.1-.8.3-1.1.2-.2.6-.3,1.1-.3h.7Z"/>
      <path d="M494.9,162.3v.6h-.7c-.3,0-.4,0-.5.2-.1.1-.2.3-.2.6v.4h1.2v.6h-1.2v3.8h-.7v-3.8h-.7v-.6h.7v-.3c0-.5.1-.8.3-1.1.2-.2.6-.3,1.1-.3h.7Z"/>
      <path d="M497.2,164.5c-.4,0-.7.2-.9.5-.2.3-.3.7-.3,1.2s.1.9.3,1.2c.2.3.5.5.9.5s.7-.2.9-.5c.2-.3.3-.7.3-1.2s-.1-.9-.3-1.2c-.2-.3-.5-.5-.9-.5ZM497.2,163.9c.6,0,1.1.2,1.5.6.4.4.5,1,.5,1.7s-.2,1.3-.5,1.7c-.4.4-.8.6-1.5.6s-1.1-.2-1.5-.6c-.4-.4-.5-1-.5-1.7s.2-1.3.5-1.7c.4-.4.8-.6,1.5-.6Z"/>
      <path d="M503,164.7s-.2,0-.3-.1h-.3c-.4,0-.7.1-.9.4-.2.3-.3.6-.3,1.1v2.3h-.7v-4.4h.7v.7c.2-.3.3-.5.6-.6.2-.1.5-.2.9-.2s.1,0,.2,0h.2v.7h-.1Z"/>
      <path d="M504.4,162.7v1.2h1.5v.6h-1.5v2.4c0,.4,0,.6.1.7,0,.1.3.2.6.2h.7v.6h-.7c-.6,0-.9-.1-1.2-.3-.2-.2-.3-.6-.3-1.1v-2.4h-.5v-.6h.5v-1.2h.8Z"/>
      <path d="M506.8,162.3h.6c.4.6.7,1.2.9,1.8.2.6.3,1.2.3,1.8s0,1.2-.3,1.8c-.2.6-.5,1.2-.9,1.8h-.6c.3-.6.6-1.2.8-1.8.2-.6.3-1.2.3-1.8s0-1.2-.3-1.8c-.2-.6-.4-1.2-.8-1.8Z"/>
      <path class="st4" d="M438.2,177.3h16"/>
      <path d="M463.2,174.1c-.3.6-.6,1.2-.8,1.8-.2.6-.3,1.2-.3,1.8s0,1.2.3,1.8c.2.6.4,1.2.8,1.8h-.6c-.4-.6-.7-1.2-.9-1.8-.2-.6-.3-1.2-.3-1.8s0-1.2.3-1.8c.2-.6.5-1.2.9-1.8h.6Z"/>
      <path d="M464.7,180v-.7c.2,0,.4.2.6.2h.6c.5,0,.9-.2,1.2-.5.3-.4.4-.9.5-1.6-.2.2-.3.4-.6.5-.2.1-.5.2-.8.2-.6,0-1-.2-1.4-.5-.3-.4-.5-.8-.5-1.5s.2-1.1.5-1.4.8-.5,1.4-.5,1.2.3,1.5.8c.4.5.5,1.3.5,2.3s-.2,1.7-.7,2.2c-.4.5-1,.8-1.8.8s-.4,0-.6,0-.4,0-.6-.2h.2,0ZM466.3,177.5c.4,0,.6-.1.8-.4.2-.2.3-.6.3-1s-.1-.8-.3-1c-.2-.2-.5-.4-.8-.4s-.6.1-.8.4-.3.6-.3,1,.1.8.3,1c.2.2.5.4.8.4Z"/>
      <path d="M471.5,174.8c-.4,0-.7.2-.9.6-.2.4-.3,1-.3,1.8s.1,1.4.3,1.8c.2.4.5.6.9.6s.7-.2.9-.6c.2-.4.3-1,.3-1.8s-.1-1.4-.3-1.8c-.2-.4-.5-.6-.9-.6ZM471.5,174.2c.7,0,1.2.3,1.5.8s.5,1.3.5,2.3-.2,1.7-.5,2.3c-.3.5-.8.8-1.5.8s-1.2-.3-1.5-.8-.5-1.3-.5-2.3.2-1.7.5-2.3c.3-.5.8-.8,1.5-.8Z"/>
      <path d="M479.8,177.6c-.2,0-.4,0-.5.3-.1.2-.2.5-.2.8s0,.6.2.8c.1.2.3.3.5.3s.4,0,.5-.3c.1-.2.2-.5.2-.8s0-.6-.2-.8c-.1-.2-.3-.3-.5-.3ZM479.8,177.1c.4,0,.7.1,1,.4.2.3.4.7.4,1.2s-.1.9-.4,1.2c-.2.3-.6.4-1,.4s-.7-.1-1-.4c-.2-.3-.4-.7-.4-1.2s.1-.9.4-1.2.6-.4,1-.4ZM475.8,174.7c-.2,0-.4,0-.5.3-.1.2-.2.5-.2.8s0,.6.2.8c.1.2.3.3.5.3s.4,0,.5-.3c.1-.2.2-.5.2-.8s0-.6-.2-.8c-.1-.2-.3-.3-.5-.3ZM479.3,174.2h.6l-3.7,6.1h-.6l3.7-6.1ZM475.8,174.2c.4,0,.7.1,1,.4.2.3.4.7.4,1.2s-.1.9-.4,1.2c-.2.3-.6.4-1,.4s-.7-.1-1-.4c-.2-.3-.4-.7-.4-1.2s.1-.9.4-1.2c.2-.3.6-.4,1-.4Z"/>
      <path d="M488.7,177.8v.4h-3.3c0,.5.2.9.4,1.1.3.3.6.4,1.1.4s.5,0,.8-.1c.3,0,.5-.2.8-.3v.7c-.3.1-.5.2-.8.3h-.8c-.7,0-1.3-.2-1.7-.6-.4-.4-.6-1-.6-1.7s.2-1.3.6-1.7.9-.6,1.6-.6,1.1.2,1.4.6c.3.4.5.9.5,1.5h0ZM488,177.6c0-.4-.1-.7-.3-.9-.2-.2-.5-.4-.9-.4s-.7.1-1,.3c-.2.2-.4.5-.4,1h2.6,0Z"/>
      <path d="M492.1,174v.6h-.7c-.3,0-.4,0-.5.2-.1.1-.2.3-.2.6v.4h1.2v.6h-1.2v3.8h-.7v-3.8h-.7v-.6h.7v-.3c0-.5.1-.8.3-1.1.2-.2.6-.3,1.1-.3h.7Z"/>
      <path d="M494.9,174v.6h-.7c-.3,0-.4,0-.5.2-.1.1-.2.3-.2.6v.4h1.2v.6h-1.2v3.8h-.7v-3.8h-.7v-.6h.7v-.3c0-.5.1-.8.3-1.1.2-.2.6-.3,1.1-.3h.7Z"/>
      <path d="M497.2,176.3c-.4,0-.7.2-.9.5-.2.3-.3.7-.3,1.2s.1.9.3,1.2c.2.3.5.5.9.5s.7-.2.9-.5c.2-.3.3-.7.3-1.2s-.1-.9-.3-1.2c-.2-.3-.5-.5-.9-.5ZM497.2,175.6c.6,0,1.1.2,1.5.6.4.4.5,1,.5,1.7s-.2,1.3-.5,1.7c-.4.4-.8.6-1.5.6s-1.1-.2-1.5-.6c-.4-.4-.5-1-.5-1.7s.2-1.3.5-1.7c.4-.4.8-.6,1.5-.6Z"/>
      <path d="M503,176.4s-.2,0-.3-.1h-.3c-.4,0-.7.1-.9.4-.2.3-.3.6-.3,1.1v2.3h-.7v-4.4h.7v.7c.2-.3.3-.5.6-.6.2-.1.5-.2.9-.2s.1,0,.2,0h.2v.7h-.1Z"/>
      <path d="M504.4,174.5v1.2h1.5v.6h-1.5v2.4c0,.4,0,.6.1.7,0,.1.3.2.6.2h.7v.6h-.7c-.6,0-.9-.1-1.2-.3-.2-.2-.3-.6-.3-1.1v-2.4h-.5v-.6h.5v-1.2h.8Z"/>
      <path d="M506.8,174.1h.6c.4.6.7,1.2.9,1.8.2.6.3,1.2.3,1.8s0,1.2-.3,1.8c-.2.6-.5,1.2-.9,1.8h-.6c.3-.6.6-1.2.8-1.8.2-.6.3-1.2.3-1.8s0-1.2-.3-1.8c-.2-.6-.4-1.2-.8-1.8Z"/>
      <path class="st8" d="M438.2,189.1h16"/>
      <path d="M463.2,185.8c-.3.6-.6,1.2-.8,1.8-.2.6-.3,1.2-.3,1.8s0,1.2.3,1.8c.2.6.4,1.2.8,1.8h-.6c-.4-.6-.7-1.2-.9-1.8-.2-.6-.3-1.2-.3-1.8s0-1.2.3-1.8c.2-.6.5-1.2.9-1.8h.6Z"/>
      <path d="M464.8,191.2h1.3v-4.5l-1.4.3v-.7l1.4-.3h.8v5.2h1.3v.7h-3.4v-.7h0Z"/>
      <path d="M471.5,186.6c-.4,0-.7.2-.9.6-.2.4-.3,1-.3,1.8s.1,1.4.3,1.8c.2.4.5.6.9.6s.7-.2.9-.6c.2-.4.3-1,.3-1.8s-.1-1.4-.3-1.8c-.2-.4-.5-.6-.9-.6ZM471.5,185.9c.7,0,1.2.3,1.5.8s.5,1.3.5,2.3-.2,1.7-.5,2.3c-.3.5-.8.8-1.5.8s-1.2-.3-1.5-.8-.5-1.3-.5-2.3.2-1.7.5-2.3c.3-.5.8-.8,1.5-.8Z"/>
      <path d="M476.6,186.6c-.4,0-.7.2-.9.6-.2.4-.3,1-.3,1.8s.1,1.4.3,1.8c.2.4.5.6.9.6s.7-.2.9-.6c.2-.4.3-1,.3-1.8s-.1-1.4-.3-1.8c-.2-.4-.5-.6-.9-.6ZM476.6,185.9c.7,0,1.2.3,1.5.8s.5,1.3.5,2.3-.2,1.7-.5,2.3c-.3.5-.8.8-1.5.8s-1.2-.3-1.5-.8-.5-1.3-.5-2.3.2-1.7.5-2.3c.3-.5.8-.8,1.5-.8Z"/>
      <path d="M485,189.3c-.2,0-.4,0-.5.3-.1.2-.2.5-.2.8s0,.6.2.8c.1.2.3.3.5.3s.4,0,.5-.3c.1-.2.2-.5.2-.8s0-.6-.2-.8c-.1-.2-.3-.3-.5-.3ZM485,188.8c.4,0,.7.1,1,.4.2.3.4.7.4,1.2s-.1.9-.4,1.2c-.2.3-.6.4-1,.4s-.7-.1-1-.4c-.2-.3-.4-.7-.4-1.2s.1-.9.4-1.2.6-.4,1-.4ZM480.9,186.4c-.2,0-.4,0-.5.3-.1.2-.2.5-.2.8s0,.6.2.8c.1.2.3.3.5.3s.4,0,.5-.3c.1-.2.2-.5.2-.8s0-.6-.2-.8c-.1-.2-.3-.3-.5-.3ZM484.4,185.9h.6l-3.7,6.1h-.6l3.7-6.1ZM480.9,185.9c.4,0,.7.1,1,.4.2.3.4.7.4,1.2s-.1.9-.4,1.2c-.2.3-.6.4-1,.4s-.7-.1-1-.4c-.2-.3-.4-.7-.4-1.2s.1-.9.4-1.2c.2-.3.6-.4,1-.4Z"/>
      <path d="M493.8,189.5v.4h-3.3c0,.5.2.9.4,1.1.3.3.6.4,1.1.4s.5,0,.8-.1c.3,0,.5-.2.8-.3v.7c-.3.1-.5.2-.8.3h-.8c-.7,0-1.3-.2-1.7-.6-.4-.4-.6-1-.6-1.7s.2-1.3.6-1.7.9-.6,1.6-.6,1.1.2,1.4.6c.3.4.5.9.5,1.5h0ZM493.1,189.3c0-.4-.1-.7-.3-.9-.2-.2-.5-.4-.9-.4s-.7.1-1,.3c-.2.2-.4.5-.4,1h2.6,0Z"/>
      <path d="M497.2,185.8v.6h-.7c-.3,0-.4,0-.5.2-.1.1-.2.3-.2.6v.4h1.2v.6h-1.2v3.8h-.7v-3.8h-.7v-.6h.7v-.3c0-.5.1-.8.3-1.1.2-.2.6-.3,1.1-.3h.7Z"/>
      <path d="M500,185.8v.6h-.7c-.3,0-.4,0-.5.2-.1.1-.2.3-.2.6v.4h1.2v.6h-1.2v3.8h-.7v-3.8h-.7v-.6h.7v-.3c0-.5.1-.8.3-1.1.2-.2.6-.3,1.1-.3h.7Z"/>
      <path d="M502.3,188c-.4,0-.7.2-.9.5-.2.3-.3.7-.3,1.2s.1.9.3,1.2c.2.3.5.5.9.5s.7-.2.9-.5c.2-.3.3-.7.3-1.2s-.1-.9-.3-1.2c-.2-.3-.5-.5-.9-.5ZM502.3,187.4c.6,0,1.1.2,1.5.6.4.4.5,1,.5,1.7s-.2,1.3-.5,1.7c-.4.4-.8.6-1.5.6s-1.1-.2-1.5-.6c-.4-.4-.5-1-.5-1.7s.2-1.3.5-1.7c.4-.4.8-.6,1.5-.6Z"/>
      <path d="M508.1,188.2s-.2,0-.3-.1h-.3c-.4,0-.7.1-.9.4-.2.3-.3.6-.3,1.1v2.3h-.7v-4.4h.7v.7c.2-.3.3-.5.6-.6.2-.1.5-.2.9-.2s.1,0,.2,0h.2v.7h-.1Z"/>
      <path d="M509.5,186.3v1.2h1.5v.6h-1.5v2.4c0,.4,0,.6.1.7,0,.1.3.2.6.2h.7v.6h-.7c-.6,0-.9-.1-1.2-.3-.2-.2-.3-.6-.3-1.1v-2.4h-.5v-.6h.5v-1.2h.8Z"/>
      <path d="M511.9,185.8h.6c.4.6.7,1.2.9,1.8s.3,1.2.3,1.8,0,1.2-.3,1.8c-.2.6-.5,1.2-.9,1.8h-.6c.3-.6.6-1.2.8-1.8s.3-1.2.3-1.8,0-1.2-.3-1.8c-.2-.6-.4-1.2-.8-1.8h0Z"/>
    </g>
  </g>
</svg>