<?xml version="1.0" encoding="utf-8" standalone="no"?>
<!DOCTYPE svg PUBLIC "-//W3C//DTD SVG 1.1//EN"
  "http://www.w3.org/Graphics/SVG/1.1/DTD/svg11.dtd">
<svg xmlns:xlink="http://www.w3.org/1999/xlink" width="648pt" height="864pt" viewBox="0 0 648 864" xmlns="http://www.w3.org/2000/svg" version="1.1">
 <metadata>
  <rdf:RDF xmlns:dc="http://purl.org/dc/elements/1.1/" xmlns:cc="http://creativecommons.org/ns#" xmlns:rdf="http://www.w3.org/1999/02/22-rdf-syntax-ns#">
   <cc:Work>
    <dc:type rdf:resource="http://purl.org/dc/dcmitype/StillImage"/>
    <dc:date>2025-11-30T23:18:43.988872</dc:date>
    <dc:format>image/svg+xml</dc:format>
    <dc:creator>
     <cc:Agent>
      <dc:title>Matplotlib v3.10.7, https://matplotlib.org/</dc:title>
     </cc:Agent>
    </dc:creator>
   </cc:Work>
  </rdf:RDF>
 </metadata>
 <defs>
  <style type="text/css">*{stroke-linejoin: round; stroke-linecap: butt}</style>
 </defs>
 <g id="figure_1">
  <g id="patch_1">
   <path d="M 0 864 
L 648 864 
L 648 0 
L 0 0 
z
" style="fill: #ffffff"/>
  </g>
  <g id="axes_1">
   <g id="patch_2">
    <path d="M 62.12 261.666667 
L 637.2 261.666667 
L 637.2 27.6 
L 62.12 27.6 
z
" style="fill: #ffffff"/>
   </g>
   <g id="matplotlib.axis_1">
    <g id="xtick_1">
     <g id="line2d_1">
      <path d="M 88.26 261.666667 
L 88.26 27.6 
" clip-path="url(#p9f746561b9)" style="fill: none; stroke-dasharray: 2.96,1.28; stroke-dashoffset: 0; stroke: #b0b0b0; stroke-opacity: 0.4; stroke-width: 0.8"/>
     </g>
     <g id="line2d_2">
      <defs>
       <path id="m8df4872a0e" d="M 0 0 
L 0 3.5 
" style="stroke: #000000; stroke-width: 0.8"/>
      </defs>
      <g>
       <use xlink:href="#m8df4872a0e" x="88.26" y="261.666667" style="stroke: #000000; stroke-width: 0.8"/>
      </g>
     </g>
     <g id="text_1">
      <!-- 0 -->
      <g transform="translate(85.07875 276.265104) scale(0.1 -0.1)">
       <defs>
        <path id="DejaVuSans-30" d="M 2034 4250 
Q 1547 4250 1301 3770 
Q 1056 3291 1056 2328 
Q 1056 1369 1301 889 
Q 1547 409 2034 409 
Q 2525 409 2770 889 
Q 3016 1369 3016 2328 
Q 3016 3291 2770 3770 
Q 2525 4250 2034 4250 
z
M 2034 4750 
Q 2819 4750 3233 4129 
Q 3647 3509 3647 2328 
Q 3647 1150 3233 529 
Q 2819 -91 2034 -91 
Q 1250 -91 836 529 
Q 422 1150 422 2328 
Q 422 3509 836 4129 
Q 1250 4750 2034 4750 
z
" transform="scale(0.015625)"/>
       </defs>
       <use xlink:href="#DejaVuSans-30"/>
      </g>
     </g>
    </g>
    <g id="xtick_2">
     <g id="line2d_3">
      <path d="M 154.236779 261.666667 
L 154.236779 27.6 
" clip-path="url(#p9f746561b9)" style="fill: none; stroke-dasharray: 2.96,1.28; stroke-dashoffset: 0; stroke: #b0b0b0; stroke-opacity: 0.4; stroke-width: 0.8"/>
     </g>
     <g id="line2d_4">
      <g>
       <use xlink:href="#m8df4872a0e" x="154.236779" y="261.666667" style="stroke: #000000; stroke-width: 0.8"/>
      </g>
     </g>
     <g id="text_2">
      <!-- 250 -->
      <g transform="translate(144.693029 276.265104) scale(0.1 -0.1)">
       <defs>
        <path id="DejaVuSans-32" d="M 1228 531 
L 3431 531 
L 3431 0 
L 469 0 
L 469 531 
Q 828 903 1448 1529 
Q 2069 2156 2228 2338 
Q 2531 2678 2651 2914 
Q 2772 3150 2772 3378 
Q 2772 3750 2511 3984 
Q 2250 4219 1831 4219 
Q 1534 4219 1204 4116 
Q 875 4013 500 3803 
L 500 4441 
Q 881 4594 1212 4672 
Q 1544 4750 1819 4750 
Q 2544 4750 2975 4387 
Q 3406 4025 3406 3419 
Q 3406 3131 3298 2873 
Q 3191 2616 2906 2266 
Q 2828 2175 2409 1742 
Q 1991 1309 1228 531 
z
" transform="scale(0.015625)"/>
        <path id="DejaVuSans-35" d="M 691 4666 
L 3169 4666 
L 3169 4134 
L 1269 4134 
L 1269 2991 
Q 1406 3038 1543 3061 
Q 1681 3084 1819 3084 
Q 2600 3084 3056 2656 
Q 3513 2228 3513 1497 
Q 3513 744 3044 326 
Q 2575 -91 1722 -91 
Q 1428 -91 1123 -41 
Q 819 9 494 109 
L 494 744 
Q 775 591 1075 516 
Q 1375 441 1709 441 
Q 2250 441 2565 725 
Q 2881 1009 2881 1497 
Q 2881 1984 2565 2268 
Q 2250 2553 1709 2553 
Q 1456 2553 1204 2497 
Q 953 2441 691 2322 
L 691 4666 
z
" transform="scale(0.015625)"/>
       </defs>
       <use xlink:href="#DejaVuSans-32"/>
       <use xlink:href="#DejaVuSans-35" transform="translate(63.623047 0)"/>
       <use xlink:href="#DejaVuSans-30" transform="translate(127.246094 0)"/>
      </g>
     </g>
    </g>
    <g id="xtick_3">
     <g id="line2d_5">
      <path d="M 220.213559 261.666667 
L 220.213559 27.6 
" clip-path="url(#p9f746561b9)" style="fill: none; stroke-dasharray: 2.96,1.28; stroke-dashoffset: 0; stroke: #b0b0b0; stroke-opacity: 0.4; stroke-width: 0.8"/>
     </g>
     <g id="line2d_6">
      <g>
       <use xlink:href="#m8df4872a0e" x="220.213559" y="261.666667" style="stroke: #000000; stroke-width: 0.8"/>
      </g>
     </g>
     <g id="text_3">
      <!-- 500 -->
      <g transform="translate(210.669809 276.265104) scale(0.1 -0.1)">
       <use xlink:href="#DejaVuSans-35"/>
       <use xlink:href="#DejaVuSans-30" transform="translate(63.623047 0)"/>
       <use xlink:href="#DejaVuSans-30" transform="translate(127.246094 0)"/>
      </g>
     </g>
    </g>
    <g id="xtick_4">
     <g id="line2d_7">
      <path d="M 286.190338 261.666667 
L 286.190338 27.6 
" clip-path="url(#p9f746561b9)" style="fill: none; stroke-dasharray: 2.96,1.28; stroke-dashoffset: 0; stroke: #b0b0b0; stroke-opacity: 0.4; stroke-width: 0.8"/>
     </g>
     <g id="line2d_8">
      <g>
       <use xlink:href="#m8df4872a0e" x="286.190338" y="261.666667" style="stroke: #000000; stroke-width: 0.8"/>
      </g>
     </g>
     <g id="text_4">
      <!-- 750 -->
      <g transform="translate(276.646588 276.265104) scale(0.1 -0.1)">
       <defs>
        <path id="DejaVuSans-37" d="M 525 4666 
L 3525 4666 
L 3525 4397 
L 1831 0 
L 1172 0 
L 2766 4134 
L 525 4134 
L 525 4666 
z
" transform="scale(0.015625)"/>
       </defs>
       <use xlink:href="#DejaVuSans-37"/>
       <use xlink:href="#DejaVuSans-35" transform="translate(63.623047 0)"/>
       <use xlink:href="#DejaVuSans-30" transform="translate(127.246094 0)"/>
      </g>
     </g>
    </g>
    <g id="xtick_5">
     <g id="line2d_9">
      <path d="M 352.167118 261.666667 
L 352.167118 27.6 
" clip-path="url(#p9f746561b9)" style="fill: none; stroke-dasharray: 2.96,1.28; stroke-dashoffset: 0; stroke: #b0b0b0; stroke-opacity: 0.4; stroke-width: 0.8"/>
     </g>
     <g id="line2d_10">
      <g>
       <use xlink:href="#m8df4872a0e" x="352.167118" y="261.666667" style="stroke: #000000; stroke-width: 0.8"/>
      </g>
     </g>
     <g id="text_5">
      <!-- 1000 -->
      <g transform="translate(339.442118 276.265104) scale(0.1 -0.1)">
       <defs>
        <path id="DejaVuSans-31" d="M 794 531 
L 1825 531 
L 1825 4091 
L 703 3866 
L 703 4441 
L 1819 4666 
L 2450 4666 
L 2450 531 
L 3481 531 
L 3481 0 
L 794 0 
L 794 531 
z
" transform="scale(0.015625)"/>
       </defs>
       <use xlink:href="#DejaVuSans-31"/>
       <use xlink:href="#DejaVuSans-30" transform="translate(63.623047 0)"/>
       <use xlink:href="#DejaVuSans-30" transform="translate(127.246094 0)"/>
       <use xlink:href="#DejaVuSans-30" transform="translate(190.869141 0)"/>
      </g>
     </g>
    </g>
    <g id="xtick_6">
     <g id="line2d_11">
      <path d="M 418.143897 261.666667 
L 418.143897 27.6 
" clip-path="url(#p9f746561b9)" style="fill: none; stroke-dasharray: 2.96,1.28; stroke-dashoffset: 0; stroke: #b0b0b0; stroke-opacity: 0.4; stroke-width: 0.8"/>
     </g>
     <g id="line2d_12">
      <g>
       <use xlink:href="#m8df4872a0e" x="418.143897" y="261.666667" style="stroke: #000000; stroke-width: 0.8"/>
      </g>
     </g>
     <g id="text_6">
      <!-- 1250 -->
      <g transform="translate(405.418897 276.265104) scale(0.1 -0.1)">
       <use xlink:href="#DejaVuSans-31"/>
       <use xlink:href="#DejaVuSans-32" transform="translate(63.623047 0)"/>
       <use xlink:href="#DejaVuSans-35" transform="translate(127.246094 0)"/>
       <use xlink:href="#DejaVuSans-30" transform="translate(190.869141 0)"/>
      </g>
     </g>
    </g>
    <g id="xtick_7">
     <g id="line2d_13">
      <path d="M 484.120676 261.666667 
L 484.120676 27.6 
" clip-path="url(#p9f746561b9)" style="fill: none; stroke-dasharray: 2.96,1.28; stroke-dashoffset: 0; stroke: #b0b0b0; stroke-opacity: 0.4; stroke-width: 0.8"/>
     </g>
     <g id="line2d_14">
      <g>
       <use xlink:href="#m8df4872a0e" x="484.120676" y="261.666667" style="stroke: #000000; stroke-width: 0.8"/>
      </g>
     </g>
     <g id="text_7">
      <!-- 1500 -->
      <g transform="translate(471.395676 276.265104) scale(0.1 -0.1)">
       <use xlink:href="#DejaVuSans-31"/>
       <use xlink:href="#DejaVuSans-35" transform="translate(63.623047 0)"/>
       <use xlink:href="#DejaVuSans-30" transform="translate(127.246094 0)"/>
       <use xlink:href="#DejaVuSans-30" transform="translate(190.869141 0)"/>
      </g>
     </g>
    </g>
    <g id="xtick_8">
     <g id="line2d_15">
      <path d="M 550.097456 261.666667 
L 550.097456 27.6 
" clip-path="url(#p9f746561b9)" style="fill: none; stroke-dasharray: 2.96,1.28; stroke-dashoffset: 0; stroke: #b0b0b0; stroke-opacity: 0.4; stroke-width: 0.8"/>
     </g>
     <g id="line2d_16">
      <g>
       <use xlink:href="#m8df4872a0e" x="550.097456" y="261.666667" style="stroke: #000000; stroke-width: 0.8"/>
      </g>
     </g>
     <g id="text_8">
      <!-- 1750 -->
      <g transform="translate(537.372456 276.265104) scale(0.1 -0.1)">
       <use xlink:href="#DejaVuSans-31"/>
       <use xlink:href="#DejaVuSans-37" transform="translate(63.623047 0)"/>
       <use xlink:href="#DejaVuSans-35" transform="translate(127.246094 0)"/>
       <use xlink:href="#DejaVuSans-30" transform="translate(190.869141 0)"/>
      </g>
     </g>
    </g>
    <g id="xtick_9">
     <g id="line2d_17">
      <path d="M 616.074235 261.666667 
L 616.074235 27.6 
" clip-path="url(#p9f746561b9)" style="fill: none; stroke-dasharray: 2.96,1.28; stroke-dashoffset: 0; stroke: #b0b0b0; stroke-opacity: 0.4; stroke-width: 0.8"/>
     </g>
     <g id="line2d_18">
      <g>
       <use xlink:href="#m8df4872a0e" x="616.074235" y="261.666667" style="stroke: #000000; stroke-width: 0.8"/>
      </g>
     </g>
     <g id="text_9">
      <!-- 2000 -->
      <g transform="translate(603.349235 276.265104) scale(0.1 -0.1)">
       <use xlink:href="#DejaVuSans-32"/>
       <use xlink:href="#DejaVuSans-30" transform="translate(63.623047 0)"/>
       <use xlink:href="#DejaVuSans-30" transform="translate(127.246094 0)"/>
       <use xlink:href="#DejaVuSans-30" transform="translate(190.869141 0)"/>
      </g>
     </g>
    </g>
   </g>
   <g id="matplotlib.axis_2">
    <g id="ytick_1">
     <g id="line2d_19">
      <path d="M 62.12 251.027273 
L 637.2 251.027273 
" clip-path="url(#p9f746561b9)" style="fill: none; stroke-dasharray: 2.96,1.28; stroke-dashoffset: 0; stroke: #b0b0b0; stroke-opacity: 0.4; stroke-width: 0.8"/>
     </g>
     <g id="line2d_20">
      <defs>
       <path id="m3ce3ade8bd" d="M 0 0 
L -3.5 0 
" style="stroke: #000000; stroke-width: 0.8"/>
      </defs>
      <g>
       <use xlink:href="#m3ce3ade8bd" x="62.12" y="251.027273" style="stroke: #000000; stroke-width: 0.8"/>
      </g>
     </g>
     <g id="text_10">
      <!-- 0 -->
      <g transform="translate(48.7575 254.826491) scale(0.1 -0.1)">
       <use xlink:href="#DejaVuSans-30"/>
      </g>
     </g>
    </g>
    <g id="ytick_2">
     <g id="line2d_21">
      <path d="M 62.12 222.553048 
L 637.2 222.553048 
" clip-path="url(#p9f746561b9)" style="fill: none; stroke-dasharray: 2.96,1.28; stroke-dashoffset: 0; stroke: #b0b0b0; stroke-opacity: 0.4; stroke-width: 0.8"/>
     </g>
     <g id="line2d_22">
      <g>
       <use xlink:href="#m3ce3ade8bd" x="62.12" y="222.553048" style="stroke: #000000; stroke-width: 0.8"/>
      </g>
     </g>
     <g id="text_11">
      <!-- 100 -->
      <g transform="translate(36.0325 226.352267) scale(0.1 -0.1)">
       <use xlink:href="#DejaVuSans-31"/>
       <use xlink:href="#DejaVuSans-30" transform="translate(63.623047 0)"/>
       <use xlink:href="#DejaVuSans-30" transform="translate(127.246094 0)"/>
      </g>
     </g>
    </g>
    <g id="ytick_3">
     <g id="line2d_23">
      <path d="M 62.12 194.078824 
L 637.2 194.078824 
" clip-path="url(#p9f746561b9)" style="fill: none; stroke-dasharray: 2.96,1.28; stroke-dashoffset: 0; stroke: #b0b0b0; stroke-opacity: 0.4; stroke-width: 0.8"/>
     </g>
     <g id="line2d_24">
      <g>
       <use xlink:href="#m3ce3ade8bd" x="62.12" y="194.078824" style="stroke: #000000; stroke-width: 0.8"/>
      </g>
     </g>
     <g id="text_12">
      <!-- 200 -->
      <g transform="translate(36.0325 197.878043) scale(0.1 -0.1)">
       <use xlink:href="#DejaVuSans-32"/>
       <use xlink:href="#DejaVuSans-30" transform="translate(63.623047 0)"/>
       <use xlink:href="#DejaVuSans-30" transform="translate(127.246094 0)"/>
      </g>
     </g>
    </g>
    <g id="ytick_4">
     <g id="line2d_25">
      <path d="M 62.12 165.6046 
L 637.2 165.6046 
" clip-path="url(#p9f746561b9)" style="fill: none; stroke-dasharray: 2.96,1.28; stroke-dashoffset: 0; stroke: #b0b0b0; stroke-opacity: 0.4; stroke-width: 0.8"/>
     </g>
     <g id="line2d_26">
      <g>
       <use xlink:href="#m3ce3ade8bd" x="62.12" y="165.6046" style="stroke: #000000; stroke-width: 0.8"/>
      </g>
     </g>
     <g id="text_13">
      <!-- 300 -->
      <g transform="translate(36.0325 169.403818) scale(0.1 -0.1)">
       <defs>
        <path id="DejaVuSans-33" d="M 2597 2516 
Q 3050 2419 3304 2112 
Q 3559 1806 3559 1356 
Q 3559 666 3084 287 
Q 2609 -91 1734 -91 
Q 1441 -91 1130 -33 
Q 819 25 488 141 
L 488 750 
Q 750 597 1062 519 
Q 1375 441 1716 441 
Q 2309 441 2620 675 
Q 2931 909 2931 1356 
Q 2931 1769 2642 2001 
Q 2353 2234 1838 2234 
L 1294 2234 
L 1294 2753 
L 1863 2753 
Q 2328 2753 2575 2939 
Q 2822 3125 2822 3475 
Q 2822 3834 2567 4026 
Q 2313 4219 1838 4219 
Q 1578 4219 1281 4162 
Q 984 4106 628 3988 
L 628 4550 
Q 988 4650 1302 4700 
Q 1616 4750 1894 4750 
Q 2613 4750 3031 4423 
Q 3450 4097 3450 3541 
Q 3450 3153 3228 2886 
Q 3006 2619 2597 2516 
z
" transform="scale(0.015625)"/>
       </defs>
       <use xlink:href="#DejaVuSans-33"/>
       <use xlink:href="#DejaVuSans-30" transform="translate(63.623047 0)"/>
       <use xlink:href="#DejaVuSans-30" transform="translate(127.246094 0)"/>
      </g>
     </g>
    </g>
    <g id="ytick_5">
     <g id="line2d_27">
      <path d="M 62.12 137.130375 
L 637.2 137.130375 
" clip-path="url(#p9f746561b9)" style="fill: none; stroke-dasharray: 2.96,1.28; stroke-dashoffset: 0; stroke: #b0b0b0; stroke-opacity: 0.4; stroke-width: 0.8"/>
     </g>
     <g id="line2d_28">
      <g>
       <use xlink:href="#m3ce3ade8bd" x="62.12" y="137.130375" style="stroke: #000000; stroke-width: 0.8"/>
      </g>
     </g>
     <g id="text_14">
      <!-- 400 -->
      <g transform="translate(36.0325 140.929594) scale(0.1 -0.1)">
       <defs>
        <path id="DejaVuSans-34" d="M 2419 4116 
L 825 1625 
L 2419 1625 
L 2419 4116 
z
M 2253 4666 
L 3047 4666 
L 3047 1625 
L 3713 1625 
L 3713 1100 
L 3047 1100 
L 3047 0 
L 2419 0 
L 2419 1100 
L 313 1100 
L 313 1709 
L 2253 4666 
z
" transform="scale(0.015625)"/>
       </defs>
       <use xlink:href="#DejaVuSans-34"/>
       <use xlink:href="#DejaVuSans-30" transform="translate(63.623047 0)"/>
       <use xlink:href="#DejaVuSans-30" transform="translate(127.246094 0)"/>
      </g>
     </g>
    </g>
    <g id="ytick_6">
     <g id="line2d_29">
      <path d="M 62.12 108.656151 
L 637.2 108.656151 
" clip-path="url(#p9f746561b9)" style="fill: none; stroke-dasharray: 2.96,1.28; stroke-dashoffset: 0; stroke: #b0b0b0; stroke-opacity: 0.4; stroke-width: 0.8"/>
     </g>
     <g id="line2d_30">
      <g>
       <use xlink:href="#m3ce3ade8bd" x="62.12" y="108.656151" style="stroke: #000000; stroke-width: 0.8"/>
      </g>
     </g>
     <g id="text_15">
      <!-- 500 -->
      <g transform="translate(36.0325 112.45537) scale(0.1 -0.1)">
       <use xlink:href="#DejaVuSans-35"/>
       <use xlink:href="#DejaVuSans-30" transform="translate(63.623047 0)"/>
       <use xlink:href="#DejaVuSans-30" transform="translate(127.246094 0)"/>
      </g>
     </g>
    </g>
    <g id="ytick_7">
     <g id="line2d_31">
      <path d="M 62.12 80.181926 
L 637.2 80.181926 
" clip-path="url(#p9f746561b9)" style="fill: none; stroke-dasharray: 2.96,1.28; stroke-dashoffset: 0; stroke: #b0b0b0; stroke-opacity: 0.4; stroke-width: 0.8"/>
     </g>
     <g id="line2d_32">
      <g>
       <use xlink:href="#m3ce3ade8bd" x="62.12" y="80.181926" style="stroke: #000000; stroke-width: 0.8"/>
      </g>
     </g>
     <g id="text_16">
      <!-- 600 -->
      <g transform="translate(36.0325 83.981145) scale(0.1 -0.1)">
       <defs>
        <path id="DejaVuSans-36" d="M 2113 2584 
Q 1688 2584 1439 2293 
Q 1191 2003 1191 1497 
Q 1191 994 1439 701 
Q 1688 409 2113 409 
Q 2538 409 2786 701 
Q 3034 994 3034 1497 
Q 3034 2003 2786 2293 
Q 2538 2584 2113 2584 
z
M 3366 4563 
L 3366 3988 
Q 3128 4100 2886 4159 
Q 2644 4219 2406 4219 
Q 1781 4219 1451 3797 
Q 1122 3375 1075 2522 
Q 1259 2794 1537 2939 
Q 1816 3084 2150 3084 
Q 2853 3084 3261 2657 
Q 3669 2231 3669 1497 
Q 3669 778 3244 343 
Q 2819 -91 2113 -91 
Q 1303 -91 875 529 
Q 447 1150 447 2328 
Q 447 3434 972 4092 
Q 1497 4750 2381 4750 
Q 2619 4750 2861 4703 
Q 3103 4656 3366 4563 
z
" transform="scale(0.015625)"/>
       </defs>
       <use xlink:href="#DejaVuSans-36"/>
       <use xlink:href="#DejaVuSans-30" transform="translate(63.623047 0)"/>
       <use xlink:href="#DejaVuSans-30" transform="translate(127.246094 0)"/>
      </g>
     </g>
    </g>
    <g id="ytick_8">
     <g id="line2d_33">
      <path d="M 62.12 51.707702 
L 637.2 51.707702 
" clip-path="url(#p9f746561b9)" style="fill: none; stroke-dasharray: 2.96,1.28; stroke-dashoffset: 0; stroke: #b0b0b0; stroke-opacity: 0.4; stroke-width: 0.8"/>
     </g>
     <g id="line2d_34">
      <g>
       <use xlink:href="#m3ce3ade8bd" x="62.12" y="51.707702" style="stroke: #000000; stroke-width: 0.8"/>
      </g>
     </g>
     <g id="text_17">
      <!-- 700 -->
      <g transform="translate(36.0325 55.506921) scale(0.1 -0.1)">
       <use xlink:href="#DejaVuSans-37"/>
       <use xlink:href="#DejaVuSans-30" transform="translate(63.623047 0)"/>
       <use xlink:href="#DejaVuSans-30" transform="translate(127.246094 0)"/>
      </g>
     </g>
    </g>
    <g id="text_18">
     <!-- Arc Length (mm) -->
     <g transform="translate(29.536875 195.248958) rotate(-90) scale(0.12 -0.12)">
      <defs>
       <path id="DejaVuSans-41" d="M 2188 4044 
L 1331 1722 
L 3047 1722 
L 2188 4044 
z
M 1831 4666 
L 2547 4666 
L 4325 0 
L 3669 0 
L 3244 1197 
L 1141 1197 
L 716 0 
L 50 0 
L 1831 4666 
z
" transform="scale(0.015625)"/>
       <path id="DejaVuSans-72" d="M 2631 2963 
Q 2534 3019 2420 3045 
Q 2306 3072 2169 3072 
Q 1681 3072 1420 2755 
Q 1159 2438 1159 1844 
L 1159 0 
L 581 0 
L 581 3500 
L 1159 3500 
L 1159 2956 
Q 1341 3275 1631 3429 
Q 1922 3584 2338 3584 
Q 2397 3584 2469 3576 
Q 2541 3569 2628 3553 
L 2631 2963 
z
" transform="scale(0.015625)"/>
       <path id="DejaVuSans-63" d="M 3122 3366 
L 3122 2828 
Q 2878 2963 2633 3030 
Q 2388 3097 2138 3097 
Q 1578 3097 1268 2742 
Q 959 2388 959 1747 
Q 959 1106 1268 751 
Q 1578 397 2138 397 
Q 2388 397 2633 464 
Q 2878 531 3122 666 
L 3122 134 
Q 2881 22 2623 -34 
Q 2366 -91 2075 -91 
Q 1284 -91 818 406 
Q 353 903 353 1747 
Q 353 2603 823 3093 
Q 1294 3584 2113 3584 
Q 2378 3584 2631 3529 
Q 2884 3475 3122 3366 
z
" transform="scale(0.015625)"/>
       <path id="DejaVuSans-20" transform="scale(0.015625)"/>
       <path id="DejaVuSans-4c" d="M 628 4666 
L 1259 4666 
L 1259 531 
L 3531 531 
L 3531 0 
L 628 0 
L 628 4666 
z
" transform="scale(0.015625)"/>
       <path id="DejaVuSans-65" d="M 3597 1894 
L 3597 1613 
L 953 1613 
Q 991 1019 1311 708 
Q 1631 397 2203 397 
Q 2534 397 2845 478 
Q 3156 559 3463 722 
L 3463 178 
Q 3153 47 2828 -22 
Q 2503 -91 2169 -91 
Q 1331 -91 842 396 
Q 353 884 353 1716 
Q 353 2575 817 3079 
Q 1281 3584 2069 3584 
Q 2775 3584 3186 3129 
Q 3597 2675 3597 1894 
z
M 3022 2063 
Q 3016 2534 2758 2815 
Q 2500 3097 2075 3097 
Q 1594 3097 1305 2825 
Q 1016 2553 972 2059 
L 3022 2063 
z
" transform="scale(0.015625)"/>
       <path id="DejaVuSans-6e" d="M 3513 2113 
L 3513 0 
L 2938 0 
L 2938 2094 
Q 2938 2591 2744 2837 
Q 2550 3084 2163 3084 
Q 1697 3084 1428 2787 
Q 1159 2491 1159 1978 
L 1159 0 
L 581 0 
L 581 3500 
L 1159 3500 
L 1159 2956 
Q 1366 3272 1645 3428 
Q 1925 3584 2291 3584 
Q 2894 3584 3203 3211 
Q 3513 2838 3513 2113 
z
" transform="scale(0.015625)"/>
       <path id="DejaVuSans-67" d="M 2906 1791 
Q 2906 2416 2648 2759 
Q 2391 3103 1925 3103 
Q 1463 3103 1205 2759 
Q 947 2416 947 1791 
Q 947 1169 1205 825 
Q 1463 481 1925 481 
Q 2391 481 2648 825 
Q 2906 1169 2906 1791 
z
M 3481 434 
Q 3481 -459 3084 -895 
Q 2688 -1331 1869 -1331 
Q 1566 -1331 1297 -1286 
Q 1028 -1241 775 -1147 
L 775 -588 
Q 1028 -725 1275 -790 
Q 1522 -856 1778 -856 
Q 2344 -856 2625 -561 
Q 2906 -266 2906 331 
L 2906 616 
Q 2728 306 2450 153 
Q 2172 0 1784 0 
Q 1141 0 747 490 
Q 353 981 353 1791 
Q 353 2603 747 3093 
Q 1141 3584 1784 3584 
Q 2172 3584 2450 3431 
Q 2728 3278 2906 2969 
L 2906 3500 
L 3481 3500 
L 3481 434 
z
" transform="scale(0.015625)"/>
       <path id="DejaVuSans-74" d="M 1172 4494 
L 1172 3500 
L 2356 3500 
L 2356 3053 
L 1172 3053 
L 1172 1153 
Q 1172 725 1289 603 
Q 1406 481 1766 481 
L 2356 481 
L 2356 0 
L 1766 0 
Q 1100 0 847 248 
Q 594 497 594 1153 
L 594 3053 
L 172 3053 
L 172 3500 
L 594 3500 
L 594 4494 
L 1172 4494 
z
" transform="scale(0.015625)"/>
       <path id="DejaVuSans-68" d="M 3513 2113 
L 3513 0 
L 2938 0 
L 2938 2094 
Q 2938 2591 2744 2837 
Q 2550 3084 2163 3084 
Q 1697 3084 1428 2787 
Q 1159 2491 1159 1978 
L 1159 0 
L 581 0 
L 581 4863 
L 1159 4863 
L 1159 2956 
Q 1366 3272 1645 3428 
Q 1925 3584 2291 3584 
Q 2894 3584 3203 3211 
Q 3513 2838 3513 2113 
z
" transform="scale(0.015625)"/>
       <path id="DejaVuSans-28" d="M 1984 4856 
Q 1566 4138 1362 3434 
Q 1159 2731 1159 2009 
Q 1159 1288 1364 580 
Q 1569 -128 1984 -844 
L 1484 -844 
Q 1016 -109 783 600 
Q 550 1309 550 2009 
Q 550 2706 781 3412 
Q 1013 4119 1484 4856 
L 1984 4856 
z
" transform="scale(0.015625)"/>
       <path id="DejaVuSans-6d" d="M 3328 2828 
Q 3544 3216 3844 3400 
Q 4144 3584 4550 3584 
Q 5097 3584 5394 3201 
Q 5691 2819 5691 2113 
L 5691 0 
L 5113 0 
L 5113 2094 
Q 5113 2597 4934 2840 
Q 4756 3084 4391 3084 
Q 3944 3084 3684 2787 
Q 3425 2491 3425 1978 
L 3425 0 
L 2847 0 
L 2847 2094 
Q 2847 2600 2669 2842 
Q 2491 3084 2119 3084 
Q 1678 3084 1418 2786 
Q 1159 2488 1159 1978 
L 1159 0 
L 581 0 
L 581 3500 
L 1159 3500 
L 1159 2956 
Q 1356 3278 1631 3431 
Q 1906 3584 2284 3584 
Q 2666 3584 2933 3390 
Q 3200 3197 3328 2828 
z
" transform="scale(0.015625)"/>
       <path id="DejaVuSans-29" d="M 513 4856 
L 1013 4856 
Q 1481 4119 1714 3412 
Q 1947 2706 1947 2009 
Q 1947 1309 1714 600 
Q 1481 -109 1013 -844 
L 513 -844 
Q 928 -128 1133 580 
Q 1338 1288 1338 2009 
Q 1338 2731 1133 3434 
Q 928 4138 513 4856 
z
" transform="scale(0.015625)"/>
      </defs>
      <use xlink:href="#DejaVuSans-41"/>
      <use xlink:href="#DejaVuSans-72" transform="translate(68.408203 0)"/>
      <use xlink:href="#DejaVuSans-63" transform="translate(107.271484 0)"/>
      <use xlink:href="#DejaVuSans-20" transform="translate(162.251953 0)"/>
      <use xlink:href="#DejaVuSans-4c" transform="translate(194.039062 0)"/>
      <use xlink:href="#DejaVuSans-65" transform="translate(248.001953 0)"/>
      <use xlink:href="#DejaVuSans-6e" transform="translate(309.525391 0)"/>
      <use xlink:href="#DejaVuSans-67" transform="translate(372.904297 0)"/>
      <use xlink:href="#DejaVuSans-74" transform="translate(436.380859 0)"/>
      <use xlink:href="#DejaVuSans-68" transform="translate(475.589844 0)"/>
      <use xlink:href="#DejaVuSans-20" transform="translate(538.96875 0)"/>
      <use xlink:href="#DejaVuSans-28" transform="translate(570.755859 0)"/>
      <use xlink:href="#DejaVuSans-6d" transform="translate(609.769531 0)"/>
      <use xlink:href="#DejaVuSans-6d" transform="translate(707.181641 0)"/>
      <use xlink:href="#DejaVuSans-29" transform="translate(804.59375 0)"/>
     </g>
    </g>
   </g>
   <g id="line2d_35">
    <path d="M 88.26 251.027273 
L 93.538142 250.614396 
L 100.399727 249.261871 
L 104.358334 248.347848 
L 109.372569 247.040881 
L 116.498062 244.970805 
L 119.928854 243.86031 
L 125.206996 242.203111 
L 132.068582 239.76287 
L 135.763281 238.324921 
L 141.041424 236.343115 
L 148.166916 233.555489 
L 151.861615 232.11754 
L 156.875851 230.090176 
L 163.737436 227.302549 
L 167.696042 225.71084 
L 172.710278 223.640764 
L 179.83577 220.679444 
L 183.530469 219.176005 
L 188.544705 217.08315 
L 195.40629 214.187321 
L 199.364897 212.510189 
L 204.379132 210.417334 
L 211.504624 207.367744 
L 215.199324 205.841526 
L 220.213559 203.705959 
L 227.075144 200.787351 
L 230.769844 199.152931 
L 236.047986 196.909162 
L 243.173478 193.925063 
L 246.868178 192.398845 
L 251.882413 190.286057 
L 258.743998 187.43294 
L 262.702605 185.755808 
L 267.71684 183.643021 
L 274.842332 180.636143 
L 278.537032 179.087145 
L 283.551267 176.931646 
L 290.412852 174.03297 
L 294.371459 172.378618 
L 299.385694 170.243051 
L 306.511186 167.216241 
L 310.205886 165.667243 
L 315.220121 163.554455 
L 322.081706 160.635847 
L 326.040313 159.001427 
L 331.054548 156.780437 
L 338.18004 153.728001 
L 341.87474 152.224562 
L 346.888975 150.091842 
L 353.75056 147.215945 
L 357.709167 145.601457 
L 362.723402 143.48867 
L 369.848894 140.504571 
L 373.543594 139.001132 
L 378.557829 136.888344 
L 385.419414 134.035227 
L 389.378021 132.420738 
L 394.392256 130.307951 
L 401.517749 127.323852 
L 405.212448 125.797634 
L 410.226683 123.664915 
L 417.088269 120.766238 
L 421.046875 119.111886 
L 426.061111 116.996251 
L 433.186603 113.946662 
L 436.617395 112.400511 
L 441.895538 110.222233 
L 448.757123 107.303625 
L 452.451822 105.646425 
L 457.729965 103.402656 
L 464.855457 100.330288 
L 468.550156 98.784137 
L 473.564392 96.625791 
L 480.425977 93.687251 
L 484.384584 92.030051 
L 489.398819 89.894484 
L 496.524311 86.867674 
L 500.219011 85.341456 
L 505.233246 83.185957 
L 512.094831 80.287281 
L 516.053438 78.610149 
L 521.067673 76.474582 
L 528.193165 73.424993 
L 531.887865 71.878843 
L 536.9021 69.720496 
L 543.763685 66.779109 
L 547.722292 65.124757 
L 552.736527 62.880988 
L 559.862019 59.85133 
L 563.556719 58.2824 
L 568.570954 56.126902 
L 575.432539 53.205446 
L 579.391146 51.573873 
L 584.405381 49.438306 
L 591.530873 46.408649 
L 595.225573 44.885278 
L 600.239808 42.749711 
L 607.101393 39.873814 
L 611.06 38.239394 
" clip-path="url(#p9f746561b9)" style="fill: none; stroke: #ff0000; stroke-width: 2; stroke-linecap: square"/>
   </g>
   <g id="line2d_36">
    <path d="M 88.26 251.027273 
L 88.26 251.027273 
L 94.857678 250.74253 
L 101.98317 249.318819 
L 105.67787 248.464593 
L 110.956012 247.325624 
L 117.817597 245.047686 
L 121.776204 243.908717 
L 126.526532 242.485005 
L 133.652024 239.922325 
L 137.082817 238.498614 
L 142.624866 236.505418 
L 149.486451 233.657996 
L 153.445058 232.234285 
L 158.195386 230.241089 
L 165.320878 227.393666 
L 169.015578 225.969955 
L 174.29372 223.97676 
L 181.155305 220.844595 
L 185.113912 219.420884 
L 189.86424 217.427688 
L 196.989732 214.295523 
L 200.684432 212.58707 
L 205.962574 210.593874 
L 212.82416 207.461709 
L 216.782766 206.037998 
L 221.533094 204.044803 
L 228.658587 200.912638 
L 232.353286 199.488927 
L 237.895336 197.210989 
L 244.756921 194.078824 
L 248.45162 192.655113 
L 253.465856 190.661917 
L 260.591348 187.814495 
L 264.02214 186.106041 
L 269.300283 183.828103 
L 276.161868 180.980681 
L 280.120475 179.272227 
L 284.870803 177.279032 
L 291.996295 174.431609 
L 295.690994 172.723156 
L 300.969137 170.445218 
L 307.830722 167.597795 
L 311.789329 165.889342 
L 316.539657 163.896146 
L 323.665149 161.048724 
L 327.359849 159.34027 
L 332.901898 157.062332 
L 339.763483 153.930168 
L 343.458183 152.506456 
L 348.472418 150.513261 
L 355.59791 147.665838 
L 359.028703 145.957385 
L 364.306845 143.964189 
L 371.16843 140.832024 
L 375.127037 139.408313 
L 379.877365 137.130375 
L 387.002857 134.282953 
L 390.697557 132.859242 
L 395.975699 130.581304 
L 402.837284 127.733881 
L 406.795891 126.31017 
L 411.546219 124.032232 
L 418.671711 121.18481 
L 422.366411 119.476356 
L 427.644553 117.48316 
L 434.506138 114.350996 
L 438.464745 112.927284 
L 443.215073 110.649347 
L 450.340565 107.801924 
L 453.771358 106.093471 
L 459.577314 103.815533 
L 466.4389 100.683368 
L 470.133599 99.259657 
L 474.883927 96.981719 
L 482.009419 94.134296 
L 485.704119 92.425843 
L 490.982261 90.432647 
L 497.843847 87.300483 
L 501.802453 85.876771 
L 506.552781 83.598833 
L 513.678274 80.751411 
L 517.372973 79.042957 
L 522.651116 77.049762 
L 529.512701 73.917597 
L 533.471307 72.493886 
L 538.221636 70.215948 
L 545.347128 67.368525 
L 549.041827 65.660072 
L 554.583877 63.382134 
L 561.445462 60.249969 
L 565.140162 58.826258 
L 569.89049 56.54832 
L 577.015982 53.700898 
L 580.710681 51.992444 
L 585.988824 49.999249 
L 592.850409 46.867084 
L 596.809016 45.443373 
L 601.559344 43.450177 
L 608.684836 40.318012 
" clip-path="url(#p9f746561b9)" style="fill: none; stroke-dasharray: 7.4,3.2; stroke-dashoffset: 0; stroke: #000000; stroke-width: 2"/>
   </g>
   <g id="patch_3">
    <path d="M 62.12 261.666667 
L 62.12 27.6 
" style="fill: none; stroke: #000000; stroke-width: 0.8; stroke-linejoin: miter; stroke-linecap: square"/>
   </g>
   <g id="patch_4">
    <path d="M 637.2 261.666667 
L 637.2 27.6 
" style="fill: none; stroke: #000000; stroke-width: 0.8; stroke-linejoin: miter; stroke-linecap: square"/>
   </g>
   <g id="patch_5">
    <path d="M 62.12 261.666667 
L 637.2 261.666667 
" style="fill: none; stroke: #000000; stroke-width: 0.8; stroke-linejoin: miter; stroke-linecap: square"/>
   </g>
   <g id="patch_6">
    <path d="M 62.12 27.6 
L 637.2 27.6 
" style="fill: none; stroke: #000000; stroke-width: 0.8; stroke-linejoin: miter; stroke-linecap: square"/>
   </g>
   <g id="text_19">
    <!-- Arc Test: Measured vs Estimated Arc Length -->
    <g transform="translate(195.967344 21.6) scale(0.14 -0.14)">
     <defs>
      <path id="DejaVuSans-54" d="M -19 4666 
L 3928 4666 
L 3928 4134 
L 2272 4134 
L 2272 0 
L 1638 0 
L 1638 4134 
L -19 4134 
L -19 4666 
z
" transform="scale(0.015625)"/>
      <path id="DejaVuSans-73" d="M 2834 3397 
L 2834 2853 
Q 2591 2978 2328 3040 
Q 2066 3103 1784 3103 
Q 1356 3103 1142 2972 
Q 928 2841 928 2578 
Q 928 2378 1081 2264 
Q 1234 2150 1697 2047 
L 1894 2003 
Q 2506 1872 2764 1633 
Q 3022 1394 3022 966 
Q 3022 478 2636 193 
Q 2250 -91 1575 -91 
Q 1294 -91 989 -36 
Q 684 19 347 128 
L 347 722 
Q 666 556 975 473 
Q 1284 391 1588 391 
Q 1994 391 2212 530 
Q 2431 669 2431 922 
Q 2431 1156 2273 1281 
Q 2116 1406 1581 1522 
L 1381 1569 
Q 847 1681 609 1914 
Q 372 2147 372 2553 
Q 372 3047 722 3315 
Q 1072 3584 1716 3584 
Q 2034 3584 2315 3537 
Q 2597 3491 2834 3397 
z
" transform="scale(0.015625)"/>
      <path id="DejaVuSans-3a" d="M 750 794 
L 1409 794 
L 1409 0 
L 750 0 
L 750 794 
z
M 750 3309 
L 1409 3309 
L 1409 2516 
L 750 2516 
L 750 3309 
z
" transform="scale(0.015625)"/>
      <path id="DejaVuSans-4d" d="M 628 4666 
L 1569 4666 
L 2759 1491 
L 3956 4666 
L 4897 4666 
L 4897 0 
L 4281 0 
L 4281 4097 
L 3078 897 
L 2444 897 
L 1241 4097 
L 1241 0 
L 628 0 
L 628 4666 
z
" transform="scale(0.015625)"/>
      <path id="DejaVuSans-61" d="M 2194 1759 
Q 1497 1759 1228 1600 
Q 959 1441 959 1056 
Q 959 750 1161 570 
Q 1363 391 1709 391 
Q 2188 391 2477 730 
Q 2766 1069 2766 1631 
L 2766 1759 
L 2194 1759 
z
M 3341 1997 
L 3341 0 
L 2766 0 
L 2766 531 
Q 2569 213 2275 61 
Q 1981 -91 1556 -91 
Q 1019 -91 701 211 
Q 384 513 384 1019 
Q 384 1609 779 1909 
Q 1175 2209 1959 2209 
L 2766 2209 
L 2766 2266 
Q 2766 2663 2505 2880 
Q 2244 3097 1772 3097 
Q 1472 3097 1187 3025 
Q 903 2953 641 2809 
L 641 3341 
Q 956 3463 1253 3523 
Q 1550 3584 1831 3584 
Q 2591 3584 2966 3190 
Q 3341 2797 3341 1997 
z
" transform="scale(0.015625)"/>
      <path id="DejaVuSans-75" d="M 544 1381 
L 544 3500 
L 1119 3500 
L 1119 1403 
Q 1119 906 1312 657 
Q 1506 409 1894 409 
Q 2359 409 2629 706 
Q 2900 1003 2900 1516 
L 2900 3500 
L 3475 3500 
L 3475 0 
L 2900 0 
L 2900 538 
Q 2691 219 2414 64 
Q 2138 -91 1772 -91 
Q 1169 -91 856 284 
Q 544 659 544 1381 
z
M 1991 3584 
L 1991 3584 
z
" transform="scale(0.015625)"/>
      <path id="DejaVuSans-64" d="M 2906 2969 
L 2906 4863 
L 3481 4863 
L 3481 0 
L 2906 0 
L 2906 525 
Q 2725 213 2448 61 
Q 2172 -91 1784 -91 
Q 1150 -91 751 415 
Q 353 922 353 1747 
Q 353 2572 751 3078 
Q 1150 3584 1784 3584 
Q 2172 3584 2448 3432 
Q 2725 3281 2906 2969 
z
M 947 1747 
Q 947 1113 1208 752 
Q 1469 391 1925 391 
Q 2381 391 2643 752 
Q 2906 1113 2906 1747 
Q 2906 2381 2643 2742 
Q 2381 3103 1925 3103 
Q 1469 3103 1208 2742 
Q 947 2381 947 1747 
z
" transform="scale(0.015625)"/>
      <path id="DejaVuSans-76" d="M 191 3500 
L 800 3500 
L 1894 563 
L 2988 3500 
L 3597 3500 
L 2284 0 
L 1503 0 
L 191 3500 
z
" transform="scale(0.015625)"/>
      <path id="DejaVuSans-45" d="M 628 4666 
L 3578 4666 
L 3578 4134 
L 1259 4134 
L 1259 2753 
L 3481 2753 
L 3481 2222 
L 1259 2222 
L 1259 531 
L 3634 531 
L 3634 0 
L 628 0 
L 628 4666 
z
" transform="scale(0.015625)"/>
      <path id="DejaVuSans-69" d="M 603 3500 
L 1178 3500 
L 1178 0 
L 603 0 
L 603 3500 
z
M 603 4863 
L 1178 4863 
L 1178 4134 
L 603 4134 
L 603 4863 
z
" transform="scale(0.015625)"/>
     </defs>
     <use xlink:href="#DejaVuSans-41"/>
     <use xlink:href="#DejaVuSans-72" transform="translate(68.408203 0)"/>
     <use xlink:href="#DejaVuSans-63" transform="translate(107.271484 0)"/>
     <use xlink:href="#DejaVuSans-20" transform="translate(162.251953 0)"/>
     <use xlink:href="#DejaVuSans-54" transform="translate(194.039062 0)"/>
     <use xlink:href="#DejaVuSans-65" transform="translate(238.123047 0)"/>
     <use xlink:href="#DejaVuSans-73" transform="translate(299.646484 0)"/>
     <use xlink:href="#DejaVuSans-74" transform="translate(351.746094 0)"/>
     <use xlink:href="#DejaVuSans-3a" transform="translate(390.955078 0)"/>
     <use xlink:href="#DejaVuSans-20" transform="translate(424.646484 0)"/>
     <use xlink:href="#DejaVuSans-4d" transform="translate(456.433594 0)"/>
     <use xlink:href="#DejaVuSans-65" transform="translate(542.712891 0)"/>
     <use xlink:href="#DejaVuSans-61" transform="translate(604.236328 0)"/>
     <use xlink:href="#DejaVuSans-73" transform="translate(665.515625 0)"/>
     <use xlink:href="#DejaVuSans-75" transform="translate(717.615234 0)"/>
     <use xlink:href="#DejaVuSans-72" transform="translate(780.994141 0)"/>
     <use xlink:href="#DejaVuSans-65" transform="translate(819.857422 0)"/>
     <use xlink:href="#DejaVuSans-64" transform="translate(881.380859 0)"/>
     <use xlink:href="#DejaVuSans-20" transform="translate(944.857422 0)"/>
     <use xlink:href="#DejaVuSans-76" transform="translate(976.644531 0)"/>
     <use xlink:href="#DejaVuSans-73" transform="translate(1035.824219 0)"/>
     <use xlink:href="#DejaVuSans-20" transform="translate(1087.923828 0)"/>
     <use xlink:href="#DejaVuSans-45" transform="translate(1119.710938 0)"/>
     <use xlink:href="#DejaVuSans-73" transform="translate(1182.894531 0)"/>
     <use xlink:href="#DejaVuSans-74" transform="translate(1234.994141 0)"/>
     <use xlink:href="#DejaVuSans-69" transform="translate(1274.203125 0)"/>
     <use xlink:href="#DejaVuSans-6d" transform="translate(1301.986328 0)"/>
     <use xlink:href="#DejaVuSans-61" transform="translate(1399.398438 0)"/>
     <use xlink:href="#DejaVuSans-74" transform="translate(1460.677734 0)"/>
     <use xlink:href="#DejaVuSans-65" transform="translate(1499.886719 0)"/>
     <use xlink:href="#DejaVuSans-64" transform="translate(1561.410156 0)"/>
     <use xlink:href="#DejaVuSans-20" transform="translate(1624.886719 0)"/>
     <use xlink:href="#DejaVuSans-41" transform="translate(1656.673828 0)"/>
     <use xlink:href="#DejaVuSans-72" transform="translate(1725.082031 0)"/>
     <use xlink:href="#DejaVuSans-63" transform="translate(1763.945312 0)"/>
     <use xlink:href="#DejaVuSans-20" transform="translate(1818.925781 0)"/>
     <use xlink:href="#DejaVuSans-4c" transform="translate(1850.712891 0)"/>
     <use xlink:href="#DejaVuSans-65" transform="translate(1904.675781 0)"/>
     <use xlink:href="#DejaVuSans-6e" transform="translate(1966.199219 0)"/>
     <use xlink:href="#DejaVuSans-67" transform="translate(2029.578125 0)"/>
     <use xlink:href="#DejaVuSans-74" transform="translate(2093.054688 0)"/>
     <use xlink:href="#DejaVuSans-68" transform="translate(2132.263672 0)"/>
    </g>
   </g>
   <g id="legend_1">
    <g id="patch_7">
     <path d="M 490.607812 256.666667 
L 630.2 256.666667 
Q 632.2 256.666667 632.2 254.666667 
L 632.2 226.310417 
Q 632.2 224.310417 630.2 224.310417 
L 490.607812 224.310417 
Q 488.607812 224.310417 488.607812 226.310417 
L 488.607812 254.666667 
Q 488.607812 256.666667 490.607812 256.666667 
z
" style="fill: #ffffff; opacity: 0.8; stroke: #cccccc; stroke-linejoin: miter"/>
    </g>
    <g id="line2d_37">
     <path d="M 492.607812 232.408854 
L 502.607812 232.408854 
L 512.607812 232.408854 
" style="fill: none; stroke: #ff0000; stroke-width: 2; stroke-linecap: square"/>
    </g>
    <g id="text_20">
     <!-- Measured Arc Length -->
     <g transform="translate(520.607812 235.908854) scale(0.1 -0.1)">
      <use xlink:href="#DejaVuSans-4d"/>
      <use xlink:href="#DejaVuSans-65" transform="translate(86.279297 0)"/>
      <use xlink:href="#DejaVuSans-61" transform="translate(147.802734 0)"/>
      <use xlink:href="#DejaVuSans-73" transform="translate(209.082031 0)"/>
      <use xlink:href="#DejaVuSans-75" transform="translate(261.181641 0)"/>
      <use xlink:href="#DejaVuSans-72" transform="translate(324.560547 0)"/>
      <use xlink:href="#DejaVuSans-65" transform="translate(363.423828 0)"/>
      <use xlink:href="#DejaVuSans-64" transform="translate(424.947266 0)"/>
      <use xlink:href="#DejaVuSans-20" transform="translate(488.423828 0)"/>
      <use xlink:href="#DejaVuSans-41" transform="translate(520.210938 0)"/>
      <use xlink:href="#DejaVuSans-72" transform="translate(588.619141 0)"/>
      <use xlink:href="#DejaVuSans-63" transform="translate(627.482422 0)"/>
      <use xlink:href="#DejaVuSans-20" transform="translate(682.462891 0)"/>
      <use xlink:href="#DejaVuSans-4c" transform="translate(714.25 0)"/>
      <use xlink:href="#DejaVuSans-65" transform="translate(768.212891 0)"/>
      <use xlink:href="#DejaVuSans-6e" transform="translate(829.736328 0)"/>
      <use xlink:href="#DejaVuSans-67" transform="translate(893.115234 0)"/>
      <use xlink:href="#DejaVuSans-74" transform="translate(956.591797 0)"/>
      <use xlink:href="#DejaVuSans-68" transform="translate(995.800781 0)"/>
     </g>
    </g>
    <g id="line2d_38">
     <path d="M 492.607812 247.086979 
L 502.607812 247.086979 
L 512.607812 247.086979 
" style="fill: none; stroke-dasharray: 7.4,3.2; stroke-dashoffset: 0; stroke: #000000; stroke-width: 2"/>
    </g>
    <g id="text_21">
     <!-- Estimated Arc Length -->
     <g transform="translate(520.607812 250.586979) scale(0.1 -0.1)">
      <use xlink:href="#DejaVuSans-45"/>
      <use xlink:href="#DejaVuSans-73" transform="translate(63.183594 0)"/>
      <use xlink:href="#DejaVuSans-74" transform="translate(115.283203 0)"/>
      <use xlink:href="#DejaVuSans-69" transform="translate(154.492188 0)"/>
      <use xlink:href="#DejaVuSans-6d" transform="translate(182.275391 0)"/>
      <use xlink:href="#DejaVuSans-61" transform="translate(279.6875 0)"/>
      <use xlink:href="#DejaVuSans-74" transform="translate(340.966797 0)"/>
      <use xlink:href="#DejaVuSans-65" transform="translate(380.175781 0)"/>
      <use xlink:href="#DejaVuSans-64" transform="translate(441.699219 0)"/>
      <use xlink:href="#DejaVuSans-20" transform="translate(505.175781 0)"/>
      <use xlink:href="#DejaVuSans-41" transform="translate(536.962891 0)"/>
      <use xlink:href="#DejaVuSans-72" transform="translate(605.371094 0)"/>
      <use xlink:href="#DejaVuSans-63" transform="translate(644.234375 0)"/>
      <use xlink:href="#DejaVuSans-20" transform="translate(699.214844 0)"/>
      <use xlink:href="#DejaVuSans-4c" transform="translate(731.001953 0)"/>
      <use xlink:href="#DejaVuSans-65" transform="translate(784.964844 0)"/>
      <use xlink:href="#DejaVuSans-6e" transform="translate(846.488281 0)"/>
      <use xlink:href="#DejaVuSans-67" transform="translate(909.867188 0)"/>
      <use xlink:href="#DejaVuSans-74" transform="translate(973.34375 0)"/>
      <use xlink:href="#DejaVuSans-68" transform="translate(1012.552734 0)"/>
     </g>
    </g>
   </g>
  </g>
  <g id="axes_2">
   <g id="patch_8">
    <path d="M 62.12 540.413333 
L 637.2 540.413333 
L 637.2 306.346667 
L 62.12 306.346667 
z
" style="fill: #ffffff"/>
   </g>
   <g id="matplotlib.axis_3">
    <g id="xtick_10">
     <g id="line2d_39">
      <path d="M 88.26 540.413333 
L 88.26 306.346667 
" clip-path="url(#p6262d3c81a)" style="fill: none; stroke-dasharray: 2.96,1.28; stroke-dashoffset: 0; stroke: #b0b0b0; stroke-opacity: 0.4; stroke-width: 0.8"/>
     </g>
     <g id="line2d_40">
      <g>
       <use xlink:href="#m8df4872a0e" x="88.26" y="540.413333" style="stroke: #000000; stroke-width: 0.8"/>
      </g>
     </g>
     <g id="text_22">
      <!-- 0 -->
      <g transform="translate(85.07875 555.011771) scale(0.1 -0.1)">
       <use xlink:href="#DejaVuSans-30"/>
      </g>
     </g>
    </g>
    <g id="xtick_11">
     <g id="line2d_41">
      <path d="M 154.236779 540.413333 
L 154.236779 306.346667 
" clip-path="url(#p6262d3c81a)" style="fill: none; stroke-dasharray: 2.96,1.28; stroke-dashoffset: 0; stroke: #b0b0b0; stroke-opacity: 0.4; stroke-width: 0.8"/>
     </g>
     <g id="line2d_42">
      <g>
       <use xlink:href="#m8df4872a0e" x="154.236779" y="540.413333" style="stroke: #000000; stroke-width: 0.8"/>
      </g>
     </g>
     <g id="text_23">
      <!-- 250 -->
      <g transform="translate(144.693029 555.011771) scale(0.1 -0.1)">
       <use xlink:href="#DejaVuSans-32"/>
       <use xlink:href="#DejaVuSans-35" transform="translate(63.623047 0)"/>
       <use xlink:href="#DejaVuSans-30" transform="translate(127.246094 0)"/>
      </g>
     </g>
    </g>
    <g id="xtick_12">
     <g id="line2d_43">
      <path d="M 220.213559 540.413333 
L 220.213559 306.346667 
" clip-path="url(#p6262d3c81a)" style="fill: none; stroke-dasharray: 2.96,1.28; stroke-dashoffset: 0; stroke: #b0b0b0; stroke-opacity: 0.4; stroke-width: 0.8"/>
     </g>
     <g id="line2d_44">
      <g>
       <use xlink:href="#m8df4872a0e" x="220.213559" y="540.413333" style="stroke: #000000; stroke-width: 0.8"/>
      </g>
     </g>
     <g id="text_24">
      <!-- 500 -->
      <g transform="translate(210.669809 555.011771) scale(0.1 -0.1)">
       <use xlink:href="#DejaVuSans-35"/>
       <use xlink:href="#DejaVuSans-30" transform="translate(63.623047 0)"/>
       <use xlink:href="#DejaVuSans-30" transform="translate(127.246094 0)"/>
      </g>
     </g>
    </g>
    <g id="xtick_13">
     <g id="line2d_45">
      <path d="M 286.190338 540.413333 
L 286.190338 306.346667 
" clip-path="url(#p6262d3c81a)" style="fill: none; stroke-dasharray: 2.96,1.28; stroke-dashoffset: 0; stroke: #b0b0b0; stroke-opacity: 0.4; stroke-width: 0.8"/>
     </g>
     <g id="line2d_46">
      <g>
       <use xlink:href="#m8df4872a0e" x="286.190338" y="540.413333" style="stroke: #000000; stroke-width: 0.8"/>
      </g>
     </g>
     <g id="text_25">
      <!-- 750 -->
      <g transform="translate(276.646588 555.011771) scale(0.1 -0.1)">
       <use xlink:href="#DejaVuSans-37"/>
       <use xlink:href="#DejaVuSans-35" transform="translate(63.623047 0)"/>
       <use xlink:href="#DejaVuSans-30" transform="translate(127.246094 0)"/>
      </g>
     </g>
    </g>
    <g id="xtick_14">
     <g id="line2d_47">
      <path d="M 352.167118 540.413333 
L 352.167118 306.346667 
" clip-path="url(#p6262d3c81a)" style="fill: none; stroke-dasharray: 2.96,1.28; stroke-dashoffset: 0; stroke: #b0b0b0; stroke-opacity: 0.4; stroke-width: 0.8"/>
     </g>
     <g id="line2d_48">
      <g>
       <use xlink:href="#m8df4872a0e" x="352.167118" y="540.413333" style="stroke: #000000; stroke-width: 0.8"/>
      </g>
     </g>
     <g id="text_26">
      <!-- 1000 -->
      <g transform="translate(339.442118 555.011771) scale(0.1 -0.1)">
       <use xlink:href="#DejaVuSans-31"/>
       <use xlink:href="#DejaVuSans-30" transform="translate(63.623047 0)"/>
       <use xlink:href="#DejaVuSans-30" transform="translate(127.246094 0)"/>
       <use xlink:href="#DejaVuSans-30" transform="translate(190.869141 0)"/>
      </g>
     </g>
    </g>
    <g id="xtick_15">
     <g id="line2d_49">
      <path d="M 418.143897 540.413333 
L 418.143897 306.346667 
" clip-path="url(#p6262d3c81a)" style="fill: none; stroke-dasharray: 2.96,1.28; stroke-dashoffset: 0; stroke: #b0b0b0; stroke-opacity: 0.4; stroke-width: 0.8"/>
     </g>
     <g id="line2d_50">
      <g>
       <use xlink:href="#m8df4872a0e" x="418.143897" y="540.413333" style="stroke: #000000; stroke-width: 0.8"/>
      </g>
     </g>
     <g id="text_27">
      <!-- 1250 -->
      <g transform="translate(405.418897 555.011771) scale(0.1 -0.1)">
       <use xlink:href="#DejaVuSans-31"/>
       <use xlink:href="#DejaVuSans-32" transform="translate(63.623047 0)"/>
       <use xlink:href="#DejaVuSans-35" transform="translate(127.246094 0)"/>
       <use xlink:href="#DejaVuSans-30" transform="translate(190.869141 0)"/>
      </g>
     </g>
    </g>
    <g id="xtick_16">
     <g id="line2d_51">
      <path d="M 484.120676 540.413333 
L 484.120676 306.346667 
" clip-path="url(#p6262d3c81a)" style="fill: none; stroke-dasharray: 2.96,1.28; stroke-dashoffset: 0; stroke: #b0b0b0; stroke-opacity: 0.4; stroke-width: 0.8"/>
     </g>
     <g id="line2d_52">
      <g>
       <use xlink:href="#m8df4872a0e" x="484.120676" y="540.413333" style="stroke: #000000; stroke-width: 0.8"/>
      </g>
     </g>
     <g id="text_28">
      <!-- 1500 -->
      <g transform="translate(471.395676 555.011771) scale(0.1 -0.1)">
       <use xlink:href="#DejaVuSans-31"/>
       <use xlink:href="#DejaVuSans-35" transform="translate(63.623047 0)"/>
       <use xlink:href="#DejaVuSans-30" transform="translate(127.246094 0)"/>
       <use xlink:href="#DejaVuSans-30" transform="translate(190.869141 0)"/>
      </g>
     </g>
    </g>
    <g id="xtick_17">
     <g id="line2d_53">
      <path d="M 550.097456 540.413333 
L 550.097456 306.346667 
" clip-path="url(#p6262d3c81a)" style="fill: none; stroke-dasharray: 2.96,1.28; stroke-dashoffset: 0; stroke: #b0b0b0; stroke-opacity: 0.4; stroke-width: 0.8"/>
     </g>
     <g id="line2d_54">
      <g>
       <use xlink:href="#m8df4872a0e" x="550.097456" y="540.413333" style="stroke: #000000; stroke-width: 0.8"/>
      </g>
     </g>
     <g id="text_29">
      <!-- 1750 -->
      <g transform="translate(537.372456 555.011771) scale(0.1 -0.1)">
       <use xlink:href="#DejaVuSans-31"/>
       <use xlink:href="#DejaVuSans-37" transform="translate(63.623047 0)"/>
       <use xlink:href="#DejaVuSans-35" transform="translate(127.246094 0)"/>
       <use xlink:href="#DejaVuSans-30" transform="translate(190.869141 0)"/>
      </g>
     </g>
    </g>
    <g id="xtick_18">
     <g id="line2d_55">
      <path d="M 616.074235 540.413333 
L 616.074235 306.346667 
" clip-path="url(#p6262d3c81a)" style="fill: none; stroke-dasharray: 2.96,1.28; stroke-dashoffset: 0; stroke: #b0b0b0; stroke-opacity: 0.4; stroke-width: 0.8"/>
     </g>
     <g id="line2d_56">
      <g>
       <use xlink:href="#m8df4872a0e" x="616.074235" y="540.413333" style="stroke: #000000; stroke-width: 0.8"/>
      </g>
     </g>
     <g id="text_30">
      <!-- 2000 -->
      <g transform="translate(603.349235 555.011771) scale(0.1 -0.1)">
       <use xlink:href="#DejaVuSans-32"/>
       <use xlink:href="#DejaVuSans-30" transform="translate(63.623047 0)"/>
       <use xlink:href="#DejaVuSans-30" transform="translate(127.246094 0)"/>
       <use xlink:href="#DejaVuSans-30" transform="translate(190.869141 0)"/>
      </g>
     </g>
    </g>
   </g>
   <g id="matplotlib.axis_4">
    <g id="ytick_9">
     <g id="line2d_57">
      <path d="M 62.12 530.754811 
L 637.2 530.754811 
" clip-path="url(#p6262d3c81a)" style="fill: none; stroke-dasharray: 2.96,1.28; stroke-dashoffset: 0; stroke: #b0b0b0; stroke-opacity: 0.4; stroke-width: 0.8"/>
     </g>
     <g id="line2d_58">
      <g>
       <use xlink:href="#m3ce3ade8bd" x="62.12" y="530.754811" style="stroke: #000000; stroke-width: 0.8"/>
      </g>
     </g>
     <g id="text_31">
      <!-- −175 -->
      <g transform="translate(27.652812 534.554029) scale(0.1 -0.1)">
       <defs>
        <path id="DejaVuSans-2212" d="M 678 2272 
L 4684 2272 
L 4684 1741 
L 678 1741 
L 678 2272 
z
" transform="scale(0.015625)"/>
       </defs>
       <use xlink:href="#DejaVuSans-2212"/>
       <use xlink:href="#DejaVuSans-31" transform="translate(83.789062 0)"/>
       <use xlink:href="#DejaVuSans-37" transform="translate(147.412109 0)"/>
       <use xlink:href="#DejaVuSans-35" transform="translate(211.035156 0)"/>
      </g>
     </g>
    </g>
    <g id="ytick_10">
     <g id="line2d_59">
      <path d="M 62.12 501.483012 
L 637.2 501.483012 
" clip-path="url(#p6262d3c81a)" style="fill: none; stroke-dasharray: 2.96,1.28; stroke-dashoffset: 0; stroke: #b0b0b0; stroke-opacity: 0.4; stroke-width: 0.8"/>
     </g>
     <g id="line2d_60">
      <g>
       <use xlink:href="#m3ce3ade8bd" x="62.12" y="501.483012" style="stroke: #000000; stroke-width: 0.8"/>
      </g>
     </g>
     <g id="text_32">
      <!-- −150 -->
      <g transform="translate(27.652812 505.282231) scale(0.1 -0.1)">
       <use xlink:href="#DejaVuSans-2212"/>
       <use xlink:href="#DejaVuSans-31" transform="translate(83.789062 0)"/>
       <use xlink:href="#DejaVuSans-35" transform="translate(147.412109 0)"/>
       <use xlink:href="#DejaVuSans-30" transform="translate(211.035156 0)"/>
      </g>
     </g>
    </g>
    <g id="ytick_11">
     <g id="line2d_61">
      <path d="M 62.12 472.211214 
L 637.2 472.211214 
" clip-path="url(#p6262d3c81a)" style="fill: none; stroke-dasharray: 2.96,1.28; stroke-dashoffset: 0; stroke: #b0b0b0; stroke-opacity: 0.4; stroke-width: 0.8"/>
     </g>
     <g id="line2d_62">
      <g>
       <use xlink:href="#m3ce3ade8bd" x="62.12" y="472.211214" style="stroke: #000000; stroke-width: 0.8"/>
      </g>
     </g>
     <g id="text_33">
      <!-- −125 -->
      <g transform="translate(27.652812 476.010433) scale(0.1 -0.1)">
       <use xlink:href="#DejaVuSans-2212"/>
       <use xlink:href="#DejaVuSans-31" transform="translate(83.789062 0)"/>
       <use xlink:href="#DejaVuSans-32" transform="translate(147.412109 0)"/>
       <use xlink:href="#DejaVuSans-35" transform="translate(211.035156 0)"/>
      </g>
     </g>
    </g>
    <g id="ytick_12">
     <g id="line2d_63">
      <path d="M 62.12 442.939416 
L 637.2 442.939416 
" clip-path="url(#p6262d3c81a)" style="fill: none; stroke-dasharray: 2.96,1.28; stroke-dashoffset: 0; stroke: #b0b0b0; stroke-opacity: 0.4; stroke-width: 0.8"/>
     </g>
     <g id="line2d_64">
      <g>
       <use xlink:href="#m3ce3ade8bd" x="62.12" y="442.939416" style="stroke: #000000; stroke-width: 0.8"/>
      </g>
     </g>
     <g id="text_34">
      <!-- −100 -->
      <g transform="translate(27.652812 446.738634) scale(0.1 -0.1)">
       <use xlink:href="#DejaVuSans-2212"/>
       <use xlink:href="#DejaVuSans-31" transform="translate(83.789062 0)"/>
       <use xlink:href="#DejaVuSans-30" transform="translate(147.412109 0)"/>
       <use xlink:href="#DejaVuSans-30" transform="translate(211.035156 0)"/>
      </g>
     </g>
    </g>
    <g id="ytick_13">
     <g id="line2d_65">
      <path d="M 62.12 413.667617 
L 637.2 413.667617 
" clip-path="url(#p6262d3c81a)" style="fill: none; stroke-dasharray: 2.96,1.28; stroke-dashoffset: 0; stroke: #b0b0b0; stroke-opacity: 0.4; stroke-width: 0.8"/>
     </g>
     <g id="line2d_66">
      <g>
       <use xlink:href="#m3ce3ade8bd" x="62.12" y="413.667617" style="stroke: #000000; stroke-width: 0.8"/>
      </g>
     </g>
     <g id="text_35">
      <!-- −75 -->
      <g transform="translate(34.015312 417.466836) scale(0.1 -0.1)">
       <use xlink:href="#DejaVuSans-2212"/>
       <use xlink:href="#DejaVuSans-37" transform="translate(83.789062 0)"/>
       <use xlink:href="#DejaVuSans-35" transform="translate(147.412109 0)"/>
      </g>
     </g>
    </g>
    <g id="ytick_14">
     <g id="line2d_67">
      <path d="M 62.12 384.395819 
L 637.2 384.395819 
" clip-path="url(#p6262d3c81a)" style="fill: none; stroke-dasharray: 2.96,1.28; stroke-dashoffset: 0; stroke: #b0b0b0; stroke-opacity: 0.4; stroke-width: 0.8"/>
     </g>
     <g id="line2d_68">
      <g>
       <use xlink:href="#m3ce3ade8bd" x="62.12" y="384.395819" style="stroke: #000000; stroke-width: 0.8"/>
      </g>
     </g>
     <g id="text_36">
      <!-- −50 -->
      <g transform="translate(34.015312 388.195038) scale(0.1 -0.1)">
       <use xlink:href="#DejaVuSans-2212"/>
       <use xlink:href="#DejaVuSans-35" transform="translate(83.789062 0)"/>
       <use xlink:href="#DejaVuSans-30" transform="translate(147.412109 0)"/>
      </g>
     </g>
    </g>
    <g id="ytick_15">
     <g id="line2d_69">
      <path d="M 62.12 355.124021 
L 637.2 355.124021 
" clip-path="url(#p6262d3c81a)" style="fill: none; stroke-dasharray: 2.96,1.28; stroke-dashoffset: 0; stroke: #b0b0b0; stroke-opacity: 0.4; stroke-width: 0.8"/>
     </g>
     <g id="line2d_70">
      <g>
       <use xlink:href="#m3ce3ade8bd" x="62.12" y="355.124021" style="stroke: #000000; stroke-width: 0.8"/>
      </g>
     </g>
     <g id="text_37">
      <!-- −25 -->
      <g transform="translate(34.015312 358.923239) scale(0.1 -0.1)">
       <use xlink:href="#DejaVuSans-2212"/>
       <use xlink:href="#DejaVuSans-32" transform="translate(83.789062 0)"/>
       <use xlink:href="#DejaVuSans-35" transform="translate(147.412109 0)"/>
      </g>
     </g>
    </g>
    <g id="ytick_16">
     <g id="line2d_71">
      <path d="M 62.12 325.852222 
L 637.2 325.852222 
" clip-path="url(#p6262d3c81a)" style="fill: none; stroke-dasharray: 2.96,1.28; stroke-dashoffset: 0; stroke: #b0b0b0; stroke-opacity: 0.4; stroke-width: 0.8"/>
     </g>
     <g id="line2d_72">
      <g>
       <use xlink:href="#m3ce3ade8bd" x="62.12" y="325.852222" style="stroke: #000000; stroke-width: 0.8"/>
      </g>
     </g>
     <g id="text_38">
      <!-- 0 -->
      <g transform="translate(48.7575 329.651441) scale(0.1 -0.1)">
       <use xlink:href="#DejaVuSans-30"/>
      </g>
     </g>
    </g>
    <g id="text_39">
     <!-- Yaw (deg) -->
     <g transform="translate(21.157187 452.702187) rotate(-90) scale(0.12 -0.12)">
      <defs>
       <path id="DejaVuSans-59" d="M -13 4666 
L 666 4666 
L 1959 2747 
L 3244 4666 
L 3922 4666 
L 2272 2222 
L 2272 0 
L 1638 0 
L 1638 2222 
L -13 4666 
z
" transform="scale(0.015625)"/>
       <path id="DejaVuSans-77" d="M 269 3500 
L 844 3500 
L 1563 769 
L 2278 3500 
L 2956 3500 
L 3675 769 
L 4391 3500 
L 4966 3500 
L 4050 0 
L 3372 0 
L 2619 2869 
L 1863 0 
L 1184 0 
L 269 3500 
z
" transform="scale(0.015625)"/>
      </defs>
      <use xlink:href="#DejaVuSans-59"/>
      <use xlink:href="#DejaVuSans-61" transform="translate(47.333984 0)"/>
      <use xlink:href="#DejaVuSans-77" transform="translate(108.613281 0)"/>
      <use xlink:href="#DejaVuSans-20" transform="translate(190.400391 0)"/>
      <use xlink:href="#DejaVuSans-28" transform="translate(222.1875 0)"/>
      <use xlink:href="#DejaVuSans-64" transform="translate(261.201172 0)"/>
      <use xlink:href="#DejaVuSans-65" transform="translate(324.677734 0)"/>
      <use xlink:href="#DejaVuSans-67" transform="translate(386.201172 0)"/>
      <use xlink:href="#DejaVuSans-29" transform="translate(449.677734 0)"/>
     </g>
    </g>
   </g>
   <g id="line2d_73">
    <path d="M 88.26 325.852222 
L 93.538142 326.074688 
L 100.399727 327.233851 
L 104.358334 328.112005 
L 109.372569 329.423382 
L 116.498062 331.530951 
L 119.928854 332.619862 
L 125.206996 334.223957 
L 132.068582 336.553992 
L 135.763281 337.865368 
L 141.041424 339.68022 
L 148.166916 342.162468 
L 151.861615 343.473845 
L 156.875851 345.288696 
L 163.737436 347.911449 
L 167.696042 349.293078 
L 172.710278 351.119639 
L 179.83577 353.882896 
L 183.530469 355.264525 
L 188.544705 357.161338 
L 195.40629 359.70213 
L 199.364897 361.235972 
L 204.379132 363.132785 
L 211.504624 365.896042 
L 215.199324 367.347924 
L 220.213559 369.244736 
L 227.075144 371.867489 
L 230.769844 373.401331 
L 236.047986 375.356688 
L 243.173478 378.049693 
L 246.868178 379.36107 
L 251.882413 381.328134 
L 258.743998 383.880635 
L 262.702605 385.414478 
L 267.71684 387.229329 
L 274.842332 389.992587 
L 278.537032 391.233711 
L 283.551267 393.200776 
L 290.412852 395.893781 
L 294.371459 397.345663 
L 299.385694 399.242475 
L 306.511186 401.935481 
L 310.205886 403.317109 
L 315.220121 405.284174 
L 322.081706 407.906927 
L 326.040313 409.44077 
L 331.054548 411.478087 
L 338.18004 414.241345 
L 341.87474 415.622973 
L 346.888975 417.660291 
L 353.75056 420.283044 
L 357.709167 421.734925 
L 362.723402 423.70199 
L 369.848894 426.394995 
L 373.543594 427.788333 
L 378.557829 429.743689 
L 385.419414 432.436694 
L 389.378021 434.040789 
L 394.392256 435.867349 
L 401.517749 438.700859 
L 405.212448 440.164449 
L 410.226683 442.201766 
L 417.088269 444.894772 
L 421.046875 446.346653 
L 426.061111 448.313718 
L 433.186603 451.076976 
L 436.617395 452.610818 
L 441.895538 454.648135 
L 448.757123 457.270888 
L 452.451822 458.874983 
L 457.729965 460.982552 
L 464.855457 463.827771 
L 468.550156 465.349904 
L 473.564392 467.316969 
L 480.425977 469.86947 
L 484.384584 471.461856 
L 489.398819 473.358669 
L 496.524311 476.203887 
L 500.219011 477.655769 
L 505.233246 479.622833 
L 512.094831 482.175334 
L 516.053438 483.697468 
L 521.067673 485.59428 
L 528.193165 488.357538 
L 531.887865 489.739167 
L 536.9021 491.706232 
L 543.763685 494.399237 
L 547.722292 496.003332 
L 552.736527 497.970397 
L 559.862019 500.803907 
L 563.556719 502.267497 
L 568.570954 504.234561 
L 575.432539 506.997819 
L 579.391146 508.531661 
L 584.405381 510.416765 
L 591.530873 513.261984 
L 595.225573 514.713865 
L 600.239808 516.610678 
L 607.101393 519.373936 
L 611.06 520.907778 
" clip-path="url(#p6262d3c81a)" style="fill: none; stroke: #ff0000; stroke-width: 2; stroke-linecap: square"/>
   </g>
   <g id="line2d_74">
    <path d="M 88.26 325.852222 
L 88.26 325.852222 
L 94.857678 325.852222 
L 101.98317 325.852222 
L 105.67787 325.852222 
L 110.956012 325.852222 
L 117.817597 325.852222 
L 121.776204 325.852222 
L 126.526532 332.560824 
L 133.652024 332.560824 
L 137.082817 332.560824 
L 142.624866 339.269426 
L 149.486451 339.269426 
L 153.445058 339.269426 
L 158.195386 339.269426 
L 165.320878 345.978028 
L 169.015578 345.978028 
L 174.29372 345.978028 
L 181.155305 352.68663 
L 185.113912 352.68663 
L 189.86424 352.68663 
L 196.989732 352.68663 
L 200.684432 359.395232 
L 205.962574 359.395232 
L 212.82416 359.395232 
L 216.782766 366.103834 
L 221.533094 366.103834 
L 228.658587 366.103834 
L 232.353286 366.103834 
L 237.895336 372.812436 
L 244.756921 372.812436 
L 248.45162 372.812436 
L 253.465856 379.521038 
L 260.591348 379.521038 
L 264.02214 379.521038 
L 269.300283 379.521038 
L 276.161868 386.22964 
L 280.120475 386.22964 
L 284.870803 386.22964 
L 291.996295 392.938242 
L 295.690994 392.938242 
L 300.969137 392.938242 
L 307.830722 399.646844 
L 311.789329 399.646844 
L 316.539657 399.646844 
L 323.665149 406.355446 
L 327.359849 406.355446 
L 332.901898 406.355446 
L 339.763483 406.355446 
L 343.458183 413.064048 
L 348.472418 413.064048 
L 355.59791 413.064048 
L 359.028703 419.77265 
L 364.306845 419.77265 
L 371.16843 419.77265 
L 375.127037 419.77265 
L 379.877365 426.481253 
L 387.002857 426.481253 
L 390.697557 426.481253 
L 395.975699 433.189855 
L 402.837284 433.189855 
L 406.795891 433.189855 
L 411.546219 439.898457 
L 418.671711 439.898457 
L 422.366411 439.898457 
L 427.644553 439.898457 
L 434.506138 446.607059 
L 438.464745 446.607059 
L 443.215073 446.607059 
L 450.340565 453.315661 
L 453.771358 453.315661 
L 459.577314 453.315661 
L 466.4389 460.024263 
L 470.133599 460.024263 
L 474.883927 460.024263 
L 482.009419 466.732865 
L 485.704119 466.732865 
L 490.982261 466.732865 
L 497.843847 473.441467 
L 501.802453 473.441467 
L 506.552781 473.441467 
L 513.678274 473.441467 
L 517.372973 480.150069 
L 522.651116 480.150069 
L 529.512701 480.150069 
L 533.471307 480.150069 
L 538.221636 486.858671 
L 545.347128 486.858671 
L 549.041827 486.858671 
L 554.583877 493.567273 
L 561.445462 493.567273 
L 565.140162 493.567273 
L 569.89049 500.275875 
L 577.015982 500.275875 
L 580.710681 500.275875 
L 585.988824 506.984477 
L 592.850409 506.984477 
L 596.809016 506.984477 
L 601.559344 506.984477 
L 608.684836 513.693079 
" clip-path="url(#p6262d3c81a)" style="fill: none; stroke-dasharray: 7.4,3.2; stroke-dashoffset: 0; stroke: #000000; stroke-width: 2"/>
   </g>
   <g id="patch_9">
    <path d="M 62.12 540.413333 
L 62.12 306.346667 
" style="fill: none; stroke: #000000; stroke-width: 0.8; stroke-linejoin: miter; stroke-linecap: square"/>
   </g>
   <g id="patch_10">
    <path d="M 637.2 540.413333 
L 637.2 306.346667 
" style="fill: none; stroke: #000000; stroke-width: 0.8; stroke-linejoin: miter; stroke-linecap: square"/>
   </g>
   <g id="patch_11">
    <path d="M 62.12 540.413333 
L 637.2 540.413333 
" style="fill: none; stroke: #000000; stroke-width: 0.8; stroke-linejoin: miter; stroke-linecap: square"/>
   </g>
   <g id="patch_12">
    <path d="M 62.12 306.346667 
L 637.2 306.346667 
" style="fill: none; stroke: #000000; stroke-width: 0.8; stroke-linejoin: miter; stroke-linecap: square"/>
   </g>
   <g id="text_40">
    <!-- Arc Test: Measured vs Estimated Yaw -->
    <g transform="translate(220.367812 300.346667) scale(0.14 -0.14)">
     <use xlink:href="#DejaVuSans-41"/>
     <use xlink:href="#DejaVuSans-72" transform="translate(68.408203 0)"/>
     <use xlink:href="#DejaVuSans-63" transform="translate(107.271484 0)"/>
     <use xlink:href="#DejaVuSans-20" transform="translate(162.251953 0)"/>
     <use xlink:href="#DejaVuSans-54" transform="translate(194.039062 0)"/>
     <use xlink:href="#DejaVuSans-65" transform="translate(238.123047 0)"/>
     <use xlink:href="#DejaVuSans-73" transform="translate(299.646484 0)"/>
     <use xlink:href="#DejaVuSans-74" transform="translate(351.746094 0)"/>
     <use xlink:href="#DejaVuSans-3a" transform="translate(390.955078 0)"/>
     <use xlink:href="#DejaVuSans-20" transform="translate(424.646484 0)"/>
     <use xlink:href="#DejaVuSans-4d" transform="translate(456.433594 0)"/>
     <use xlink:href="#DejaVuSans-65" transform="translate(542.712891 0)"/>
     <use xlink:href="#DejaVuSans-61" transform="translate(604.236328 0)"/>
     <use xlink:href="#DejaVuSans-73" transform="translate(665.515625 0)"/>
     <use xlink:href="#DejaVuSans-75" transform="translate(717.615234 0)"/>
     <use xlink:href="#DejaVuSans-72" transform="translate(780.994141 0)"/>
     <use xlink:href="#DejaVuSans-65" transform="translate(819.857422 0)"/>
     <use xlink:href="#DejaVuSans-64" transform="translate(881.380859 0)"/>
     <use xlink:href="#DejaVuSans-20" transform="translate(944.857422 0)"/>
     <use xlink:href="#DejaVuSans-76" transform="translate(976.644531 0)"/>
     <use xlink:href="#DejaVuSans-73" transform="translate(1035.824219 0)"/>
     <use xlink:href="#DejaVuSans-20" transform="translate(1087.923828 0)"/>
     <use xlink:href="#DejaVuSans-45" transform="translate(1119.710938 0)"/>
     <use xlink:href="#DejaVuSans-73" transform="translate(1182.894531 0)"/>
     <use xlink:href="#DejaVuSans-74" transform="translate(1234.994141 0)"/>
     <use xlink:href="#DejaVuSans-69" transform="translate(1274.203125 0)"/>
     <use xlink:href="#DejaVuSans-6d" transform="translate(1301.986328 0)"/>
     <use xlink:href="#DejaVuSans-61" transform="translate(1399.398438 0)"/>
     <use xlink:href="#DejaVuSans-74" transform="translate(1460.677734 0)"/>
     <use xlink:href="#DejaVuSans-65" transform="translate(1499.886719 0)"/>
     <use xlink:href="#DejaVuSans-64" transform="translate(1561.410156 0)"/>
     <use xlink:href="#DejaVuSans-20" transform="translate(1624.886719 0)"/>
     <use xlink:href="#DejaVuSans-59" transform="translate(1656.673828 0)"/>
     <use xlink:href="#DejaVuSans-61" transform="translate(1704.007812 0)"/>
     <use xlink:href="#DejaVuSans-77" transform="translate(1765.287109 0)"/>
    </g>
   </g>
   <g id="legend_2">
    <g id="patch_13">
     <path d="M 525.465625 535.413333 
L 630.2 535.413333 
Q 632.2 535.413333 632.2 533.413333 
L 632.2 505.057083 
Q 632.2 503.057083 630.2 503.057083 
L 525.465625 503.057083 
Q 523.465625 503.057083 523.465625 505.057083 
L 523.465625 533.413333 
Q 523.465625 535.413333 525.465625 535.413333 
z
" style="fill: #ffffff; opacity: 0.8; stroke: #cccccc; stroke-linejoin: miter"/>
    </g>
    <g id="line2d_75">
     <path d="M 527.465625 511.155521 
L 537.465625 511.155521 
L 547.465625 511.155521 
" style="fill: none; stroke: #ff0000; stroke-width: 2; stroke-linecap: square"/>
    </g>
    <g id="text_41">
     <!-- Measured Yaw -->
     <g transform="translate(555.465625 514.655521) scale(0.1 -0.1)">
      <use xlink:href="#DejaVuSans-4d"/>
      <use xlink:href="#DejaVuSans-65" transform="translate(86.279297 0)"/>
      <use xlink:href="#DejaVuSans-61" transform="translate(147.802734 0)"/>
      <use xlink:href="#DejaVuSans-73" transform="translate(209.082031 0)"/>
      <use xlink:href="#DejaVuSans-75" transform="translate(261.181641 0)"/>
      <use xlink:href="#DejaVuSans-72" transform="translate(324.560547 0)"/>
      <use xlink:href="#DejaVuSans-65" transform="translate(363.423828 0)"/>
      <use xlink:href="#DejaVuSans-64" transform="translate(424.947266 0)"/>
      <use xlink:href="#DejaVuSans-20" transform="translate(488.423828 0)"/>
      <use xlink:href="#DejaVuSans-59" transform="translate(520.210938 0)"/>
      <use xlink:href="#DejaVuSans-61" transform="translate(567.544922 0)"/>
      <use xlink:href="#DejaVuSans-77" transform="translate(628.824219 0)"/>
     </g>
    </g>
    <g id="line2d_76">
     <path d="M 527.465625 525.833646 
L 537.465625 525.833646 
L 547.465625 525.833646 
" style="fill: none; stroke-dasharray: 7.4,3.2; stroke-dashoffset: 0; stroke: #000000; stroke-width: 2"/>
    </g>
    <g id="text_42">
     <!-- Estimated Yaw -->
     <g transform="translate(555.465625 529.333646) scale(0.1 -0.1)">
      <use xlink:href="#DejaVuSans-45"/>
      <use xlink:href="#DejaVuSans-73" transform="translate(63.183594 0)"/>
      <use xlink:href="#DejaVuSans-74" transform="translate(115.283203 0)"/>
      <use xlink:href="#DejaVuSans-69" transform="translate(154.492188 0)"/>
      <use xlink:href="#DejaVuSans-6d" transform="translate(182.275391 0)"/>
      <use xlink:href="#DejaVuSans-61" transform="translate(279.6875 0)"/>
      <use xlink:href="#DejaVuSans-74" transform="translate(340.966797 0)"/>
      <use xlink:href="#DejaVuSans-65" transform="translate(380.175781 0)"/>
      <use xlink:href="#DejaVuSans-64" transform="translate(441.699219 0)"/>
      <use xlink:href="#DejaVuSans-20" transform="translate(505.175781 0)"/>
      <use xlink:href="#DejaVuSans-59" transform="translate(536.962891 0)"/>
      <use xlink:href="#DejaVuSans-61" transform="translate(584.296875 0)"/>
      <use xlink:href="#DejaVuSans-77" transform="translate(645.576172 0)"/>
     </g>
    </g>
   </g>
  </g>
  <g id="axes_3">
   <g id="patch_14">
    <path d="M 62.12 819.16 
L 637.2 819.16 
L 637.2 585.093333 
L 62.12 585.093333 
z
" style="fill: #ffffff"/>
   </g>
   <g id="matplotlib.axis_5">
    <g id="xtick_19">
     <g id="line2d_77">
      <path d="M 88.26 819.16 
L 88.26 585.093333 
" clip-path="url(#pdf69304798)" style="fill: none; stroke-dasharray: 2.96,1.28; stroke-dashoffset: 0; stroke: #b0b0b0; stroke-opacity: 0.4; stroke-width: 0.8"/>
     </g>
     <g id="line2d_78">
      <g>
       <use xlink:href="#m8df4872a0e" x="88.26" y="819.16" style="stroke: #000000; stroke-width: 0.8"/>
      </g>
     </g>
     <g id="text_43">
      <!-- 0 -->
      <g transform="translate(85.07875 833.758438) scale(0.1 -0.1)">
       <use xlink:href="#DejaVuSans-30"/>
      </g>
     </g>
    </g>
    <g id="xtick_20">
     <g id="line2d_79">
      <path d="M 154.236779 819.16 
L 154.236779 585.093333 
" clip-path="url(#pdf69304798)" style="fill: none; stroke-dasharray: 2.96,1.28; stroke-dashoffset: 0; stroke: #b0b0b0; stroke-opacity: 0.4; stroke-width: 0.8"/>
     </g>
     <g id="line2d_80">
      <g>
       <use xlink:href="#m8df4872a0e" x="154.236779" y="819.16" style="stroke: #000000; stroke-width: 0.8"/>
      </g>
     </g>
     <g id="text_44">
      <!-- 250 -->
      <g transform="translate(144.693029 833.758438) scale(0.1 -0.1)">
       <use xlink:href="#DejaVuSans-32"/>
       <use xlink:href="#DejaVuSans-35" transform="translate(63.623047 0)"/>
       <use xlink:href="#DejaVuSans-30" transform="translate(127.246094 0)"/>
      </g>
     </g>
    </g>
    <g id="xtick_21">
     <g id="line2d_81">
      <path d="M 220.213559 819.16 
L 220.213559 585.093333 
" clip-path="url(#pdf69304798)" style="fill: none; stroke-dasharray: 2.96,1.28; stroke-dashoffset: 0; stroke: #b0b0b0; stroke-opacity: 0.4; stroke-width: 0.8"/>
     </g>
     <g id="line2d_82">
      <g>
       <use xlink:href="#m8df4872a0e" x="220.213559" y="819.16" style="stroke: #000000; stroke-width: 0.8"/>
      </g>
     </g>
     <g id="text_45">
      <!-- 500 -->
      <g transform="translate(210.669809 833.758438) scale(0.1 -0.1)">
       <use xlink:href="#DejaVuSans-35"/>
       <use xlink:href="#DejaVuSans-30" transform="translate(63.623047 0)"/>
       <use xlink:href="#DejaVuSans-30" transform="translate(127.246094 0)"/>
      </g>
     </g>
    </g>
    <g id="xtick_22">
     <g id="line2d_83">
      <path d="M 286.190338 819.16 
L 286.190338 585.093333 
" clip-path="url(#pdf69304798)" style="fill: none; stroke-dasharray: 2.96,1.28; stroke-dashoffset: 0; stroke: #b0b0b0; stroke-opacity: 0.4; stroke-width: 0.8"/>
     </g>
     <g id="line2d_84">
      <g>
       <use xlink:href="#m8df4872a0e" x="286.190338" y="819.16" style="stroke: #000000; stroke-width: 0.8"/>
      </g>
     </g>
     <g id="text_46">
      <!-- 750 -->
      <g transform="translate(276.646588 833.758438) scale(0.1 -0.1)">
       <use xlink:href="#DejaVuSans-37"/>
       <use xlink:href="#DejaVuSans-35" transform="translate(63.623047 0)"/>
       <use xlink:href="#DejaVuSans-30" transform="translate(127.246094 0)"/>
      </g>
     </g>
    </g>
    <g id="xtick_23">
     <g id="line2d_85">
      <path d="M 352.167118 819.16 
L 352.167118 585.093333 
" clip-path="url(#pdf69304798)" style="fill: none; stroke-dasharray: 2.96,1.28; stroke-dashoffset: 0; stroke: #b0b0b0; stroke-opacity: 0.4; stroke-width: 0.8"/>
     </g>
     <g id="line2d_86">
      <g>
       <use xlink:href="#m8df4872a0e" x="352.167118" y="819.16" style="stroke: #000000; stroke-width: 0.8"/>
      </g>
     </g>
     <g id="text_47">
      <!-- 1000 -->
      <g transform="translate(339.442118 833.758438) scale(0.1 -0.1)">
       <use xlink:href="#DejaVuSans-31"/>
       <use xlink:href="#DejaVuSans-30" transform="translate(63.623047 0)"/>
       <use xlink:href="#DejaVuSans-30" transform="translate(127.246094 0)"/>
       <use xlink:href="#DejaVuSans-30" transform="translate(190.869141 0)"/>
      </g>
     </g>
    </g>
    <g id="xtick_24">
     <g id="line2d_87">
      <path d="M 418.143897 819.16 
L 418.143897 585.093333 
" clip-path="url(#pdf69304798)" style="fill: none; stroke-dasharray: 2.96,1.28; stroke-dashoffset: 0; stroke: #b0b0b0; stroke-opacity: 0.4; stroke-width: 0.8"/>
     </g>
     <g id="line2d_88">
      <g>
       <use xlink:href="#m8df4872a0e" x="418.143897" y="819.16" style="stroke: #000000; stroke-width: 0.8"/>
      </g>
     </g>
     <g id="text_48">
      <!-- 1250 -->
      <g transform="translate(405.418897 833.758438) scale(0.1 -0.1)">
       <use xlink:href="#DejaVuSans-31"/>
       <use xlink:href="#DejaVuSans-32" transform="translate(63.623047 0)"/>
       <use xlink:href="#DejaVuSans-35" transform="translate(127.246094 0)"/>
       <use xlink:href="#DejaVuSans-30" transform="translate(190.869141 0)"/>
      </g>
     </g>
    </g>
    <g id="xtick_25">
     <g id="line2d_89">
      <path d="M 484.120676 819.16 
L 484.120676 585.093333 
" clip-path="url(#pdf69304798)" style="fill: none; stroke-dasharray: 2.96,1.28; stroke-dashoffset: 0; stroke: #b0b0b0; stroke-opacity: 0.4; stroke-width: 0.8"/>
     </g>
     <g id="line2d_90">
      <g>
       <use xlink:href="#m8df4872a0e" x="484.120676" y="819.16" style="stroke: #000000; stroke-width: 0.8"/>
      </g>
     </g>
     <g id="text_49">
      <!-- 1500 -->
      <g transform="translate(471.395676 833.758438) scale(0.1 -0.1)">
       <use xlink:href="#DejaVuSans-31"/>
       <use xlink:href="#DejaVuSans-35" transform="translate(63.623047 0)"/>
       <use xlink:href="#DejaVuSans-30" transform="translate(127.246094 0)"/>
       <use xlink:href="#DejaVuSans-30" transform="translate(190.869141 0)"/>
      </g>
     </g>
    </g>
    <g id="xtick_26">
     <g id="line2d_91">
      <path d="M 550.097456 819.16 
L 550.097456 585.093333 
" clip-path="url(#pdf69304798)" style="fill: none; stroke-dasharray: 2.96,1.28; stroke-dashoffset: 0; stroke: #b0b0b0; stroke-opacity: 0.4; stroke-width: 0.8"/>
     </g>
     <g id="line2d_92">
      <g>
       <use xlink:href="#m8df4872a0e" x="550.097456" y="819.16" style="stroke: #000000; stroke-width: 0.8"/>
      </g>
     </g>
     <g id="text_50">
      <!-- 1750 -->
      <g transform="translate(537.372456 833.758438) scale(0.1 -0.1)">
       <use xlink:href="#DejaVuSans-31"/>
       <use xlink:href="#DejaVuSans-37" transform="translate(63.623047 0)"/>
       <use xlink:href="#DejaVuSans-35" transform="translate(127.246094 0)"/>
       <use xlink:href="#DejaVuSans-30" transform="translate(190.869141 0)"/>
      </g>
     </g>
    </g>
    <g id="xtick_27">
     <g id="line2d_93">
      <path d="M 616.074235 819.16 
L 616.074235 585.093333 
" clip-path="url(#pdf69304798)" style="fill: none; stroke-dasharray: 2.96,1.28; stroke-dashoffset: 0; stroke: #b0b0b0; stroke-opacity: 0.4; stroke-width: 0.8"/>
     </g>
     <g id="line2d_94">
      <g>
       <use xlink:href="#m8df4872a0e" x="616.074235" y="819.16" style="stroke: #000000; stroke-width: 0.8"/>
      </g>
     </g>
     <g id="text_51">
      <!-- 2000 -->
      <g transform="translate(603.349235 833.758438) scale(0.1 -0.1)">
       <use xlink:href="#DejaVuSans-32"/>
       <use xlink:href="#DejaVuSans-30" transform="translate(63.623047 0)"/>
       <use xlink:href="#DejaVuSans-30" transform="translate(127.246094 0)"/>
       <use xlink:href="#DejaVuSans-30" transform="translate(190.869141 0)"/>
      </g>
     </g>
    </g>
    <g id="text_52">
     <!-- Time (ms) -->
     <g transform="translate(319.420937 848.95625) scale(0.12 -0.12)">
      <use xlink:href="#DejaVuSans-54"/>
      <use xlink:href="#DejaVuSans-69" transform="translate(57.958984 0)"/>
      <use xlink:href="#DejaVuSans-6d" transform="translate(85.742188 0)"/>
      <use xlink:href="#DejaVuSans-65" transform="translate(183.154297 0)"/>
      <use xlink:href="#DejaVuSans-20" transform="translate(244.677734 0)"/>
      <use xlink:href="#DejaVuSans-28" transform="translate(276.464844 0)"/>
      <use xlink:href="#DejaVuSans-6d" transform="translate(315.478516 0)"/>
      <use xlink:href="#DejaVuSans-73" transform="translate(412.890625 0)"/>
      <use xlink:href="#DejaVuSans-29" transform="translate(464.990234 0)"/>
     </g>
    </g>
   </g>
   <g id="matplotlib.axis_6">
    <g id="ytick_17">
     <g id="line2d_95">
      <path d="M 62.12 808.520606 
L 637.2 808.520606 
" clip-path="url(#pdf69304798)" style="fill: none; stroke-dasharray: 2.96,1.28; stroke-dashoffset: 0; stroke: #b0b0b0; stroke-opacity: 0.4; stroke-width: 0.8"/>
     </g>
     <g id="line2d_96">
      <g>
       <use xlink:href="#m3ce3ade8bd" x="62.12" y="808.520606" style="stroke: #000000; stroke-width: 0.8"/>
      </g>
     </g>
     <g id="text_53">
      <!-- 0 -->
      <g transform="translate(48.7575 812.319825) scale(0.1 -0.1)">
       <use xlink:href="#DejaVuSans-30"/>
      </g>
     </g>
    </g>
    <g id="ytick_18">
     <g id="line2d_97">
      <path d="M 62.12 767.036635 
L 637.2 767.036635 
" clip-path="url(#pdf69304798)" style="fill: none; stroke-dasharray: 2.96,1.28; stroke-dashoffset: 0; stroke: #b0b0b0; stroke-opacity: 0.4; stroke-width: 0.8"/>
     </g>
     <g id="line2d_98">
      <g>
       <use xlink:href="#m3ce3ade8bd" x="62.12" y="767.036635" style="stroke: #000000; stroke-width: 0.8"/>
      </g>
     </g>
     <g id="text_54">
      <!-- 100 -->
      <g transform="translate(36.0325 770.835854) scale(0.1 -0.1)">
       <use xlink:href="#DejaVuSans-31"/>
       <use xlink:href="#DejaVuSans-30" transform="translate(63.623047 0)"/>
       <use xlink:href="#DejaVuSans-30" transform="translate(127.246094 0)"/>
      </g>
     </g>
    </g>
    <g id="ytick_19">
     <g id="line2d_99">
      <path d="M 62.12 725.552665 
L 637.2 725.552665 
" clip-path="url(#pdf69304798)" style="fill: none; stroke-dasharray: 2.96,1.28; stroke-dashoffset: 0; stroke: #b0b0b0; stroke-opacity: 0.4; stroke-width: 0.8"/>
     </g>
     <g id="line2d_100">
      <g>
       <use xlink:href="#m3ce3ade8bd" x="62.12" y="725.552665" style="stroke: #000000; stroke-width: 0.8"/>
      </g>
     </g>
     <g id="text_55">
      <!-- 200 -->
      <g transform="translate(36.0325 729.351884) scale(0.1 -0.1)">
       <use xlink:href="#DejaVuSans-32"/>
       <use xlink:href="#DejaVuSans-30" transform="translate(63.623047 0)"/>
       <use xlink:href="#DejaVuSans-30" transform="translate(127.246094 0)"/>
      </g>
     </g>
    </g>
    <g id="ytick_20">
     <g id="line2d_101">
      <path d="M 62.12 684.068694 
L 637.2 684.068694 
" clip-path="url(#pdf69304798)" style="fill: none; stroke-dasharray: 2.96,1.28; stroke-dashoffset: 0; stroke: #b0b0b0; stroke-opacity: 0.4; stroke-width: 0.8"/>
     </g>
     <g id="line2d_102">
      <g>
       <use xlink:href="#m3ce3ade8bd" x="62.12" y="684.068694" style="stroke: #000000; stroke-width: 0.8"/>
      </g>
     </g>
     <g id="text_56">
      <!-- 300 -->
      <g transform="translate(36.0325 687.867913) scale(0.1 -0.1)">
       <use xlink:href="#DejaVuSans-33"/>
       <use xlink:href="#DejaVuSans-30" transform="translate(63.623047 0)"/>
       <use xlink:href="#DejaVuSans-30" transform="translate(127.246094 0)"/>
      </g>
     </g>
    </g>
    <g id="ytick_21">
     <g id="line2d_103">
      <path d="M 62.12 642.584724 
L 637.2 642.584724 
" clip-path="url(#pdf69304798)" style="fill: none; stroke-dasharray: 2.96,1.28; stroke-dashoffset: 0; stroke: #b0b0b0; stroke-opacity: 0.4; stroke-width: 0.8"/>
     </g>
     <g id="line2d_104">
      <g>
       <use xlink:href="#m3ce3ade8bd" x="62.12" y="642.584724" style="stroke: #000000; stroke-width: 0.8"/>
      </g>
     </g>
     <g id="text_57">
      <!-- 400 -->
      <g transform="translate(36.0325 646.383942) scale(0.1 -0.1)">
       <use xlink:href="#DejaVuSans-34"/>
       <use xlink:href="#DejaVuSans-30" transform="translate(63.623047 0)"/>
       <use xlink:href="#DejaVuSans-30" transform="translate(127.246094 0)"/>
      </g>
     </g>
    </g>
    <g id="ytick_22">
     <g id="line2d_105">
      <path d="M 62.12 601.100753 
L 637.2 601.100753 
" clip-path="url(#pdf69304798)" style="fill: none; stroke-dasharray: 2.96,1.28; stroke-dashoffset: 0; stroke: #b0b0b0; stroke-opacity: 0.4; stroke-width: 0.8"/>
     </g>
     <g id="line2d_106">
      <g>
       <use xlink:href="#m3ce3ade8bd" x="62.12" y="601.100753" style="stroke: #000000; stroke-width: 0.8"/>
      </g>
     </g>
     <g id="text_58">
      <!-- 500 -->
      <g transform="translate(36.0325 604.899972) scale(0.1 -0.1)">
       <use xlink:href="#DejaVuSans-35"/>
       <use xlink:href="#DejaVuSans-30" transform="translate(63.623047 0)"/>
       <use xlink:href="#DejaVuSans-30" transform="translate(127.246094 0)"/>
      </g>
     </g>
    </g>
    <g id="text_59">
     <!-- Velocity (mm/s) -->
     <g transform="translate(29.536875 749.089792) rotate(-90) scale(0.12 -0.12)">
      <defs>
       <path id="DejaVuSans-56" d="M 1831 0 
L 50 4666 
L 709 4666 
L 2188 738 
L 3669 4666 
L 4325 4666 
L 2547 0 
L 1831 0 
z
" transform="scale(0.015625)"/>
       <path id="DejaVuSans-6c" d="M 603 4863 
L 1178 4863 
L 1178 0 
L 603 0 
L 603 4863 
z
" transform="scale(0.015625)"/>
       <path id="DejaVuSans-6f" d="M 1959 3097 
Q 1497 3097 1228 2736 
Q 959 2375 959 1747 
Q 959 1119 1226 758 
Q 1494 397 1959 397 
Q 2419 397 2687 759 
Q 2956 1122 2956 1747 
Q 2956 2369 2687 2733 
Q 2419 3097 1959 3097 
z
M 1959 3584 
Q 2709 3584 3137 3096 
Q 3566 2609 3566 1747 
Q 3566 888 3137 398 
Q 2709 -91 1959 -91 
Q 1206 -91 779 398 
Q 353 888 353 1747 
Q 353 2609 779 3096 
Q 1206 3584 1959 3584 
z
" transform="scale(0.015625)"/>
       <path id="DejaVuSans-79" d="M 2059 -325 
Q 1816 -950 1584 -1140 
Q 1353 -1331 966 -1331 
L 506 -1331 
L 506 -850 
L 844 -850 
Q 1081 -850 1212 -737 
Q 1344 -625 1503 -206 
L 1606 56 
L 191 3500 
L 800 3500 
L 1894 763 
L 2988 3500 
L 3597 3500 
L 2059 -325 
z
" transform="scale(0.015625)"/>
       <path id="DejaVuSans-2f" d="M 1625 4666 
L 2156 4666 
L 531 -594 
L 0 -594 
L 1625 4666 
z
" transform="scale(0.015625)"/>
      </defs>
      <use xlink:href="#DejaVuSans-56"/>
      <use xlink:href="#DejaVuSans-65" transform="translate(60.658203 0)"/>
      <use xlink:href="#DejaVuSans-6c" transform="translate(122.181641 0)"/>
      <use xlink:href="#DejaVuSans-6f" transform="translate(149.964844 0)"/>
      <use xlink:href="#DejaVuSans-63" transform="translate(211.146484 0)"/>
      <use xlink:href="#DejaVuSans-69" transform="translate(266.126953 0)"/>
      <use xlink:href="#DejaVuSans-74" transform="translate(293.910156 0)"/>
      <use xlink:href="#DejaVuSans-79" transform="translate(333.119141 0)"/>
      <use xlink:href="#DejaVuSans-20" transform="translate(392.298828 0)"/>
      <use xlink:href="#DejaVuSans-28" transform="translate(424.085938 0)"/>
      <use xlink:href="#DejaVuSans-6d" transform="translate(463.099609 0)"/>
      <use xlink:href="#DejaVuSans-6d" transform="translate(560.511719 0)"/>
      <use xlink:href="#DejaVuSans-2f" transform="translate(657.923828 0)"/>
      <use xlink:href="#DejaVuSans-73" transform="translate(691.615234 0)"/>
      <use xlink:href="#DejaVuSans-29" transform="translate(743.714844 0)"/>
     </g>
    </g>
   </g>
   <g id="line2d_107">
    <path d="M 88.26 808.520606 
L 93.538142 772.524965 
L 100.399727 713.107474 
L 104.358334 692.792773 
L 109.372569 678.638443 
L 116.498062 662.83305 
L 119.928854 656.10435 
L 125.206996 646.646004 
L 132.068582 631.981421 
L 135.763281 628.426245 
L 141.041424 623.916937 
L 148.166916 618.26682 
L 151.861615 614.649418 
L 156.875851 614.014713 
L 163.737436 607.348239 
L 167.696042 611.791172 
L 172.710278 608.684023 
L 179.83577 604.112489 
L 183.530469 605.000246 
L 188.544705 607.032961 
L 195.40629 602.461427 
L 199.364897 598.653199 
L 204.379132 605.506351 
L 211.504624 599.731782 
L 215.199324 601.129792 
L 220.213559 603.602236 
L 227.075144 600.113435 
L 230.769844 602.71448 
L 236.047986 601.698122 
L 243.173478 604.112489 
L 246.868178 605.000246 
L 251.882413 604.303316 
L 258.743998 605.000246 
L 262.702605 598.715425 
L 267.71684 605.319673 
L 274.842332 601.955323 
L 278.537032 605.000246 
L 283.551267 600.681765 
L 290.412852 599.794008 
L 294.371459 602.461427 
L 299.385694 602.142001 
L 306.511186 601.635896 
L 310.205886 600.366487 
L 315.220121 603.730837 
L 322.081706 600.04706 
L 326.040313 602.905306 
L 331.054548 601.888949 
L 338.18004 599.225678 
L 341.87474 605.888003 
L 346.888975 600.619539 
L 353.75056 602.590028 
L 357.709167 606.779909 
L 362.723402 601.955323 
L 369.848894 604.303316 
L 373.543594 605.319673 
L 378.557829 603.983889 
L 385.419414 602.270601 
L 389.378021 602.332827 
L 394.392256 605.319673 
L 401.517749 601.826723 
L 405.212448 600.428713 
L 410.226683 600.619539 
L 417.088269 599.984834 
L 421.046875 602.967532 
L 426.061111 601.955323 
L 433.186603 599.412355 
L 436.617395 596.68271 
L 441.895538 597.130737 
L 448.757123 600.366487 
L 452.451822 598.462373 
L 457.729965 598.715425 
L 464.855457 597.130737 
L 468.550156 596.491884 
L 473.564392 600.557313 
L 480.425977 600.175661 
L 484.384584 598.715425 
L 489.398819 602.017549 
L 496.524311 599.47873 
L 500.219011 600.428713 
L 505.233246 600.938966 
L 512.094831 602.461427 
L 516.053438 597.827668 
L 521.067673 602.208375 
L 528.193165 599.412355 
L 531.887865 600.748139 
L 536.9021 600.681765 
L 543.763685 597.508241 
L 547.722292 597.889894 
L 552.736527 601.382844 
L 559.862019 599.287904 
L 563.556719 595.732727 
L 568.570954 600.810365 
L 575.432539 597.383789 
L 579.391146 602.399201 
L 584.405381 601.826723 
L 591.530873 599.47873 
L 595.225573 600.428713 
L 600.239808 603.859437 
L 607.101393 599.922608 
L 611.06 602.905306 
" clip-path="url(#pdf69304798)" style="fill: none; stroke: #ff0000; stroke-width: 2; stroke-linecap: square"/>
   </g>
   <g id="line2d_108">
    <path d="M 88.26 808.520606 
L 88.26 808.520606 
L 94.857678 804.948836 
L 101.98317 804.948836 
L 105.67787 804.948836 
L 110.956012 804.948836 
L 117.817597 804.948836 
L 121.776204 804.948836 
L 126.526532 804.948836 
L 133.652024 804.963356 
L 137.082817 804.948836 
L 142.624866 804.948836 
L 149.486451 804.963356 
L 153.445058 804.948836 
L 158.195386 804.948836 
L 165.320878 804.963356 
L 169.015578 804.948836 
L 174.29372 804.948836 
L 181.155305 804.963356 
L 185.113912 804.948836 
L 189.86424 804.948836 
L 196.989732 804.963356 
L 200.684432 804.948836 
L 205.962574 804.948836 
L 212.82416 804.963356 
L 216.782766 804.948836 
L 221.533094 804.948836 
L 228.658587 804.963356 
L 232.353286 804.948836 
L 237.895336 804.948836 
L 244.756921 804.963356 
L 248.45162 804.948836 
L 253.465856 804.948836 
L 260.591348 804.963356 
L 264.02214 804.948836 
L 269.300283 804.948836 
L 276.161868 804.963356 
L 280.120475 804.948836 
L 284.870803 804.948836 
L 291.996295 804.963356 
L 295.690994 804.948836 
L 300.969137 804.948836 
L 307.830722 804.963356 
L 311.789329 804.948836 
L 316.539657 804.948836 
L 323.665149 804.963356 
L 327.359849 804.948836 
L 332.901898 804.948836 
L 339.763483 804.963356 
L 343.458183 804.948836 
L 348.472418 804.948836 
L 355.59791 804.963356 
L 359.028703 804.948836 
L 364.306845 804.948836 
L 371.16843 804.963356 
L 375.127037 804.948836 
L 379.877365 804.948836 
L 387.002857 804.963356 
L 390.697557 804.948836 
L 395.975699 804.948836 
L 402.837284 804.963356 
L 406.795891 804.948836 
L 411.546219 804.948836 
L 418.671711 804.963356 
L 422.366411 804.948836 
L 427.644553 804.948836 
L 434.506138 804.963356 
L 438.464745 804.948836 
L 443.215073 804.948836 
L 450.340565 804.963356 
L 453.771358 804.948836 
L 459.577314 804.948836 
L 466.4389 804.963356 
L 470.133599 804.948836 
L 474.883927 804.948836 
L 482.009419 804.963356 
L 485.704119 804.948836 
L 490.982261 804.948836 
L 497.843847 804.963356 
L 501.802453 804.948836 
L 506.552781 804.948836 
L 513.678274 804.963356 
L 517.372973 804.948836 
L 522.651116 804.948836 
L 529.512701 804.963356 
L 533.471307 804.948836 
L 538.221636 804.948836 
L 545.347128 804.963356 
L 549.041827 804.948836 
L 554.583877 804.963356 
L 561.445462 804.963356 
L 565.140162 804.948836 
L 569.89049 804.948836 
L 577.015982 804.963356 
L 580.710681 804.948836 
L 585.988824 804.948836 
L 592.850409 804.963356 
L 596.809016 804.948836 
L 601.559344 804.948836 
L 608.684836 804.963356 
" clip-path="url(#pdf69304798)" style="fill: none; stroke-dasharray: 7.4,3.2; stroke-dashoffset: 0; stroke: #000000; stroke-width: 2"/>
   </g>
   <g id="patch_15">
    <path d="M 62.12 819.16 
L 62.12 585.093333 
" style="fill: none; stroke: #000000; stroke-width: 0.8; stroke-linejoin: miter; stroke-linecap: square"/>
   </g>
   <g id="patch_16">
    <path d="M 637.2 819.16 
L 637.2 585.093333 
" style="fill: none; stroke: #000000; stroke-width: 0.8; stroke-linejoin: miter; stroke-linecap: square"/>
   </g>
   <g id="patch_17">
    <path d="M 62.12 819.16 
L 637.2 819.16 
" style="fill: none; stroke: #000000; stroke-width: 0.8; stroke-linejoin: miter; stroke-linecap: square"/>
   </g>
   <g id="patch_18">
    <path d="M 62.12 585.093333 
L 637.2 585.093333 
" style="fill: none; stroke: #000000; stroke-width: 0.8; stroke-linejoin: miter; stroke-linecap: square"/>
   </g>
   <g id="text_60">
    <!-- Arc Test: Measured vs Estimated Left Wheel Velocity -->
    <g transform="translate(166.696406 579.093333) scale(0.14 -0.14)">
     <defs>
      <path id="DejaVuSans-66" d="M 2375 4863 
L 2375 4384 
L 1825 4384 
Q 1516 4384 1395 4259 
Q 1275 4134 1275 3809 
L 1275 3500 
L 2222 3500 
L 2222 3053 
L 1275 3053 
L 1275 0 
L 697 0 
L 697 3053 
L 147 3053 
L 147 3500 
L 697 3500 
L 697 3744 
Q 697 4328 969 4595 
Q 1241 4863 1831 4863 
L 2375 4863 
z
" transform="scale(0.015625)"/>
      <path id="DejaVuSans-57" d="M 213 4666 
L 850 4666 
L 1831 722 
L 2809 4666 
L 3519 4666 
L 4500 722 
L 5478 4666 
L 6119 4666 
L 4947 0 
L 4153 0 
L 3169 4050 
L 2175 0 
L 1381 0 
L 213 4666 
z
" transform="scale(0.015625)"/>
     </defs>
     <use xlink:href="#DejaVuSans-41"/>
     <use xlink:href="#DejaVuSans-72" transform="translate(68.408203 0)"/>
     <use xlink:href="#DejaVuSans-63" transform="translate(107.271484 0)"/>
     <use xlink:href="#DejaVuSans-20" transform="translate(162.251953 0)"/>
     <use xlink:href="#DejaVuSans-54" transform="translate(194.039062 0)"/>
     <use xlink:href="#DejaVuSans-65" transform="translate(238.123047 0)"/>
     <use xlink:href="#DejaVuSans-73" transform="translate(299.646484 0)"/>
     <use xlink:href="#DejaVuSans-74" transform="translate(351.746094 0)"/>
     <use xlink:href="#DejaVuSans-3a" transform="translate(390.955078 0)"/>
     <use xlink:href="#DejaVuSans-20" transform="translate(424.646484 0)"/>
     <use xlink:href="#DejaVuSans-4d" transform="translate(456.433594 0)"/>
     <use xlink:href="#DejaVuSans-65" transform="translate(542.712891 0)"/>
     <use xlink:href="#DejaVuSans-61" transform="translate(604.236328 0)"/>
     <use xlink:href="#DejaVuSans-73" transform="translate(665.515625 0)"/>
     <use xlink:href="#DejaVuSans-75" transform="translate(717.615234 0)"/>
     <use xlink:href="#DejaVuSans-72" transform="translate(780.994141 0)"/>
     <use xlink:href="#DejaVuSans-65" transform="translate(819.857422 0)"/>
     <use xlink:href="#DejaVuSans-64" transform="translate(881.380859 0)"/>
     <use xlink:href="#DejaVuSans-20" transform="translate(944.857422 0)"/>
     <use xlink:href="#DejaVuSans-76" transform="translate(976.644531 0)"/>
     <use xlink:href="#DejaVuSans-73" transform="translate(1035.824219 0)"/>
     <use xlink:href="#DejaVuSans-20" transform="translate(1087.923828 0)"/>
     <use xlink:href="#DejaVuSans-45" transform="translate(1119.710938 0)"/>
     <use xlink:href="#DejaVuSans-73" transform="translate(1182.894531 0)"/>
     <use xlink:href="#DejaVuSans-74" transform="translate(1234.994141 0)"/>
     <use xlink:href="#DejaVuSans-69" transform="translate(1274.203125 0)"/>
     <use xlink:href="#DejaVuSans-6d" transform="translate(1301.986328 0)"/>
     <use xlink:href="#DejaVuSans-61" transform="translate(1399.398438 0)"/>
     <use xlink:href="#DejaVuSans-74" transform="translate(1460.677734 0)"/>
     <use xlink:href="#DejaVuSans-65" transform="translate(1499.886719 0)"/>
     <use xlink:href="#DejaVuSans-64" transform="translate(1561.410156 0)"/>
     <use xlink:href="#DejaVuSans-20" transform="translate(1624.886719 0)"/>
     <use xlink:href="#DejaVuSans-4c" transform="translate(1656.673828 0)"/>
     <use xlink:href="#DejaVuSans-65" transform="translate(1710.636719 0)"/>
     <use xlink:href="#DejaVuSans-66" transform="translate(1772.160156 0)"/>
     <use xlink:href="#DejaVuSans-74" transform="translate(1805.615234 0)"/>
     <use xlink:href="#DejaVuSans-20" transform="translate(1844.824219 0)"/>
     <use xlink:href="#DejaVuSans-57" transform="translate(1876.611328 0)"/>
     <use xlink:href="#DejaVuSans-68" transform="translate(1975.488281 0)"/>
     <use xlink:href="#DejaVuSans-65" transform="translate(2038.867188 0)"/>
     <use xlink:href="#DejaVuSans-65" transform="translate(2100.390625 0)"/>
     <use xlink:href="#DejaVuSans-6c" transform="translate(2161.914062 0)"/>
     <use xlink:href="#DejaVuSans-20" transform="translate(2189.697266 0)"/>
     <use xlink:href="#DejaVuSans-56" transform="translate(2221.484375 0)"/>
     <use xlink:href="#DejaVuSans-65" transform="translate(2282.142578 0)"/>
     <use xlink:href="#DejaVuSans-6c" transform="translate(2343.666016 0)"/>
     <use xlink:href="#DejaVuSans-6f" transform="translate(2371.449219 0)"/>
     <use xlink:href="#DejaVuSans-63" transform="translate(2432.630859 0)"/>
     <use xlink:href="#DejaVuSans-69" transform="translate(2487.611328 0)"/>
     <use xlink:href="#DejaVuSans-74" transform="translate(2515.394531 0)"/>
     <use xlink:href="#DejaVuSans-79" transform="translate(2554.603516 0)"/>
    </g>
   </g>
   <g id="legend_3">
    <g id="patch_19">
     <path d="M 483.279687 814.16 
L 630.2 814.16 
Q 632.2 814.16 632.2 812.16 
L 632.2 783.80375 
Q 632.2 781.80375 630.2 781.80375 
L 483.279687 781.80375 
Q 481.279687 781.80375 481.279687 783.80375 
L 481.279687 812.16 
Q 481.279687 814.16 483.279687 814.16 
z
" style="fill: #ffffff; opacity: 0.8; stroke: #cccccc; stroke-linejoin: miter"/>
    </g>
    <g id="line2d_109">
     <path d="M 485.279687 789.902187 
L 495.279687 789.902187 
L 505.279687 789.902187 
" style="fill: none; stroke: #ff0000; stroke-width: 2; stroke-linecap: square"/>
    </g>
    <g id="text_61">
     <!-- Measured Left Velocity -->
     <g transform="translate(513.279687 793.402187) scale(0.1 -0.1)">
      <use xlink:href="#DejaVuSans-4d"/>
      <use xlink:href="#DejaVuSans-65" transform="translate(86.279297 0)"/>
      <use xlink:href="#DejaVuSans-61" transform="translate(147.802734 0)"/>
      <use xlink:href="#DejaVuSans-73" transform="translate(209.082031 0)"/>
      <use xlink:href="#DejaVuSans-75" transform="translate(261.181641 0)"/>
      <use xlink:href="#DejaVuSans-72" transform="translate(324.560547 0)"/>
      <use xlink:href="#DejaVuSans-65" transform="translate(363.423828 0)"/>
      <use xlink:href="#DejaVuSans-64" transform="translate(424.947266 0)"/>
      <use xlink:href="#DejaVuSans-20" transform="translate(488.423828 0)"/>
      <use xlink:href="#DejaVuSans-4c" transform="translate(520.210938 0)"/>
      <use xlink:href="#DejaVuSans-65" transform="translate(574.173828 0)"/>
      <use xlink:href="#DejaVuSans-66" transform="translate(635.697266 0)"/>
      <use xlink:href="#DejaVuSans-74" transform="translate(669.152344 0)"/>
      <use xlink:href="#DejaVuSans-20" transform="translate(708.361328 0)"/>
      <use xlink:href="#DejaVuSans-56" transform="translate(740.148438 0)"/>
      <use xlink:href="#DejaVuSans-65" transform="translate(800.806641 0)"/>
      <use xlink:href="#DejaVuSans-6c" transform="translate(862.330078 0)"/>
      <use xlink:href="#DejaVuSans-6f" transform="translate(890.113281 0)"/>
      <use xlink:href="#DejaVuSans-63" transform="translate(951.294922 0)"/>
      <use xlink:href="#DejaVuSans-69" transform="translate(1006.275391 0)"/>
      <use xlink:href="#DejaVuSans-74" transform="translate(1034.058594 0)"/>
      <use xlink:href="#DejaVuSans-79" transform="translate(1073.267578 0)"/>
     </g>
    </g>
    <g id="line2d_110">
     <path d="M 485.279687 804.580312 
L 495.279687 804.580312 
L 505.279687 804.580312 
" style="fill: none; stroke-dasharray: 7.4,3.2; stroke-dashoffset: 0; stroke: #000000; stroke-width: 2"/>
    </g>
    <g id="text_62">
     <!-- Estimated Left Velocity -->
     <g transform="translate(513.279687 808.080312) scale(0.1 -0.1)">
      <use xlink:href="#DejaVuSans-45"/>
      <use xlink:href="#DejaVuSans-73" transform="translate(63.183594 0)"/>
      <use xlink:href="#DejaVuSans-74" transform="translate(115.283203 0)"/>
      <use xlink:href="#DejaVuSans-69" transform="translate(154.492188 0)"/>
      <use xlink:href="#DejaVuSans-6d" transform="translate(182.275391 0)"/>
      <use xlink:href="#DejaVuSans-61" transform="translate(279.6875 0)"/>
      <use xlink:href="#DejaVuSans-74" transform="translate(340.966797 0)"/>
      <use xlink:href="#DejaVuSans-65" transform="translate(380.175781 0)"/>
      <use xlink:href="#DejaVuSans-64" transform="translate(441.699219 0)"/>
      <use xlink:href="#DejaVuSans-20" transform="translate(505.175781 0)"/>
      <use xlink:href="#DejaVuSans-4c" transform="translate(536.962891 0)"/>
      <use xlink:href="#DejaVuSans-65" transform="translate(590.925781 0)"/>
      <use xlink:href="#DejaVuSans-66" transform="translate(652.449219 0)"/>
      <use xlink:href="#DejaVuSans-74" transform="translate(685.904297 0)"/>
      <use xlink:href="#DejaVuSans-20" transform="translate(725.113281 0)"/>
      <use xlink:href="#DejaVuSans-56" transform="translate(756.900391 0)"/>
      <use xlink:href="#DejaVuSans-65" transform="translate(817.558594 0)"/>
      <use xlink:href="#DejaVuSans-6c" transform="translate(879.082031 0)"/>
      <use xlink:href="#DejaVuSans-6f" transform="translate(906.865234 0)"/>
      <use xlink:href="#DejaVuSans-63" transform="translate(968.046875 0)"/>
      <use xlink:href="#DejaVuSans-69" transform="translate(1023.027344 0)"/>
      <use xlink:href="#DejaVuSans-74" transform="translate(1050.810547 0)"/>
      <use xlink:href="#DejaVuSans-79" transform="translate(1090.019531 0)"/>
     </g>
    </g>
   </g>
  </g>
 </g>
 <defs>
  <clipPath id="p9f746561b9">
   <rect x="62.12" y="27.6" width="575.08" height="234.066667"/>
  </clipPath>
  <clipPath id="p6262d3c81a">
   <rect x="62.12" y="306.346667" width="575.08" height="234.066667"/>
  </clipPath>
  <clipPath id="pdf69304798">
   <rect x="62.12" y="585.093333" width="575.08" height="234.066667"/>
  </clipPath>
 </defs>
</svg>
