<?xml version="1.0" encoding="utf-8" standalone="no"?>
<!DOCTYPE svg PUBLIC "-//W3C//DTD SVG 1.1//EN"
  "http://www.w3.org/Graphics/SVG/1.1/DTD/svg11.dtd">
<svg xmlns:xlink="http://www.w3.org/1999/xlink" width="648pt" height="864pt" viewBox="0 0 648 864" xmlns="http://www.w3.org/2000/svg" version="1.1">
 <metadata>
  <rdf:RDF xmlns:dc="http://purl.org/dc/elements/1.1/" xmlns:cc="http://creativecommons.org/ns#" xmlns:rdf="http://www.w3.org/1999/02/22-rdf-syntax-ns#">
   <cc:Work>
    <dc:type rdf:resource="http://purl.org/dc/dcmitype/StillImage"/>
    <dc:date>2025-11-30T23:18:38.247994</dc:date>
    <dc:format>image/svg+xml</dc:format>
    <dc:creator>
     <cc:Agent>
      <dc:title>Matplotlib v3.10.7, https://matplotlib.org/</dc:title>
     </cc:Agent>
    </dc:creator>
   </cc:Work>
  </rdf:RDF>
 </metadata>
 <defs>
  <style type="text/css">*{stroke-linejoin: round; stroke-linecap: butt}</style>
 </defs>
 <g id="figure_1">
  <g id="patch_1">
   <path d="M 0 864 
L 648 864 
L 648 0 
L 0 0 
z
" style="fill: #ffffff"/>
  </g>
  <g id="axes_1">
   <g id="patch_2">
    <path d="M 55.82 261.666667 
L 637.2 261.666667 
L 637.2 27.6 
L 55.82 27.6 
z
" style="fill: #ffffff"/>
   </g>
   <g id="matplotlib.axis_1">
    <g id="xtick_1">
     <g id="line2d_1">
      <path d="M 84.372165 261.666667 
L 84.372165 27.6 
" clip-path="url(#p0364699d3c)" style="fill: none; stroke-dasharray: 2.96,1.28; stroke-dashoffset: 0; stroke: #b0b0b0; stroke-opacity: 0.4; stroke-width: 0.8"/>
     </g>
     <g id="line2d_2">
      <defs>
       <path id="me18df6590a" d="M 0 0 
L 0 3.5 
" style="stroke: #000000; stroke-width: 0.8"/>
      </defs>
      <g>
       <use xlink:href="#me18df6590a" x="84.372165" y="261.666667" style="stroke: #000000; stroke-width: 0.8"/>
      </g>
     </g>
     <g id="text_1">
      <!-- 0 -->
      <g transform="translate(81.190915 276.265104) scale(0.1 -0.1)">
       <defs>
        <path id="DejaVuSans-30" d="M 2034 4250 
Q 1547 4250 1301 3770 
Q 1056 3291 1056 2328 
Q 1056 1369 1301 889 
Q 1547 409 2034 409 
Q 2525 409 2770 889 
Q 3016 1369 3016 2328 
Q 3016 3291 2770 3770 
Q 2525 4250 2034 4250 
z
M 2034 4750 
Q 2819 4750 3233 4129 
Q 3647 3509 3647 2328 
Q 3647 1150 3233 529 
Q 2819 -91 2034 -91 
Q 1250 -91 836 529 
Q 422 1150 422 2328 
Q 422 3509 836 4129 
Q 1250 4750 2034 4750 
z
" transform="scale(0.015625)"/>
       </defs>
       <use xlink:href="#DejaVuSans-30"/>
      </g>
     </g>
    </g>
    <g id="xtick_2">
     <g id="line2d_3">
      <path d="M 150.803446 261.666667 
L 150.803446 27.6 
" clip-path="url(#p0364699d3c)" style="fill: none; stroke-dasharray: 2.96,1.28; stroke-dashoffset: 0; stroke: #b0b0b0; stroke-opacity: 0.4; stroke-width: 0.8"/>
     </g>
     <g id="line2d_4">
      <g>
       <use xlink:href="#me18df6590a" x="150.803446" y="261.666667" style="stroke: #000000; stroke-width: 0.8"/>
      </g>
     </g>
     <g id="text_2">
      <!-- 250 -->
      <g transform="translate(141.259696 276.265104) scale(0.1 -0.1)">
       <defs>
        <path id="DejaVuSans-32" d="M 1228 531 
L 3431 531 
L 3431 0 
L 469 0 
L 469 531 
Q 828 903 1448 1529 
Q 2069 2156 2228 2338 
Q 2531 2678 2651 2914 
Q 2772 3150 2772 3378 
Q 2772 3750 2511 3984 
Q 2250 4219 1831 4219 
Q 1534 4219 1204 4116 
Q 875 4013 500 3803 
L 500 4441 
Q 881 4594 1212 4672 
Q 1544 4750 1819 4750 
Q 2544 4750 2975 4387 
Q 3406 4025 3406 3419 
Q 3406 3131 3298 2873 
Q 3191 2616 2906 2266 
Q 2828 2175 2409 1742 
Q 1991 1309 1228 531 
z
" transform="scale(0.015625)"/>
        <path id="DejaVuSans-35" d="M 691 4666 
L 3169 4666 
L 3169 4134 
L 1269 4134 
L 1269 2991 
Q 1406 3038 1543 3061 
Q 1681 3084 1819 3084 
Q 2600 3084 3056 2656 
Q 3513 2228 3513 1497 
Q 3513 744 3044 326 
Q 2575 -91 1722 -91 
Q 1428 -91 1123 -41 
Q 819 9 494 109 
L 494 744 
Q 775 591 1075 516 
Q 1375 441 1709 441 
Q 2250 441 2565 725 
Q 2881 1009 2881 1497 
Q 2881 1984 2565 2268 
Q 2250 2553 1709 2553 
Q 1456 2553 1204 2497 
Q 953 2441 691 2322 
L 691 4666 
z
" transform="scale(0.015625)"/>
       </defs>
       <use xlink:href="#DejaVuSans-32"/>
       <use xlink:href="#DejaVuSans-35" transform="translate(63.623047 0)"/>
       <use xlink:href="#DejaVuSans-30" transform="translate(127.246094 0)"/>
      </g>
     </g>
    </g>
    <g id="xtick_3">
     <g id="line2d_5">
      <path d="M 217.234727 261.666667 
L 217.234727 27.6 
" clip-path="url(#p0364699d3c)" style="fill: none; stroke-dasharray: 2.96,1.28; stroke-dashoffset: 0; stroke: #b0b0b0; stroke-opacity: 0.4; stroke-width: 0.8"/>
     </g>
     <g id="line2d_6">
      <g>
       <use xlink:href="#me18df6590a" x="217.234727" y="261.666667" style="stroke: #000000; stroke-width: 0.8"/>
      </g>
     </g>
     <g id="text_3">
      <!-- 500 -->
      <g transform="translate(207.690977 276.265104) scale(0.1 -0.1)">
       <use xlink:href="#DejaVuSans-35"/>
       <use xlink:href="#DejaVuSans-30" transform="translate(63.623047 0)"/>
       <use xlink:href="#DejaVuSans-30" transform="translate(127.246094 0)"/>
      </g>
     </g>
    </g>
    <g id="xtick_4">
     <g id="line2d_7">
      <path d="M 283.666008 261.666667 
L 283.666008 27.6 
" clip-path="url(#p0364699d3c)" style="fill: none; stroke-dasharray: 2.96,1.28; stroke-dashoffset: 0; stroke: #b0b0b0; stroke-opacity: 0.4; stroke-width: 0.8"/>
     </g>
     <g id="line2d_8">
      <g>
       <use xlink:href="#me18df6590a" x="283.666008" y="261.666667" style="stroke: #000000; stroke-width: 0.8"/>
      </g>
     </g>
     <g id="text_4">
      <!-- 750 -->
      <g transform="translate(274.122258 276.265104) scale(0.1 -0.1)">
       <defs>
        <path id="DejaVuSans-37" d="M 525 4666 
L 3525 4666 
L 3525 4397 
L 1831 0 
L 1172 0 
L 2766 4134 
L 525 4134 
L 525 4666 
z
" transform="scale(0.015625)"/>
       </defs>
       <use xlink:href="#DejaVuSans-37"/>
       <use xlink:href="#DejaVuSans-35" transform="translate(63.623047 0)"/>
       <use xlink:href="#DejaVuSans-30" transform="translate(127.246094 0)"/>
      </g>
     </g>
    </g>
    <g id="xtick_5">
     <g id="line2d_9">
      <path d="M 350.097289 261.666667 
L 350.097289 27.6 
" clip-path="url(#p0364699d3c)" style="fill: none; stroke-dasharray: 2.96,1.28; stroke-dashoffset: 0; stroke: #b0b0b0; stroke-opacity: 0.4; stroke-width: 0.8"/>
     </g>
     <g id="line2d_10">
      <g>
       <use xlink:href="#me18df6590a" x="350.097289" y="261.666667" style="stroke: #000000; stroke-width: 0.8"/>
      </g>
     </g>
     <g id="text_5">
      <!-- 1000 -->
      <g transform="translate(337.372289 276.265104) scale(0.1 -0.1)">
       <defs>
        <path id="DejaVuSans-31" d="M 794 531 
L 1825 531 
L 1825 4091 
L 703 3866 
L 703 4441 
L 1819 4666 
L 2450 4666 
L 2450 531 
L 3481 531 
L 3481 0 
L 794 0 
L 794 531 
z
" transform="scale(0.015625)"/>
       </defs>
       <use xlink:href="#DejaVuSans-31"/>
       <use xlink:href="#DejaVuSans-30" transform="translate(63.623047 0)"/>
       <use xlink:href="#DejaVuSans-30" transform="translate(127.246094 0)"/>
       <use xlink:href="#DejaVuSans-30" transform="translate(190.869141 0)"/>
      </g>
     </g>
    </g>
    <g id="xtick_6">
     <g id="line2d_11">
      <path d="M 416.52857 261.666667 
L 416.52857 27.6 
" clip-path="url(#p0364699d3c)" style="fill: none; stroke-dasharray: 2.96,1.28; stroke-dashoffset: 0; stroke: #b0b0b0; stroke-opacity: 0.4; stroke-width: 0.8"/>
     </g>
     <g id="line2d_12">
      <g>
       <use xlink:href="#me18df6590a" x="416.52857" y="261.666667" style="stroke: #000000; stroke-width: 0.8"/>
      </g>
     </g>
     <g id="text_6">
      <!-- 1250 -->
      <g transform="translate(403.80357 276.265104) scale(0.1 -0.1)">
       <use xlink:href="#DejaVuSans-31"/>
       <use xlink:href="#DejaVuSans-32" transform="translate(63.623047 0)"/>
       <use xlink:href="#DejaVuSans-35" transform="translate(127.246094 0)"/>
       <use xlink:href="#DejaVuSans-30" transform="translate(190.869141 0)"/>
      </g>
     </g>
    </g>
    <g id="xtick_7">
     <g id="line2d_13">
      <path d="M 482.959851 261.666667 
L 482.959851 27.6 
" clip-path="url(#p0364699d3c)" style="fill: none; stroke-dasharray: 2.96,1.28; stroke-dashoffset: 0; stroke: #b0b0b0; stroke-opacity: 0.4; stroke-width: 0.8"/>
     </g>
     <g id="line2d_14">
      <g>
       <use xlink:href="#me18df6590a" x="482.959851" y="261.666667" style="stroke: #000000; stroke-width: 0.8"/>
      </g>
     </g>
     <g id="text_7">
      <!-- 1500 -->
      <g transform="translate(470.234851 276.265104) scale(0.1 -0.1)">
       <use xlink:href="#DejaVuSans-31"/>
       <use xlink:href="#DejaVuSans-35" transform="translate(63.623047 0)"/>
       <use xlink:href="#DejaVuSans-30" transform="translate(127.246094 0)"/>
       <use xlink:href="#DejaVuSans-30" transform="translate(190.869141 0)"/>
      </g>
     </g>
    </g>
    <g id="xtick_8">
     <g id="line2d_15">
      <path d="M 549.391133 261.666667 
L 549.391133 27.6 
" clip-path="url(#p0364699d3c)" style="fill: none; stroke-dasharray: 2.96,1.28; stroke-dashoffset: 0; stroke: #b0b0b0; stroke-opacity: 0.4; stroke-width: 0.8"/>
     </g>
     <g id="line2d_16">
      <g>
       <use xlink:href="#me18df6590a" x="549.391133" y="261.666667" style="stroke: #000000; stroke-width: 0.8"/>
      </g>
     </g>
     <g id="text_8">
      <!-- 1750 -->
      <g transform="translate(536.666133 276.265104) scale(0.1 -0.1)">
       <use xlink:href="#DejaVuSans-31"/>
       <use xlink:href="#DejaVuSans-37" transform="translate(63.623047 0)"/>
       <use xlink:href="#DejaVuSans-35" transform="translate(127.246094 0)"/>
       <use xlink:href="#DejaVuSans-30" transform="translate(190.869141 0)"/>
      </g>
     </g>
    </g>
    <g id="xtick_9">
     <g id="line2d_17">
      <path d="M 615.822414 261.666667 
L 615.822414 27.6 
" clip-path="url(#p0364699d3c)" style="fill: none; stroke-dasharray: 2.96,1.28; stroke-dashoffset: 0; stroke: #b0b0b0; stroke-opacity: 0.4; stroke-width: 0.8"/>
     </g>
     <g id="line2d_18">
      <g>
       <use xlink:href="#me18df6590a" x="615.822414" y="261.666667" style="stroke: #000000; stroke-width: 0.8"/>
      </g>
     </g>
     <g id="text_9">
      <!-- 2000 -->
      <g transform="translate(603.097414 276.265104) scale(0.1 -0.1)">
       <use xlink:href="#DejaVuSans-32"/>
       <use xlink:href="#DejaVuSans-30" transform="translate(63.623047 0)"/>
       <use xlink:href="#DejaVuSans-30" transform="translate(127.246094 0)"/>
       <use xlink:href="#DejaVuSans-30" transform="translate(190.869141 0)"/>
      </g>
     </g>
    </g>
   </g>
   <g id="matplotlib.axis_2">
    <g id="ytick_1">
     <g id="line2d_19">
      <path d="M 55.82 251.027273 
L 637.2 251.027273 
" clip-path="url(#p0364699d3c)" style="fill: none; stroke-dasharray: 2.96,1.28; stroke-dashoffset: 0; stroke: #b0b0b0; stroke-opacity: 0.4; stroke-width: 0.8"/>
     </g>
     <g id="line2d_20">
      <defs>
       <path id="m6d4beedd31" d="M 0 0 
L -3.5 0 
" style="stroke: #000000; stroke-width: 0.8"/>
      </defs>
      <g>
       <use xlink:href="#m6d4beedd31" x="55.82" y="251.027273" style="stroke: #000000; stroke-width: 0.8"/>
      </g>
     </g>
     <g id="text_10">
      <!-- 0 -->
      <g transform="translate(42.4575 254.826491) scale(0.1 -0.1)">
       <use xlink:href="#DejaVuSans-30"/>
      </g>
     </g>
    </g>
    <g id="ytick_2">
     <g id="line2d_21">
      <path d="M 55.82 205.599575 
L 637.2 205.599575 
" clip-path="url(#p0364699d3c)" style="fill: none; stroke-dasharray: 2.96,1.28; stroke-dashoffset: 0; stroke: #b0b0b0; stroke-opacity: 0.4; stroke-width: 0.8"/>
     </g>
     <g id="line2d_22">
      <g>
       <use xlink:href="#m6d4beedd31" x="55.82" y="205.599575" style="stroke: #000000; stroke-width: 0.8"/>
      </g>
     </g>
     <g id="text_11">
      <!-- 200 -->
      <g transform="translate(29.7325 209.398794) scale(0.1 -0.1)">
       <use xlink:href="#DejaVuSans-32"/>
       <use xlink:href="#DejaVuSans-30" transform="translate(63.623047 0)"/>
       <use xlink:href="#DejaVuSans-30" transform="translate(127.246094 0)"/>
      </g>
     </g>
    </g>
    <g id="ytick_3">
     <g id="line2d_23">
      <path d="M 55.82 160.171877 
L 637.2 160.171877 
" clip-path="url(#p0364699d3c)" style="fill: none; stroke-dasharray: 2.96,1.28; stroke-dashoffset: 0; stroke: #b0b0b0; stroke-opacity: 0.4; stroke-width: 0.8"/>
     </g>
     <g id="line2d_24">
      <g>
       <use xlink:href="#m6d4beedd31" x="55.82" y="160.171877" style="stroke: #000000; stroke-width: 0.8"/>
      </g>
     </g>
     <g id="text_12">
      <!-- 400 -->
      <g transform="translate(29.7325 163.971096) scale(0.1 -0.1)">
       <defs>
        <path id="DejaVuSans-34" d="M 2419 4116 
L 825 1625 
L 2419 1625 
L 2419 4116 
z
M 2253 4666 
L 3047 4666 
L 3047 1625 
L 3713 1625 
L 3713 1100 
L 3047 1100 
L 3047 0 
L 2419 0 
L 2419 1100 
L 313 1100 
L 313 1709 
L 2253 4666 
z
" transform="scale(0.015625)"/>
       </defs>
       <use xlink:href="#DejaVuSans-34"/>
       <use xlink:href="#DejaVuSans-30" transform="translate(63.623047 0)"/>
       <use xlink:href="#DejaVuSans-30" transform="translate(127.246094 0)"/>
      </g>
     </g>
    </g>
    <g id="ytick_4">
     <g id="line2d_25">
      <path d="M 55.82 114.74418 
L 637.2 114.74418 
" clip-path="url(#p0364699d3c)" style="fill: none; stroke-dasharray: 2.96,1.28; stroke-dashoffset: 0; stroke: #b0b0b0; stroke-opacity: 0.4; stroke-width: 0.8"/>
     </g>
     <g id="line2d_26">
      <g>
       <use xlink:href="#m6d4beedd31" x="55.82" y="114.74418" style="stroke: #000000; stroke-width: 0.8"/>
      </g>
     </g>
     <g id="text_13">
      <!-- 600 -->
      <g transform="translate(29.7325 118.543398) scale(0.1 -0.1)">
       <defs>
        <path id="DejaVuSans-36" d="M 2113 2584 
Q 1688 2584 1439 2293 
Q 1191 2003 1191 1497 
Q 1191 994 1439 701 
Q 1688 409 2113 409 
Q 2538 409 2786 701 
Q 3034 994 3034 1497 
Q 3034 2003 2786 2293 
Q 2538 2584 2113 2584 
z
M 3366 4563 
L 3366 3988 
Q 3128 4100 2886 4159 
Q 2644 4219 2406 4219 
Q 1781 4219 1451 3797 
Q 1122 3375 1075 2522 
Q 1259 2794 1537 2939 
Q 1816 3084 2150 3084 
Q 2853 3084 3261 2657 
Q 3669 2231 3669 1497 
Q 3669 778 3244 343 
Q 2819 -91 2113 -91 
Q 1303 -91 875 529 
Q 447 1150 447 2328 
Q 447 3434 972 4092 
Q 1497 4750 2381 4750 
Q 2619 4750 2861 4703 
Q 3103 4656 3366 4563 
z
" transform="scale(0.015625)"/>
       </defs>
       <use xlink:href="#DejaVuSans-36"/>
       <use xlink:href="#DejaVuSans-30" transform="translate(63.623047 0)"/>
       <use xlink:href="#DejaVuSans-30" transform="translate(127.246094 0)"/>
      </g>
     </g>
    </g>
    <g id="ytick_5">
     <g id="line2d_27">
      <path d="M 55.82 69.316482 
L 637.2 69.316482 
" clip-path="url(#p0364699d3c)" style="fill: none; stroke-dasharray: 2.96,1.28; stroke-dashoffset: 0; stroke: #b0b0b0; stroke-opacity: 0.4; stroke-width: 0.8"/>
     </g>
     <g id="line2d_28">
      <g>
       <use xlink:href="#m6d4beedd31" x="55.82" y="69.316482" style="stroke: #000000; stroke-width: 0.8"/>
      </g>
     </g>
     <g id="text_14">
      <!-- 800 -->
      <g transform="translate(29.7325 73.115701) scale(0.1 -0.1)">
       <defs>
        <path id="DejaVuSans-38" d="M 2034 2216 
Q 1584 2216 1326 1975 
Q 1069 1734 1069 1313 
Q 1069 891 1326 650 
Q 1584 409 2034 409 
Q 2484 409 2743 651 
Q 3003 894 3003 1313 
Q 3003 1734 2745 1975 
Q 2488 2216 2034 2216 
z
M 1403 2484 
Q 997 2584 770 2862 
Q 544 3141 544 3541 
Q 544 4100 942 4425 
Q 1341 4750 2034 4750 
Q 2731 4750 3128 4425 
Q 3525 4100 3525 3541 
Q 3525 3141 3298 2862 
Q 3072 2584 2669 2484 
Q 3125 2378 3379 2068 
Q 3634 1759 3634 1313 
Q 3634 634 3220 271 
Q 2806 -91 2034 -91 
Q 1263 -91 848 271 
Q 434 634 434 1313 
Q 434 1759 690 2068 
Q 947 2378 1403 2484 
z
M 1172 3481 
Q 1172 3119 1398 2916 
Q 1625 2713 2034 2713 
Q 2441 2713 2670 2916 
Q 2900 3119 2900 3481 
Q 2900 3844 2670 4047 
Q 2441 4250 2034 4250 
Q 1625 4250 1398 4047 
Q 1172 3844 1172 3481 
z
" transform="scale(0.015625)"/>
       </defs>
       <use xlink:href="#DejaVuSans-38"/>
       <use xlink:href="#DejaVuSans-30" transform="translate(63.623047 0)"/>
       <use xlink:href="#DejaVuSans-30" transform="translate(127.246094 0)"/>
      </g>
     </g>
    </g>
    <g id="text_15">
     <!-- Arc Length (mm) -->
     <g transform="translate(23.236875 195.248958) rotate(-90) scale(0.12 -0.12)">
      <defs>
       <path id="DejaVuSans-41" d="M 2188 4044 
L 1331 1722 
L 3047 1722 
L 2188 4044 
z
M 1831 4666 
L 2547 4666 
L 4325 0 
L 3669 0 
L 3244 1197 
L 1141 1197 
L 716 0 
L 50 0 
L 1831 4666 
z
" transform="scale(0.015625)"/>
       <path id="DejaVuSans-72" d="M 2631 2963 
Q 2534 3019 2420 3045 
Q 2306 3072 2169 3072 
Q 1681 3072 1420 2755 
Q 1159 2438 1159 1844 
L 1159 0 
L 581 0 
L 581 3500 
L 1159 3500 
L 1159 2956 
Q 1341 3275 1631 3429 
Q 1922 3584 2338 3584 
Q 2397 3584 2469 3576 
Q 2541 3569 2628 3553 
L 2631 2963 
z
" transform="scale(0.015625)"/>
       <path id="DejaVuSans-63" d="M 3122 3366 
L 3122 2828 
Q 2878 2963 2633 3030 
Q 2388 3097 2138 3097 
Q 1578 3097 1268 2742 
Q 959 2388 959 1747 
Q 959 1106 1268 751 
Q 1578 397 2138 397 
Q 2388 397 2633 464 
Q 2878 531 3122 666 
L 3122 134 
Q 2881 22 2623 -34 
Q 2366 -91 2075 -91 
Q 1284 -91 818 406 
Q 353 903 353 1747 
Q 353 2603 823 3093 
Q 1294 3584 2113 3584 
Q 2378 3584 2631 3529 
Q 2884 3475 3122 3366 
z
" transform="scale(0.015625)"/>
       <path id="DejaVuSans-20" transform="scale(0.015625)"/>
       <path id="DejaVuSans-4c" d="M 628 4666 
L 1259 4666 
L 1259 531 
L 3531 531 
L 3531 0 
L 628 0 
L 628 4666 
z
" transform="scale(0.015625)"/>
       <path id="DejaVuSans-65" d="M 3597 1894 
L 3597 1613 
L 953 1613 
Q 991 1019 1311 708 
Q 1631 397 2203 397 
Q 2534 397 2845 478 
Q 3156 559 3463 722 
L 3463 178 
Q 3153 47 2828 -22 
Q 2503 -91 2169 -91 
Q 1331 -91 842 396 
Q 353 884 353 1716 
Q 353 2575 817 3079 
Q 1281 3584 2069 3584 
Q 2775 3584 3186 3129 
Q 3597 2675 3597 1894 
z
M 3022 2063 
Q 3016 2534 2758 2815 
Q 2500 3097 2075 3097 
Q 1594 3097 1305 2825 
Q 1016 2553 972 2059 
L 3022 2063 
z
" transform="scale(0.015625)"/>
       <path id="DejaVuSans-6e" d="M 3513 2113 
L 3513 0 
L 2938 0 
L 2938 2094 
Q 2938 2591 2744 2837 
Q 2550 3084 2163 3084 
Q 1697 3084 1428 2787 
Q 1159 2491 1159 1978 
L 1159 0 
L 581 0 
L 581 3500 
L 1159 3500 
L 1159 2956 
Q 1366 3272 1645 3428 
Q 1925 3584 2291 3584 
Q 2894 3584 3203 3211 
Q 3513 2838 3513 2113 
z
" transform="scale(0.015625)"/>
       <path id="DejaVuSans-67" d="M 2906 1791 
Q 2906 2416 2648 2759 
Q 2391 3103 1925 3103 
Q 1463 3103 1205 2759 
Q 947 2416 947 1791 
Q 947 1169 1205 825 
Q 1463 481 1925 481 
Q 2391 481 2648 825 
Q 2906 1169 2906 1791 
z
M 3481 434 
Q 3481 -459 3084 -895 
Q 2688 -1331 1869 -1331 
Q 1566 -1331 1297 -1286 
Q 1028 -1241 775 -1147 
L 775 -588 
Q 1028 -725 1275 -790 
Q 1522 -856 1778 -856 
Q 2344 -856 2625 -561 
Q 2906 -266 2906 331 
L 2906 616 
Q 2728 306 2450 153 
Q 2172 0 1784 0 
Q 1141 0 747 490 
Q 353 981 353 1791 
Q 353 2603 747 3093 
Q 1141 3584 1784 3584 
Q 2172 3584 2450 3431 
Q 2728 3278 2906 2969 
L 2906 3500 
L 3481 3500 
L 3481 434 
z
" transform="scale(0.015625)"/>
       <path id="DejaVuSans-74" d="M 1172 4494 
L 1172 3500 
L 2356 3500 
L 2356 3053 
L 1172 3053 
L 1172 1153 
Q 1172 725 1289 603 
Q 1406 481 1766 481 
L 2356 481 
L 2356 0 
L 1766 0 
Q 1100 0 847 248 
Q 594 497 594 1153 
L 594 3053 
L 172 3053 
L 172 3500 
L 594 3500 
L 594 4494 
L 1172 4494 
z
" transform="scale(0.015625)"/>
       <path id="DejaVuSans-68" d="M 3513 2113 
L 3513 0 
L 2938 0 
L 2938 2094 
Q 2938 2591 2744 2837 
Q 2550 3084 2163 3084 
Q 1697 3084 1428 2787 
Q 1159 2491 1159 1978 
L 1159 0 
L 581 0 
L 581 4863 
L 1159 4863 
L 1159 2956 
Q 1366 3272 1645 3428 
Q 1925 3584 2291 3584 
Q 2894 3584 3203 3211 
Q 3513 2838 3513 2113 
z
" transform="scale(0.015625)"/>
       <path id="DejaVuSans-28" d="M 1984 4856 
Q 1566 4138 1362 3434 
Q 1159 2731 1159 2009 
Q 1159 1288 1364 580 
Q 1569 -128 1984 -844 
L 1484 -844 
Q 1016 -109 783 600 
Q 550 1309 550 2009 
Q 550 2706 781 3412 
Q 1013 4119 1484 4856 
L 1984 4856 
z
" transform="scale(0.015625)"/>
       <path id="DejaVuSans-6d" d="M 3328 2828 
Q 3544 3216 3844 3400 
Q 4144 3584 4550 3584 
Q 5097 3584 5394 3201 
Q 5691 2819 5691 2113 
L 5691 0 
L 5113 0 
L 5113 2094 
Q 5113 2597 4934 2840 
Q 4756 3084 4391 3084 
Q 3944 3084 3684 2787 
Q 3425 2491 3425 1978 
L 3425 0 
L 2847 0 
L 2847 2094 
Q 2847 2600 2669 2842 
Q 2491 3084 2119 3084 
Q 1678 3084 1418 2786 
Q 1159 2488 1159 1978 
L 1159 0 
L 581 0 
L 581 3500 
L 1159 3500 
L 1159 2956 
Q 1356 3278 1631 3431 
Q 1906 3584 2284 3584 
Q 2666 3584 2933 3390 
Q 3200 3197 3328 2828 
z
" transform="scale(0.015625)"/>
       <path id="DejaVuSans-29" d="M 513 4856 
L 1013 4856 
Q 1481 4119 1714 3412 
Q 1947 2706 1947 2009 
Q 1947 1309 1714 600 
Q 1481 -109 1013 -844 
L 513 -844 
Q 928 -128 1133 580 
Q 1338 1288 1338 2009 
Q 1338 2731 1133 3434 
Q 928 4138 513 4856 
z
" transform="scale(0.015625)"/>
      </defs>
      <use xlink:href="#DejaVuSans-41"/>
      <use xlink:href="#DejaVuSans-72" transform="translate(68.408203 0)"/>
      <use xlink:href="#DejaVuSans-63" transform="translate(107.271484 0)"/>
      <use xlink:href="#DejaVuSans-20" transform="translate(162.251953 0)"/>
      <use xlink:href="#DejaVuSans-4c" transform="translate(194.039062 0)"/>
      <use xlink:href="#DejaVuSans-65" transform="translate(248.001953 0)"/>
      <use xlink:href="#DejaVuSans-6e" transform="translate(309.525391 0)"/>
      <use xlink:href="#DejaVuSans-67" transform="translate(372.904297 0)"/>
      <use xlink:href="#DejaVuSans-74" transform="translate(436.380859 0)"/>
      <use xlink:href="#DejaVuSans-68" transform="translate(475.589844 0)"/>
      <use xlink:href="#DejaVuSans-20" transform="translate(538.96875 0)"/>
      <use xlink:href="#DejaVuSans-28" transform="translate(570.755859 0)"/>
      <use xlink:href="#DejaVuSans-6d" transform="translate(609.769531 0)"/>
      <use xlink:href="#DejaVuSans-6d" transform="translate(707.181641 0)"/>
      <use xlink:href="#DejaVuSans-29" transform="translate(804.59375 0)"/>
     </g>
    </g>
   </g>
   <g id="line2d_29">
    <path d="M 84.372165 251.027273 
L 89.686667 250.593438 
L 97.126971 249.098867 
L 100.581397 248.160785 
L 105.630175 246.838839 
L 112.539028 244.735537 
L 116.25918 243.431762 
L 121.573682 241.694152 
L 128.74826 239.227428 
L 132.468412 237.923653 
L 137.51719 236.099731 
L 144.426043 233.544423 
L 148.41192 232.049852 
L 153.460697 230.069204 
L 160.635275 227.218616 
L 164.355427 225.739945 
L 169.404204 223.691156 
L 174.718707 221.48337 
L 180.298935 219.275583 
L 185.347712 217.190452 
L 192.52229 214.219481 
L 196.242442 212.706738 
L 201.291219 210.585265 
L 208.200073 207.736948 
L 212.18595 206.101551 
L 217.234727 203.877865 
L 224.67503 200.870552 
L 228.129457 199.34191 
L 233.178234 197.290849 
L 239.821362 194.40619 
L 243.807239 192.738994 
L 249.121742 190.513037 
L 256.29632 187.507994 
L 260.016472 185.961181 
L 265.065249 183.805637 
L 271.974103 180.902807 
L 275.959979 179.269681 
L 281.008757 177.148208 
L 288.183335 174.143166 
L 291.903487 172.612252 
L 296.952264 170.474879 
L 303.861118 167.59022 
L 307.846994 165.923024 
L 312.895772 163.819721 
L 320.07035 160.812408 
L 323.790502 159.301937 
L 328.839279 157.162292 
L 335.748132 154.261734 
L 339.468284 152.610437 
L 344.782787 150.402651 
L 351.957365 147.361267 
L 355.677517 145.832625 
L 360.726294 143.67708 
L 367.635147 140.792421 
L 371.621024 139.159296 
L 376.669802 137.037822 
L 383.84438 133.996438 
L 387.564532 132.467796 
L 392.613309 130.330423 
L 399.522162 127.445764 
L 403.508039 125.794467 
L 408.556817 123.672994 
L 415.731395 120.667951 
L 419.451547 119.137038 
L 424.500324 116.965594 
L 431.409177 114.099106 
L 435.395054 112.463709 
L 440.443832 110.326336 
L 447.61841 107.321294 
L 451.072837 105.79038 
L 456.387339 103.637108 
L 463.296192 100.750177 
L 467.016344 99.101152 
L 472.330846 96.859295 
L 479.505425 93.817911 
L 483.225577 92.286997 
L 488.274354 90.149624 
L 495.183207 87.230895 
L 499.169084 85.597769 
L 504.217861 83.442225 
L 511.126715 80.468982 
L 514.846866 78.94034 
L 520.161369 76.680312 
L 527.070222 73.795653 
L 531.056099 72.110285 
L 536.104876 69.972912 
L 543.279455 66.931528 
L 546.999606 65.402886 
L 552.048384 63.247342 
L 558.957237 60.328612 
L 562.943114 58.659144 
L 567.991891 56.521771 
L 575.16647 53.462215 
L 578.886621 51.915402 
L 583.935399 49.762129 
L 590.844252 46.825229 
L 594.564404 45.13759 
L 599.878906 42.861662 
L 607.053485 39.802107 
L 610.773636 38.239394 
" clip-path="url(#p0364699d3c)" style="fill: none; stroke: #ff0000; stroke-width: 2; stroke-linecap: square"/>
   </g>
   <g id="line2d_30">
    <path d="M 82.246364 251.027273 
L 85.70079 251.027273 
L 91.546743 250.800134 
L 98.455596 249.210165 
L 102.175748 248.301611 
L 106.9588 246.93878 
L 114.133379 244.894534 
L 117.587805 243.531703 
L 123.433758 241.714595 
L 130.342611 239.44321 
L 134.062763 238.080379 
L 138.845815 236.263271 
L 146.020394 233.764748 
L 149.740545 232.174778 
L 155.055048 230.130532 
L 161.963901 227.40487 
L 165.949778 225.814901 
L 170.73283 223.770654 
L 177.907408 221.044992 
L 181.62756 219.455023 
L 186.942063 217.410776 
L 193.850916 214.457976 
L 197.836793 212.868007 
L 202.619845 210.82376 
L 209.794423 207.87096 
L 213.514575 206.28099 
L 219.094803 204.009606 
L 226.003656 201.056805 
L 229.723808 199.466836 
L 234.50686 197.422589 
L 241.681438 194.696928 
L 245.135865 192.87982 
L 250.716093 190.835573 
L 257.624946 187.655634 
L 261.610823 186.292804 
L 266.393875 184.021419 
L 273.568453 181.068618 
L 277.288605 179.478649 
L 282.603108 177.434402 
L 289.511961 174.481602 
L 293.497838 172.891633 
L 298.28089 170.847386 
L 305.455468 167.894586 
L 309.17562 166.304617 
L 314.490122 164.033232 
L 321.398976 161.080431 
L 325.384853 159.490462 
L 330.167905 157.446215 
L 337.342483 154.493415 
L 340.79691 152.903446 
L 346.642863 150.632061 
L 353.551716 147.67926 
L 357.271868 146.089291 
L 362.05492 144.045045 
L 369.229498 141.092244 
L 372.94965 139.502275 
L 378.264152 137.458028 
L 385.173006 134.27809 
L 389.158882 132.915259 
L 393.941935 130.643874 
L 401.116513 127.918212 
L 404.836665 126.101104 
L 410.151167 124.056858 
L 417.060021 121.104057 
L 421.045897 119.514088 
L 425.82895 117.242703 
L 433.003528 114.517041 
L 436.72368 112.927072 
L 442.038182 110.655687 
L 448.947036 107.702886 
L 452.932912 106.112917 
L 457.715965 104.068671 
L 464.890543 101.11587 
L 468.34497 99.525901 
L 474.190922 97.254516 
L 480.83405 94.301716 
L 484.819927 92.711746 
L 489.60298 90.6675 
L 496.777558 87.7147 
L 500.49771 86.12473 
L 505.812212 83.853345 
L 512.721065 80.900545 
L 516.441217 79.310575 
L 521.489995 77.039191 
L 528.664573 74.313529 
L 532.384725 72.496421 
L 537.699227 70.452174 
L 544.60808 67.499374 
L 548.593957 65.909405 
L 553.377009 63.63802 
L 560.551588 60.912358 
L 564.27174 59.09525 
L 569.586242 57.051004 
L 576.495095 53.871065 
L 580.480972 52.508234 
L 585.264024 50.236849 
L 592.438603 47.284049 
L 596.158755 45.694079 
L 601.738982 43.422694 
L 608.647835 40.242755 
" clip-path="url(#p0364699d3c)" style="fill: none; stroke-dasharray: 7.4,3.2; stroke-dashoffset: 0; stroke: #000000; stroke-width: 2"/>
   </g>
   <g id="patch_3">
    <path d="M 55.82 261.666667 
L 55.82 27.6 
" style="fill: none; stroke: #000000; stroke-width: 0.8; stroke-linejoin: miter; stroke-linecap: square"/>
   </g>
   <g id="patch_4">
    <path d="M 637.2 261.666667 
L 637.2 27.6 
" style="fill: none; stroke: #000000; stroke-width: 0.8; stroke-linejoin: miter; stroke-linecap: square"/>
   </g>
   <g id="patch_5">
    <path d="M 55.82 261.666667 
L 637.2 261.666667 
" style="fill: none; stroke: #000000; stroke-width: 0.8; stroke-linejoin: miter; stroke-linecap: square"/>
   </g>
   <g id="patch_6">
    <path d="M 55.82 27.6 
L 637.2 27.6 
" style="fill: none; stroke: #000000; stroke-width: 0.8; stroke-linejoin: miter; stroke-linecap: square"/>
   </g>
   <g id="text_16">
    <!-- Straight Test: Measured vs Estimated Arc Length -->
    <g transform="translate(176.250312 21.6) scale(0.14 -0.14)">
     <defs>
      <path id="DejaVuSans-53" d="M 3425 4513 
L 3425 3897 
Q 3066 4069 2747 4153 
Q 2428 4238 2131 4238 
Q 1616 4238 1336 4038 
Q 1056 3838 1056 3469 
Q 1056 3159 1242 3001 
Q 1428 2844 1947 2747 
L 2328 2669 
Q 3034 2534 3370 2195 
Q 3706 1856 3706 1288 
Q 3706 609 3251 259 
Q 2797 -91 1919 -91 
Q 1588 -91 1214 -16 
Q 841 59 441 206 
L 441 856 
Q 825 641 1194 531 
Q 1563 422 1919 422 
Q 2459 422 2753 634 
Q 3047 847 3047 1241 
Q 3047 1584 2836 1778 
Q 2625 1972 2144 2069 
L 1759 2144 
Q 1053 2284 737 2584 
Q 422 2884 422 3419 
Q 422 4038 858 4394 
Q 1294 4750 2059 4750 
Q 2388 4750 2728 4690 
Q 3069 4631 3425 4513 
z
" transform="scale(0.015625)"/>
      <path id="DejaVuSans-61" d="M 2194 1759 
Q 1497 1759 1228 1600 
Q 959 1441 959 1056 
Q 959 750 1161 570 
Q 1363 391 1709 391 
Q 2188 391 2477 730 
Q 2766 1069 2766 1631 
L 2766 1759 
L 2194 1759 
z
M 3341 1997 
L 3341 0 
L 2766 0 
L 2766 531 
Q 2569 213 2275 61 
Q 1981 -91 1556 -91 
Q 1019 -91 701 211 
Q 384 513 384 1019 
Q 384 1609 779 1909 
Q 1175 2209 1959 2209 
L 2766 2209 
L 2766 2266 
Q 2766 2663 2505 2880 
Q 2244 3097 1772 3097 
Q 1472 3097 1187 3025 
Q 903 2953 641 2809 
L 641 3341 
Q 956 3463 1253 3523 
Q 1550 3584 1831 3584 
Q 2591 3584 2966 3190 
Q 3341 2797 3341 1997 
z
" transform="scale(0.015625)"/>
      <path id="DejaVuSans-69" d="M 603 3500 
L 1178 3500 
L 1178 0 
L 603 0 
L 603 3500 
z
M 603 4863 
L 1178 4863 
L 1178 4134 
L 603 4134 
L 603 4863 
z
" transform="scale(0.015625)"/>
      <path id="DejaVuSans-54" d="M -19 4666 
L 3928 4666 
L 3928 4134 
L 2272 4134 
L 2272 0 
L 1638 0 
L 1638 4134 
L -19 4134 
L -19 4666 
z
" transform="scale(0.015625)"/>
      <path id="DejaVuSans-73" d="M 2834 3397 
L 2834 2853 
Q 2591 2978 2328 3040 
Q 2066 3103 1784 3103 
Q 1356 3103 1142 2972 
Q 928 2841 928 2578 
Q 928 2378 1081 2264 
Q 1234 2150 1697 2047 
L 1894 2003 
Q 2506 1872 2764 1633 
Q 3022 1394 3022 966 
Q 3022 478 2636 193 
Q 2250 -91 1575 -91 
Q 1294 -91 989 -36 
Q 684 19 347 128 
L 347 722 
Q 666 556 975 473 
Q 1284 391 1588 391 
Q 1994 391 2212 530 
Q 2431 669 2431 922 
Q 2431 1156 2273 1281 
Q 2116 1406 1581 1522 
L 1381 1569 
Q 847 1681 609 1914 
Q 372 2147 372 2553 
Q 372 3047 722 3315 
Q 1072 3584 1716 3584 
Q 2034 3584 2315 3537 
Q 2597 3491 2834 3397 
z
" transform="scale(0.015625)"/>
      <path id="DejaVuSans-3a" d="M 750 794 
L 1409 794 
L 1409 0 
L 750 0 
L 750 794 
z
M 750 3309 
L 1409 3309 
L 1409 2516 
L 750 2516 
L 750 3309 
z
" transform="scale(0.015625)"/>
      <path id="DejaVuSans-4d" d="M 628 4666 
L 1569 4666 
L 2759 1491 
L 3956 4666 
L 4897 4666 
L 4897 0 
L 4281 0 
L 4281 4097 
L 3078 897 
L 2444 897 
L 1241 4097 
L 1241 0 
L 628 0 
L 628 4666 
z
" transform="scale(0.015625)"/>
      <path id="DejaVuSans-75" d="M 544 1381 
L 544 3500 
L 1119 3500 
L 1119 1403 
Q 1119 906 1312 657 
Q 1506 409 1894 409 
Q 2359 409 2629 706 
Q 2900 1003 2900 1516 
L 2900 3500 
L 3475 3500 
L 3475 0 
L 2900 0 
L 2900 538 
Q 2691 219 2414 64 
Q 2138 -91 1772 -91 
Q 1169 -91 856 284 
Q 544 659 544 1381 
z
M 1991 3584 
L 1991 3584 
z
" transform="scale(0.015625)"/>
      <path id="DejaVuSans-64" d="M 2906 2969 
L 2906 4863 
L 3481 4863 
L 3481 0 
L 2906 0 
L 2906 525 
Q 2725 213 2448 61 
Q 2172 -91 1784 -91 
Q 1150 -91 751 415 
Q 353 922 353 1747 
Q 353 2572 751 3078 
Q 1150 3584 1784 3584 
Q 2172 3584 2448 3432 
Q 2725 3281 2906 2969 
z
M 947 1747 
Q 947 1113 1208 752 
Q 1469 391 1925 391 
Q 2381 391 2643 752 
Q 2906 1113 2906 1747 
Q 2906 2381 2643 2742 
Q 2381 3103 1925 3103 
Q 1469 3103 1208 2742 
Q 947 2381 947 1747 
z
" transform="scale(0.015625)"/>
      <path id="DejaVuSans-76" d="M 191 3500 
L 800 3500 
L 1894 563 
L 2988 3500 
L 3597 3500 
L 2284 0 
L 1503 0 
L 191 3500 
z
" transform="scale(0.015625)"/>
      <path id="DejaVuSans-45" d="M 628 4666 
L 3578 4666 
L 3578 4134 
L 1259 4134 
L 1259 2753 
L 3481 2753 
L 3481 2222 
L 1259 2222 
L 1259 531 
L 3634 531 
L 3634 0 
L 628 0 
L 628 4666 
z
" transform="scale(0.015625)"/>
     </defs>
     <use xlink:href="#DejaVuSans-53"/>
     <use xlink:href="#DejaVuSans-74" transform="translate(63.476562 0)"/>
     <use xlink:href="#DejaVuSans-72" transform="translate(102.685547 0)"/>
     <use xlink:href="#DejaVuSans-61" transform="translate(143.798828 0)"/>
     <use xlink:href="#DejaVuSans-69" transform="translate(205.078125 0)"/>
     <use xlink:href="#DejaVuSans-67" transform="translate(232.861328 0)"/>
     <use xlink:href="#DejaVuSans-68" transform="translate(296.337891 0)"/>
     <use xlink:href="#DejaVuSans-74" transform="translate(359.716797 0)"/>
     <use xlink:href="#DejaVuSans-20" transform="translate(398.925781 0)"/>
     <use xlink:href="#DejaVuSans-54" transform="translate(430.712891 0)"/>
     <use xlink:href="#DejaVuSans-65" transform="translate(474.796875 0)"/>
     <use xlink:href="#DejaVuSans-73" transform="translate(536.320312 0)"/>
     <use xlink:href="#DejaVuSans-74" transform="translate(588.419922 0)"/>
     <use xlink:href="#DejaVuSans-3a" transform="translate(627.628906 0)"/>
     <use xlink:href="#DejaVuSans-20" transform="translate(661.320312 0)"/>
     <use xlink:href="#DejaVuSans-4d" transform="translate(693.107422 0)"/>
     <use xlink:href="#DejaVuSans-65" transform="translate(779.386719 0)"/>
     <use xlink:href="#DejaVuSans-61" transform="translate(840.910156 0)"/>
     <use xlink:href="#DejaVuSans-73" transform="translate(902.189453 0)"/>
     <use xlink:href="#DejaVuSans-75" transform="translate(954.289062 0)"/>
     <use xlink:href="#DejaVuSans-72" transform="translate(1017.667969 0)"/>
     <use xlink:href="#DejaVuSans-65" transform="translate(1056.53125 0)"/>
     <use xlink:href="#DejaVuSans-64" transform="translate(1118.054688 0)"/>
     <use xlink:href="#DejaVuSans-20" transform="translate(1181.53125 0)"/>
     <use xlink:href="#DejaVuSans-76" transform="translate(1213.318359 0)"/>
     <use xlink:href="#DejaVuSans-73" transform="translate(1272.498047 0)"/>
     <use xlink:href="#DejaVuSans-20" transform="translate(1324.597656 0)"/>
     <use xlink:href="#DejaVuSans-45" transform="translate(1356.384766 0)"/>
     <use xlink:href="#DejaVuSans-73" transform="translate(1419.568359 0)"/>
     <use xlink:href="#DejaVuSans-74" transform="translate(1471.667969 0)"/>
     <use xlink:href="#DejaVuSans-69" transform="translate(1510.876953 0)"/>
     <use xlink:href="#DejaVuSans-6d" transform="translate(1538.660156 0)"/>
     <use xlink:href="#DejaVuSans-61" transform="translate(1636.072266 0)"/>
     <use xlink:href="#DejaVuSans-74" transform="translate(1697.351562 0)"/>
     <use xlink:href="#DejaVuSans-65" transform="translate(1736.560547 0)"/>
     <use xlink:href="#DejaVuSans-64" transform="translate(1798.083984 0)"/>
     <use xlink:href="#DejaVuSans-20" transform="translate(1861.560547 0)"/>
     <use xlink:href="#DejaVuSans-41" transform="translate(1893.347656 0)"/>
     <use xlink:href="#DejaVuSans-72" transform="translate(1961.755859 0)"/>
     <use xlink:href="#DejaVuSans-63" transform="translate(2000.619141 0)"/>
     <use xlink:href="#DejaVuSans-20" transform="translate(2055.599609 0)"/>
     <use xlink:href="#DejaVuSans-4c" transform="translate(2087.386719 0)"/>
     <use xlink:href="#DejaVuSans-65" transform="translate(2141.349609 0)"/>
     <use xlink:href="#DejaVuSans-6e" transform="translate(2202.873047 0)"/>
     <use xlink:href="#DejaVuSans-67" transform="translate(2266.251953 0)"/>
     <use xlink:href="#DejaVuSans-74" transform="translate(2329.728516 0)"/>
     <use xlink:href="#DejaVuSans-68" transform="translate(2368.9375 0)"/>
    </g>
   </g>
   <g id="legend_1">
    <g id="patch_7">
     <path d="M 490.607812 256.666667 
L 630.2 256.666667 
Q 632.2 256.666667 632.2 254.666667 
L 632.2 226.310417 
Q 632.2 224.310417 630.2 224.310417 
L 490.607812 224.310417 
Q 488.607812 224.310417 488.607812 226.310417 
L 488.607812 254.666667 
Q 488.607812 256.666667 490.607812 256.666667 
z
" style="fill: #ffffff; opacity: 0.8; stroke: #cccccc; stroke-linejoin: miter"/>
    </g>
    <g id="line2d_31">
     <path d="M 492.607812 232.408854 
L 502.607812 232.408854 
L 512.607812 232.408854 
" style="fill: none; stroke: #ff0000; stroke-width: 2; stroke-linecap: square"/>
    </g>
    <g id="text_17">
     <!-- Measured Arc Length -->
     <g transform="translate(520.607812 235.908854) scale(0.1 -0.1)">
      <use xlink:href="#DejaVuSans-4d"/>
      <use xlink:href="#DejaVuSans-65" transform="translate(86.279297 0)"/>
      <use xlink:href="#DejaVuSans-61" transform="translate(147.802734 0)"/>
      <use xlink:href="#DejaVuSans-73" transform="translate(209.082031 0)"/>
      <use xlink:href="#DejaVuSans-75" transform="translate(261.181641 0)"/>
      <use xlink:href="#DejaVuSans-72" transform="translate(324.560547 0)"/>
      <use xlink:href="#DejaVuSans-65" transform="translate(363.423828 0)"/>
      <use xlink:href="#DejaVuSans-64" transform="translate(424.947266 0)"/>
      <use xlink:href="#DejaVuSans-20" transform="translate(488.423828 0)"/>
      <use xlink:href="#DejaVuSans-41" transform="translate(520.210938 0)"/>
      <use xlink:href="#DejaVuSans-72" transform="translate(588.619141 0)"/>
      <use xlink:href="#DejaVuSans-63" transform="translate(627.482422 0)"/>
      <use xlink:href="#DejaVuSans-20" transform="translate(682.462891 0)"/>
      <use xlink:href="#DejaVuSans-4c" transform="translate(714.25 0)"/>
      <use xlink:href="#DejaVuSans-65" transform="translate(768.212891 0)"/>
      <use xlink:href="#DejaVuSans-6e" transform="translate(829.736328 0)"/>
      <use xlink:href="#DejaVuSans-67" transform="translate(893.115234 0)"/>
      <use xlink:href="#DejaVuSans-74" transform="translate(956.591797 0)"/>
      <use xlink:href="#DejaVuSans-68" transform="translate(995.800781 0)"/>
     </g>
    </g>
    <g id="line2d_32">
     <path d="M 492.607812 247.086979 
L 502.607812 247.086979 
L 512.607812 247.086979 
" style="fill: none; stroke-dasharray: 7.4,3.2; stroke-dashoffset: 0; stroke: #000000; stroke-width: 2"/>
    </g>
    <g id="text_18">
     <!-- Estimated Arc Length -->
     <g transform="translate(520.607812 250.586979) scale(0.1 -0.1)">
      <use xlink:href="#DejaVuSans-45"/>
      <use xlink:href="#DejaVuSans-73" transform="translate(63.183594 0)"/>
      <use xlink:href="#DejaVuSans-74" transform="translate(115.283203 0)"/>
      <use xlink:href="#DejaVuSans-69" transform="translate(154.492188 0)"/>
      <use xlink:href="#DejaVuSans-6d" transform="translate(182.275391 0)"/>
      <use xlink:href="#DejaVuSans-61" transform="translate(279.6875 0)"/>
      <use xlink:href="#DejaVuSans-74" transform="translate(340.966797 0)"/>
      <use xlink:href="#DejaVuSans-65" transform="translate(380.175781 0)"/>
      <use xlink:href="#DejaVuSans-64" transform="translate(441.699219 0)"/>
      <use xlink:href="#DejaVuSans-20" transform="translate(505.175781 0)"/>
      <use xlink:href="#DejaVuSans-41" transform="translate(536.962891 0)"/>
      <use xlink:href="#DejaVuSans-72" transform="translate(605.371094 0)"/>
      <use xlink:href="#DejaVuSans-63" transform="translate(644.234375 0)"/>
      <use xlink:href="#DejaVuSans-20" transform="translate(699.214844 0)"/>
      <use xlink:href="#DejaVuSans-4c" transform="translate(731.001953 0)"/>
      <use xlink:href="#DejaVuSans-65" transform="translate(784.964844 0)"/>
      <use xlink:href="#DejaVuSans-6e" transform="translate(846.488281 0)"/>
      <use xlink:href="#DejaVuSans-67" transform="translate(909.867188 0)"/>
      <use xlink:href="#DejaVuSans-74" transform="translate(973.34375 0)"/>
      <use xlink:href="#DejaVuSans-68" transform="translate(1012.552734 0)"/>
     </g>
    </g>
   </g>
  </g>
  <g id="axes_2">
   <g id="patch_8">
    <path d="M 55.82 540.413333 
L 637.2 540.413333 
L 637.2 306.346667 
L 55.82 306.346667 
z
" style="fill: #ffffff"/>
   </g>
   <g id="matplotlib.axis_3">
    <g id="xtick_10">
     <g id="line2d_33">
      <path d="M 84.372165 540.413333 
L 84.372165 306.346667 
" clip-path="url(#pcd9e11af37)" style="fill: none; stroke-dasharray: 2.96,1.28; stroke-dashoffset: 0; stroke: #b0b0b0; stroke-opacity: 0.4; stroke-width: 0.8"/>
     </g>
     <g id="line2d_34">
      <g>
       <use xlink:href="#me18df6590a" x="84.372165" y="540.413333" style="stroke: #000000; stroke-width: 0.8"/>
      </g>
     </g>
     <g id="text_19">
      <!-- 0 -->
      <g transform="translate(81.190915 555.011771) scale(0.1 -0.1)">
       <use xlink:href="#DejaVuSans-30"/>
      </g>
     </g>
    </g>
    <g id="xtick_11">
     <g id="line2d_35">
      <path d="M 150.803446 540.413333 
L 150.803446 306.346667 
" clip-path="url(#pcd9e11af37)" style="fill: none; stroke-dasharray: 2.96,1.28; stroke-dashoffset: 0; stroke: #b0b0b0; stroke-opacity: 0.4; stroke-width: 0.8"/>
     </g>
     <g id="line2d_36">
      <g>
       <use xlink:href="#me18df6590a" x="150.803446" y="540.413333" style="stroke: #000000; stroke-width: 0.8"/>
      </g>
     </g>
     <g id="text_20">
      <!-- 250 -->
      <g transform="translate(141.259696 555.011771) scale(0.1 -0.1)">
       <use xlink:href="#DejaVuSans-32"/>
       <use xlink:href="#DejaVuSans-35" transform="translate(63.623047 0)"/>
       <use xlink:href="#DejaVuSans-30" transform="translate(127.246094 0)"/>
      </g>
     </g>
    </g>
    <g id="xtick_12">
     <g id="line2d_37">
      <path d="M 217.234727 540.413333 
L 217.234727 306.346667 
" clip-path="url(#pcd9e11af37)" style="fill: none; stroke-dasharray: 2.96,1.28; stroke-dashoffset: 0; stroke: #b0b0b0; stroke-opacity: 0.4; stroke-width: 0.8"/>
     </g>
     <g id="line2d_38">
      <g>
       <use xlink:href="#me18df6590a" x="217.234727" y="540.413333" style="stroke: #000000; stroke-width: 0.8"/>
      </g>
     </g>
     <g id="text_21">
      <!-- 500 -->
      <g transform="translate(207.690977 555.011771) scale(0.1 -0.1)">
       <use xlink:href="#DejaVuSans-35"/>
       <use xlink:href="#DejaVuSans-30" transform="translate(63.623047 0)"/>
       <use xlink:href="#DejaVuSans-30" transform="translate(127.246094 0)"/>
      </g>
     </g>
    </g>
    <g id="xtick_13">
     <g id="line2d_39">
      <path d="M 283.666008 540.413333 
L 283.666008 306.346667 
" clip-path="url(#pcd9e11af37)" style="fill: none; stroke-dasharray: 2.96,1.28; stroke-dashoffset: 0; stroke: #b0b0b0; stroke-opacity: 0.4; stroke-width: 0.8"/>
     </g>
     <g id="line2d_40">
      <g>
       <use xlink:href="#me18df6590a" x="283.666008" y="540.413333" style="stroke: #000000; stroke-width: 0.8"/>
      </g>
     </g>
     <g id="text_22">
      <!-- 750 -->
      <g transform="translate(274.122258 555.011771) scale(0.1 -0.1)">
       <use xlink:href="#DejaVuSans-37"/>
       <use xlink:href="#DejaVuSans-35" transform="translate(63.623047 0)"/>
       <use xlink:href="#DejaVuSans-30" transform="translate(127.246094 0)"/>
      </g>
     </g>
    </g>
    <g id="xtick_14">
     <g id="line2d_41">
      <path d="M 350.097289 540.413333 
L 350.097289 306.346667 
" clip-path="url(#pcd9e11af37)" style="fill: none; stroke-dasharray: 2.96,1.28; stroke-dashoffset: 0; stroke: #b0b0b0; stroke-opacity: 0.4; stroke-width: 0.8"/>
     </g>
     <g id="line2d_42">
      <g>
       <use xlink:href="#me18df6590a" x="350.097289" y="540.413333" style="stroke: #000000; stroke-width: 0.8"/>
      </g>
     </g>
     <g id="text_23">
      <!-- 1000 -->
      <g transform="translate(337.372289 555.011771) scale(0.1 -0.1)">
       <use xlink:href="#DejaVuSans-31"/>
       <use xlink:href="#DejaVuSans-30" transform="translate(63.623047 0)"/>
       <use xlink:href="#DejaVuSans-30" transform="translate(127.246094 0)"/>
       <use xlink:href="#DejaVuSans-30" transform="translate(190.869141 0)"/>
      </g>
     </g>
    </g>
    <g id="xtick_15">
     <g id="line2d_43">
      <path d="M 416.52857 540.413333 
L 416.52857 306.346667 
" clip-path="url(#pcd9e11af37)" style="fill: none; stroke-dasharray: 2.96,1.28; stroke-dashoffset: 0; stroke: #b0b0b0; stroke-opacity: 0.4; stroke-width: 0.8"/>
     </g>
     <g id="line2d_44">
      <g>
       <use xlink:href="#me18df6590a" x="416.52857" y="540.413333" style="stroke: #000000; stroke-width: 0.8"/>
      </g>
     </g>
     <g id="text_24">
      <!-- 1250 -->
      <g transform="translate(403.80357 555.011771) scale(0.1 -0.1)">
       <use xlink:href="#DejaVuSans-31"/>
       <use xlink:href="#DejaVuSans-32" transform="translate(63.623047 0)"/>
       <use xlink:href="#DejaVuSans-35" transform="translate(127.246094 0)"/>
       <use xlink:href="#DejaVuSans-30" transform="translate(190.869141 0)"/>
      </g>
     </g>
    </g>
    <g id="xtick_16">
     <g id="line2d_45">
      <path d="M 482.959851 540.413333 
L 482.959851 306.346667 
" clip-path="url(#pcd9e11af37)" style="fill: none; stroke-dasharray: 2.96,1.28; stroke-dashoffset: 0; stroke: #b0b0b0; stroke-opacity: 0.4; stroke-width: 0.8"/>
     </g>
     <g id="line2d_46">
      <g>
       <use xlink:href="#me18df6590a" x="482.959851" y="540.413333" style="stroke: #000000; stroke-width: 0.8"/>
      </g>
     </g>
     <g id="text_25">
      <!-- 1500 -->
      <g transform="translate(470.234851 555.011771) scale(0.1 -0.1)">
       <use xlink:href="#DejaVuSans-31"/>
       <use xlink:href="#DejaVuSans-35" transform="translate(63.623047 0)"/>
       <use xlink:href="#DejaVuSans-30" transform="translate(127.246094 0)"/>
       <use xlink:href="#DejaVuSans-30" transform="translate(190.869141 0)"/>
      </g>
     </g>
    </g>
    <g id="xtick_17">
     <g id="line2d_47">
      <path d="M 549.391133 540.413333 
L 549.391133 306.346667 
" clip-path="url(#pcd9e11af37)" style="fill: none; stroke-dasharray: 2.96,1.28; stroke-dashoffset: 0; stroke: #b0b0b0; stroke-opacity: 0.4; stroke-width: 0.8"/>
     </g>
     <g id="line2d_48">
      <g>
       <use xlink:href="#me18df6590a" x="549.391133" y="540.413333" style="stroke: #000000; stroke-width: 0.8"/>
      </g>
     </g>
     <g id="text_26">
      <!-- 1750 -->
      <g transform="translate(536.666133 555.011771) scale(0.1 -0.1)">
       <use xlink:href="#DejaVuSans-31"/>
       <use xlink:href="#DejaVuSans-37" transform="translate(63.623047 0)"/>
       <use xlink:href="#DejaVuSans-35" transform="translate(127.246094 0)"/>
       <use xlink:href="#DejaVuSans-30" transform="translate(190.869141 0)"/>
      </g>
     </g>
    </g>
    <g id="xtick_18">
     <g id="line2d_49">
      <path d="M 615.822414 540.413333 
L 615.822414 306.346667 
" clip-path="url(#pcd9e11af37)" style="fill: none; stroke-dasharray: 2.96,1.28; stroke-dashoffset: 0; stroke: #b0b0b0; stroke-opacity: 0.4; stroke-width: 0.8"/>
     </g>
     <g id="line2d_50">
      <g>
       <use xlink:href="#me18df6590a" x="615.822414" y="540.413333" style="stroke: #000000; stroke-width: 0.8"/>
      </g>
     </g>
     <g id="text_27">
      <!-- 2000 -->
      <g transform="translate(603.097414 555.011771) scale(0.1 -0.1)">
       <use xlink:href="#DejaVuSans-32"/>
       <use xlink:href="#DejaVuSans-30" transform="translate(63.623047 0)"/>
       <use xlink:href="#DejaVuSans-30" transform="translate(127.246094 0)"/>
       <use xlink:href="#DejaVuSans-30" transform="translate(190.869141 0)"/>
      </g>
     </g>
    </g>
   </g>
   <g id="matplotlib.axis_4">
    <g id="ytick_6">
     <g id="line2d_51">
      <path d="M 55.82 540.413333 
L 637.2 540.413333 
" clip-path="url(#pcd9e11af37)" style="fill: none; stroke-dasharray: 2.96,1.28; stroke-dashoffset: 0; stroke: #b0b0b0; stroke-opacity: 0.4; stroke-width: 0.8"/>
     </g>
     <g id="line2d_52">
      <g>
       <use xlink:href="#m6d4beedd31" x="55.82" y="540.413333" style="stroke: #000000; stroke-width: 0.8"/>
      </g>
     </g>
     <g id="text_28">
      <!-- −20 -->
      <g transform="translate(27.715313 544.212552) scale(0.1 -0.1)">
       <defs>
        <path id="DejaVuSans-2212" d="M 678 2272 
L 4684 2272 
L 4684 1741 
L 678 1741 
L 678 2272 
z
" transform="scale(0.015625)"/>
       </defs>
       <use xlink:href="#DejaVuSans-2212"/>
       <use xlink:href="#DejaVuSans-32" transform="translate(83.789062 0)"/>
       <use xlink:href="#DejaVuSans-30" transform="translate(147.412109 0)"/>
      </g>
     </g>
    </g>
    <g id="ytick_7">
     <g id="line2d_53">
      <path d="M 55.82 511.155 
L 637.2 511.155 
" clip-path="url(#pcd9e11af37)" style="fill: none; stroke-dasharray: 2.96,1.28; stroke-dashoffset: 0; stroke: #b0b0b0; stroke-opacity: 0.4; stroke-width: 0.8"/>
     </g>
     <g id="line2d_54">
      <g>
       <use xlink:href="#m6d4beedd31" x="55.82" y="511.155" style="stroke: #000000; stroke-width: 0.8"/>
      </g>
     </g>
     <g id="text_29">
      <!-- −15 -->
      <g transform="translate(27.715313 514.954219) scale(0.1 -0.1)">
       <use xlink:href="#DejaVuSans-2212"/>
       <use xlink:href="#DejaVuSans-31" transform="translate(83.789062 0)"/>
       <use xlink:href="#DejaVuSans-35" transform="translate(147.412109 0)"/>
      </g>
     </g>
    </g>
    <g id="ytick_8">
     <g id="line2d_55">
      <path d="M 55.82 481.896667 
L 637.2 481.896667 
" clip-path="url(#pcd9e11af37)" style="fill: none; stroke-dasharray: 2.96,1.28; stroke-dashoffset: 0; stroke: #b0b0b0; stroke-opacity: 0.4; stroke-width: 0.8"/>
     </g>
     <g id="line2d_56">
      <g>
       <use xlink:href="#m6d4beedd31" x="55.82" y="481.896667" style="stroke: #000000; stroke-width: 0.8"/>
      </g>
     </g>
     <g id="text_30">
      <!-- −10 -->
      <g transform="translate(27.715313 485.695885) scale(0.1 -0.1)">
       <use xlink:href="#DejaVuSans-2212"/>
       <use xlink:href="#DejaVuSans-31" transform="translate(83.789062 0)"/>
       <use xlink:href="#DejaVuSans-30" transform="translate(147.412109 0)"/>
      </g>
     </g>
    </g>
    <g id="ytick_9">
     <g id="line2d_57">
      <path d="M 55.82 452.638333 
L 637.2 452.638333 
" clip-path="url(#pcd9e11af37)" style="fill: none; stroke-dasharray: 2.96,1.28; stroke-dashoffset: 0; stroke: #b0b0b0; stroke-opacity: 0.4; stroke-width: 0.8"/>
     </g>
     <g id="line2d_58">
      <g>
       <use xlink:href="#m6d4beedd31" x="55.82" y="452.638333" style="stroke: #000000; stroke-width: 0.8"/>
      </g>
     </g>
     <g id="text_31">
      <!-- −5 -->
      <g transform="translate(34.077813 456.437552) scale(0.1 -0.1)">
       <use xlink:href="#DejaVuSans-2212"/>
       <use xlink:href="#DejaVuSans-35" transform="translate(83.789062 0)"/>
      </g>
     </g>
    </g>
    <g id="ytick_10">
     <g id="line2d_59">
      <path d="M 55.82 423.38 
L 637.2 423.38 
" clip-path="url(#pcd9e11af37)" style="fill: none; stroke-dasharray: 2.96,1.28; stroke-dashoffset: 0; stroke: #b0b0b0; stroke-opacity: 0.4; stroke-width: 0.8"/>
     </g>
     <g id="line2d_60">
      <g>
       <use xlink:href="#m6d4beedd31" x="55.82" y="423.38" style="stroke: #000000; stroke-width: 0.8"/>
      </g>
     </g>
     <g id="text_32">
      <!-- 0 -->
      <g transform="translate(42.4575 427.179219) scale(0.1 -0.1)">
       <use xlink:href="#DejaVuSans-30"/>
      </g>
     </g>
    </g>
    <g id="ytick_11">
     <g id="line2d_61">
      <path d="M 55.82 394.121667 
L 637.2 394.121667 
" clip-path="url(#pcd9e11af37)" style="fill: none; stroke-dasharray: 2.96,1.28; stroke-dashoffset: 0; stroke: #b0b0b0; stroke-opacity: 0.4; stroke-width: 0.8"/>
     </g>
     <g id="line2d_62">
      <g>
       <use xlink:href="#m6d4beedd31" x="55.82" y="394.121667" style="stroke: #000000; stroke-width: 0.8"/>
      </g>
     </g>
     <g id="text_33">
      <!-- 5 -->
      <g transform="translate(42.4575 397.920885) scale(0.1 -0.1)">
       <use xlink:href="#DejaVuSans-35"/>
      </g>
     </g>
    </g>
    <g id="ytick_12">
     <g id="line2d_63">
      <path d="M 55.82 364.863333 
L 637.2 364.863333 
" clip-path="url(#pcd9e11af37)" style="fill: none; stroke-dasharray: 2.96,1.28; stroke-dashoffset: 0; stroke: #b0b0b0; stroke-opacity: 0.4; stroke-width: 0.8"/>
     </g>
     <g id="line2d_64">
      <g>
       <use xlink:href="#m6d4beedd31" x="55.82" y="364.863333" style="stroke: #000000; stroke-width: 0.8"/>
      </g>
     </g>
     <g id="text_34">
      <!-- 10 -->
      <g transform="translate(36.095 368.662552) scale(0.1 -0.1)">
       <use xlink:href="#DejaVuSans-31"/>
       <use xlink:href="#DejaVuSans-30" transform="translate(63.623047 0)"/>
      </g>
     </g>
    </g>
    <g id="ytick_13">
     <g id="line2d_65">
      <path d="M 55.82 335.605 
L 637.2 335.605 
" clip-path="url(#pcd9e11af37)" style="fill: none; stroke-dasharray: 2.96,1.28; stroke-dashoffset: 0; stroke: #b0b0b0; stroke-opacity: 0.4; stroke-width: 0.8"/>
     </g>
     <g id="line2d_66">
      <g>
       <use xlink:href="#m6d4beedd31" x="55.82" y="335.605" style="stroke: #000000; stroke-width: 0.8"/>
      </g>
     </g>
     <g id="text_35">
      <!-- 15 -->
      <g transform="translate(36.095 339.404219) scale(0.1 -0.1)">
       <use xlink:href="#DejaVuSans-31"/>
       <use xlink:href="#DejaVuSans-35" transform="translate(63.623047 0)"/>
      </g>
     </g>
    </g>
    <g id="ytick_14">
     <g id="line2d_67">
      <path d="M 55.82 306.346667 
L 637.2 306.346667 
" clip-path="url(#pcd9e11af37)" style="fill: none; stroke-dasharray: 2.96,1.28; stroke-dashoffset: 0; stroke: #b0b0b0; stroke-opacity: 0.4; stroke-width: 0.8"/>
     </g>
     <g id="line2d_68">
      <g>
       <use xlink:href="#m6d4beedd31" x="55.82" y="306.346667" style="stroke: #000000; stroke-width: 0.8"/>
      </g>
     </g>
     <g id="text_36">
      <!-- 20 -->
      <g transform="translate(36.095 310.145885) scale(0.1 -0.1)">
       <use xlink:href="#DejaVuSans-32"/>
       <use xlink:href="#DejaVuSans-30" transform="translate(63.623047 0)"/>
      </g>
     </g>
    </g>
    <g id="text_37">
     <!-- Yaw (deg) -->
     <g transform="translate(21.219688 452.702187) rotate(-90) scale(0.12 -0.12)">
      <defs>
       <path id="DejaVuSans-59" d="M -13 4666 
L 666 4666 
L 1959 2747 
L 3244 4666 
L 3922 4666 
L 2272 2222 
L 2272 0 
L 1638 0 
L 1638 2222 
L -13 4666 
z
" transform="scale(0.015625)"/>
       <path id="DejaVuSans-77" d="M 269 3500 
L 844 3500 
L 1563 769 
L 2278 3500 
L 2956 3500 
L 3675 769 
L 4391 3500 
L 4966 3500 
L 4050 0 
L 3372 0 
L 2619 2869 
L 1863 0 
L 1184 0 
L 269 3500 
z
" transform="scale(0.015625)"/>
      </defs>
      <use xlink:href="#DejaVuSans-59"/>
      <use xlink:href="#DejaVuSans-61" transform="translate(47.333984 0)"/>
      <use xlink:href="#DejaVuSans-77" transform="translate(108.613281 0)"/>
      <use xlink:href="#DejaVuSans-20" transform="translate(190.400391 0)"/>
      <use xlink:href="#DejaVuSans-28" transform="translate(222.1875 0)"/>
      <use xlink:href="#DejaVuSans-64" transform="translate(261.201172 0)"/>
      <use xlink:href="#DejaVuSans-65" transform="translate(324.677734 0)"/>
      <use xlink:href="#DejaVuSans-67" transform="translate(386.201172 0)"/>
      <use xlink:href="#DejaVuSans-29" transform="translate(449.677734 0)"/>
     </g>
    </g>
   </g>
   <g id="line2d_69">
    <path d="M 84.372165 423.38 
L 89.686667 423.0289 
L 97.126971 422.268183 
L 100.581397 421.565983 
L 105.630175 420.103067 
L 112.539028 421.214883 
L 116.25918 421.565983 
L 121.573682 422.268183 
L 128.74826 421.565983 
L 132.468412 421.214883 
L 137.51719 420.805267 
L 144.426043 420.454167 
L 148.41192 420.454167 
L 153.460697 420.454167 
L 160.635275 420.454167 
L 164.355427 420.103067 
L 169.404204 420.103067 
L 174.718707 420.103067 
L 180.298935 420.103067 
L 185.347712 420.103067 
L 192.52229 419.751967 
L 196.242442 420.103067 
L 201.291219 419.400867 
L 208.200073 418.64015 
L 212.18595 418.64015 
L 217.234727 417.93795 
L 224.67503 417.58685 
L 228.129457 416.826133 
L 233.178234 416.826133 
L 239.821362 416.123933 
L 243.807239 415.363217 
L 249.121742 415.363217 
L 256.29632 415.012117 
L 260.016472 414.661017 
L 265.065249 414.661017 
L 271.974103 414.309917 
L 275.959979 414.309917 
L 281.008757 414.309917 
L 288.183335 414.661017 
L 291.903487 414.661017 
L 296.952264 414.309917 
L 303.861118 414.309917 
L 307.846994 414.309917 
L 312.895772 413.9003 
L 320.07035 413.5492 
L 323.790502 413.9003 
L 328.839279 413.5492 
L 335.748132 413.1981 
L 339.468284 412.847 
L 344.782787 412.437383 
L 351.957365 412.086283 
L 355.677517 412.086283 
L 360.726294 411.384083 
L 367.635147 411.384083 
L 371.621024 411.384083 
L 376.669802 411.384083 
L 383.84438 411.032983 
L 387.564532 411.032983 
L 392.613309 411.384083 
L 399.522162 411.384083 
L 403.508039 411.735183 
L 408.556817 411.735183 
L 415.731395 412.086283 
L 419.451547 412.086283 
L 424.500324 411.735183 
L 431.409177 412.086283 
L 435.395054 412.086283 
L 440.443832 411.735183 
L 447.61841 411.384083 
L 451.072837 411.384083 
L 456.387339 411.384083 
L 463.296192 411.384083 
L 467.016344 411.032983 
L 472.330846 410.623367 
L 479.505425 411.032983 
L 483.225577 411.032983 
L 488.274354 410.623367 
L 495.183207 410.623367 
L 499.169084 410.623367 
L 504.217861 410.623367 
L 511.126715 411.032983 
L 514.846866 411.032983 
L 520.161369 411.032983 
L 527.070222 411.735183 
L 531.056099 412.086283 
L 536.104876 412.437383 
L 543.279455 412.847 
L 546.999606 412.847 
L 552.048384 412.847 
L 558.957237 412.847 
L 562.943114 412.847 
L 567.991891 412.437383 
L 575.16647 412.437383 
L 578.886621 412.847 
L 583.935399 412.086283 
L 590.844252 412.437383 
L 594.564404 412.847 
L 599.878906 412.437383 
L 607.053485 412.437383 
L 610.773636 412.437383 
" clip-path="url(#pcd9e11af37)" style="fill: none; stroke: #ff0000; stroke-width: 2; stroke-linecap: square"/>
   </g>
   <g id="line2d_70">
    <path d="M 82.246364 423.38 
L 85.70079 423.38 
L 91.546743 423.38 
L 98.455596 423.38 
L 102.175748 423.38 
L 106.9588 423.38 
L 114.133379 423.38 
L 117.587805 423.38 
L 123.433758 423.38 
L 130.342611 423.38 
L 134.062763 423.38 
L 138.845815 423.38 
L 146.020394 423.38 
L 149.740545 423.38 
L 155.055048 423.38 
L 161.963901 423.38 
L 165.949778 423.38 
L 170.73283 423.38 
L 177.907408 423.38 
L 181.62756 423.38 
L 186.942063 423.38 
L 193.850916 423.38 
L 197.836793 423.38 
L 202.619845 423.38 
L 209.794423 423.38 
L 213.514575 423.38 
L 219.094803 423.38 
L 226.003656 423.38 
L 229.723808 423.38 
L 234.50686 423.38 
L 241.681438 423.38 
L 245.135865 423.38 
L 250.716093 423.38 
L 257.624946 423.38 
L 261.610823 423.38 
L 266.393875 423.38 
L 273.568453 423.38 
L 277.288605 423.38 
L 282.603108 423.38 
L 289.511961 423.38 
L 293.497838 423.38 
L 298.28089 423.38 
L 305.455468 423.38 
L 309.17562 423.38 
L 314.490122 423.38 
L 321.398976 423.38 
L 325.384853 423.38 
L 330.167905 423.38 
L 337.342483 423.38 
L 340.79691 423.38 
L 346.642863 423.38 
L 353.551716 423.38 
L 357.271868 423.38 
L 362.05492 423.38 
L 369.229498 423.38 
L 372.94965 423.38 
L 378.264152 423.38 
L 385.173006 423.38 
L 389.158882 423.38 
L 393.941935 423.38 
L 401.116513 423.38 
L 404.836665 423.38 
L 410.151167 423.38 
L 417.060021 423.38 
L 421.045897 423.38 
L 425.82895 423.38 
L 433.003528 423.38 
L 436.72368 423.38 
L 442.038182 423.38 
L 448.947036 423.38 
L 452.932912 423.38 
L 457.715965 423.38 
L 464.890543 423.38 
L 468.34497 423.38 
L 474.190922 423.38 
L 480.83405 423.38 
L 484.819927 423.38 
L 489.60298 423.38 
L 496.777558 423.38 
L 500.49771 423.38 
L 505.812212 423.38 
L 512.721065 423.38 
L 516.441217 423.38 
L 521.489995 423.38 
L 528.664573 423.38 
L 532.384725 423.38 
L 537.699227 423.38 
L 544.60808 423.38 
L 548.593957 423.38 
L 553.377009 423.38 
L 560.551588 423.38 
L 564.27174 423.38 
L 569.586242 423.38 
L 576.495095 423.38 
L 580.480972 423.38 
L 585.264024 423.38 
L 592.438603 423.38 
L 596.158755 423.38 
L 601.738982 423.38 
L 608.647835 423.38 
" clip-path="url(#pcd9e11af37)" style="fill: none; stroke-dasharray: 7.4,3.2; stroke-dashoffset: 0; stroke: #000000; stroke-width: 2"/>
   </g>
   <g id="patch_9">
    <path d="M 55.82 540.413333 
L 55.82 306.346667 
" style="fill: none; stroke: #000000; stroke-width: 0.8; stroke-linejoin: miter; stroke-linecap: square"/>
   </g>
   <g id="patch_10">
    <path d="M 637.2 540.413333 
L 637.2 306.346667 
" style="fill: none; stroke: #000000; stroke-width: 0.8; stroke-linejoin: miter; stroke-linecap: square"/>
   </g>
   <g id="patch_11">
    <path d="M 55.82 540.413333 
L 637.2 540.413333 
" style="fill: none; stroke: #000000; stroke-width: 0.8; stroke-linejoin: miter; stroke-linecap: square"/>
   </g>
   <g id="patch_12">
    <path d="M 55.82 306.346667 
L 637.2 306.346667 
" style="fill: none; stroke: #000000; stroke-width: 0.8; stroke-linejoin: miter; stroke-linecap: square"/>
   </g>
   <g id="text_38">
    <!-- Straight Test: Measured vs Estimated Yaw -->
    <g transform="translate(200.650781 300.346667) scale(0.14 -0.14)">
     <use xlink:href="#DejaVuSans-53"/>
     <use xlink:href="#DejaVuSans-74" transform="translate(63.476562 0)"/>
     <use xlink:href="#DejaVuSans-72" transform="translate(102.685547 0)"/>
     <use xlink:href="#DejaVuSans-61" transform="translate(143.798828 0)"/>
     <use xlink:href="#DejaVuSans-69" transform="translate(205.078125 0)"/>
     <use xlink:href="#DejaVuSans-67" transform="translate(232.861328 0)"/>
     <use xlink:href="#DejaVuSans-68" transform="translate(296.337891 0)"/>
     <use xlink:href="#DejaVuSans-74" transform="translate(359.716797 0)"/>
     <use xlink:href="#DejaVuSans-20" transform="translate(398.925781 0)"/>
     <use xlink:href="#DejaVuSans-54" transform="translate(430.712891 0)"/>
     <use xlink:href="#DejaVuSans-65" transform="translate(474.796875 0)"/>
     <use xlink:href="#DejaVuSans-73" transform="translate(536.320312 0)"/>
     <use xlink:href="#DejaVuSans-74" transform="translate(588.419922 0)"/>
     <use xlink:href="#DejaVuSans-3a" transform="translate(627.628906 0)"/>
     <use xlink:href="#DejaVuSans-20" transform="translate(661.320312 0)"/>
     <use xlink:href="#DejaVuSans-4d" transform="translate(693.107422 0)"/>
     <use xlink:href="#DejaVuSans-65" transform="translate(779.386719 0)"/>
     <use xlink:href="#DejaVuSans-61" transform="translate(840.910156 0)"/>
     <use xlink:href="#DejaVuSans-73" transform="translate(902.189453 0)"/>
     <use xlink:href="#DejaVuSans-75" transform="translate(954.289062 0)"/>
     <use xlink:href="#DejaVuSans-72" transform="translate(1017.667969 0)"/>
     <use xlink:href="#DejaVuSans-65" transform="translate(1056.53125 0)"/>
     <use xlink:href="#DejaVuSans-64" transform="translate(1118.054688 0)"/>
     <use xlink:href="#DejaVuSans-20" transform="translate(1181.53125 0)"/>
     <use xlink:href="#DejaVuSans-76" transform="translate(1213.318359 0)"/>
     <use xlink:href="#DejaVuSans-73" transform="translate(1272.498047 0)"/>
     <use xlink:href="#DejaVuSans-20" transform="translate(1324.597656 0)"/>
     <use xlink:href="#DejaVuSans-45" transform="translate(1356.384766 0)"/>
     <use xlink:href="#DejaVuSans-73" transform="translate(1419.568359 0)"/>
     <use xlink:href="#DejaVuSans-74" transform="translate(1471.667969 0)"/>
     <use xlink:href="#DejaVuSans-69" transform="translate(1510.876953 0)"/>
     <use xlink:href="#DejaVuSans-6d" transform="translate(1538.660156 0)"/>
     <use xlink:href="#DejaVuSans-61" transform="translate(1636.072266 0)"/>
     <use xlink:href="#DejaVuSans-74" transform="translate(1697.351562 0)"/>
     <use xlink:href="#DejaVuSans-65" transform="translate(1736.560547 0)"/>
     <use xlink:href="#DejaVuSans-64" transform="translate(1798.083984 0)"/>
     <use xlink:href="#DejaVuSans-20" transform="translate(1861.560547 0)"/>
     <use xlink:href="#DejaVuSans-59" transform="translate(1893.347656 0)"/>
     <use xlink:href="#DejaVuSans-61" transform="translate(1940.681641 0)"/>
     <use xlink:href="#DejaVuSans-77" transform="translate(2001.960938 0)"/>
    </g>
   </g>
   <g id="legend_2">
    <g id="patch_13">
     <path d="M 525.465625 535.413333 
L 630.2 535.413333 
Q 632.2 535.413333 632.2 533.413333 
L 632.2 505.057083 
Q 632.2 503.057083 630.2 503.057083 
L 525.465625 503.057083 
Q 523.465625 503.057083 523.465625 505.057083 
L 523.465625 533.413333 
Q 523.465625 535.413333 525.465625 535.413333 
z
" style="fill: #ffffff; opacity: 0.8; stroke: #cccccc; stroke-linejoin: miter"/>
    </g>
    <g id="line2d_71">
     <path d="M 527.465625 511.155521 
L 537.465625 511.155521 
L 547.465625 511.155521 
" style="fill: none; stroke: #ff0000; stroke-width: 2; stroke-linecap: square"/>
    </g>
    <g id="text_39">
     <!-- Measured Yaw -->
     <g transform="translate(555.465625 514.655521) scale(0.1 -0.1)">
      <use xlink:href="#DejaVuSans-4d"/>
      <use xlink:href="#DejaVuSans-65" transform="translate(86.279297 0)"/>
      <use xlink:href="#DejaVuSans-61" transform="translate(147.802734 0)"/>
      <use xlink:href="#DejaVuSans-73" transform="translate(209.082031 0)"/>
      <use xlink:href="#DejaVuSans-75" transform="translate(261.181641 0)"/>
      <use xlink:href="#DejaVuSans-72" transform="translate(324.560547 0)"/>
      <use xlink:href="#DejaVuSans-65" transform="translate(363.423828 0)"/>
      <use xlink:href="#DejaVuSans-64" transform="translate(424.947266 0)"/>
      <use xlink:href="#DejaVuSans-20" transform="translate(488.423828 0)"/>
      <use xlink:href="#DejaVuSans-59" transform="translate(520.210938 0)"/>
      <use xlink:href="#DejaVuSans-61" transform="translate(567.544922 0)"/>
      <use xlink:href="#DejaVuSans-77" transform="translate(628.824219 0)"/>
     </g>
    </g>
    <g id="line2d_72">
     <path d="M 527.465625 525.833646 
L 537.465625 525.833646 
L 547.465625 525.833646 
" style="fill: none; stroke-dasharray: 7.4,3.2; stroke-dashoffset: 0; stroke: #000000; stroke-width: 2"/>
    </g>
    <g id="text_40">
     <!-- Estimated Yaw -->
     <g transform="translate(555.465625 529.333646) scale(0.1 -0.1)">
      <use xlink:href="#DejaVuSans-45"/>
      <use xlink:href="#DejaVuSans-73" transform="translate(63.183594 0)"/>
      <use xlink:href="#DejaVuSans-74" transform="translate(115.283203 0)"/>
      <use xlink:href="#DejaVuSans-69" transform="translate(154.492188 0)"/>
      <use xlink:href="#DejaVuSans-6d" transform="translate(182.275391 0)"/>
      <use xlink:href="#DejaVuSans-61" transform="translate(279.6875 0)"/>
      <use xlink:href="#DejaVuSans-74" transform="translate(340.966797 0)"/>
      <use xlink:href="#DejaVuSans-65" transform="translate(380.175781 0)"/>
      <use xlink:href="#DejaVuSans-64" transform="translate(441.699219 0)"/>
      <use xlink:href="#DejaVuSans-20" transform="translate(505.175781 0)"/>
      <use xlink:href="#DejaVuSans-59" transform="translate(536.962891 0)"/>
      <use xlink:href="#DejaVuSans-61" transform="translate(584.296875 0)"/>
      <use xlink:href="#DejaVuSans-77" transform="translate(645.576172 0)"/>
     </g>
    </g>
   </g>
  </g>
  <g id="axes_3">
   <g id="patch_14">
    <path d="M 55.82 819.16 
L 637.2 819.16 
L 637.2 585.093333 
L 55.82 585.093333 
z
" style="fill: #ffffff"/>
   </g>
   <g id="matplotlib.axis_5">
    <g id="xtick_19">
     <g id="line2d_73">
      <path d="M 84.372165 819.16 
L 84.372165 585.093333 
" clip-path="url(#p5661ea84c5)" style="fill: none; stroke-dasharray: 2.96,1.28; stroke-dashoffset: 0; stroke: #b0b0b0; stroke-opacity: 0.4; stroke-width: 0.8"/>
     </g>
     <g id="line2d_74">
      <g>
       <use xlink:href="#me18df6590a" x="84.372165" y="819.16" style="stroke: #000000; stroke-width: 0.8"/>
      </g>
     </g>
     <g id="text_41">
      <!-- 0 -->
      <g transform="translate(81.190915 833.758438) scale(0.1 -0.1)">
       <use xlink:href="#DejaVuSans-30"/>
      </g>
     </g>
    </g>
    <g id="xtick_20">
     <g id="line2d_75">
      <path d="M 150.803446 819.16 
L 150.803446 585.093333 
" clip-path="url(#p5661ea84c5)" style="fill: none; stroke-dasharray: 2.96,1.28; stroke-dashoffset: 0; stroke: #b0b0b0; stroke-opacity: 0.4; stroke-width: 0.8"/>
     </g>
     <g id="line2d_76">
      <g>
       <use xlink:href="#me18df6590a" x="150.803446" y="819.16" style="stroke: #000000; stroke-width: 0.8"/>
      </g>
     </g>
     <g id="text_42">
      <!-- 250 -->
      <g transform="translate(141.259696 833.758438) scale(0.1 -0.1)">
       <use xlink:href="#DejaVuSans-32"/>
       <use xlink:href="#DejaVuSans-35" transform="translate(63.623047 0)"/>
       <use xlink:href="#DejaVuSans-30" transform="translate(127.246094 0)"/>
      </g>
     </g>
    </g>
    <g id="xtick_21">
     <g id="line2d_77">
      <path d="M 217.234727 819.16 
L 217.234727 585.093333 
" clip-path="url(#p5661ea84c5)" style="fill: none; stroke-dasharray: 2.96,1.28; stroke-dashoffset: 0; stroke: #b0b0b0; stroke-opacity: 0.4; stroke-width: 0.8"/>
     </g>
     <g id="line2d_78">
      <g>
       <use xlink:href="#me18df6590a" x="217.234727" y="819.16" style="stroke: #000000; stroke-width: 0.8"/>
      </g>
     </g>
     <g id="text_43">
      <!-- 500 -->
      <g transform="translate(207.690977 833.758438) scale(0.1 -0.1)">
       <use xlink:href="#DejaVuSans-35"/>
       <use xlink:href="#DejaVuSans-30" transform="translate(63.623047 0)"/>
       <use xlink:href="#DejaVuSans-30" transform="translate(127.246094 0)"/>
      </g>
     </g>
    </g>
    <g id="xtick_22">
     <g id="line2d_79">
      <path d="M 283.666008 819.16 
L 283.666008 585.093333 
" clip-path="url(#p5661ea84c5)" style="fill: none; stroke-dasharray: 2.96,1.28; stroke-dashoffset: 0; stroke: #b0b0b0; stroke-opacity: 0.4; stroke-width: 0.8"/>
     </g>
     <g id="line2d_80">
      <g>
       <use xlink:href="#me18df6590a" x="283.666008" y="819.16" style="stroke: #000000; stroke-width: 0.8"/>
      </g>
     </g>
     <g id="text_44">
      <!-- 750 -->
      <g transform="translate(274.122258 833.758438) scale(0.1 -0.1)">
       <use xlink:href="#DejaVuSans-37"/>
       <use xlink:href="#DejaVuSans-35" transform="translate(63.623047 0)"/>
       <use xlink:href="#DejaVuSans-30" transform="translate(127.246094 0)"/>
      </g>
     </g>
    </g>
    <g id="xtick_23">
     <g id="line2d_81">
      <path d="M 350.097289 819.16 
L 350.097289 585.093333 
" clip-path="url(#p5661ea84c5)" style="fill: none; stroke-dasharray: 2.96,1.28; stroke-dashoffset: 0; stroke: #b0b0b0; stroke-opacity: 0.4; stroke-width: 0.8"/>
     </g>
     <g id="line2d_82">
      <g>
       <use xlink:href="#me18df6590a" x="350.097289" y="819.16" style="stroke: #000000; stroke-width: 0.8"/>
      </g>
     </g>
     <g id="text_45">
      <!-- 1000 -->
      <g transform="translate(337.372289 833.758438) scale(0.1 -0.1)">
       <use xlink:href="#DejaVuSans-31"/>
       <use xlink:href="#DejaVuSans-30" transform="translate(63.623047 0)"/>
       <use xlink:href="#DejaVuSans-30" transform="translate(127.246094 0)"/>
       <use xlink:href="#DejaVuSans-30" transform="translate(190.869141 0)"/>
      </g>
     </g>
    </g>
    <g id="xtick_24">
     <g id="line2d_83">
      <path d="M 416.52857 819.16 
L 416.52857 585.093333 
" clip-path="url(#p5661ea84c5)" style="fill: none; stroke-dasharray: 2.96,1.28; stroke-dashoffset: 0; stroke: #b0b0b0; stroke-opacity: 0.4; stroke-width: 0.8"/>
     </g>
     <g id="line2d_84">
      <g>
       <use xlink:href="#me18df6590a" x="416.52857" y="819.16" style="stroke: #000000; stroke-width: 0.8"/>
      </g>
     </g>
     <g id="text_46">
      <!-- 1250 -->
      <g transform="translate(403.80357 833.758438) scale(0.1 -0.1)">
       <use xlink:href="#DejaVuSans-31"/>
       <use xlink:href="#DejaVuSans-32" transform="translate(63.623047 0)"/>
       <use xlink:href="#DejaVuSans-35" transform="translate(127.246094 0)"/>
       <use xlink:href="#DejaVuSans-30" transform="translate(190.869141 0)"/>
      </g>
     </g>
    </g>
    <g id="xtick_25">
     <g id="line2d_85">
      <path d="M 482.959851 819.16 
L 482.959851 585.093333 
" clip-path="url(#p5661ea84c5)" style="fill: none; stroke-dasharray: 2.96,1.28; stroke-dashoffset: 0; stroke: #b0b0b0; stroke-opacity: 0.4; stroke-width: 0.8"/>
     </g>
     <g id="line2d_86">
      <g>
       <use xlink:href="#me18df6590a" x="482.959851" y="819.16" style="stroke: #000000; stroke-width: 0.8"/>
      </g>
     </g>
     <g id="text_47">
      <!-- 1500 -->
      <g transform="translate(470.234851 833.758438) scale(0.1 -0.1)">
       <use xlink:href="#DejaVuSans-31"/>
       <use xlink:href="#DejaVuSans-35" transform="translate(63.623047 0)"/>
       <use xlink:href="#DejaVuSans-30" transform="translate(127.246094 0)"/>
       <use xlink:href="#DejaVuSans-30" transform="translate(190.869141 0)"/>
      </g>
     </g>
    </g>
    <g id="xtick_26">
     <g id="line2d_87">
      <path d="M 549.391133 819.16 
L 549.391133 585.093333 
" clip-path="url(#p5661ea84c5)" style="fill: none; stroke-dasharray: 2.96,1.28; stroke-dashoffset: 0; stroke: #b0b0b0; stroke-opacity: 0.4; stroke-width: 0.8"/>
     </g>
     <g id="line2d_88">
      <g>
       <use xlink:href="#me18df6590a" x="549.391133" y="819.16" style="stroke: #000000; stroke-width: 0.8"/>
      </g>
     </g>
     <g id="text_48">
      <!-- 1750 -->
      <g transform="translate(536.666133 833.758438) scale(0.1 -0.1)">
       <use xlink:href="#DejaVuSans-31"/>
       <use xlink:href="#DejaVuSans-37" transform="translate(63.623047 0)"/>
       <use xlink:href="#DejaVuSans-35" transform="translate(127.246094 0)"/>
       <use xlink:href="#DejaVuSans-30" transform="translate(190.869141 0)"/>
      </g>
     </g>
    </g>
    <g id="xtick_27">
     <g id="line2d_89">
      <path d="M 615.822414 819.16 
L 615.822414 585.093333 
" clip-path="url(#p5661ea84c5)" style="fill: none; stroke-dasharray: 2.96,1.28; stroke-dashoffset: 0; stroke: #b0b0b0; stroke-opacity: 0.4; stroke-width: 0.8"/>
     </g>
     <g id="line2d_90">
      <g>
       <use xlink:href="#me18df6590a" x="615.822414" y="819.16" style="stroke: #000000; stroke-width: 0.8"/>
      </g>
     </g>
     <g id="text_49">
      <!-- 2000 -->
      <g transform="translate(603.097414 833.758438) scale(0.1 -0.1)">
       <use xlink:href="#DejaVuSans-32"/>
       <use xlink:href="#DejaVuSans-30" transform="translate(63.623047 0)"/>
       <use xlink:href="#DejaVuSans-30" transform="translate(127.246094 0)"/>
       <use xlink:href="#DejaVuSans-30" transform="translate(190.869141 0)"/>
      </g>
     </g>
    </g>
    <g id="text_50">
     <!-- Time (ms) -->
     <g transform="translate(316.270937 848.95625) scale(0.12 -0.12)">
      <use xlink:href="#DejaVuSans-54"/>
      <use xlink:href="#DejaVuSans-69" transform="translate(57.958984 0)"/>
      <use xlink:href="#DejaVuSans-6d" transform="translate(85.742188 0)"/>
      <use xlink:href="#DejaVuSans-65" transform="translate(183.154297 0)"/>
      <use xlink:href="#DejaVuSans-20" transform="translate(244.677734 0)"/>
      <use xlink:href="#DejaVuSans-28" transform="translate(276.464844 0)"/>
      <use xlink:href="#DejaVuSans-6d" transform="translate(315.478516 0)"/>
      <use xlink:href="#DejaVuSans-73" transform="translate(412.890625 0)"/>
      <use xlink:href="#DejaVuSans-29" transform="translate(464.990234 0)"/>
     </g>
    </g>
   </g>
   <g id="matplotlib.axis_6">
    <g id="ytick_15">
     <g id="line2d_91">
      <path d="M 55.82 808.520606 
L 637.2 808.520606 
" clip-path="url(#p5661ea84c5)" style="fill: none; stroke-dasharray: 2.96,1.28; stroke-dashoffset: 0; stroke: #b0b0b0; stroke-opacity: 0.4; stroke-width: 0.8"/>
     </g>
     <g id="line2d_92">
      <g>
       <use xlink:href="#m6d4beedd31" x="55.82" y="808.520606" style="stroke: #000000; stroke-width: 0.8"/>
      </g>
     </g>
     <g id="text_51">
      <!-- 0 -->
      <g transform="translate(42.4575 812.319825) scale(0.1 -0.1)">
       <use xlink:href="#DejaVuSans-30"/>
      </g>
     </g>
    </g>
    <g id="ytick_16">
     <g id="line2d_93">
      <path d="M 55.82 766.446878 
L 637.2 766.446878 
" clip-path="url(#p5661ea84c5)" style="fill: none; stroke-dasharray: 2.96,1.28; stroke-dashoffset: 0; stroke: #b0b0b0; stroke-opacity: 0.4; stroke-width: 0.8"/>
     </g>
     <g id="line2d_94">
      <g>
       <use xlink:href="#m6d4beedd31" x="55.82" y="766.446878" style="stroke: #000000; stroke-width: 0.8"/>
      </g>
     </g>
     <g id="text_52">
      <!-- 100 -->
      <g transform="translate(29.7325 770.246097) scale(0.1 -0.1)">
       <use xlink:href="#DejaVuSans-31"/>
       <use xlink:href="#DejaVuSans-30" transform="translate(63.623047 0)"/>
       <use xlink:href="#DejaVuSans-30" transform="translate(127.246094 0)"/>
      </g>
     </g>
    </g>
    <g id="ytick_17">
     <g id="line2d_95">
      <path d="M 55.82 724.37315 
L 637.2 724.37315 
" clip-path="url(#p5661ea84c5)" style="fill: none; stroke-dasharray: 2.96,1.28; stroke-dashoffset: 0; stroke: #b0b0b0; stroke-opacity: 0.4; stroke-width: 0.8"/>
     </g>
     <g id="line2d_96">
      <g>
       <use xlink:href="#m6d4beedd31" x="55.82" y="724.37315" style="stroke: #000000; stroke-width: 0.8"/>
      </g>
     </g>
     <g id="text_53">
      <!-- 200 -->
      <g transform="translate(29.7325 728.172369) scale(0.1 -0.1)">
       <use xlink:href="#DejaVuSans-32"/>
       <use xlink:href="#DejaVuSans-30" transform="translate(63.623047 0)"/>
       <use xlink:href="#DejaVuSans-30" transform="translate(127.246094 0)"/>
      </g>
     </g>
    </g>
    <g id="ytick_18">
     <g id="line2d_97">
      <path d="M 55.82 682.299422 
L 637.2 682.299422 
" clip-path="url(#p5661ea84c5)" style="fill: none; stroke-dasharray: 2.96,1.28; stroke-dashoffset: 0; stroke: #b0b0b0; stroke-opacity: 0.4; stroke-width: 0.8"/>
     </g>
     <g id="line2d_98">
      <g>
       <use xlink:href="#m6d4beedd31" x="55.82" y="682.299422" style="stroke: #000000; stroke-width: 0.8"/>
      </g>
     </g>
     <g id="text_54">
      <!-- 300 -->
      <g transform="translate(29.7325 686.098641) scale(0.1 -0.1)">
       <defs>
        <path id="DejaVuSans-33" d="M 2597 2516 
Q 3050 2419 3304 2112 
Q 3559 1806 3559 1356 
Q 3559 666 3084 287 
Q 2609 -91 1734 -91 
Q 1441 -91 1130 -33 
Q 819 25 488 141 
L 488 750 
Q 750 597 1062 519 
Q 1375 441 1716 441 
Q 2309 441 2620 675 
Q 2931 909 2931 1356 
Q 2931 1769 2642 2001 
Q 2353 2234 1838 2234 
L 1294 2234 
L 1294 2753 
L 1863 2753 
Q 2328 2753 2575 2939 
Q 2822 3125 2822 3475 
Q 2822 3834 2567 4026 
Q 2313 4219 1838 4219 
Q 1578 4219 1281 4162 
Q 984 4106 628 3988 
L 628 4550 
Q 988 4650 1302 4700 
Q 1616 4750 1894 4750 
Q 2613 4750 3031 4423 
Q 3450 4097 3450 3541 
Q 3450 3153 3228 2886 
Q 3006 2619 2597 2516 
z
" transform="scale(0.015625)"/>
       </defs>
       <use xlink:href="#DejaVuSans-33"/>
       <use xlink:href="#DejaVuSans-30" transform="translate(63.623047 0)"/>
       <use xlink:href="#DejaVuSans-30" transform="translate(127.246094 0)"/>
      </g>
     </g>
    </g>
    <g id="ytick_19">
     <g id="line2d_99">
      <path d="M 55.82 640.225695 
L 637.2 640.225695 
" clip-path="url(#p5661ea84c5)" style="fill: none; stroke-dasharray: 2.96,1.28; stroke-dashoffset: 0; stroke: #b0b0b0; stroke-opacity: 0.4; stroke-width: 0.8"/>
     </g>
     <g id="line2d_100">
      <g>
       <use xlink:href="#m6d4beedd31" x="55.82" y="640.225695" style="stroke: #000000; stroke-width: 0.8"/>
      </g>
     </g>
     <g id="text_55">
      <!-- 400 -->
      <g transform="translate(29.7325 644.024913) scale(0.1 -0.1)">
       <use xlink:href="#DejaVuSans-34"/>
       <use xlink:href="#DejaVuSans-30" transform="translate(63.623047 0)"/>
       <use xlink:href="#DejaVuSans-30" transform="translate(127.246094 0)"/>
      </g>
     </g>
    </g>
    <g id="ytick_20">
     <g id="line2d_101">
      <path d="M 55.82 598.151967 
L 637.2 598.151967 
" clip-path="url(#p5661ea84c5)" style="fill: none; stroke-dasharray: 2.96,1.28; stroke-dashoffset: 0; stroke: #b0b0b0; stroke-opacity: 0.4; stroke-width: 0.8"/>
     </g>
     <g id="line2d_102">
      <g>
       <use xlink:href="#m6d4beedd31" x="55.82" y="598.151967" style="stroke: #000000; stroke-width: 0.8"/>
      </g>
     </g>
     <g id="text_56">
      <!-- 500 -->
      <g transform="translate(29.7325 601.951185) scale(0.1 -0.1)">
       <use xlink:href="#DejaVuSans-35"/>
       <use xlink:href="#DejaVuSans-30" transform="translate(63.623047 0)"/>
       <use xlink:href="#DejaVuSans-30" transform="translate(127.246094 0)"/>
      </g>
     </g>
    </g>
    <g id="text_57">
     <!-- Velocity (mm/s) -->
     <g transform="translate(23.236875 749.089792) rotate(-90) scale(0.12 -0.12)">
      <defs>
       <path id="DejaVuSans-56" d="M 1831 0 
L 50 4666 
L 709 4666 
L 2188 738 
L 3669 4666 
L 4325 4666 
L 2547 0 
L 1831 0 
z
" transform="scale(0.015625)"/>
       <path id="DejaVuSans-6c" d="M 603 4863 
L 1178 4863 
L 1178 0 
L 603 0 
L 603 4863 
z
" transform="scale(0.015625)"/>
       <path id="DejaVuSans-6f" d="M 1959 3097 
Q 1497 3097 1228 2736 
Q 959 2375 959 1747 
Q 959 1119 1226 758 
Q 1494 397 1959 397 
Q 2419 397 2687 759 
Q 2956 1122 2956 1747 
Q 2956 2369 2687 2733 
Q 2419 3097 1959 3097 
z
M 1959 3584 
Q 2709 3584 3137 3096 
Q 3566 2609 3566 1747 
Q 3566 888 3137 398 
Q 2709 -91 1959 -91 
Q 1206 -91 779 398 
Q 353 888 353 1747 
Q 353 2609 779 3096 
Q 1206 3584 1959 3584 
z
" transform="scale(0.015625)"/>
       <path id="DejaVuSans-79" d="M 2059 -325 
Q 1816 -950 1584 -1140 
Q 1353 -1331 966 -1331 
L 506 -1331 
L 506 -850 
L 844 -850 
Q 1081 -850 1212 -737 
Q 1344 -625 1503 -206 
L 1606 56 
L 191 3500 
L 800 3500 
L 1894 763 
L 2988 3500 
L 3597 3500 
L 2059 -325 
z
" transform="scale(0.015625)"/>
       <path id="DejaVuSans-2f" d="M 1625 4666 
L 2156 4666 
L 531 -594 
L 0 -594 
L 1625 4666 
z
" transform="scale(0.015625)"/>
      </defs>
      <use xlink:href="#DejaVuSans-56"/>
      <use xlink:href="#DejaVuSans-65" transform="translate(60.658203 0)"/>
      <use xlink:href="#DejaVuSans-6c" transform="translate(122.181641 0)"/>
      <use xlink:href="#DejaVuSans-6f" transform="translate(149.964844 0)"/>
      <use xlink:href="#DejaVuSans-63" transform="translate(211.146484 0)"/>
      <use xlink:href="#DejaVuSans-69" transform="translate(266.126953 0)"/>
      <use xlink:href="#DejaVuSans-74" transform="translate(293.910156 0)"/>
      <use xlink:href="#DejaVuSans-79" transform="translate(333.119141 0)"/>
      <use xlink:href="#DejaVuSans-20" transform="translate(392.298828 0)"/>
      <use xlink:href="#DejaVuSans-28" transform="translate(424.085938 0)"/>
      <use xlink:href="#DejaVuSans-6d" transform="translate(463.099609 0)"/>
      <use xlink:href="#DejaVuSans-6d" transform="translate(560.511719 0)"/>
      <use xlink:href="#DejaVuSans-2f" transform="translate(657.923828 0)"/>
      <use xlink:href="#DejaVuSans-73" transform="translate(691.615234 0)"/>
      <use xlink:href="#DejaVuSans-29" transform="translate(743.714844 0)"/>
     </g>
    </g>
   </g>
   <g id="line2d_103">
    <path d="M 84.372165 808.520606 
L 89.686667 769.955827 
L 97.126971 708.91947 
L 100.581397 686.578321 
L 105.630175 682.585524 
L 112.539028 654.320393 
L 116.25918 643.633666 
L 121.573682 643.890316 
L 128.74826 641.765593 
L 132.468412 635.008552 
L 137.51719 634.364824 
L 144.426043 627.022959 
L 148.41192 621.742706 
L 153.460697 616.205803 
L 160.635275 613.311131 
L 164.355427 611.830136 
L 169.404204 611.11909 
L 174.718707 609.768523 
L 180.298935 608.417956 
L 185.347712 606.225915 
L 192.52229 605.969265 
L 196.242442 601.850247 
L 201.291219 608.350638 
L 208.200073 606.806532 
L 212.18595 603.974971 
L 217.234727 605.199316 
L 224.67503 603.844542 
L 228.129457 606.612993 
L 233.178234 601.976468 
L 239.821362 604.362049 
L 243.807239 604.425159 
L 249.121742 602.106897 
L 256.29632 603.651003 
L 260.016472 602.430865 
L 265.065249 600.882552 
L 271.974103 602.106897 
L 275.959979 603.781431 
L 281.008757 602.620197 
L 288.183335 601.206519 
L 291.903487 602.237326 
L 296.952264 604.618699 
L 303.861118 602.043786 
L 307.846994 599.982174 
L 312.895772 605.969265 
L 320.07035 603.844542 
L 323.790502 601.787137 
L 328.839279 604.555588 
L 335.748132 601.850247 
L 339.468284 604.038081 
L 344.782787 605.325537 
L 351.957365 601.26963 
L 355.677517 602.043786 
L 360.726294 604.48827 
L 367.635147 602.106897 
L 371.621024 604.038081 
L 376.669802 602.687514 
L 383.84438 601.26963 
L 387.564532 602.237326 
L 392.613309 601.33274 
L 399.522162 602.043786 
L 403.508039 600.432363 
L 408.556817 602.557086 
L 415.731395 601.400058 
L 419.451547 601.787137 
L 424.500324 600.882552 
L 431.409177 601.976468 
L 435.395054 604.16851 
L 440.443832 602.557086 
L 447.61841 603.718321 
L 451.072837 602.557086 
L 456.387339 600.94987 
L 463.296192 602.237326 
L 467.016344 603.974971 
L 472.330846 602.237326 
L 479.505425 598.825146 
L 483.225577 601.787137 
L 488.274354 604.812238 
L 495.183207 599.531985 
L 499.169084 604.294731 
L 504.217861 599.208017 
L 511.126715 598.307639 
L 514.846866 602.363547 
L 520.161369 600.75633 
L 527.070222 599.595095 
L 531.056099 595.795838 
L 536.104876 599.208017 
L 543.279455 599.018685 
L 546.999606 601.850247 
L 552.048384 601.01298 
L 558.957237 599.401556 
L 562.943114 599.919063 
L 567.991891 602.620197 
L 575.16647 599.018685 
L 578.886621 597.407262 
L 583.935399 604.23162 
L 590.844252 597.344151 
L 594.564404 595.732727 
L 599.878906 599.144907 
L 607.053485 598.757828 
L 610.773636 598.05099 
" clip-path="url(#p5661ea84c5)" style="fill: none; stroke: #ff0000; stroke-width: 2; stroke-linecap: square"/>
   </g>
   <g id="line2d_104">
    <path d="M 82.246364 808.520606 
L 85.70079 804.029236 
L 91.546743 804.029236 
L 98.455596 804.043961 
L 102.175748 804.029236 
L 106.9588 804.043961 
L 114.133379 804.043961 
L 117.587805 804.043961 
L 123.433758 804.043961 
L 130.342611 804.043961 
L 134.062763 804.043961 
L 138.845815 804.043961 
L 146.020394 804.043961 
L 149.740545 804.043961 
L 155.055048 804.043961 
L 161.963901 804.058687 
L 165.949778 804.043961 
L 170.73283 804.043961 
L 177.907408 804.058687 
L 181.62756 804.043961 
L 186.942063 804.043961 
L 193.850916 804.058687 
L 197.836793 804.043961 
L 202.619845 804.043961 
L 209.794423 804.058687 
L 213.514575 804.043961 
L 219.094803 804.043961 
L 226.003656 804.058687 
L 229.723808 804.043961 
L 234.50686 804.043961 
L 241.681438 804.058687 
L 245.135865 804.043961 
L 250.716093 804.043961 
L 257.624946 804.058687 
L 261.610823 804.043961 
L 266.393875 804.043961 
L 273.568453 804.058687 
L 277.288605 804.043961 
L 282.603108 804.043961 
L 289.511961 804.058687 
L 293.497838 804.043961 
L 298.28089 804.043961 
L 305.455468 804.058687 
L 309.17562 804.043961 
L 314.490122 804.043961 
L 321.398976 804.058687 
L 325.384853 804.043961 
L 330.167905 804.043961 
L 337.342483 804.058687 
L 340.79691 804.043961 
L 346.642863 804.043961 
L 353.551716 804.058687 
L 357.271868 804.043961 
L 362.05492 804.043961 
L 369.229498 804.058687 
L 372.94965 804.043961 
L 378.264152 804.043961 
L 385.173006 804.058687 
L 389.158882 804.043961 
L 393.941935 804.043961 
L 401.116513 804.058687 
L 404.836665 804.043961 
L 410.151167 804.043961 
L 417.060021 804.058687 
L 421.045897 804.043961 
L 425.82895 804.043961 
L 433.003528 804.058687 
L 436.72368 804.043961 
L 442.038182 804.043961 
L 448.947036 804.058687 
L 452.932912 804.043961 
L 457.715965 804.043961 
L 464.890543 804.058687 
L 468.34497 804.043961 
L 474.190922 804.043961 
L 480.83405 804.058687 
L 484.819927 804.043961 
L 489.60298 804.043961 
L 496.777558 804.058687 
L 500.49771 804.043961 
L 505.812212 804.043961 
L 512.721065 804.058687 
L 516.441217 804.043961 
L 521.489995 804.043961 
L 528.664573 804.058687 
L 532.384725 804.043961 
L 537.699227 804.043961 
L 544.60808 804.058687 
L 548.593957 804.043961 
L 553.377009 804.043961 
L 560.551588 804.058687 
L 564.27174 804.043961 
L 569.586242 804.043961 
L 576.495095 804.058687 
L 580.480972 804.043961 
L 585.264024 804.043961 
L 592.438603 804.058687 
L 596.158755 804.043961 
L 601.738982 804.043961 
L 608.647835 804.058687 
" clip-path="url(#p5661ea84c5)" style="fill: none; stroke-dasharray: 7.4,3.2; stroke-dashoffset: 0; stroke: #000000; stroke-width: 2"/>
   </g>
   <g id="patch_15">
    <path d="M 55.82 819.16 
L 55.82 585.093333 
" style="fill: none; stroke: #000000; stroke-width: 0.8; stroke-linejoin: miter; stroke-linecap: square"/>
   </g>
   <g id="patch_16">
    <path d="M 637.2 819.16 
L 637.2 585.093333 
" style="fill: none; stroke: #000000; stroke-width: 0.8; stroke-linejoin: miter; stroke-linecap: square"/>
   </g>
   <g id="patch_17">
    <path d="M 55.82 819.16 
L 637.2 819.16 
" style="fill: none; stroke: #000000; stroke-width: 0.8; stroke-linejoin: miter; stroke-linecap: square"/>
   </g>
   <g id="patch_18">
    <path d="M 55.82 585.093333 
L 637.2 585.093333 
" style="fill: none; stroke: #000000; stroke-width: 0.8; stroke-linejoin: miter; stroke-linecap: square"/>
   </g>
   <g id="text_58">
    <!-- Straight Test: Measured vs Estimated Left Wheel Velocity -->
    <g transform="translate(146.979375 579.093333) scale(0.14 -0.14)">
     <defs>
      <path id="DejaVuSans-66" d="M 2375 4863 
L 2375 4384 
L 1825 4384 
Q 1516 4384 1395 4259 
Q 1275 4134 1275 3809 
L 1275 3500 
L 2222 3500 
L 2222 3053 
L 1275 3053 
L 1275 0 
L 697 0 
L 697 3053 
L 147 3053 
L 147 3500 
L 697 3500 
L 697 3744 
Q 697 4328 969 4595 
Q 1241 4863 1831 4863 
L 2375 4863 
z
" transform="scale(0.015625)"/>
      <path id="DejaVuSans-57" d="M 213 4666 
L 850 4666 
L 1831 722 
L 2809 4666 
L 3519 4666 
L 4500 722 
L 5478 4666 
L 6119 4666 
L 4947 0 
L 4153 0 
L 3169 4050 
L 2175 0 
L 1381 0 
L 213 4666 
z
" transform="scale(0.015625)"/>
     </defs>
     <use xlink:href="#DejaVuSans-53"/>
     <use xlink:href="#DejaVuSans-74" transform="translate(63.476562 0)"/>
     <use xlink:href="#DejaVuSans-72" transform="translate(102.685547 0)"/>
     <use xlink:href="#DejaVuSans-61" transform="translate(143.798828 0)"/>
     <use xlink:href="#DejaVuSans-69" transform="translate(205.078125 0)"/>
     <use xlink:href="#DejaVuSans-67" transform="translate(232.861328 0)"/>
     <use xlink:href="#DejaVuSans-68" transform="translate(296.337891 0)"/>
     <use xlink:href="#DejaVuSans-74" transform="translate(359.716797 0)"/>
     <use xlink:href="#DejaVuSans-20" transform="translate(398.925781 0)"/>
     <use xlink:href="#DejaVuSans-54" transform="translate(430.712891 0)"/>
     <use xlink:href="#DejaVuSans-65" transform="translate(474.796875 0)"/>
     <use xlink:href="#DejaVuSans-73" transform="translate(536.320312 0)"/>
     <use xlink:href="#DejaVuSans-74" transform="translate(588.419922 0)"/>
     <use xlink:href="#DejaVuSans-3a" transform="translate(627.628906 0)"/>
     <use xlink:href="#DejaVuSans-20" transform="translate(661.320312 0)"/>
     <use xlink:href="#DejaVuSans-4d" transform="translate(693.107422 0)"/>
     <use xlink:href="#DejaVuSans-65" transform="translate(779.386719 0)"/>
     <use xlink:href="#DejaVuSans-61" transform="translate(840.910156 0)"/>
     <use xlink:href="#DejaVuSans-73" transform="translate(902.189453 0)"/>
     <use xlink:href="#DejaVuSans-75" transform="translate(954.289062 0)"/>
     <use xlink:href="#DejaVuSans-72" transform="translate(1017.667969 0)"/>
     <use xlink:href="#DejaVuSans-65" transform="translate(1056.53125 0)"/>
     <use xlink:href="#DejaVuSans-64" transform="translate(1118.054688 0)"/>
     <use xlink:href="#DejaVuSans-20" transform="translate(1181.53125 0)"/>
     <use xlink:href="#DejaVuSans-76" transform="translate(1213.318359 0)"/>
     <use xlink:href="#DejaVuSans-73" transform="translate(1272.498047 0)"/>
     <use xlink:href="#DejaVuSans-20" transform="translate(1324.597656 0)"/>
     <use xlink:href="#DejaVuSans-45" transform="translate(1356.384766 0)"/>
     <use xlink:href="#DejaVuSans-73" transform="translate(1419.568359 0)"/>
     <use xlink:href="#DejaVuSans-74" transform="translate(1471.667969 0)"/>
     <use xlink:href="#DejaVuSans-69" transform="translate(1510.876953 0)"/>
     <use xlink:href="#DejaVuSans-6d" transform="translate(1538.660156 0)"/>
     <use xlink:href="#DejaVuSans-61" transform="translate(1636.072266 0)"/>
     <use xlink:href="#DejaVuSans-74" transform="translate(1697.351562 0)"/>
     <use xlink:href="#DejaVuSans-65" transform="translate(1736.560547 0)"/>
     <use xlink:href="#DejaVuSans-64" transform="translate(1798.083984 0)"/>
     <use xlink:href="#DejaVuSans-20" transform="translate(1861.560547 0)"/>
     <use xlink:href="#DejaVuSans-4c" transform="translate(1893.347656 0)"/>
     <use xlink:href="#DejaVuSans-65" transform="translate(1947.310547 0)"/>
     <use xlink:href="#DejaVuSans-66" transform="translate(2008.833984 0)"/>
     <use xlink:href="#DejaVuSans-74" transform="translate(2042.289062 0)"/>
     <use xlink:href="#DejaVuSans-20" transform="translate(2081.498047 0)"/>
     <use xlink:href="#DejaVuSans-57" transform="translate(2113.285156 0)"/>
     <use xlink:href="#DejaVuSans-68" transform="translate(2212.162109 0)"/>
     <use xlink:href="#DejaVuSans-65" transform="translate(2275.541016 0)"/>
     <use xlink:href="#DejaVuSans-65" transform="translate(2337.064453 0)"/>
     <use xlink:href="#DejaVuSans-6c" transform="translate(2398.587891 0)"/>
     <use xlink:href="#DejaVuSans-20" transform="translate(2426.371094 0)"/>
     <use xlink:href="#DejaVuSans-56" transform="translate(2458.158203 0)"/>
     <use xlink:href="#DejaVuSans-65" transform="translate(2518.816406 0)"/>
     <use xlink:href="#DejaVuSans-6c" transform="translate(2580.339844 0)"/>
     <use xlink:href="#DejaVuSans-6f" transform="translate(2608.123047 0)"/>
     <use xlink:href="#DejaVuSans-63" transform="translate(2669.304688 0)"/>
     <use xlink:href="#DejaVuSans-69" transform="translate(2724.285156 0)"/>
     <use xlink:href="#DejaVuSans-74" transform="translate(2752.068359 0)"/>
     <use xlink:href="#DejaVuSans-79" transform="translate(2791.277344 0)"/>
    </g>
   </g>
   <g id="legend_3">
    <g id="patch_19">
     <path d="M 483.279687 814.16 
L 630.2 814.16 
Q 632.2 814.16 632.2 812.16 
L 632.2 783.80375 
Q 632.2 781.80375 630.2 781.80375 
L 483.279687 781.80375 
Q 481.279687 781.80375 481.279687 783.80375 
L 481.279687 812.16 
Q 481.279687 814.16 483.279687 814.16 
z
" style="fill: #ffffff; opacity: 0.8; stroke: #cccccc; stroke-linejoin: miter"/>
    </g>
    <g id="line2d_105">
     <path d="M 485.279687 789.902187 
L 495.279687 789.902187 
L 505.279687 789.902187 
" style="fill: none; stroke: #ff0000; stroke-width: 2; stroke-linecap: square"/>
    </g>
    <g id="text_59">
     <!-- Measured Left Velocity -->
     <g transform="translate(513.279687 793.402187) scale(0.1 -0.1)">
      <use xlink:href="#DejaVuSans-4d"/>
      <use xlink:href="#DejaVuSans-65" transform="translate(86.279297 0)"/>
      <use xlink:href="#DejaVuSans-61" transform="translate(147.802734 0)"/>
      <use xlink:href="#DejaVuSans-73" transform="translate(209.082031 0)"/>
      <use xlink:href="#DejaVuSans-75" transform="translate(261.181641 0)"/>
      <use xlink:href="#DejaVuSans-72" transform="translate(324.560547 0)"/>
      <use xlink:href="#DejaVuSans-65" transform="translate(363.423828 0)"/>
      <use xlink:href="#DejaVuSans-64" transform="translate(424.947266 0)"/>
      <use xlink:href="#DejaVuSans-20" transform="translate(488.423828 0)"/>
      <use xlink:href="#DejaVuSans-4c" transform="translate(520.210938 0)"/>
      <use xlink:href="#DejaVuSans-65" transform="translate(574.173828 0)"/>
      <use xlink:href="#DejaVuSans-66" transform="translate(635.697266 0)"/>
      <use xlink:href="#DejaVuSans-74" transform="translate(669.152344 0)"/>
      <use xlink:href="#DejaVuSans-20" transform="translate(708.361328 0)"/>
      <use xlink:href="#DejaVuSans-56" transform="translate(740.148438 0)"/>
      <use xlink:href="#DejaVuSans-65" transform="translate(800.806641 0)"/>
      <use xlink:href="#DejaVuSans-6c" transform="translate(862.330078 0)"/>
      <use xlink:href="#DejaVuSans-6f" transform="translate(890.113281 0)"/>
      <use xlink:href="#DejaVuSans-63" transform="translate(951.294922 0)"/>
      <use xlink:href="#DejaVuSans-69" transform="translate(1006.275391 0)"/>
      <use xlink:href="#DejaVuSans-74" transform="translate(1034.058594 0)"/>
      <use xlink:href="#DejaVuSans-79" transform="translate(1073.267578 0)"/>
     </g>
    </g>
    <g id="line2d_106">
     <path d="M 485.279687 804.580312 
L 495.279687 804.580312 
L 505.279687 804.580312 
" style="fill: none; stroke-dasharray: 7.4,3.2; stroke-dashoffset: 0; stroke: #000000; stroke-width: 2"/>
    </g>
    <g id="text_60">
     <!-- Estimated Left Velocity -->
     <g transform="translate(513.279687 808.080312) scale(0.1 -0.1)">
      <use xlink:href="#DejaVuSans-45"/>
      <use xlink:href="#DejaVuSans-73" transform="translate(63.183594 0)"/>
      <use xlink:href="#DejaVuSans-74" transform="translate(115.283203 0)"/>
      <use xlink:href="#DejaVuSans-69" transform="translate(154.492188 0)"/>
      <use xlink:href="#DejaVuSans-6d" transform="translate(182.275391 0)"/>
      <use xlink:href="#DejaVuSans-61" transform="translate(279.6875 0)"/>
      <use xlink:href="#DejaVuSans-74" transform="translate(340.966797 0)"/>
      <use xlink:href="#DejaVuSans-65" transform="translate(380.175781 0)"/>
      <use xlink:href="#DejaVuSans-64" transform="translate(441.699219 0)"/>
      <use xlink:href="#DejaVuSans-20" transform="translate(505.175781 0)"/>
      <use xlink:href="#DejaVuSans-4c" transform="translate(536.962891 0)"/>
      <use xlink:href="#DejaVuSans-65" transform="translate(590.925781 0)"/>
      <use xlink:href="#DejaVuSans-66" transform="translate(652.449219 0)"/>
      <use xlink:href="#DejaVuSans-74" transform="translate(685.904297 0)"/>
      <use xlink:href="#DejaVuSans-20" transform="translate(725.113281 0)"/>
      <use xlink:href="#DejaVuSans-56" transform="translate(756.900391 0)"/>
      <use xlink:href="#DejaVuSans-65" transform="translate(817.558594 0)"/>
      <use xlink:href="#DejaVuSans-6c" transform="translate(879.082031 0)"/>
      <use xlink:href="#DejaVuSans-6f" transform="translate(906.865234 0)"/>
      <use xlink:href="#DejaVuSans-63" transform="translate(968.046875 0)"/>
      <use xlink:href="#DejaVuSans-69" transform="translate(1023.027344 0)"/>
      <use xlink:href="#DejaVuSans-74" transform="translate(1050.810547 0)"/>
      <use xlink:href="#DejaVuSans-79" transform="translate(1090.019531 0)"/>
     </g>
    </g>
   </g>
  </g>
 </g>
 <defs>
  <clipPath id="p0364699d3c">
   <rect x="55.82" y="27.6" width="581.38" height="234.066667"/>
  </clipPath>
  <clipPath id="pcd9e11af37">
   <rect x="55.82" y="306.346667" width="581.38" height="234.066667"/>
  </clipPath>
  <clipPath id="p5661ea84c5">
   <rect x="55.82" y="585.093333" width="581.38" height="234.066667"/>
  </clipPath>
 </defs>
</svg>
