<?xml version="1.0" encoding="utf-8" standalone="no"?>
<!DOCTYPE svg PUBLIC "-//W3C//DTD SVG 1.1//EN"
  "http://www.w3.org/Graphics/SVG/1.1/DTD/svg11.dtd">
<svg xmlns:xlink="http://www.w3.org/1999/xlink" width="648pt" height="864pt" viewBox="0 0 648 864" xmlns="http://www.w3.org/2000/svg" version="1.1">
 <metadata>
  <rdf:RDF xmlns:dc="http://purl.org/dc/elements/1.1/" xmlns:cc="http://creativecommons.org/ns#" xmlns:rdf="http://www.w3.org/1999/02/22-rdf-syntax-ns#">
   <cc:Work>
    <dc:type rdf:resource="http://purl.org/dc/dcmitype/StillImage"/>
    <dc:date>2025-11-30T23:18:40.509661</dc:date>
    <dc:format>image/svg+xml</dc:format>
    <dc:creator>
     <cc:Agent>
      <dc:title>Matplotlib v3.10.7, https://matplotlib.org/</dc:title>
     </cc:Agent>
    </dc:creator>
   </cc:Work>
  </rdf:RDF>
 </metadata>
 <defs>
  <style type="text/css">*{stroke-linejoin: round; stroke-linecap: butt}</style>
 </defs>
 <g id="figure_1">
  <g id="patch_1">
   <path d="M 0 864 
L 648 864 
L 648 0 
L 0 0 
z
" style="fill: #ffffff"/>
  </g>
  <g id="axes_1">
   <g id="patch_2">
    <path d="M 62.12 261.666667 
L 637.2 261.666667 
L 637.2 27.6 
L 62.12 27.6 
z
" style="fill: #ffffff"/>
   </g>
   <g id="matplotlib.axis_1">
    <g id="xtick_1">
     <g id="line2d_1">
      <path d="M 88.26 261.666667 
L 88.26 27.6 
" clip-path="url(#pf4da39466c)" style="fill: none; stroke-dasharray: 2.96,1.28; stroke-dashoffset: 0; stroke: #b0b0b0; stroke-opacity: 0.4; stroke-width: 0.8"/>
     </g>
     <g id="line2d_2">
      <defs>
       <path id="m69a47d1b99" d="M 0 0 
L 0 3.5 
" style="stroke: #000000; stroke-width: 0.8"/>
      </defs>
      <g>
       <use xlink:href="#m69a47d1b99" x="88.26" y="261.666667" style="stroke: #000000; stroke-width: 0.8"/>
      </g>
     </g>
     <g id="text_1">
      <!-- 0 -->
      <g transform="translate(85.07875 276.265104) scale(0.1 -0.1)">
       <defs>
        <path id="DejaVuSans-30" d="M 2034 4250 
Q 1547 4250 1301 3770 
Q 1056 3291 1056 2328 
Q 1056 1369 1301 889 
Q 1547 409 2034 409 
Q 2525 409 2770 889 
Q 3016 1369 3016 2328 
Q 3016 3291 2770 3770 
Q 2525 4250 2034 4250 
z
M 2034 4750 
Q 2819 4750 3233 4129 
Q 3647 3509 3647 2328 
Q 3647 1150 3233 529 
Q 2819 -91 2034 -91 
Q 1250 -91 836 529 
Q 422 1150 422 2328 
Q 422 3509 836 4129 
Q 1250 4750 2034 4750 
z
" transform="scale(0.015625)"/>
       </defs>
       <use xlink:href="#DejaVuSans-30"/>
      </g>
     </g>
    </g>
    <g id="xtick_2">
     <g id="line2d_3">
      <path d="M 154.236779 261.666667 
L 154.236779 27.6 
" clip-path="url(#pf4da39466c)" style="fill: none; stroke-dasharray: 2.96,1.28; stroke-dashoffset: 0; stroke: #b0b0b0; stroke-opacity: 0.4; stroke-width: 0.8"/>
     </g>
     <g id="line2d_4">
      <g>
       <use xlink:href="#m69a47d1b99" x="154.236779" y="261.666667" style="stroke: #000000; stroke-width: 0.8"/>
      </g>
     </g>
     <g id="text_2">
      <!-- 250 -->
      <g transform="translate(144.693029 276.265104) scale(0.1 -0.1)">
       <defs>
        <path id="DejaVuSans-32" d="M 1228 531 
L 3431 531 
L 3431 0 
L 469 0 
L 469 531 
Q 828 903 1448 1529 
Q 2069 2156 2228 2338 
Q 2531 2678 2651 2914 
Q 2772 3150 2772 3378 
Q 2772 3750 2511 3984 
Q 2250 4219 1831 4219 
Q 1534 4219 1204 4116 
Q 875 4013 500 3803 
L 500 4441 
Q 881 4594 1212 4672 
Q 1544 4750 1819 4750 
Q 2544 4750 2975 4387 
Q 3406 4025 3406 3419 
Q 3406 3131 3298 2873 
Q 3191 2616 2906 2266 
Q 2828 2175 2409 1742 
Q 1991 1309 1228 531 
z
" transform="scale(0.015625)"/>
        <path id="DejaVuSans-35" d="M 691 4666 
L 3169 4666 
L 3169 4134 
L 1269 4134 
L 1269 2991 
Q 1406 3038 1543 3061 
Q 1681 3084 1819 3084 
Q 2600 3084 3056 2656 
Q 3513 2228 3513 1497 
Q 3513 744 3044 326 
Q 2575 -91 1722 -91 
Q 1428 -91 1123 -41 
Q 819 9 494 109 
L 494 744 
Q 775 591 1075 516 
Q 1375 441 1709 441 
Q 2250 441 2565 725 
Q 2881 1009 2881 1497 
Q 2881 1984 2565 2268 
Q 2250 2553 1709 2553 
Q 1456 2553 1204 2497 
Q 953 2441 691 2322 
L 691 4666 
z
" transform="scale(0.015625)"/>
       </defs>
       <use xlink:href="#DejaVuSans-32"/>
       <use xlink:href="#DejaVuSans-35" transform="translate(63.623047 0)"/>
       <use xlink:href="#DejaVuSans-30" transform="translate(127.246094 0)"/>
      </g>
     </g>
    </g>
    <g id="xtick_3">
     <g id="line2d_5">
      <path d="M 220.213559 261.666667 
L 220.213559 27.6 
" clip-path="url(#pf4da39466c)" style="fill: none; stroke-dasharray: 2.96,1.28; stroke-dashoffset: 0; stroke: #b0b0b0; stroke-opacity: 0.4; stroke-width: 0.8"/>
     </g>
     <g id="line2d_6">
      <g>
       <use xlink:href="#m69a47d1b99" x="220.213559" y="261.666667" style="stroke: #000000; stroke-width: 0.8"/>
      </g>
     </g>
     <g id="text_3">
      <!-- 500 -->
      <g transform="translate(210.669809 276.265104) scale(0.1 -0.1)">
       <use xlink:href="#DejaVuSans-35"/>
       <use xlink:href="#DejaVuSans-30" transform="translate(63.623047 0)"/>
       <use xlink:href="#DejaVuSans-30" transform="translate(127.246094 0)"/>
      </g>
     </g>
    </g>
    <g id="xtick_4">
     <g id="line2d_7">
      <path d="M 286.190338 261.666667 
L 286.190338 27.6 
" clip-path="url(#pf4da39466c)" style="fill: none; stroke-dasharray: 2.96,1.28; stroke-dashoffset: 0; stroke: #b0b0b0; stroke-opacity: 0.4; stroke-width: 0.8"/>
     </g>
     <g id="line2d_8">
      <g>
       <use xlink:href="#m69a47d1b99" x="286.190338" y="261.666667" style="stroke: #000000; stroke-width: 0.8"/>
      </g>
     </g>
     <g id="text_4">
      <!-- 750 -->
      <g transform="translate(276.646588 276.265104) scale(0.1 -0.1)">
       <defs>
        <path id="DejaVuSans-37" d="M 525 4666 
L 3525 4666 
L 3525 4397 
L 1831 0 
L 1172 0 
L 2766 4134 
L 525 4134 
L 525 4666 
z
" transform="scale(0.015625)"/>
       </defs>
       <use xlink:href="#DejaVuSans-37"/>
       <use xlink:href="#DejaVuSans-35" transform="translate(63.623047 0)"/>
       <use xlink:href="#DejaVuSans-30" transform="translate(127.246094 0)"/>
      </g>
     </g>
    </g>
    <g id="xtick_5">
     <g id="line2d_9">
      <path d="M 352.167118 261.666667 
L 352.167118 27.6 
" clip-path="url(#pf4da39466c)" style="fill: none; stroke-dasharray: 2.96,1.28; stroke-dashoffset: 0; stroke: #b0b0b0; stroke-opacity: 0.4; stroke-width: 0.8"/>
     </g>
     <g id="line2d_10">
      <g>
       <use xlink:href="#m69a47d1b99" x="352.167118" y="261.666667" style="stroke: #000000; stroke-width: 0.8"/>
      </g>
     </g>
     <g id="text_5">
      <!-- 1000 -->
      <g transform="translate(339.442118 276.265104) scale(0.1 -0.1)">
       <defs>
        <path id="DejaVuSans-31" d="M 794 531 
L 1825 531 
L 1825 4091 
L 703 3866 
L 703 4441 
L 1819 4666 
L 2450 4666 
L 2450 531 
L 3481 531 
L 3481 0 
L 794 0 
L 794 531 
z
" transform="scale(0.015625)"/>
       </defs>
       <use xlink:href="#DejaVuSans-31"/>
       <use xlink:href="#DejaVuSans-30" transform="translate(63.623047 0)"/>
       <use xlink:href="#DejaVuSans-30" transform="translate(127.246094 0)"/>
       <use xlink:href="#DejaVuSans-30" transform="translate(190.869141 0)"/>
      </g>
     </g>
    </g>
    <g id="xtick_6">
     <g id="line2d_11">
      <path d="M 418.143897 261.666667 
L 418.143897 27.6 
" clip-path="url(#pf4da39466c)" style="fill: none; stroke-dasharray: 2.96,1.28; stroke-dashoffset: 0; stroke: #b0b0b0; stroke-opacity: 0.4; stroke-width: 0.8"/>
     </g>
     <g id="line2d_12">
      <g>
       <use xlink:href="#m69a47d1b99" x="418.143897" y="261.666667" style="stroke: #000000; stroke-width: 0.8"/>
      </g>
     </g>
     <g id="text_6">
      <!-- 1250 -->
      <g transform="translate(405.418897 276.265104) scale(0.1 -0.1)">
       <use xlink:href="#DejaVuSans-31"/>
       <use xlink:href="#DejaVuSans-32" transform="translate(63.623047 0)"/>
       <use xlink:href="#DejaVuSans-35" transform="translate(127.246094 0)"/>
       <use xlink:href="#DejaVuSans-30" transform="translate(190.869141 0)"/>
      </g>
     </g>
    </g>
    <g id="xtick_7">
     <g id="line2d_13">
      <path d="M 484.120676 261.666667 
L 484.120676 27.6 
" clip-path="url(#pf4da39466c)" style="fill: none; stroke-dasharray: 2.96,1.28; stroke-dashoffset: 0; stroke: #b0b0b0; stroke-opacity: 0.4; stroke-width: 0.8"/>
     </g>
     <g id="line2d_14">
      <g>
       <use xlink:href="#m69a47d1b99" x="484.120676" y="261.666667" style="stroke: #000000; stroke-width: 0.8"/>
      </g>
     </g>
     <g id="text_7">
      <!-- 1500 -->
      <g transform="translate(471.395676 276.265104) scale(0.1 -0.1)">
       <use xlink:href="#DejaVuSans-31"/>
       <use xlink:href="#DejaVuSans-35" transform="translate(63.623047 0)"/>
       <use xlink:href="#DejaVuSans-30" transform="translate(127.246094 0)"/>
       <use xlink:href="#DejaVuSans-30" transform="translate(190.869141 0)"/>
      </g>
     </g>
    </g>
    <g id="xtick_8">
     <g id="line2d_15">
      <path d="M 550.097456 261.666667 
L 550.097456 27.6 
" clip-path="url(#pf4da39466c)" style="fill: none; stroke-dasharray: 2.96,1.28; stroke-dashoffset: 0; stroke: #b0b0b0; stroke-opacity: 0.4; stroke-width: 0.8"/>
     </g>
     <g id="line2d_16">
      <g>
       <use xlink:href="#m69a47d1b99" x="550.097456" y="261.666667" style="stroke: #000000; stroke-width: 0.8"/>
      </g>
     </g>
     <g id="text_8">
      <!-- 1750 -->
      <g transform="translate(537.372456 276.265104) scale(0.1 -0.1)">
       <use xlink:href="#DejaVuSans-31"/>
       <use xlink:href="#DejaVuSans-37" transform="translate(63.623047 0)"/>
       <use xlink:href="#DejaVuSans-35" transform="translate(127.246094 0)"/>
       <use xlink:href="#DejaVuSans-30" transform="translate(190.869141 0)"/>
      </g>
     </g>
    </g>
    <g id="xtick_9">
     <g id="line2d_17">
      <path d="M 616.074235 261.666667 
L 616.074235 27.6 
" clip-path="url(#pf4da39466c)" style="fill: none; stroke-dasharray: 2.96,1.28; stroke-dashoffset: 0; stroke: #b0b0b0; stroke-opacity: 0.4; stroke-width: 0.8"/>
     </g>
     <g id="line2d_18">
      <g>
       <use xlink:href="#m69a47d1b99" x="616.074235" y="261.666667" style="stroke: #000000; stroke-width: 0.8"/>
      </g>
     </g>
     <g id="text_9">
      <!-- 2000 -->
      <g transform="translate(603.349235 276.265104) scale(0.1 -0.1)">
       <use xlink:href="#DejaVuSans-32"/>
       <use xlink:href="#DejaVuSans-30" transform="translate(63.623047 0)"/>
       <use xlink:href="#DejaVuSans-30" transform="translate(127.246094 0)"/>
       <use xlink:href="#DejaVuSans-30" transform="translate(190.869141 0)"/>
      </g>
     </g>
    </g>
   </g>
   <g id="matplotlib.axis_2">
    <g id="ytick_1">
     <g id="line2d_19">
      <path d="M 62.12 245.782537 
L 637.2 245.782537 
" clip-path="url(#pf4da39466c)" style="fill: none; stroke-dasharray: 2.96,1.28; stroke-dashoffset: 0; stroke: #b0b0b0; stroke-opacity: 0.4; stroke-width: 0.8"/>
     </g>
     <g id="line2d_20">
      <defs>
       <path id="m2fbd3ddfed" d="M 0 0 
L -3.5 0 
" style="stroke: #000000; stroke-width: 0.8"/>
      </defs>
      <g>
       <use xlink:href="#m2fbd3ddfed" x="62.12" y="245.782537" style="stroke: #000000; stroke-width: 0.8"/>
      </g>
     </g>
     <g id="text_10">
      <!-- −5 -->
      <g transform="translate(40.377812 249.581755) scale(0.1 -0.1)">
       <defs>
        <path id="DejaVuSans-2212" d="M 678 2272 
L 4684 2272 
L 4684 1741 
L 678 1741 
L 678 2272 
z
" transform="scale(0.015625)"/>
       </defs>
       <use xlink:href="#DejaVuSans-2212"/>
       <use xlink:href="#DejaVuSans-35" transform="translate(83.789062 0)"/>
      </g>
     </g>
    </g>
    <g id="ytick_2">
     <g id="line2d_21">
      <path d="M 62.12 204.273908 
L 637.2 204.273908 
" clip-path="url(#pf4da39466c)" style="fill: none; stroke-dasharray: 2.96,1.28; stroke-dashoffset: 0; stroke: #b0b0b0; stroke-opacity: 0.4; stroke-width: 0.8"/>
     </g>
     <g id="line2d_22">
      <g>
       <use xlink:href="#m2fbd3ddfed" x="62.12" y="204.273908" style="stroke: #000000; stroke-width: 0.8"/>
      </g>
     </g>
     <g id="text_11">
      <!-- −4 -->
      <g transform="translate(40.377812 208.073127) scale(0.1 -0.1)">
       <defs>
        <path id="DejaVuSans-34" d="M 2419 4116 
L 825 1625 
L 2419 1625 
L 2419 4116 
z
M 2253 4666 
L 3047 4666 
L 3047 1625 
L 3713 1625 
L 3713 1100 
L 3047 1100 
L 3047 0 
L 2419 0 
L 2419 1100 
L 313 1100 
L 313 1709 
L 2253 4666 
z
" transform="scale(0.015625)"/>
       </defs>
       <use xlink:href="#DejaVuSans-2212"/>
       <use xlink:href="#DejaVuSans-34" transform="translate(83.789062 0)"/>
      </g>
     </g>
    </g>
    <g id="ytick_3">
     <g id="line2d_23">
      <path d="M 62.12 162.76528 
L 637.2 162.76528 
" clip-path="url(#pf4da39466c)" style="fill: none; stroke-dasharray: 2.96,1.28; stroke-dashoffset: 0; stroke: #b0b0b0; stroke-opacity: 0.4; stroke-width: 0.8"/>
     </g>
     <g id="line2d_24">
      <g>
       <use xlink:href="#m2fbd3ddfed" x="62.12" y="162.76528" style="stroke: #000000; stroke-width: 0.8"/>
      </g>
     </g>
     <g id="text_12">
      <!-- −3 -->
      <g transform="translate(40.377812 166.564498) scale(0.1 -0.1)">
       <defs>
        <path id="DejaVuSans-33" d="M 2597 2516 
Q 3050 2419 3304 2112 
Q 3559 1806 3559 1356 
Q 3559 666 3084 287 
Q 2609 -91 1734 -91 
Q 1441 -91 1130 -33 
Q 819 25 488 141 
L 488 750 
Q 750 597 1062 519 
Q 1375 441 1716 441 
Q 2309 441 2620 675 
Q 2931 909 2931 1356 
Q 2931 1769 2642 2001 
Q 2353 2234 1838 2234 
L 1294 2234 
L 1294 2753 
L 1863 2753 
Q 2328 2753 2575 2939 
Q 2822 3125 2822 3475 
Q 2822 3834 2567 4026 
Q 2313 4219 1838 4219 
Q 1578 4219 1281 4162 
Q 984 4106 628 3988 
L 628 4550 
Q 988 4650 1302 4700 
Q 1616 4750 1894 4750 
Q 2613 4750 3031 4423 
Q 3450 4097 3450 3541 
Q 3450 3153 3228 2886 
Q 3006 2619 2597 2516 
z
" transform="scale(0.015625)"/>
       </defs>
       <use xlink:href="#DejaVuSans-2212"/>
       <use xlink:href="#DejaVuSans-33" transform="translate(83.789062 0)"/>
      </g>
     </g>
    </g>
    <g id="ytick_4">
     <g id="line2d_25">
      <path d="M 62.12 121.256651 
L 637.2 121.256651 
" clip-path="url(#pf4da39466c)" style="fill: none; stroke-dasharray: 2.96,1.28; stroke-dashoffset: 0; stroke: #b0b0b0; stroke-opacity: 0.4; stroke-width: 0.8"/>
     </g>
     <g id="line2d_26">
      <g>
       <use xlink:href="#m2fbd3ddfed" x="62.12" y="121.256651" style="stroke: #000000; stroke-width: 0.8"/>
      </g>
     </g>
     <g id="text_13">
      <!-- −2 -->
      <g transform="translate(40.377812 125.05587) scale(0.1 -0.1)">
       <use xlink:href="#DejaVuSans-2212"/>
       <use xlink:href="#DejaVuSans-32" transform="translate(83.789062 0)"/>
      </g>
     </g>
    </g>
    <g id="ytick_5">
     <g id="line2d_27">
      <path d="M 62.12 79.748022 
L 637.2 79.748022 
" clip-path="url(#pf4da39466c)" style="fill: none; stroke-dasharray: 2.96,1.28; stroke-dashoffset: 0; stroke: #b0b0b0; stroke-opacity: 0.4; stroke-width: 0.8"/>
     </g>
     <g id="line2d_28">
      <g>
       <use xlink:href="#m2fbd3ddfed" x="62.12" y="79.748022" style="stroke: #000000; stroke-width: 0.8"/>
      </g>
     </g>
     <g id="text_14">
      <!-- −1 -->
      <g transform="translate(40.377812 83.547241) scale(0.1 -0.1)">
       <use xlink:href="#DejaVuSans-2212"/>
       <use xlink:href="#DejaVuSans-31" transform="translate(83.789062 0)"/>
      </g>
     </g>
    </g>
    <g id="ytick_6">
     <g id="line2d_29">
      <path d="M 62.12 38.239394 
L 637.2 38.239394 
" clip-path="url(#pf4da39466c)" style="fill: none; stroke-dasharray: 2.96,1.28; stroke-dashoffset: 0; stroke: #b0b0b0; stroke-opacity: 0.4; stroke-width: 0.8"/>
     </g>
     <g id="line2d_30">
      <g>
       <use xlink:href="#m2fbd3ddfed" x="62.12" y="38.239394" style="stroke: #000000; stroke-width: 0.8"/>
      </g>
     </g>
     <g id="text_15">
      <!-- 0 -->
      <g transform="translate(48.7575 42.038613) scale(0.1 -0.1)">
       <use xlink:href="#DejaVuSans-30"/>
      </g>
     </g>
    </g>
    <g id="text_16">
     <!-- Arc Length (mm) -->
     <g transform="translate(33.882187 195.248958) rotate(-90) scale(0.12 -0.12)">
      <defs>
       <path id="DejaVuSans-41" d="M 2188 4044 
L 1331 1722 
L 3047 1722 
L 2188 4044 
z
M 1831 4666 
L 2547 4666 
L 4325 0 
L 3669 0 
L 3244 1197 
L 1141 1197 
L 716 0 
L 50 0 
L 1831 4666 
z
" transform="scale(0.015625)"/>
       <path id="DejaVuSans-72" d="M 2631 2963 
Q 2534 3019 2420 3045 
Q 2306 3072 2169 3072 
Q 1681 3072 1420 2755 
Q 1159 2438 1159 1844 
L 1159 0 
L 581 0 
L 581 3500 
L 1159 3500 
L 1159 2956 
Q 1341 3275 1631 3429 
Q 1922 3584 2338 3584 
Q 2397 3584 2469 3576 
Q 2541 3569 2628 3553 
L 2631 2963 
z
" transform="scale(0.015625)"/>
       <path id="DejaVuSans-63" d="M 3122 3366 
L 3122 2828 
Q 2878 2963 2633 3030 
Q 2388 3097 2138 3097 
Q 1578 3097 1268 2742 
Q 959 2388 959 1747 
Q 959 1106 1268 751 
Q 1578 397 2138 397 
Q 2388 397 2633 464 
Q 2878 531 3122 666 
L 3122 134 
Q 2881 22 2623 -34 
Q 2366 -91 2075 -91 
Q 1284 -91 818 406 
Q 353 903 353 1747 
Q 353 2603 823 3093 
Q 1294 3584 2113 3584 
Q 2378 3584 2631 3529 
Q 2884 3475 3122 3366 
z
" transform="scale(0.015625)"/>
       <path id="DejaVuSans-20" transform="scale(0.015625)"/>
       <path id="DejaVuSans-4c" d="M 628 4666 
L 1259 4666 
L 1259 531 
L 3531 531 
L 3531 0 
L 628 0 
L 628 4666 
z
" transform="scale(0.015625)"/>
       <path id="DejaVuSans-65" d="M 3597 1894 
L 3597 1613 
L 953 1613 
Q 991 1019 1311 708 
Q 1631 397 2203 397 
Q 2534 397 2845 478 
Q 3156 559 3463 722 
L 3463 178 
Q 3153 47 2828 -22 
Q 2503 -91 2169 -91 
Q 1331 -91 842 396 
Q 353 884 353 1716 
Q 353 2575 817 3079 
Q 1281 3584 2069 3584 
Q 2775 3584 3186 3129 
Q 3597 2675 3597 1894 
z
M 3022 2063 
Q 3016 2534 2758 2815 
Q 2500 3097 2075 3097 
Q 1594 3097 1305 2825 
Q 1016 2553 972 2059 
L 3022 2063 
z
" transform="scale(0.015625)"/>
       <path id="DejaVuSans-6e" d="M 3513 2113 
L 3513 0 
L 2938 0 
L 2938 2094 
Q 2938 2591 2744 2837 
Q 2550 3084 2163 3084 
Q 1697 3084 1428 2787 
Q 1159 2491 1159 1978 
L 1159 0 
L 581 0 
L 581 3500 
L 1159 3500 
L 1159 2956 
Q 1366 3272 1645 3428 
Q 1925 3584 2291 3584 
Q 2894 3584 3203 3211 
Q 3513 2838 3513 2113 
z
" transform="scale(0.015625)"/>
       <path id="DejaVuSans-67" d="M 2906 1791 
Q 2906 2416 2648 2759 
Q 2391 3103 1925 3103 
Q 1463 3103 1205 2759 
Q 947 2416 947 1791 
Q 947 1169 1205 825 
Q 1463 481 1925 481 
Q 2391 481 2648 825 
Q 2906 1169 2906 1791 
z
M 3481 434 
Q 3481 -459 3084 -895 
Q 2688 -1331 1869 -1331 
Q 1566 -1331 1297 -1286 
Q 1028 -1241 775 -1147 
L 775 -588 
Q 1028 -725 1275 -790 
Q 1522 -856 1778 -856 
Q 2344 -856 2625 -561 
Q 2906 -266 2906 331 
L 2906 616 
Q 2728 306 2450 153 
Q 2172 0 1784 0 
Q 1141 0 747 490 
Q 353 981 353 1791 
Q 353 2603 747 3093 
Q 1141 3584 1784 3584 
Q 2172 3584 2450 3431 
Q 2728 3278 2906 2969 
L 2906 3500 
L 3481 3500 
L 3481 434 
z
" transform="scale(0.015625)"/>
       <path id="DejaVuSans-74" d="M 1172 4494 
L 1172 3500 
L 2356 3500 
L 2356 3053 
L 1172 3053 
L 1172 1153 
Q 1172 725 1289 603 
Q 1406 481 1766 481 
L 2356 481 
L 2356 0 
L 1766 0 
Q 1100 0 847 248 
Q 594 497 594 1153 
L 594 3053 
L 172 3053 
L 172 3500 
L 594 3500 
L 594 4494 
L 1172 4494 
z
" transform="scale(0.015625)"/>
       <path id="DejaVuSans-68" d="M 3513 2113 
L 3513 0 
L 2938 0 
L 2938 2094 
Q 2938 2591 2744 2837 
Q 2550 3084 2163 3084 
Q 1697 3084 1428 2787 
Q 1159 2491 1159 1978 
L 1159 0 
L 581 0 
L 581 4863 
L 1159 4863 
L 1159 2956 
Q 1366 3272 1645 3428 
Q 1925 3584 2291 3584 
Q 2894 3584 3203 3211 
Q 3513 2838 3513 2113 
z
" transform="scale(0.015625)"/>
       <path id="DejaVuSans-28" d="M 1984 4856 
Q 1566 4138 1362 3434 
Q 1159 2731 1159 2009 
Q 1159 1288 1364 580 
Q 1569 -128 1984 -844 
L 1484 -844 
Q 1016 -109 783 600 
Q 550 1309 550 2009 
Q 550 2706 781 3412 
Q 1013 4119 1484 4856 
L 1984 4856 
z
" transform="scale(0.015625)"/>
       <path id="DejaVuSans-6d" d="M 3328 2828 
Q 3544 3216 3844 3400 
Q 4144 3584 4550 3584 
Q 5097 3584 5394 3201 
Q 5691 2819 5691 2113 
L 5691 0 
L 5113 0 
L 5113 2094 
Q 5113 2597 4934 2840 
Q 4756 3084 4391 3084 
Q 3944 3084 3684 2787 
Q 3425 2491 3425 1978 
L 3425 0 
L 2847 0 
L 2847 2094 
Q 2847 2600 2669 2842 
Q 2491 3084 2119 3084 
Q 1678 3084 1418 2786 
Q 1159 2488 1159 1978 
L 1159 0 
L 581 0 
L 581 3500 
L 1159 3500 
L 1159 2956 
Q 1356 3278 1631 3431 
Q 1906 3584 2284 3584 
Q 2666 3584 2933 3390 
Q 3200 3197 3328 2828 
z
" transform="scale(0.015625)"/>
       <path id="DejaVuSans-29" d="M 513 4856 
L 1013 4856 
Q 1481 4119 1714 3412 
Q 1947 2706 1947 2009 
Q 1947 1309 1714 600 
Q 1481 -109 1013 -844 
L 513 -844 
Q 928 -128 1133 580 
Q 1338 1288 1338 2009 
Q 1338 2731 1133 3434 
Q 928 4138 513 4856 
z
" transform="scale(0.015625)"/>
      </defs>
      <use xlink:href="#DejaVuSans-41"/>
      <use xlink:href="#DejaVuSans-72" transform="translate(68.408203 0)"/>
      <use xlink:href="#DejaVuSans-63" transform="translate(107.271484 0)"/>
      <use xlink:href="#DejaVuSans-20" transform="translate(162.251953 0)"/>
      <use xlink:href="#DejaVuSans-4c" transform="translate(194.039062 0)"/>
      <use xlink:href="#DejaVuSans-65" transform="translate(248.001953 0)"/>
      <use xlink:href="#DejaVuSans-6e" transform="translate(309.525391 0)"/>
      <use xlink:href="#DejaVuSans-67" transform="translate(372.904297 0)"/>
      <use xlink:href="#DejaVuSans-74" transform="translate(436.380859 0)"/>
      <use xlink:href="#DejaVuSans-68" transform="translate(475.589844 0)"/>
      <use xlink:href="#DejaVuSans-20" transform="translate(538.96875 0)"/>
      <use xlink:href="#DejaVuSans-28" transform="translate(570.755859 0)"/>
      <use xlink:href="#DejaVuSans-6d" transform="translate(609.769531 0)"/>
      <use xlink:href="#DejaVuSans-6d" transform="translate(707.181641 0)"/>
      <use xlink:href="#DejaVuSans-29" transform="translate(804.59375 0)"/>
     </g>
    </g>
   </g>
   <g id="line2d_31">
    <path d="M 88.26 38.239394 
L 93.538142 38.239394 
L 100.663635 50.943148 
L 104.358334 54.119086 
L 109.372569 60.470963 
L 116.234154 54.119086 
L 120.192761 54.119086 
L 125.206996 60.470963 
L 132.332489 66.82284 
L 136.027188 69.998779 
L 141.041424 76.350656 
L 147.903009 82.702533 
L 151.861615 89.05441 
L 156.875851 95.406287 
L 164.001343 101.758164 
L 167.696042 104.934102 
L 172.710278 111.285979 
L 179.571863 120.813795 
L 183.530469 123.989733 
L 188.544705 127.165672 
L 195.670197 130.34161 
L 199.364897 130.34161 
L 204.379132 133.517549 
L 211.240717 133.517549 
L 215.199324 133.517549 
L 220.213559 136.693487 
L 227.339051 136.693487 
L 231.033751 136.693487 
L 236.047986 143.045364 
L 242.909571 146.221303 
L 246.868178 149.397241 
L 251.882413 149.397241 
L 259.007905 155.749118 
L 262.702605 155.749118 
L 267.71684 162.100995 
L 274.578425 165.276934 
L 278.537032 168.452872 
L 283.551267 171.62881 
L 290.676759 171.62881 
L 294.371459 177.980687 
L 299.385694 181.156626 
L 306.247279 184.332564 
L 310.205886 187.508503 
L 315.220121 190.684441 
L 322.345613 190.684441 
L 326.040313 187.508503 
L 331.054548 190.684441 
L 337.916133 193.86038 
L 341.87474 197.036318 
L 347.152882 200.212257 
L 354.278375 203.388195 
L 357.709167 203.388195 
L 362.723402 209.740072 
L 369.584987 212.916011 
L 373.279687 212.916011 
L 378.557829 219.267888 
L 385.683322 225.619765 
L 389.378021 225.619765 
L 394.392256 231.971642 
L 401.253841 228.795703 
L 405.212448 228.795703 
L 410.226683 231.971642 
L 417.352176 235.14758 
L 421.046875 238.323519 
L 426.061111 241.499457 
L 432.922696 238.323519 
L 436.881302 238.323519 
L 441.895538 231.971642 
L 449.02103 231.971642 
L 452.715729 231.971642 
L 457.729965 235.14758 
L 464.59155 231.971642 
L 468.550156 231.971642 
L 473.564392 235.14758 
L 480.689884 231.971642 
L 484.384584 235.14758 
L 489.398819 231.971642 
L 496.260404 235.14758 
L 500.219011 238.323519 
L 505.233246 238.323519 
L 512.094831 238.323519 
L 515.789531 238.323519 
L 521.067673 238.323519 
L 527.929258 238.323519 
L 531.887865 241.499457 
L 536.9021 241.499457 
L 544.027592 241.499457 
L 547.722292 241.499457 
L 552.736527 244.675396 
L 559.598112 238.323519 
L 563.556719 238.323519 
L 568.570954 238.323519 
L 575.696446 235.14758 
L 579.391146 241.499457 
L 584.405381 241.499457 
L 591.266966 244.675396 
L 595.225573 247.851334 
L 600.239808 244.675396 
L 607.3653 247.851334 
L 611.06 251.027273 
" clip-path="url(#pf4da39466c)" style="fill: none; stroke: #ff0000; stroke-width: 2; stroke-linecap: square"/>
   </g>
   <g id="line2d_32">
    <path d="M 88.26 38.239394 
L 88.26 38.239394 
L 95.121585 38.239394 
L 102.247077 38.239394 
L 105.941777 38.239394 
L 110.692105 38.239394 
L 118.081504 38.239394 
L 88.26 38.239394 
L 126.790439 38.239394 
L 133.652024 38.239394 
L 137.610631 38.239394 
L 142.360959 38.239394 
L 149.750358 79.748022 
L 153.181151 79.748022 
L 158.459293 79.748022 
L 165.320878 79.748022 
L 169.279485 79.748022 
L 174.029813 79.748022 
L 181.155305 79.748022 
L 184.850005 121.256651 
L 190.128147 121.256651 
L 196.989732 121.256651 
L 200.948339 121.256651 
L 205.698667 121.256651 
L 212.82416 121.256651 
L 216.518859 121.256651 
L 221.797002 121.256651 
L 228.658587 121.256651 
L 232.617193 121.256651 
L 237.367521 121.256651 
L 244.493014 121.256651 
L 248.187713 121.256651 
L 253.465856 121.256651 
L 260.327441 121.256651 
L 264.286047 121.256651 
L 269.036376 121.256651 
L 276.161868 162.76528 
L 279.856567 162.76528 
L 285.13471 162.76528 
L 291.996295 162.76528 
L 295.954902 162.76528 
L 300.70523 162.76528 
L 307.830722 162.76528 
L 311.525422 162.76528 
L 316.803564 162.76528 
L 323.665149 162.76528 
L 327.623756 162.76528 
L 332.374084 162.76528 
L 339.499576 162.76528 
L 343.194276 162.76528 
L 348.736325 162.76528 
L 355.59791 162.76528 
L 359.29261 162.76528 
L 364.042938 204.273908 
L 371.16843 204.273908 
L 374.86313 204.273908 
L 380.405179 204.273908 
L 387.266764 204.273908 
L 390.961464 204.273908 
L 395.975699 204.273908 
L 403.101191 204.273908 
L 406.531984 204.273908 
L 411.810126 204.273908 
L 418.671711 204.273908 
L 422.630318 204.273908 
L 427.380646 204.273908 
L 434.506138 204.273908 
L 438.200838 204.273908 
L 443.47898 204.273908 
L 450.340565 204.273908 
L 454.299172 204.273908 
L 459.0495 204.273908 
L 466.174992 204.273908 
L 469.869692 204.273908 
L 475.147834 204.273908 
L 482.009419 204.273908 
L 485.968026 204.273908 
L 490.718354 204.273908 
L 497.843847 204.273908 
L 501.538546 204.273908 
L 506.816689 204.273908 
L 513.678274 204.273908 
L 517.372973 204.273908 
L 522.387208 204.273908 
L 529.512701 204.273908 
L 533.2074 204.273908 
L 538.485543 204.273908 
L 545.347128 204.273908 
L 549.305734 204.273908 
L 554.056063 204.273908 
L 561.181555 204.273908 
L 564.876254 204.273908 
L 570.154397 204.273908 
L 577.015982 204.273908 
L 580.974589 204.273908 
L 585.724917 204.273908 
L 592.850409 204.273908 
L 596.545109 245.782537 
L 601.823251 204.273908 
L 608.684836 245.782537 
" clip-path="url(#pf4da39466c)" style="fill: none; stroke-dasharray: 7.4,3.2; stroke-dashoffset: 0; stroke: #000000; stroke-width: 2"/>
   </g>
   <g id="patch_3">
    <path d="M 62.12 261.666667 
L 62.12 27.6 
" style="fill: none; stroke: #000000; stroke-width: 0.8; stroke-linejoin: miter; stroke-linecap: square"/>
   </g>
   <g id="patch_4">
    <path d="M 637.2 261.666667 
L 637.2 27.6 
" style="fill: none; stroke: #000000; stroke-width: 0.8; stroke-linejoin: miter; stroke-linecap: square"/>
   </g>
   <g id="patch_5">
    <path d="M 62.12 261.666667 
L 637.2 261.666667 
" style="fill: none; stroke: #000000; stroke-width: 0.8; stroke-linejoin: miter; stroke-linecap: square"/>
   </g>
   <g id="patch_6">
    <path d="M 62.12 27.6 
L 637.2 27.6 
" style="fill: none; stroke: #000000; stroke-width: 0.8; stroke-linejoin: miter; stroke-linecap: square"/>
   </g>
   <g id="text_17">
    <!-- Pirouette Test: Measured vs Estimated Arc Length -->
    <g transform="translate(175.774531 21.6) scale(0.14 -0.14)">
     <defs>
      <path id="DejaVuSans-50" d="M 1259 4147 
L 1259 2394 
L 2053 2394 
Q 2494 2394 2734 2622 
Q 2975 2850 2975 3272 
Q 2975 3691 2734 3919 
Q 2494 4147 2053 4147 
L 1259 4147 
z
M 628 4666 
L 2053 4666 
Q 2838 4666 3239 4311 
Q 3641 3956 3641 3272 
Q 3641 2581 3239 2228 
Q 2838 1875 2053 1875 
L 1259 1875 
L 1259 0 
L 628 0 
L 628 4666 
z
" transform="scale(0.015625)"/>
      <path id="DejaVuSans-69" d="M 603 3500 
L 1178 3500 
L 1178 0 
L 603 0 
L 603 3500 
z
M 603 4863 
L 1178 4863 
L 1178 4134 
L 603 4134 
L 603 4863 
z
" transform="scale(0.015625)"/>
      <path id="DejaVuSans-6f" d="M 1959 3097 
Q 1497 3097 1228 2736 
Q 959 2375 959 1747 
Q 959 1119 1226 758 
Q 1494 397 1959 397 
Q 2419 397 2687 759 
Q 2956 1122 2956 1747 
Q 2956 2369 2687 2733 
Q 2419 3097 1959 3097 
z
M 1959 3584 
Q 2709 3584 3137 3096 
Q 3566 2609 3566 1747 
Q 3566 888 3137 398 
Q 2709 -91 1959 -91 
Q 1206 -91 779 398 
Q 353 888 353 1747 
Q 353 2609 779 3096 
Q 1206 3584 1959 3584 
z
" transform="scale(0.015625)"/>
      <path id="DejaVuSans-75" d="M 544 1381 
L 544 3500 
L 1119 3500 
L 1119 1403 
Q 1119 906 1312 657 
Q 1506 409 1894 409 
Q 2359 409 2629 706 
Q 2900 1003 2900 1516 
L 2900 3500 
L 3475 3500 
L 3475 0 
L 2900 0 
L 2900 538 
Q 2691 219 2414 64 
Q 2138 -91 1772 -91 
Q 1169 -91 856 284 
Q 544 659 544 1381 
z
M 1991 3584 
L 1991 3584 
z
" transform="scale(0.015625)"/>
      <path id="DejaVuSans-54" d="M -19 4666 
L 3928 4666 
L 3928 4134 
L 2272 4134 
L 2272 0 
L 1638 0 
L 1638 4134 
L -19 4134 
L -19 4666 
z
" transform="scale(0.015625)"/>
      <path id="DejaVuSans-73" d="M 2834 3397 
L 2834 2853 
Q 2591 2978 2328 3040 
Q 2066 3103 1784 3103 
Q 1356 3103 1142 2972 
Q 928 2841 928 2578 
Q 928 2378 1081 2264 
Q 1234 2150 1697 2047 
L 1894 2003 
Q 2506 1872 2764 1633 
Q 3022 1394 3022 966 
Q 3022 478 2636 193 
Q 2250 -91 1575 -91 
Q 1294 -91 989 -36 
Q 684 19 347 128 
L 347 722 
Q 666 556 975 473 
Q 1284 391 1588 391 
Q 1994 391 2212 530 
Q 2431 669 2431 922 
Q 2431 1156 2273 1281 
Q 2116 1406 1581 1522 
L 1381 1569 
Q 847 1681 609 1914 
Q 372 2147 372 2553 
Q 372 3047 722 3315 
Q 1072 3584 1716 3584 
Q 2034 3584 2315 3537 
Q 2597 3491 2834 3397 
z
" transform="scale(0.015625)"/>
      <path id="DejaVuSans-3a" d="M 750 794 
L 1409 794 
L 1409 0 
L 750 0 
L 750 794 
z
M 750 3309 
L 1409 3309 
L 1409 2516 
L 750 2516 
L 750 3309 
z
" transform="scale(0.015625)"/>
      <path id="DejaVuSans-4d" d="M 628 4666 
L 1569 4666 
L 2759 1491 
L 3956 4666 
L 4897 4666 
L 4897 0 
L 4281 0 
L 4281 4097 
L 3078 897 
L 2444 897 
L 1241 4097 
L 1241 0 
L 628 0 
L 628 4666 
z
" transform="scale(0.015625)"/>
      <path id="DejaVuSans-61" d="M 2194 1759 
Q 1497 1759 1228 1600 
Q 959 1441 959 1056 
Q 959 750 1161 570 
Q 1363 391 1709 391 
Q 2188 391 2477 730 
Q 2766 1069 2766 1631 
L 2766 1759 
L 2194 1759 
z
M 3341 1997 
L 3341 0 
L 2766 0 
L 2766 531 
Q 2569 213 2275 61 
Q 1981 -91 1556 -91 
Q 1019 -91 701 211 
Q 384 513 384 1019 
Q 384 1609 779 1909 
Q 1175 2209 1959 2209 
L 2766 2209 
L 2766 2266 
Q 2766 2663 2505 2880 
Q 2244 3097 1772 3097 
Q 1472 3097 1187 3025 
Q 903 2953 641 2809 
L 641 3341 
Q 956 3463 1253 3523 
Q 1550 3584 1831 3584 
Q 2591 3584 2966 3190 
Q 3341 2797 3341 1997 
z
" transform="scale(0.015625)"/>
      <path id="DejaVuSans-64" d="M 2906 2969 
L 2906 4863 
L 3481 4863 
L 3481 0 
L 2906 0 
L 2906 525 
Q 2725 213 2448 61 
Q 2172 -91 1784 -91 
Q 1150 -91 751 415 
Q 353 922 353 1747 
Q 353 2572 751 3078 
Q 1150 3584 1784 3584 
Q 2172 3584 2448 3432 
Q 2725 3281 2906 2969 
z
M 947 1747 
Q 947 1113 1208 752 
Q 1469 391 1925 391 
Q 2381 391 2643 752 
Q 2906 1113 2906 1747 
Q 2906 2381 2643 2742 
Q 2381 3103 1925 3103 
Q 1469 3103 1208 2742 
Q 947 2381 947 1747 
z
" transform="scale(0.015625)"/>
      <path id="DejaVuSans-76" d="M 191 3500 
L 800 3500 
L 1894 563 
L 2988 3500 
L 3597 3500 
L 2284 0 
L 1503 0 
L 191 3500 
z
" transform="scale(0.015625)"/>
      <path id="DejaVuSans-45" d="M 628 4666 
L 3578 4666 
L 3578 4134 
L 1259 4134 
L 1259 2753 
L 3481 2753 
L 3481 2222 
L 1259 2222 
L 1259 531 
L 3634 531 
L 3634 0 
L 628 0 
L 628 4666 
z
" transform="scale(0.015625)"/>
     </defs>
     <use xlink:href="#DejaVuSans-50"/>
     <use xlink:href="#DejaVuSans-69" transform="translate(58.052734 0)"/>
     <use xlink:href="#DejaVuSans-72" transform="translate(85.835938 0)"/>
     <use xlink:href="#DejaVuSans-6f" transform="translate(124.699219 0)"/>
     <use xlink:href="#DejaVuSans-75" transform="translate(185.880859 0)"/>
     <use xlink:href="#DejaVuSans-65" transform="translate(249.259766 0)"/>
     <use xlink:href="#DejaVuSans-74" transform="translate(310.783203 0)"/>
     <use xlink:href="#DejaVuSans-74" transform="translate(349.992188 0)"/>
     <use xlink:href="#DejaVuSans-65" transform="translate(389.201172 0)"/>
     <use xlink:href="#DejaVuSans-20" transform="translate(450.724609 0)"/>
     <use xlink:href="#DejaVuSans-54" transform="translate(482.511719 0)"/>
     <use xlink:href="#DejaVuSans-65" transform="translate(526.595703 0)"/>
     <use xlink:href="#DejaVuSans-73" transform="translate(588.119141 0)"/>
     <use xlink:href="#DejaVuSans-74" transform="translate(640.21875 0)"/>
     <use xlink:href="#DejaVuSans-3a" transform="translate(679.427734 0)"/>
     <use xlink:href="#DejaVuSans-20" transform="translate(713.119141 0)"/>
     <use xlink:href="#DejaVuSans-4d" transform="translate(744.90625 0)"/>
     <use xlink:href="#DejaVuSans-65" transform="translate(831.185547 0)"/>
     <use xlink:href="#DejaVuSans-61" transform="translate(892.708984 0)"/>
     <use xlink:href="#DejaVuSans-73" transform="translate(953.988281 0)"/>
     <use xlink:href="#DejaVuSans-75" transform="translate(1006.087891 0)"/>
     <use xlink:href="#DejaVuSans-72" transform="translate(1069.466797 0)"/>
     <use xlink:href="#DejaVuSans-65" transform="translate(1108.330078 0)"/>
     <use xlink:href="#DejaVuSans-64" transform="translate(1169.853516 0)"/>
     <use xlink:href="#DejaVuSans-20" transform="translate(1233.330078 0)"/>
     <use xlink:href="#DejaVuSans-76" transform="translate(1265.117188 0)"/>
     <use xlink:href="#DejaVuSans-73" transform="translate(1324.296875 0)"/>
     <use xlink:href="#DejaVuSans-20" transform="translate(1376.396484 0)"/>
     <use xlink:href="#DejaVuSans-45" transform="translate(1408.183594 0)"/>
     <use xlink:href="#DejaVuSans-73" transform="translate(1471.367188 0)"/>
     <use xlink:href="#DejaVuSans-74" transform="translate(1523.466797 0)"/>
     <use xlink:href="#DejaVuSans-69" transform="translate(1562.675781 0)"/>
     <use xlink:href="#DejaVuSans-6d" transform="translate(1590.458984 0)"/>
     <use xlink:href="#DejaVuSans-61" transform="translate(1687.871094 0)"/>
     <use xlink:href="#DejaVuSans-74" transform="translate(1749.150391 0)"/>
     <use xlink:href="#DejaVuSans-65" transform="translate(1788.359375 0)"/>
     <use xlink:href="#DejaVuSans-64" transform="translate(1849.882812 0)"/>
     <use xlink:href="#DejaVuSans-20" transform="translate(1913.359375 0)"/>
     <use xlink:href="#DejaVuSans-41" transform="translate(1945.146484 0)"/>
     <use xlink:href="#DejaVuSans-72" transform="translate(2013.554688 0)"/>
     <use xlink:href="#DejaVuSans-63" transform="translate(2052.417969 0)"/>
     <use xlink:href="#DejaVuSans-20" transform="translate(2107.398438 0)"/>
     <use xlink:href="#DejaVuSans-4c" transform="translate(2139.185547 0)"/>
     <use xlink:href="#DejaVuSans-65" transform="translate(2193.148438 0)"/>
     <use xlink:href="#DejaVuSans-6e" transform="translate(2254.671875 0)"/>
     <use xlink:href="#DejaVuSans-67" transform="translate(2318.050781 0)"/>
     <use xlink:href="#DejaVuSans-74" transform="translate(2381.527344 0)"/>
     <use xlink:href="#DejaVuSans-68" transform="translate(2420.736328 0)"/>
    </g>
   </g>
   <g id="legend_1">
    <g id="patch_7">
     <path d="M 490.607812 256.666667 
L 630.2 256.666667 
Q 632.2 256.666667 632.2 254.666667 
L 632.2 226.310417 
Q 632.2 224.310417 630.2 224.310417 
L 490.607812 224.310417 
Q 488.607812 224.310417 488.607812 226.310417 
L 488.607812 254.666667 
Q 488.607812 256.666667 490.607812 256.666667 
z
" style="fill: #ffffff; opacity: 0.8; stroke: #cccccc; stroke-linejoin: miter"/>
    </g>
    <g id="line2d_33">
     <path d="M 492.607812 232.408854 
L 502.607812 232.408854 
L 512.607812 232.408854 
" style="fill: none; stroke: #ff0000; stroke-width: 2; stroke-linecap: square"/>
    </g>
    <g id="text_18">
     <!-- Measured Arc Length -->
     <g transform="translate(520.607812 235.908854) scale(0.1 -0.1)">
      <use xlink:href="#DejaVuSans-4d"/>
      <use xlink:href="#DejaVuSans-65" transform="translate(86.279297 0)"/>
      <use xlink:href="#DejaVuSans-61" transform="translate(147.802734 0)"/>
      <use xlink:href="#DejaVuSans-73" transform="translate(209.082031 0)"/>
      <use xlink:href="#DejaVuSans-75" transform="translate(261.181641 0)"/>
      <use xlink:href="#DejaVuSans-72" transform="translate(324.560547 0)"/>
      <use xlink:href="#DejaVuSans-65" transform="translate(363.423828 0)"/>
      <use xlink:href="#DejaVuSans-64" transform="translate(424.947266 0)"/>
      <use xlink:href="#DejaVuSans-20" transform="translate(488.423828 0)"/>
      <use xlink:href="#DejaVuSans-41" transform="translate(520.210938 0)"/>
      <use xlink:href="#DejaVuSans-72" transform="translate(588.619141 0)"/>
      <use xlink:href="#DejaVuSans-63" transform="translate(627.482422 0)"/>
      <use xlink:href="#DejaVuSans-20" transform="translate(682.462891 0)"/>
      <use xlink:href="#DejaVuSans-4c" transform="translate(714.25 0)"/>
      <use xlink:href="#DejaVuSans-65" transform="translate(768.212891 0)"/>
      <use xlink:href="#DejaVuSans-6e" transform="translate(829.736328 0)"/>
      <use xlink:href="#DejaVuSans-67" transform="translate(893.115234 0)"/>
      <use xlink:href="#DejaVuSans-74" transform="translate(956.591797 0)"/>
      <use xlink:href="#DejaVuSans-68" transform="translate(995.800781 0)"/>
     </g>
    </g>
    <g id="line2d_34">
     <path d="M 492.607812 247.086979 
L 502.607812 247.086979 
L 512.607812 247.086979 
" style="fill: none; stroke-dasharray: 7.4,3.2; stroke-dashoffset: 0; stroke: #000000; stroke-width: 2"/>
    </g>
    <g id="text_19">
     <!-- Estimated Arc Length -->
     <g transform="translate(520.607812 250.586979) scale(0.1 -0.1)">
      <use xlink:href="#DejaVuSans-45"/>
      <use xlink:href="#DejaVuSans-73" transform="translate(63.183594 0)"/>
      <use xlink:href="#DejaVuSans-74" transform="translate(115.283203 0)"/>
      <use xlink:href="#DejaVuSans-69" transform="translate(154.492188 0)"/>
      <use xlink:href="#DejaVuSans-6d" transform="translate(182.275391 0)"/>
      <use xlink:href="#DejaVuSans-61" transform="translate(279.6875 0)"/>
      <use xlink:href="#DejaVuSans-74" transform="translate(340.966797 0)"/>
      <use xlink:href="#DejaVuSans-65" transform="translate(380.175781 0)"/>
      <use xlink:href="#DejaVuSans-64" transform="translate(441.699219 0)"/>
      <use xlink:href="#DejaVuSans-20" transform="translate(505.175781 0)"/>
      <use xlink:href="#DejaVuSans-41" transform="translate(536.962891 0)"/>
      <use xlink:href="#DejaVuSans-72" transform="translate(605.371094 0)"/>
      <use xlink:href="#DejaVuSans-63" transform="translate(644.234375 0)"/>
      <use xlink:href="#DejaVuSans-20" transform="translate(699.214844 0)"/>
      <use xlink:href="#DejaVuSans-4c" transform="translate(731.001953 0)"/>
      <use xlink:href="#DejaVuSans-65" transform="translate(784.964844 0)"/>
      <use xlink:href="#DejaVuSans-6e" transform="translate(846.488281 0)"/>
      <use xlink:href="#DejaVuSans-67" transform="translate(909.867188 0)"/>
      <use xlink:href="#DejaVuSans-74" transform="translate(973.34375 0)"/>
      <use xlink:href="#DejaVuSans-68" transform="translate(1012.552734 0)"/>
     </g>
    </g>
   </g>
  </g>
  <g id="axes_2">
   <g id="patch_8">
    <path d="M 62.12 540.413333 
L 637.2 540.413333 
L 637.2 306.346667 
L 62.12 306.346667 
z
" style="fill: #ffffff"/>
   </g>
   <g id="matplotlib.axis_3">
    <g id="xtick_10">
     <g id="line2d_35">
      <path d="M 88.26 540.413333 
L 88.26 306.346667 
" clip-path="url(#p25c41dec63)" style="fill: none; stroke-dasharray: 2.96,1.28; stroke-dashoffset: 0; stroke: #b0b0b0; stroke-opacity: 0.4; stroke-width: 0.8"/>
     </g>
     <g id="line2d_36">
      <g>
       <use xlink:href="#m69a47d1b99" x="88.26" y="540.413333" style="stroke: #000000; stroke-width: 0.8"/>
      </g>
     </g>
     <g id="text_20">
      <!-- 0 -->
      <g transform="translate(85.07875 555.011771) scale(0.1 -0.1)">
       <use xlink:href="#DejaVuSans-30"/>
      </g>
     </g>
    </g>
    <g id="xtick_11">
     <g id="line2d_37">
      <path d="M 154.236779 540.413333 
L 154.236779 306.346667 
" clip-path="url(#p25c41dec63)" style="fill: none; stroke-dasharray: 2.96,1.28; stroke-dashoffset: 0; stroke: #b0b0b0; stroke-opacity: 0.4; stroke-width: 0.8"/>
     </g>
     <g id="line2d_38">
      <g>
       <use xlink:href="#m69a47d1b99" x="154.236779" y="540.413333" style="stroke: #000000; stroke-width: 0.8"/>
      </g>
     </g>
     <g id="text_21">
      <!-- 250 -->
      <g transform="translate(144.693029 555.011771) scale(0.1 -0.1)">
       <use xlink:href="#DejaVuSans-32"/>
       <use xlink:href="#DejaVuSans-35" transform="translate(63.623047 0)"/>
       <use xlink:href="#DejaVuSans-30" transform="translate(127.246094 0)"/>
      </g>
     </g>
    </g>
    <g id="xtick_12">
     <g id="line2d_39">
      <path d="M 220.213559 540.413333 
L 220.213559 306.346667 
" clip-path="url(#p25c41dec63)" style="fill: none; stroke-dasharray: 2.96,1.28; stroke-dashoffset: 0; stroke: #b0b0b0; stroke-opacity: 0.4; stroke-width: 0.8"/>
     </g>
     <g id="line2d_40">
      <g>
       <use xlink:href="#m69a47d1b99" x="220.213559" y="540.413333" style="stroke: #000000; stroke-width: 0.8"/>
      </g>
     </g>
     <g id="text_22">
      <!-- 500 -->
      <g transform="translate(210.669809 555.011771) scale(0.1 -0.1)">
       <use xlink:href="#DejaVuSans-35"/>
       <use xlink:href="#DejaVuSans-30" transform="translate(63.623047 0)"/>
       <use xlink:href="#DejaVuSans-30" transform="translate(127.246094 0)"/>
      </g>
     </g>
    </g>
    <g id="xtick_13">
     <g id="line2d_41">
      <path d="M 286.190338 540.413333 
L 286.190338 306.346667 
" clip-path="url(#p25c41dec63)" style="fill: none; stroke-dasharray: 2.96,1.28; stroke-dashoffset: 0; stroke: #b0b0b0; stroke-opacity: 0.4; stroke-width: 0.8"/>
     </g>
     <g id="line2d_42">
      <g>
       <use xlink:href="#m69a47d1b99" x="286.190338" y="540.413333" style="stroke: #000000; stroke-width: 0.8"/>
      </g>
     </g>
     <g id="text_23">
      <!-- 750 -->
      <g transform="translate(276.646588 555.011771) scale(0.1 -0.1)">
       <use xlink:href="#DejaVuSans-37"/>
       <use xlink:href="#DejaVuSans-35" transform="translate(63.623047 0)"/>
       <use xlink:href="#DejaVuSans-30" transform="translate(127.246094 0)"/>
      </g>
     </g>
    </g>
    <g id="xtick_14">
     <g id="line2d_43">
      <path d="M 352.167118 540.413333 
L 352.167118 306.346667 
" clip-path="url(#p25c41dec63)" style="fill: none; stroke-dasharray: 2.96,1.28; stroke-dashoffset: 0; stroke: #b0b0b0; stroke-opacity: 0.4; stroke-width: 0.8"/>
     </g>
     <g id="line2d_44">
      <g>
       <use xlink:href="#m69a47d1b99" x="352.167118" y="540.413333" style="stroke: #000000; stroke-width: 0.8"/>
      </g>
     </g>
     <g id="text_24">
      <!-- 1000 -->
      <g transform="translate(339.442118 555.011771) scale(0.1 -0.1)">
       <use xlink:href="#DejaVuSans-31"/>
       <use xlink:href="#DejaVuSans-30" transform="translate(63.623047 0)"/>
       <use xlink:href="#DejaVuSans-30" transform="translate(127.246094 0)"/>
       <use xlink:href="#DejaVuSans-30" transform="translate(190.869141 0)"/>
      </g>
     </g>
    </g>
    <g id="xtick_15">
     <g id="line2d_45">
      <path d="M 418.143897 540.413333 
L 418.143897 306.346667 
" clip-path="url(#p25c41dec63)" style="fill: none; stroke-dasharray: 2.96,1.28; stroke-dashoffset: 0; stroke: #b0b0b0; stroke-opacity: 0.4; stroke-width: 0.8"/>
     </g>
     <g id="line2d_46">
      <g>
       <use xlink:href="#m69a47d1b99" x="418.143897" y="540.413333" style="stroke: #000000; stroke-width: 0.8"/>
      </g>
     </g>
     <g id="text_25">
      <!-- 1250 -->
      <g transform="translate(405.418897 555.011771) scale(0.1 -0.1)">
       <use xlink:href="#DejaVuSans-31"/>
       <use xlink:href="#DejaVuSans-32" transform="translate(63.623047 0)"/>
       <use xlink:href="#DejaVuSans-35" transform="translate(127.246094 0)"/>
       <use xlink:href="#DejaVuSans-30" transform="translate(190.869141 0)"/>
      </g>
     </g>
    </g>
    <g id="xtick_16">
     <g id="line2d_47">
      <path d="M 484.120676 540.413333 
L 484.120676 306.346667 
" clip-path="url(#p25c41dec63)" style="fill: none; stroke-dasharray: 2.96,1.28; stroke-dashoffset: 0; stroke: #b0b0b0; stroke-opacity: 0.4; stroke-width: 0.8"/>
     </g>
     <g id="line2d_48">
      <g>
       <use xlink:href="#m69a47d1b99" x="484.120676" y="540.413333" style="stroke: #000000; stroke-width: 0.8"/>
      </g>
     </g>
     <g id="text_26">
      <!-- 1500 -->
      <g transform="translate(471.395676 555.011771) scale(0.1 -0.1)">
       <use xlink:href="#DejaVuSans-31"/>
       <use xlink:href="#DejaVuSans-35" transform="translate(63.623047 0)"/>
       <use xlink:href="#DejaVuSans-30" transform="translate(127.246094 0)"/>
       <use xlink:href="#DejaVuSans-30" transform="translate(190.869141 0)"/>
      </g>
     </g>
    </g>
    <g id="xtick_17">
     <g id="line2d_49">
      <path d="M 550.097456 540.413333 
L 550.097456 306.346667 
" clip-path="url(#p25c41dec63)" style="fill: none; stroke-dasharray: 2.96,1.28; stroke-dashoffset: 0; stroke: #b0b0b0; stroke-opacity: 0.4; stroke-width: 0.8"/>
     </g>
     <g id="line2d_50">
      <g>
       <use xlink:href="#m69a47d1b99" x="550.097456" y="540.413333" style="stroke: #000000; stroke-width: 0.8"/>
      </g>
     </g>
     <g id="text_27">
      <!-- 1750 -->
      <g transform="translate(537.372456 555.011771) scale(0.1 -0.1)">
       <use xlink:href="#DejaVuSans-31"/>
       <use xlink:href="#DejaVuSans-37" transform="translate(63.623047 0)"/>
       <use xlink:href="#DejaVuSans-35" transform="translate(127.246094 0)"/>
       <use xlink:href="#DejaVuSans-30" transform="translate(190.869141 0)"/>
      </g>
     </g>
    </g>
    <g id="xtick_18">
     <g id="line2d_51">
      <path d="M 616.074235 540.413333 
L 616.074235 306.346667 
" clip-path="url(#p25c41dec63)" style="fill: none; stroke-dasharray: 2.96,1.28; stroke-dashoffset: 0; stroke: #b0b0b0; stroke-opacity: 0.4; stroke-width: 0.8"/>
     </g>
     <g id="line2d_52">
      <g>
       <use xlink:href="#m69a47d1b99" x="616.074235" y="540.413333" style="stroke: #000000; stroke-width: 0.8"/>
      </g>
     </g>
     <g id="text_28">
      <!-- 2000 -->
      <g transform="translate(603.349235 555.011771) scale(0.1 -0.1)">
       <use xlink:href="#DejaVuSans-32"/>
       <use xlink:href="#DejaVuSans-30" transform="translate(63.623047 0)"/>
       <use xlink:href="#DejaVuSans-30" transform="translate(127.246094 0)"/>
       <use xlink:href="#DejaVuSans-30" transform="translate(190.869141 0)"/>
      </g>
     </g>
    </g>
   </g>
   <g id="matplotlib.axis_4">
    <g id="ytick_7">
     <g id="line2d_53">
      <path d="M 62.12 527.237724 
L 637.2 527.237724 
" clip-path="url(#p25c41dec63)" style="fill: none; stroke-dasharray: 2.96,1.28; stroke-dashoffset: 0; stroke: #b0b0b0; stroke-opacity: 0.4; stroke-width: 0.8"/>
     </g>
     <g id="line2d_54">
      <g>
       <use xlink:href="#m2fbd3ddfed" x="62.12" y="527.237724" style="stroke: #000000; stroke-width: 0.8"/>
      </g>
     </g>
     <g id="text_29">
      <!-- −800 -->
      <g transform="translate(27.652812 531.036943) scale(0.1 -0.1)">
       <defs>
        <path id="DejaVuSans-38" d="M 2034 2216 
Q 1584 2216 1326 1975 
Q 1069 1734 1069 1313 
Q 1069 891 1326 650 
Q 1584 409 2034 409 
Q 2484 409 2743 651 
Q 3003 894 3003 1313 
Q 3003 1734 2745 1975 
Q 2488 2216 2034 2216 
z
M 1403 2484 
Q 997 2584 770 2862 
Q 544 3141 544 3541 
Q 544 4100 942 4425 
Q 1341 4750 2034 4750 
Q 2731 4750 3128 4425 
Q 3525 4100 3525 3541 
Q 3525 3141 3298 2862 
Q 3072 2584 2669 2484 
Q 3125 2378 3379 2068 
Q 3634 1759 3634 1313 
Q 3634 634 3220 271 
Q 2806 -91 2034 -91 
Q 1263 -91 848 271 
Q 434 634 434 1313 
Q 434 1759 690 2068 
Q 947 2378 1403 2484 
z
M 1172 3481 
Q 1172 3119 1398 2916 
Q 1625 2713 2034 2713 
Q 2441 2713 2670 2916 
Q 2900 3119 2900 3481 
Q 2900 3844 2670 4047 
Q 2441 4250 2034 4250 
Q 1625 4250 1398 4047 
Q 1172 3844 1172 3481 
z
" transform="scale(0.015625)"/>
       </defs>
       <use xlink:href="#DejaVuSans-2212"/>
       <use xlink:href="#DejaVuSans-38" transform="translate(83.789062 0)"/>
       <use xlink:href="#DejaVuSans-30" transform="translate(147.412109 0)"/>
       <use xlink:href="#DejaVuSans-30" transform="translate(211.035156 0)"/>
      </g>
     </g>
    </g>
    <g id="ytick_8">
     <g id="line2d_55">
      <path d="M 62.12 476.891349 
L 637.2 476.891349 
" clip-path="url(#p25c41dec63)" style="fill: none; stroke-dasharray: 2.96,1.28; stroke-dashoffset: 0; stroke: #b0b0b0; stroke-opacity: 0.4; stroke-width: 0.8"/>
     </g>
     <g id="line2d_56">
      <g>
       <use xlink:href="#m2fbd3ddfed" x="62.12" y="476.891349" style="stroke: #000000; stroke-width: 0.8"/>
      </g>
     </g>
     <g id="text_30">
      <!-- −600 -->
      <g transform="translate(27.652812 480.690567) scale(0.1 -0.1)">
       <defs>
        <path id="DejaVuSans-36" d="M 2113 2584 
Q 1688 2584 1439 2293 
Q 1191 2003 1191 1497 
Q 1191 994 1439 701 
Q 1688 409 2113 409 
Q 2538 409 2786 701 
Q 3034 994 3034 1497 
Q 3034 2003 2786 2293 
Q 2538 2584 2113 2584 
z
M 3366 4563 
L 3366 3988 
Q 3128 4100 2886 4159 
Q 2644 4219 2406 4219 
Q 1781 4219 1451 3797 
Q 1122 3375 1075 2522 
Q 1259 2794 1537 2939 
Q 1816 3084 2150 3084 
Q 2853 3084 3261 2657 
Q 3669 2231 3669 1497 
Q 3669 778 3244 343 
Q 2819 -91 2113 -91 
Q 1303 -91 875 529 
Q 447 1150 447 2328 
Q 447 3434 972 4092 
Q 1497 4750 2381 4750 
Q 2619 4750 2861 4703 
Q 3103 4656 3366 4563 
z
" transform="scale(0.015625)"/>
       </defs>
       <use xlink:href="#DejaVuSans-2212"/>
       <use xlink:href="#DejaVuSans-36" transform="translate(83.789062 0)"/>
       <use xlink:href="#DejaVuSans-30" transform="translate(147.412109 0)"/>
       <use xlink:href="#DejaVuSans-30" transform="translate(211.035156 0)"/>
      </g>
     </g>
    </g>
    <g id="ytick_9">
     <g id="line2d_57">
      <path d="M 62.12 426.544973 
L 637.2 426.544973 
" clip-path="url(#p25c41dec63)" style="fill: none; stroke-dasharray: 2.96,1.28; stroke-dashoffset: 0; stroke: #b0b0b0; stroke-opacity: 0.4; stroke-width: 0.8"/>
     </g>
     <g id="line2d_58">
      <g>
       <use xlink:href="#m2fbd3ddfed" x="62.12" y="426.544973" style="stroke: #000000; stroke-width: 0.8"/>
      </g>
     </g>
     <g id="text_31">
      <!-- −400 -->
      <g transform="translate(27.652812 430.344192) scale(0.1 -0.1)">
       <use xlink:href="#DejaVuSans-2212"/>
       <use xlink:href="#DejaVuSans-34" transform="translate(83.789062 0)"/>
       <use xlink:href="#DejaVuSans-30" transform="translate(147.412109 0)"/>
       <use xlink:href="#DejaVuSans-30" transform="translate(211.035156 0)"/>
      </g>
     </g>
    </g>
    <g id="ytick_10">
     <g id="line2d_59">
      <path d="M 62.12 376.198598 
L 637.2 376.198598 
" clip-path="url(#p25c41dec63)" style="fill: none; stroke-dasharray: 2.96,1.28; stroke-dashoffset: 0; stroke: #b0b0b0; stroke-opacity: 0.4; stroke-width: 0.8"/>
     </g>
     <g id="line2d_60">
      <g>
       <use xlink:href="#m2fbd3ddfed" x="62.12" y="376.198598" style="stroke: #000000; stroke-width: 0.8"/>
      </g>
     </g>
     <g id="text_32">
      <!-- −200 -->
      <g transform="translate(27.652812 379.997816) scale(0.1 -0.1)">
       <use xlink:href="#DejaVuSans-2212"/>
       <use xlink:href="#DejaVuSans-32" transform="translate(83.789062 0)"/>
       <use xlink:href="#DejaVuSans-30" transform="translate(147.412109 0)"/>
       <use xlink:href="#DejaVuSans-30" transform="translate(211.035156 0)"/>
      </g>
     </g>
    </g>
    <g id="ytick_11">
     <g id="line2d_61">
      <path d="M 62.12 325.852222 
L 637.2 325.852222 
" clip-path="url(#p25c41dec63)" style="fill: none; stroke-dasharray: 2.96,1.28; stroke-dashoffset: 0; stroke: #b0b0b0; stroke-opacity: 0.4; stroke-width: 0.8"/>
     </g>
     <g id="line2d_62">
      <g>
       <use xlink:href="#m2fbd3ddfed" x="62.12" y="325.852222" style="stroke: #000000; stroke-width: 0.8"/>
      </g>
     </g>
     <g id="text_33">
      <!-- 0 -->
      <g transform="translate(48.7575 329.651441) scale(0.1 -0.1)">
       <use xlink:href="#DejaVuSans-30"/>
      </g>
     </g>
    </g>
    <g id="text_34">
     <!-- Yaw (deg) -->
     <g transform="translate(21.157187 452.702187) rotate(-90) scale(0.12 -0.12)">
      <defs>
       <path id="DejaVuSans-59" d="M -13 4666 
L 666 4666 
L 1959 2747 
L 3244 4666 
L 3922 4666 
L 2272 2222 
L 2272 0 
L 1638 0 
L 1638 2222 
L -13 4666 
z
" transform="scale(0.015625)"/>
       <path id="DejaVuSans-77" d="M 269 3500 
L 844 3500 
L 1563 769 
L 2278 3500 
L 2956 3500 
L 3675 769 
L 4391 3500 
L 4966 3500 
L 4050 0 
L 3372 0 
L 2619 2869 
L 1863 0 
L 1184 0 
L 269 3500 
z
" transform="scale(0.015625)"/>
      </defs>
      <use xlink:href="#DejaVuSans-59"/>
      <use xlink:href="#DejaVuSans-61" transform="translate(47.333984 0)"/>
      <use xlink:href="#DejaVuSans-77" transform="translate(108.613281 0)"/>
      <use xlink:href="#DejaVuSans-20" transform="translate(190.400391 0)"/>
      <use xlink:href="#DejaVuSans-28" transform="translate(222.1875 0)"/>
      <use xlink:href="#DejaVuSans-64" transform="translate(261.201172 0)"/>
      <use xlink:href="#DejaVuSans-65" transform="translate(324.677734 0)"/>
      <use xlink:href="#DejaVuSans-67" transform="translate(386.201172 0)"/>
      <use xlink:href="#DejaVuSans-29" transform="translate(449.677734 0)"/>
     </g>
    </g>
   </g>
   <g id="line2d_63">
    <path d="M 88.26 325.852222 
L 93.538142 326.227901 
L 100.663635 327.51147 
L 104.358334 328.309788 
L 109.372569 329.593357 
L 116.234154 331.65959 
L 120.192761 332.911853 
L 125.206996 334.602407 
L 132.332489 337.106932 
L 136.027188 338.406155 
L 141.041424 340.284549 
L 147.903009 342.820381 
L 151.861615 344.291789 
L 156.875851 346.170183 
L 164.001343 348.893854 
L 167.696042 350.286996 
L 172.710278 352.228004 
L 179.571863 354.842102 
L 183.530469 356.329164 
L 188.544705 358.254517 
L 195.670197 360.993842 
L 199.364897 362.371331 
L 204.379132 364.327991 
L 211.240717 366.957743 
L 215.199324 368.429151 
L 220.213559 370.354505 
L 227.339051 373.078176 
L 231.033751 374.455665 
L 236.047986 376.396672 
L 242.909571 379.01077 
L 246.868178 380.497832 
L 251.882413 382.438839 
L 259.007905 385.193817 
L 262.702605 386.602612 
L 267.71684 388.574926 
L 274.578425 391.220331 
L 278.537032 392.738699 
L 283.551267 394.695359 
L 290.676759 397.450337 
L 294.371459 398.859133 
L 299.385694 400.815793 
L 306.247279 403.461198 
L 310.205886 404.979566 
L 315.220121 406.90492 
L 322.345613 409.659898 
L 326.040313 411.05304 
L 331.054548 413.0097 
L 337.916133 415.623798 
L 341.87474 417.11086 
L 347.152882 419.130134 
L 354.278375 421.869458 
L 357.709167 423.278254 
L 362.723402 425.156648 
L 369.584987 427.802052 
L 373.279687 429.304767 
L 378.557829 431.339694 
L 385.683322 434.125979 
L 389.378021 435.534774 
L 394.392256 437.507088 
L 401.253841 440.152492 
L 405.212448 441.655208 
L 410.226683 443.611868 
L 417.352176 446.351192 
L 421.046875 447.744335 
L 426.061111 449.700995 
L 432.922696 452.3464 
L 436.881302 453.849115 
L 441.895538 455.758815 
L 449.02103 458.513793 
L 452.715729 459.891282 
L 457.729965 461.816636 
L 464.59155 464.430734 
L 468.550156 465.933449 
L 473.564392 467.858803 
L 480.689884 470.598127 
L 484.384584 471.991269 
L 489.398819 473.94793 
L 496.260404 476.593334 
L 500.219011 478.111703 
L 505.233246 480.05271 
L 512.094831 482.776381 
L 515.789531 484.185177 
L 521.067673 486.25141 
L 527.929258 488.881161 
L 531.887865 490.39953 
L 536.9021 492.340537 
L 544.027592 495.095515 
L 547.722292 496.50431 
L 552.736527 498.46097 
L 559.598112 501.090722 
L 563.556719 502.593437 
L 568.570954 504.503138 
L 575.696446 507.242462 
L 579.391146 508.651257 
L 584.405381 510.592264 
L 591.266966 513.237669 
L 595.225573 514.756038 
L 600.239808 516.712698 
L 607.3653 519.483329 
L 611.06 520.907778 
" clip-path="url(#p25c41dec63)" style="fill: none; stroke: #ff0000; stroke-width: 2; stroke-linecap: square"/>
   </g>
   <g id="line2d_64">
    <path d="M 88.26 325.852222 
L 88.26 325.852222 
L 95.121585 325.852222 
L 102.247077 327.29454 
L 105.941777 327.29454 
L 110.692105 328.736857 
L 118.081504 330.179174 
L 88.26 325.852222 
L 126.790439 333.063809 
L 133.652024 335.948444 
L 137.610631 337.390762 
L 142.360959 338.833079 
L 149.750358 341.717714 
L 153.181151 343.160031 
L 158.459293 344.602349 
L 165.320878 347.486983 
L 169.279485 348.929301 
L 174.029813 350.371618 
L 181.155305 353.256253 
L 184.850005 354.698571 
L 190.128147 357.583205 
L 196.989732 359.025523 
L 200.948339 360.46784 
L 205.698667 363.352475 
L 212.82416 364.794792 
L 216.518859 366.23711 
L 221.797002 369.121745 
L 228.658587 372.006379 
L 232.617193 373.448697 
L 237.367521 374.891014 
L 244.493014 377.775649 
L 248.187713 379.217967 
L 253.465856 380.660284 
L 260.327441 383.544919 
L 264.286047 384.987236 
L 269.036376 386.429554 
L 276.161868 389.314188 
L 279.856567 390.756506 
L 285.13471 392.198823 
L 291.996295 395.083458 
L 295.954902 396.525776 
L 300.70523 399.41041 
L 307.830722 400.852728 
L 311.525422 402.295045 
L 316.803564 405.17968 
L 323.665149 408.064315 
L 327.623756 409.506632 
L 332.374084 410.94895 
L 339.499576 413.833585 
L 343.194276 415.275902 
L 348.736325 416.718219 
L 355.59791 419.602854 
L 359.29261 421.045172 
L 364.042938 422.487489 
L 371.16843 425.372124 
L 374.86313 426.814441 
L 380.405179 428.256759 
L 387.266764 431.141393 
L 390.961464 432.583711 
L 395.975699 435.468346 
L 403.101191 436.910663 
L 406.531984 438.352981 
L 411.810126 441.237615 
L 418.671711 444.12225 
L 422.630318 445.564568 
L 427.380646 447.006885 
L 434.506138 449.89152 
L 438.200838 451.333837 
L 443.47898 452.776155 
L 450.340565 455.66079 
L 454.299172 457.103107 
L 459.0495 458.545424 
L 466.174992 461.430059 
L 469.869692 462.872377 
L 475.147834 464.314694 
L 482.009419 467.199329 
L 485.968026 468.641646 
L 490.718354 470.083964 
L 497.843847 472.968599 
L 501.538546 474.410916 
L 506.816689 477.295551 
L 513.678274 478.737868 
L 517.372973 480.180186 
L 522.387208 483.06482 
L 529.512701 485.949455 
L 533.2074 487.391773 
L 538.485543 488.83409 
L 545.347128 491.718725 
L 549.305734 493.161042 
L 554.056063 494.60336 
L 561.181555 497.487995 
L 564.876254 498.930312 
L 570.154397 500.372629 
L 577.015982 503.257264 
L 580.974589 504.699582 
L 585.724917 506.141899 
L 592.850409 509.026534 
L 596.545109 510.468851 
L 601.823251 511.911169 
L 608.684836 514.795804 
" clip-path="url(#p25c41dec63)" style="fill: none; stroke-dasharray: 7.4,3.2; stroke-dashoffset: 0; stroke: #000000; stroke-width: 2"/>
   </g>
   <g id="patch_9">
    <path d="M 62.12 540.413333 
L 62.12 306.346667 
" style="fill: none; stroke: #000000; stroke-width: 0.8; stroke-linejoin: miter; stroke-linecap: square"/>
   </g>
   <g id="patch_10">
    <path d="M 637.2 540.413333 
L 637.2 306.346667 
" style="fill: none; stroke: #000000; stroke-width: 0.8; stroke-linejoin: miter; stroke-linecap: square"/>
   </g>
   <g id="patch_11">
    <path d="M 62.12 540.413333 
L 637.2 540.413333 
" style="fill: none; stroke: #000000; stroke-width: 0.8; stroke-linejoin: miter; stroke-linecap: square"/>
   </g>
   <g id="patch_12">
    <path d="M 62.12 306.346667 
L 637.2 306.346667 
" style="fill: none; stroke: #000000; stroke-width: 0.8; stroke-linejoin: miter; stroke-linecap: square"/>
   </g>
   <g id="text_35">
    <!-- Pirouette Test: Measured vs Estimated Yaw -->
    <g transform="translate(200.175 300.346667) scale(0.14 -0.14)">
     <use xlink:href="#DejaVuSans-50"/>
     <use xlink:href="#DejaVuSans-69" transform="translate(58.052734 0)"/>
     <use xlink:href="#DejaVuSans-72" transform="translate(85.835938 0)"/>
     <use xlink:href="#DejaVuSans-6f" transform="translate(124.699219 0)"/>
     <use xlink:href="#DejaVuSans-75" transform="translate(185.880859 0)"/>
     <use xlink:href="#DejaVuSans-65" transform="translate(249.259766 0)"/>
     <use xlink:href="#DejaVuSans-74" transform="translate(310.783203 0)"/>
     <use xlink:href="#DejaVuSans-74" transform="translate(349.992188 0)"/>
     <use xlink:href="#DejaVuSans-65" transform="translate(389.201172 0)"/>
     <use xlink:href="#DejaVuSans-20" transform="translate(450.724609 0)"/>
     <use xlink:href="#DejaVuSans-54" transform="translate(482.511719 0)"/>
     <use xlink:href="#DejaVuSans-65" transform="translate(526.595703 0)"/>
     <use xlink:href="#DejaVuSans-73" transform="translate(588.119141 0)"/>
     <use xlink:href="#DejaVuSans-74" transform="translate(640.21875 0)"/>
     <use xlink:href="#DejaVuSans-3a" transform="translate(679.427734 0)"/>
     <use xlink:href="#DejaVuSans-20" transform="translate(713.119141 0)"/>
     <use xlink:href="#DejaVuSans-4d" transform="translate(744.90625 0)"/>
     <use xlink:href="#DejaVuSans-65" transform="translate(831.185547 0)"/>
     <use xlink:href="#DejaVuSans-61" transform="translate(892.708984 0)"/>
     <use xlink:href="#DejaVuSans-73" transform="translate(953.988281 0)"/>
     <use xlink:href="#DejaVuSans-75" transform="translate(1006.087891 0)"/>
     <use xlink:href="#DejaVuSans-72" transform="translate(1069.466797 0)"/>
     <use xlink:href="#DejaVuSans-65" transform="translate(1108.330078 0)"/>
     <use xlink:href="#DejaVuSans-64" transform="translate(1169.853516 0)"/>
     <use xlink:href="#DejaVuSans-20" transform="translate(1233.330078 0)"/>
     <use xlink:href="#DejaVuSans-76" transform="translate(1265.117188 0)"/>
     <use xlink:href="#DejaVuSans-73" transform="translate(1324.296875 0)"/>
     <use xlink:href="#DejaVuSans-20" transform="translate(1376.396484 0)"/>
     <use xlink:href="#DejaVuSans-45" transform="translate(1408.183594 0)"/>
     <use xlink:href="#DejaVuSans-73" transform="translate(1471.367188 0)"/>
     <use xlink:href="#DejaVuSans-74" transform="translate(1523.466797 0)"/>
     <use xlink:href="#DejaVuSans-69" transform="translate(1562.675781 0)"/>
     <use xlink:href="#DejaVuSans-6d" transform="translate(1590.458984 0)"/>
     <use xlink:href="#DejaVuSans-61" transform="translate(1687.871094 0)"/>
     <use xlink:href="#DejaVuSans-74" transform="translate(1749.150391 0)"/>
     <use xlink:href="#DejaVuSans-65" transform="translate(1788.359375 0)"/>
     <use xlink:href="#DejaVuSans-64" transform="translate(1849.882812 0)"/>
     <use xlink:href="#DejaVuSans-20" transform="translate(1913.359375 0)"/>
     <use xlink:href="#DejaVuSans-59" transform="translate(1945.146484 0)"/>
     <use xlink:href="#DejaVuSans-61" transform="translate(1992.480469 0)"/>
     <use xlink:href="#DejaVuSans-77" transform="translate(2053.759766 0)"/>
    </g>
   </g>
   <g id="legend_2">
    <g id="patch_13">
     <path d="M 525.465625 535.413333 
L 630.2 535.413333 
Q 632.2 535.413333 632.2 533.413333 
L 632.2 505.057083 
Q 632.2 503.057083 630.2 503.057083 
L 525.465625 503.057083 
Q 523.465625 503.057083 523.465625 505.057083 
L 523.465625 533.413333 
Q 523.465625 535.413333 525.465625 535.413333 
z
" style="fill: #ffffff; opacity: 0.8; stroke: #cccccc; stroke-linejoin: miter"/>
    </g>
    <g id="line2d_65">
     <path d="M 527.465625 511.155521 
L 537.465625 511.155521 
L 547.465625 511.155521 
" style="fill: none; stroke: #ff0000; stroke-width: 2; stroke-linecap: square"/>
    </g>
    <g id="text_36">
     <!-- Measured Yaw -->
     <g transform="translate(555.465625 514.655521) scale(0.1 -0.1)">
      <use xlink:href="#DejaVuSans-4d"/>
      <use xlink:href="#DejaVuSans-65" transform="translate(86.279297 0)"/>
      <use xlink:href="#DejaVuSans-61" transform="translate(147.802734 0)"/>
      <use xlink:href="#DejaVuSans-73" transform="translate(209.082031 0)"/>
      <use xlink:href="#DejaVuSans-75" transform="translate(261.181641 0)"/>
      <use xlink:href="#DejaVuSans-72" transform="translate(324.560547 0)"/>
      <use xlink:href="#DejaVuSans-65" transform="translate(363.423828 0)"/>
      <use xlink:href="#DejaVuSans-64" transform="translate(424.947266 0)"/>
      <use xlink:href="#DejaVuSans-20" transform="translate(488.423828 0)"/>
      <use xlink:href="#DejaVuSans-59" transform="translate(520.210938 0)"/>
      <use xlink:href="#DejaVuSans-61" transform="translate(567.544922 0)"/>
      <use xlink:href="#DejaVuSans-77" transform="translate(628.824219 0)"/>
     </g>
    </g>
    <g id="line2d_66">
     <path d="M 527.465625 525.833646 
L 537.465625 525.833646 
L 547.465625 525.833646 
" style="fill: none; stroke-dasharray: 7.4,3.2; stroke-dashoffset: 0; stroke: #000000; stroke-width: 2"/>
    </g>
    <g id="text_37">
     <!-- Estimated Yaw -->
     <g transform="translate(555.465625 529.333646) scale(0.1 -0.1)">
      <use xlink:href="#DejaVuSans-45"/>
      <use xlink:href="#DejaVuSans-73" transform="translate(63.183594 0)"/>
      <use xlink:href="#DejaVuSans-74" transform="translate(115.283203 0)"/>
      <use xlink:href="#DejaVuSans-69" transform="translate(154.492188 0)"/>
      <use xlink:href="#DejaVuSans-6d" transform="translate(182.275391 0)"/>
      <use xlink:href="#DejaVuSans-61" transform="translate(279.6875 0)"/>
      <use xlink:href="#DejaVuSans-74" transform="translate(340.966797 0)"/>
      <use xlink:href="#DejaVuSans-65" transform="translate(380.175781 0)"/>
      <use xlink:href="#DejaVuSans-64" transform="translate(441.699219 0)"/>
      <use xlink:href="#DejaVuSans-20" transform="translate(505.175781 0)"/>
      <use xlink:href="#DejaVuSans-59" transform="translate(536.962891 0)"/>
      <use xlink:href="#DejaVuSans-61" transform="translate(584.296875 0)"/>
      <use xlink:href="#DejaVuSans-77" transform="translate(645.576172 0)"/>
     </g>
    </g>
   </g>
  </g>
  <g id="axes_3">
   <g id="patch_14">
    <path d="M 62.12 819.16 
L 637.2 819.16 
L 637.2 585.093333 
L 62.12 585.093333 
z
" style="fill: #ffffff"/>
   </g>
   <g id="matplotlib.axis_5">
    <g id="xtick_19">
     <g id="line2d_67">
      <path d="M 88.26 819.16 
L 88.26 585.093333 
" clip-path="url(#p018739e5e6)" style="fill: none; stroke-dasharray: 2.96,1.28; stroke-dashoffset: 0; stroke: #b0b0b0; stroke-opacity: 0.4; stroke-width: 0.8"/>
     </g>
     <g id="line2d_68">
      <g>
       <use xlink:href="#m69a47d1b99" x="88.26" y="819.16" style="stroke: #000000; stroke-width: 0.8"/>
      </g>
     </g>
     <g id="text_38">
      <!-- 0 -->
      <g transform="translate(85.07875 833.758438) scale(0.1 -0.1)">
       <use xlink:href="#DejaVuSans-30"/>
      </g>
     </g>
    </g>
    <g id="xtick_20">
     <g id="line2d_69">
      <path d="M 154.236779 819.16 
L 154.236779 585.093333 
" clip-path="url(#p018739e5e6)" style="fill: none; stroke-dasharray: 2.96,1.28; stroke-dashoffset: 0; stroke: #b0b0b0; stroke-opacity: 0.4; stroke-width: 0.8"/>
     </g>
     <g id="line2d_70">
      <g>
       <use xlink:href="#m69a47d1b99" x="154.236779" y="819.16" style="stroke: #000000; stroke-width: 0.8"/>
      </g>
     </g>
     <g id="text_39">
      <!-- 250 -->
      <g transform="translate(144.693029 833.758438) scale(0.1 -0.1)">
       <use xlink:href="#DejaVuSans-32"/>
       <use xlink:href="#DejaVuSans-35" transform="translate(63.623047 0)"/>
       <use xlink:href="#DejaVuSans-30" transform="translate(127.246094 0)"/>
      </g>
     </g>
    </g>
    <g id="xtick_21">
     <g id="line2d_71">
      <path d="M 220.213559 819.16 
L 220.213559 585.093333 
" clip-path="url(#p018739e5e6)" style="fill: none; stroke-dasharray: 2.96,1.28; stroke-dashoffset: 0; stroke: #b0b0b0; stroke-opacity: 0.4; stroke-width: 0.8"/>
     </g>
     <g id="line2d_72">
      <g>
       <use xlink:href="#m69a47d1b99" x="220.213559" y="819.16" style="stroke: #000000; stroke-width: 0.8"/>
      </g>
     </g>
     <g id="text_40">
      <!-- 500 -->
      <g transform="translate(210.669809 833.758438) scale(0.1 -0.1)">
       <use xlink:href="#DejaVuSans-35"/>
       <use xlink:href="#DejaVuSans-30" transform="translate(63.623047 0)"/>
       <use xlink:href="#DejaVuSans-30" transform="translate(127.246094 0)"/>
      </g>
     </g>
    </g>
    <g id="xtick_22">
     <g id="line2d_73">
      <path d="M 286.190338 819.16 
L 286.190338 585.093333 
" clip-path="url(#p018739e5e6)" style="fill: none; stroke-dasharray: 2.96,1.28; stroke-dashoffset: 0; stroke: #b0b0b0; stroke-opacity: 0.4; stroke-width: 0.8"/>
     </g>
     <g id="line2d_74">
      <g>
       <use xlink:href="#m69a47d1b99" x="286.190338" y="819.16" style="stroke: #000000; stroke-width: 0.8"/>
      </g>
     </g>
     <g id="text_41">
      <!-- 750 -->
      <g transform="translate(276.646588 833.758438) scale(0.1 -0.1)">
       <use xlink:href="#DejaVuSans-37"/>
       <use xlink:href="#DejaVuSans-35" transform="translate(63.623047 0)"/>
       <use xlink:href="#DejaVuSans-30" transform="translate(127.246094 0)"/>
      </g>
     </g>
    </g>
    <g id="xtick_23">
     <g id="line2d_75">
      <path d="M 352.167118 819.16 
L 352.167118 585.093333 
" clip-path="url(#p018739e5e6)" style="fill: none; stroke-dasharray: 2.96,1.28; stroke-dashoffset: 0; stroke: #b0b0b0; stroke-opacity: 0.4; stroke-width: 0.8"/>
     </g>
     <g id="line2d_76">
      <g>
       <use xlink:href="#m69a47d1b99" x="352.167118" y="819.16" style="stroke: #000000; stroke-width: 0.8"/>
      </g>
     </g>
     <g id="text_42">
      <!-- 1000 -->
      <g transform="translate(339.442118 833.758438) scale(0.1 -0.1)">
       <use xlink:href="#DejaVuSans-31"/>
       <use xlink:href="#DejaVuSans-30" transform="translate(63.623047 0)"/>
       <use xlink:href="#DejaVuSans-30" transform="translate(127.246094 0)"/>
       <use xlink:href="#DejaVuSans-30" transform="translate(190.869141 0)"/>
      </g>
     </g>
    </g>
    <g id="xtick_24">
     <g id="line2d_77">
      <path d="M 418.143897 819.16 
L 418.143897 585.093333 
" clip-path="url(#p018739e5e6)" style="fill: none; stroke-dasharray: 2.96,1.28; stroke-dashoffset: 0; stroke: #b0b0b0; stroke-opacity: 0.4; stroke-width: 0.8"/>
     </g>
     <g id="line2d_78">
      <g>
       <use xlink:href="#m69a47d1b99" x="418.143897" y="819.16" style="stroke: #000000; stroke-width: 0.8"/>
      </g>
     </g>
     <g id="text_43">
      <!-- 1250 -->
      <g transform="translate(405.418897 833.758438) scale(0.1 -0.1)">
       <use xlink:href="#DejaVuSans-31"/>
       <use xlink:href="#DejaVuSans-32" transform="translate(63.623047 0)"/>
       <use xlink:href="#DejaVuSans-35" transform="translate(127.246094 0)"/>
       <use xlink:href="#DejaVuSans-30" transform="translate(190.869141 0)"/>
      </g>
     </g>
    </g>
    <g id="xtick_25">
     <g id="line2d_79">
      <path d="M 484.120676 819.16 
L 484.120676 585.093333 
" clip-path="url(#p018739e5e6)" style="fill: none; stroke-dasharray: 2.96,1.28; stroke-dashoffset: 0; stroke: #b0b0b0; stroke-opacity: 0.4; stroke-width: 0.8"/>
     </g>
     <g id="line2d_80">
      <g>
       <use xlink:href="#m69a47d1b99" x="484.120676" y="819.16" style="stroke: #000000; stroke-width: 0.8"/>
      </g>
     </g>
     <g id="text_44">
      <!-- 1500 -->
      <g transform="translate(471.395676 833.758438) scale(0.1 -0.1)">
       <use xlink:href="#DejaVuSans-31"/>
       <use xlink:href="#DejaVuSans-35" transform="translate(63.623047 0)"/>
       <use xlink:href="#DejaVuSans-30" transform="translate(127.246094 0)"/>
       <use xlink:href="#DejaVuSans-30" transform="translate(190.869141 0)"/>
      </g>
     </g>
    </g>
    <g id="xtick_26">
     <g id="line2d_81">
      <path d="M 550.097456 819.16 
L 550.097456 585.093333 
" clip-path="url(#p018739e5e6)" style="fill: none; stroke-dasharray: 2.96,1.28; stroke-dashoffset: 0; stroke: #b0b0b0; stroke-opacity: 0.4; stroke-width: 0.8"/>
     </g>
     <g id="line2d_82">
      <g>
       <use xlink:href="#m69a47d1b99" x="550.097456" y="819.16" style="stroke: #000000; stroke-width: 0.8"/>
      </g>
     </g>
     <g id="text_45">
      <!-- 1750 -->
      <g transform="translate(537.372456 833.758438) scale(0.1 -0.1)">
       <use xlink:href="#DejaVuSans-31"/>
       <use xlink:href="#DejaVuSans-37" transform="translate(63.623047 0)"/>
       <use xlink:href="#DejaVuSans-35" transform="translate(127.246094 0)"/>
       <use xlink:href="#DejaVuSans-30" transform="translate(190.869141 0)"/>
      </g>
     </g>
    </g>
    <g id="xtick_27">
     <g id="line2d_83">
      <path d="M 616.074235 819.16 
L 616.074235 585.093333 
" clip-path="url(#p018739e5e6)" style="fill: none; stroke-dasharray: 2.96,1.28; stroke-dashoffset: 0; stroke: #b0b0b0; stroke-opacity: 0.4; stroke-width: 0.8"/>
     </g>
     <g id="line2d_84">
      <g>
       <use xlink:href="#m69a47d1b99" x="616.074235" y="819.16" style="stroke: #000000; stroke-width: 0.8"/>
      </g>
     </g>
     <g id="text_46">
      <!-- 2000 -->
      <g transform="translate(603.349235 833.758438) scale(0.1 -0.1)">
       <use xlink:href="#DejaVuSans-32"/>
       <use xlink:href="#DejaVuSans-30" transform="translate(63.623047 0)"/>
       <use xlink:href="#DejaVuSans-30" transform="translate(127.246094 0)"/>
       <use xlink:href="#DejaVuSans-30" transform="translate(190.869141 0)"/>
      </g>
     </g>
    </g>
    <g id="text_47">
     <!-- Time (ms) -->
     <g transform="translate(319.420937 848.95625) scale(0.12 -0.12)">
      <use xlink:href="#DejaVuSans-54"/>
      <use xlink:href="#DejaVuSans-69" transform="translate(57.958984 0)"/>
      <use xlink:href="#DejaVuSans-6d" transform="translate(85.742188 0)"/>
      <use xlink:href="#DejaVuSans-65" transform="translate(183.154297 0)"/>
      <use xlink:href="#DejaVuSans-20" transform="translate(244.677734 0)"/>
      <use xlink:href="#DejaVuSans-28" transform="translate(276.464844 0)"/>
      <use xlink:href="#DejaVuSans-6d" transform="translate(315.478516 0)"/>
      <use xlink:href="#DejaVuSans-73" transform="translate(412.890625 0)"/>
      <use xlink:href="#DejaVuSans-29" transform="translate(464.990234 0)"/>
     </g>
    </g>
   </g>
   <g id="matplotlib.axis_6">
    <g id="ytick_12">
     <g id="line2d_85">
      <path d="M 62.12 808.520606 
L 637.2 808.520606 
" clip-path="url(#p018739e5e6)" style="fill: none; stroke-dasharray: 2.96,1.28; stroke-dashoffset: 0; stroke: #b0b0b0; stroke-opacity: 0.4; stroke-width: 0.8"/>
     </g>
     <g id="line2d_86">
      <g>
       <use xlink:href="#m2fbd3ddfed" x="62.12" y="808.520606" style="stroke: #000000; stroke-width: 0.8"/>
      </g>
     </g>
     <g id="text_48">
      <!-- 0 -->
      <g transform="translate(48.7575 812.319825) scale(0.1 -0.1)">
       <use xlink:href="#DejaVuSans-30"/>
      </g>
     </g>
    </g>
    <g id="ytick_13">
     <g id="line2d_87">
      <path d="M 62.12 766.357505 
L 637.2 766.357505 
" clip-path="url(#p018739e5e6)" style="fill: none; stroke-dasharray: 2.96,1.28; stroke-dashoffset: 0; stroke: #b0b0b0; stroke-opacity: 0.4; stroke-width: 0.8"/>
     </g>
     <g id="line2d_88">
      <g>
       <use xlink:href="#m2fbd3ddfed" x="62.12" y="766.357505" style="stroke: #000000; stroke-width: 0.8"/>
      </g>
     </g>
     <g id="text_49">
      <!-- 100 -->
      <g transform="translate(36.0325 770.156724) scale(0.1 -0.1)">
       <use xlink:href="#DejaVuSans-31"/>
       <use xlink:href="#DejaVuSans-30" transform="translate(63.623047 0)"/>
       <use xlink:href="#DejaVuSans-30" transform="translate(127.246094 0)"/>
      </g>
     </g>
    </g>
    <g id="ytick_14">
     <g id="line2d_89">
      <path d="M 62.12 724.194405 
L 637.2 724.194405 
" clip-path="url(#p018739e5e6)" style="fill: none; stroke-dasharray: 2.96,1.28; stroke-dashoffset: 0; stroke: #b0b0b0; stroke-opacity: 0.4; stroke-width: 0.8"/>
     </g>
     <g id="line2d_90">
      <g>
       <use xlink:href="#m2fbd3ddfed" x="62.12" y="724.194405" style="stroke: #000000; stroke-width: 0.8"/>
      </g>
     </g>
     <g id="text_50">
      <!-- 200 -->
      <g transform="translate(36.0325 727.993624) scale(0.1 -0.1)">
       <use xlink:href="#DejaVuSans-32"/>
       <use xlink:href="#DejaVuSans-30" transform="translate(63.623047 0)"/>
       <use xlink:href="#DejaVuSans-30" transform="translate(127.246094 0)"/>
      </g>
     </g>
    </g>
    <g id="ytick_15">
     <g id="line2d_91">
      <path d="M 62.12 682.031304 
L 637.2 682.031304 
" clip-path="url(#p018739e5e6)" style="fill: none; stroke-dasharray: 2.96,1.28; stroke-dashoffset: 0; stroke: #b0b0b0; stroke-opacity: 0.4; stroke-width: 0.8"/>
     </g>
     <g id="line2d_92">
      <g>
       <use xlink:href="#m2fbd3ddfed" x="62.12" y="682.031304" style="stroke: #000000; stroke-width: 0.8"/>
      </g>
     </g>
     <g id="text_51">
      <!-- 300 -->
      <g transform="translate(36.0325 685.830523) scale(0.1 -0.1)">
       <use xlink:href="#DejaVuSans-33"/>
       <use xlink:href="#DejaVuSans-30" transform="translate(63.623047 0)"/>
       <use xlink:href="#DejaVuSans-30" transform="translate(127.246094 0)"/>
      </g>
     </g>
    </g>
    <g id="ytick_16">
     <g id="line2d_93">
      <path d="M 62.12 639.868204 
L 637.2 639.868204 
" clip-path="url(#p018739e5e6)" style="fill: none; stroke-dasharray: 2.96,1.28; stroke-dashoffset: 0; stroke: #b0b0b0; stroke-opacity: 0.4; stroke-width: 0.8"/>
     </g>
     <g id="line2d_94">
      <g>
       <use xlink:href="#m2fbd3ddfed" x="62.12" y="639.868204" style="stroke: #000000; stroke-width: 0.8"/>
      </g>
     </g>
     <g id="text_52">
      <!-- 400 -->
      <g transform="translate(36.0325 643.667423) scale(0.1 -0.1)">
       <use xlink:href="#DejaVuSans-34"/>
       <use xlink:href="#DejaVuSans-30" transform="translate(63.623047 0)"/>
       <use xlink:href="#DejaVuSans-30" transform="translate(127.246094 0)"/>
      </g>
     </g>
    </g>
    <g id="ytick_17">
     <g id="line2d_95">
      <path d="M 62.12 597.705103 
L 637.2 597.705103 
" clip-path="url(#p018739e5e6)" style="fill: none; stroke-dasharray: 2.96,1.28; stroke-dashoffset: 0; stroke: #b0b0b0; stroke-opacity: 0.4; stroke-width: 0.8"/>
     </g>
     <g id="line2d_96">
      <g>
       <use xlink:href="#m2fbd3ddfed" x="62.12" y="597.705103" style="stroke: #000000; stroke-width: 0.8"/>
      </g>
     </g>
     <g id="text_53">
      <!-- 500 -->
      <g transform="translate(36.0325 601.504322) scale(0.1 -0.1)">
       <use xlink:href="#DejaVuSans-35"/>
       <use xlink:href="#DejaVuSans-30" transform="translate(63.623047 0)"/>
       <use xlink:href="#DejaVuSans-30" transform="translate(127.246094 0)"/>
      </g>
     </g>
    </g>
    <g id="text_54">
     <!-- Velocity (mm/s) -->
     <g transform="translate(29.536875 749.089792) rotate(-90) scale(0.12 -0.12)">
      <defs>
       <path id="DejaVuSans-56" d="M 1831 0 
L 50 4666 
L 709 4666 
L 2188 738 
L 3669 4666 
L 4325 4666 
L 2547 0 
L 1831 0 
z
" transform="scale(0.015625)"/>
       <path id="DejaVuSans-6c" d="M 603 4863 
L 1178 4863 
L 1178 0 
L 603 0 
L 603 4863 
z
" transform="scale(0.015625)"/>
       <path id="DejaVuSans-79" d="M 2059 -325 
Q 1816 -950 1584 -1140 
Q 1353 -1331 966 -1331 
L 506 -1331 
L 506 -850 
L 844 -850 
Q 1081 -850 1212 -737 
Q 1344 -625 1503 -206 
L 1606 56 
L 191 3500 
L 800 3500 
L 1894 763 
L 2988 3500 
L 3597 3500 
L 2059 -325 
z
" transform="scale(0.015625)"/>
       <path id="DejaVuSans-2f" d="M 1625 4666 
L 2156 4666 
L 531 -594 
L 0 -594 
L 1625 4666 
z
" transform="scale(0.015625)"/>
      </defs>
      <use xlink:href="#DejaVuSans-56"/>
      <use xlink:href="#DejaVuSans-65" transform="translate(60.658203 0)"/>
      <use xlink:href="#DejaVuSans-6c" transform="translate(122.181641 0)"/>
      <use xlink:href="#DejaVuSans-6f" transform="translate(149.964844 0)"/>
      <use xlink:href="#DejaVuSans-63" transform="translate(211.146484 0)"/>
      <use xlink:href="#DejaVuSans-69" transform="translate(266.126953 0)"/>
      <use xlink:href="#DejaVuSans-74" transform="translate(293.910156 0)"/>
      <use xlink:href="#DejaVuSans-79" transform="translate(333.119141 0)"/>
      <use xlink:href="#DejaVuSans-20" transform="translate(392.298828 0)"/>
      <use xlink:href="#DejaVuSans-28" transform="translate(424.085938 0)"/>
      <use xlink:href="#DejaVuSans-6d" transform="translate(463.099609 0)"/>
      <use xlink:href="#DejaVuSans-6d" transform="translate(560.511719 0)"/>
      <use xlink:href="#DejaVuSans-2f" transform="translate(657.923828 0)"/>
      <use xlink:href="#DejaVuSans-73" transform="translate(691.615234 0)"/>
      <use xlink:href="#DejaVuSans-29" transform="translate(743.714844 0)"/>
     </g>
    </g>
   </g>
   <g id="line2d_97">
    <path d="M 88.26 808.520606 
L 93.538142 769.937479 
L 100.663635 715.804966 
L 104.358334 691.609861 
L 109.372569 674.641028 
L 116.234154 641.735686 
L 120.192761 633.993252 
L 125.206996 629.734914 
L 132.332489 619.992352 
L 136.027188 617.2825 
L 141.041424 611.411155 
L 147.903009 609.346506 
L 151.861615 607.733499 
L 156.875851 609.023905 
L 164.001343 603.34612 
L 167.696042 603.088039 
L 172.710278 604.830087 
L 179.571863 604.055843 
L 183.530469 603.604201 
L 188.544705 602.313796 
L 195.670197 601.02339 
L 199.364897 602.184755 
L 204.379132 601.539552 
L 211.240717 599.216822 
L 215.199324 603.539681 
L 220.213559 602.571877 
L 227.339051 601.08791 
L 231.033751 602.249275 
L 236.047986 604.572005 
L 242.909571 601.733113 
L 246.868178 604.055843 
L 251.882413 599.152302 
L 259.007905 601.152431 
L 262.702605 597.861896 
L 267.71684 601.08791 
L 274.578425 599.216822 
L 278.537032 599.281343 
L 283.551267 599.152302 
L 290.676759 598.57162 
L 294.371459 602.507357 
L 299.385694 600.829829 
L 306.247279 599.216822 
L 310.205886 599.087782 
L 315.220121 602.636397 
L 322.345613 598.442579 
L 326.040313 597.797376 
L 331.054548 601.152431 
L 337.916133 601.991194 
L 341.87474 603.604201 
L 347.152882 601.797633 
L 354.278375 600.700789 
L 357.709167 597.990937 
L 362.723402 602.184755 
L 369.584987 599.345863 
L 373.279687 598.958741 
L 378.557829 601.475032 
L 385.683322 598.442579 
L 389.378021 597.474775 
L 394.392256 601.539552 
L 401.253841 596.636011 
L 405.212448 599.152302 
L 410.226683 599.216822 
L 417.352176 600.95887 
L 421.046875 602.313796 
L 426.061111 601.216951 
L 432.922696 596.571491 
L 436.881302 599.732985 
L 441.895538 598.894221 
L 449.02103 598.70066 
L 452.715729 602.442836 
L 457.729965 604.442965 
L 464.59155 599.152302 
L 468.550156 599.216822 
L 473.564392 602.507357 
L 480.689884 598.63614 
L 484.384584 603.023519 
L 489.398819 597.797376 
L 496.260404 599.087782 
L 500.219011 598.829701 
L 505.233246 598.958741 
L 512.094831 597.152173 
L 515.789531 597.410255 
L 521.067673 597.797376 
L 527.929258 599.087782 
L 531.887865 599.732985 
L 536.9021 598.894221 
L 544.027592 598.57162 
L 547.722292 597.539295 
L 552.736527 601.410512 
L 559.598112 596.44245 
L 563.556719 598.894221 
L 568.570954 602.636397 
L 575.696446 598.184498 
L 579.391146 602.507357 
L 584.405381 601.08791 
L 591.266966 599.281343 
L 595.225573 599.152302 
L 600.239808 595.732727 
L 607.3653 598.378059 
L 611.06 597.797376 
" clip-path="url(#p018739e5e6)" style="fill: none; stroke: #ff0000; stroke-width: 2; stroke-linecap: square"/>
   </g>
   <g id="line2d_98">
    <path d="M 88.26 808.520606 
L 88.26 808.520606 
L 95.121585 808.343521 
L 102.247077 808.343521 
L 105.941777 808.343521 
L 110.692105 808.343521 
L 118.081504 808.343521 
L 88.26 808.520606 
L 126.790439 808.343521 
L 133.652024 808.343521 
L 137.610631 808.343521 
L 142.360959 808.343521 
L 149.750358 808.343521 
L 153.181151 808.343521 
L 158.459293 808.343521 
L 165.320878 808.343521 
L 169.279485 808.343521 
L 174.029813 808.343521 
L 181.155305 808.343521 
L 184.850005 808.343521 
L 190.128147 808.343521 
L 196.989732 808.343521 
L 200.948339 808.343521 
L 205.698667 808.343521 
L 212.82416 808.343521 
L 216.518859 808.343521 
L 221.797002 808.343521 
L 228.658587 808.343521 
L 232.617193 808.343521 
L 237.367521 808.343521 
L 244.493014 808.343521 
L 248.187713 808.343521 
L 253.465856 808.343521 
L 260.327441 808.343521 
L 264.286047 808.343521 
L 269.036376 808.343521 
L 276.161868 808.343521 
L 279.856567 808.343521 
L 285.13471 808.343521 
L 291.996295 808.343521 
L 295.954902 808.343521 
L 300.70523 808.343521 
L 307.830722 808.343521 
L 311.525422 808.343521 
L 316.803564 808.343521 
L 323.665149 808.343521 
L 327.623756 808.343521 
L 332.374084 808.343521 
L 339.499576 808.343521 
L 343.194276 808.343521 
L 348.736325 808.343521 
L 355.59791 808.343521 
L 359.29261 808.343521 
L 364.042938 808.343521 
L 371.16843 808.343521 
L 374.86313 808.343521 
L 380.405179 808.343521 
L 387.266764 808.343521 
L 390.961464 808.343521 
L 395.975699 808.343521 
L 403.101191 808.343521 
L 406.531984 808.343521 
L 411.810126 808.343521 
L 418.671711 808.343521 
L 422.630318 808.343521 
L 427.380646 808.343521 
L 434.506138 808.343521 
L 438.200838 808.343521 
L 443.47898 808.343521 
L 450.340565 808.343521 
L 454.299172 808.343521 
L 459.0495 808.343521 
L 466.174992 808.343521 
L 469.869692 808.343521 
L 475.147834 808.343521 
L 482.009419 808.343521 
L 485.968026 808.343521 
L 490.718354 808.343521 
L 497.843847 808.343521 
L 501.538546 808.343521 
L 506.816689 808.343521 
L 513.678274 808.343521 
L 517.372973 808.343521 
L 522.387208 808.343521 
L 529.512701 808.343521 
L 533.2074 808.343521 
L 538.485543 808.343521 
L 545.347128 808.343521 
L 549.305734 808.343521 
L 554.056063 808.343521 
L 561.181555 808.343521 
L 564.876254 808.343521 
L 570.154397 808.343521 
L 577.015982 808.343521 
L 580.974589 808.343521 
L 585.724917 808.343521 
L 592.850409 808.343521 
L 596.545109 808.343521 
L 601.823251 808.343521 
L 608.684836 808.343521 
" clip-path="url(#p018739e5e6)" style="fill: none; stroke-dasharray: 7.4,3.2; stroke-dashoffset: 0; stroke: #000000; stroke-width: 2"/>
   </g>
   <g id="patch_15">
    <path d="M 62.12 819.16 
L 62.12 585.093333 
" style="fill: none; stroke: #000000; stroke-width: 0.8; stroke-linejoin: miter; stroke-linecap: square"/>
   </g>
   <g id="patch_16">
    <path d="M 637.2 819.16 
L 637.2 585.093333 
" style="fill: none; stroke: #000000; stroke-width: 0.8; stroke-linejoin: miter; stroke-linecap: square"/>
   </g>
   <g id="patch_17">
    <path d="M 62.12 819.16 
L 637.2 819.16 
" style="fill: none; stroke: #000000; stroke-width: 0.8; stroke-linejoin: miter; stroke-linecap: square"/>
   </g>
   <g id="patch_18">
    <path d="M 62.12 585.093333 
L 637.2 585.093333 
" style="fill: none; stroke: #000000; stroke-width: 0.8; stroke-linejoin: miter; stroke-linecap: square"/>
   </g>
   <g id="text_55">
    <!-- Pirouette Test: Measured vs Estimated Left Wheel Velocity -->
    <g transform="translate(146.503594 579.093333) scale(0.14 -0.14)">
     <defs>
      <path id="DejaVuSans-66" d="M 2375 4863 
L 2375 4384 
L 1825 4384 
Q 1516 4384 1395 4259 
Q 1275 4134 1275 3809 
L 1275 3500 
L 2222 3500 
L 2222 3053 
L 1275 3053 
L 1275 0 
L 697 0 
L 697 3053 
L 147 3053 
L 147 3500 
L 697 3500 
L 697 3744 
Q 697 4328 969 4595 
Q 1241 4863 1831 4863 
L 2375 4863 
z
" transform="scale(0.015625)"/>
      <path id="DejaVuSans-57" d="M 213 4666 
L 850 4666 
L 1831 722 
L 2809 4666 
L 3519 4666 
L 4500 722 
L 5478 4666 
L 6119 4666 
L 4947 0 
L 4153 0 
L 3169 4050 
L 2175 0 
L 1381 0 
L 213 4666 
z
" transform="scale(0.015625)"/>
     </defs>
     <use xlink:href="#DejaVuSans-50"/>
     <use xlink:href="#DejaVuSans-69" transform="translate(58.052734 0)"/>
     <use xlink:href="#DejaVuSans-72" transform="translate(85.835938 0)"/>
     <use xlink:href="#DejaVuSans-6f" transform="translate(124.699219 0)"/>
     <use xlink:href="#DejaVuSans-75" transform="translate(185.880859 0)"/>
     <use xlink:href="#DejaVuSans-65" transform="translate(249.259766 0)"/>
     <use xlink:href="#DejaVuSans-74" transform="translate(310.783203 0)"/>
     <use xlink:href="#DejaVuSans-74" transform="translate(349.992188 0)"/>
     <use xlink:href="#DejaVuSans-65" transform="translate(389.201172 0)"/>
     <use xlink:href="#DejaVuSans-20" transform="translate(450.724609 0)"/>
     <use xlink:href="#DejaVuSans-54" transform="translate(482.511719 0)"/>
     <use xlink:href="#DejaVuSans-65" transform="translate(526.595703 0)"/>
     <use xlink:href="#DejaVuSans-73" transform="translate(588.119141 0)"/>
     <use xlink:href="#DejaVuSans-74" transform="translate(640.21875 0)"/>
     <use xlink:href="#DejaVuSans-3a" transform="translate(679.427734 0)"/>
     <use xlink:href="#DejaVuSans-20" transform="translate(713.119141 0)"/>
     <use xlink:href="#DejaVuSans-4d" transform="translate(744.90625 0)"/>
     <use xlink:href="#DejaVuSans-65" transform="translate(831.185547 0)"/>
     <use xlink:href="#DejaVuSans-61" transform="translate(892.708984 0)"/>
     <use xlink:href="#DejaVuSans-73" transform="translate(953.988281 0)"/>
     <use xlink:href="#DejaVuSans-75" transform="translate(1006.087891 0)"/>
     <use xlink:href="#DejaVuSans-72" transform="translate(1069.466797 0)"/>
     <use xlink:href="#DejaVuSans-65" transform="translate(1108.330078 0)"/>
     <use xlink:href="#DejaVuSans-64" transform="translate(1169.853516 0)"/>
     <use xlink:href="#DejaVuSans-20" transform="translate(1233.330078 0)"/>
     <use xlink:href="#DejaVuSans-76" transform="translate(1265.117188 0)"/>
     <use xlink:href="#DejaVuSans-73" transform="translate(1324.296875 0)"/>
     <use xlink:href="#DejaVuSans-20" transform="translate(1376.396484 0)"/>
     <use xlink:href="#DejaVuSans-45" transform="translate(1408.183594 0)"/>
     <use xlink:href="#DejaVuSans-73" transform="translate(1471.367188 0)"/>
     <use xlink:href="#DejaVuSans-74" transform="translate(1523.466797 0)"/>
     <use xlink:href="#DejaVuSans-69" transform="translate(1562.675781 0)"/>
     <use xlink:href="#DejaVuSans-6d" transform="translate(1590.458984 0)"/>
     <use xlink:href="#DejaVuSans-61" transform="translate(1687.871094 0)"/>
     <use xlink:href="#DejaVuSans-74" transform="translate(1749.150391 0)"/>
     <use xlink:href="#DejaVuSans-65" transform="translate(1788.359375 0)"/>
     <use xlink:href="#DejaVuSans-64" transform="translate(1849.882812 0)"/>
     <use xlink:href="#DejaVuSans-20" transform="translate(1913.359375 0)"/>
     <use xlink:href="#DejaVuSans-4c" transform="translate(1945.146484 0)"/>
     <use xlink:href="#DejaVuSans-65" transform="translate(1999.109375 0)"/>
     <use xlink:href="#DejaVuSans-66" transform="translate(2060.632812 0)"/>
     <use xlink:href="#DejaVuSans-74" transform="translate(2094.087891 0)"/>
     <use xlink:href="#DejaVuSans-20" transform="translate(2133.296875 0)"/>
     <use xlink:href="#DejaVuSans-57" transform="translate(2165.083984 0)"/>
     <use xlink:href="#DejaVuSans-68" transform="translate(2263.960938 0)"/>
     <use xlink:href="#DejaVuSans-65" transform="translate(2327.339844 0)"/>
     <use xlink:href="#DejaVuSans-65" transform="translate(2388.863281 0)"/>
     <use xlink:href="#DejaVuSans-6c" transform="translate(2450.386719 0)"/>
     <use xlink:href="#DejaVuSans-20" transform="translate(2478.169922 0)"/>
     <use xlink:href="#DejaVuSans-56" transform="translate(2509.957031 0)"/>
     <use xlink:href="#DejaVuSans-65" transform="translate(2570.615234 0)"/>
     <use xlink:href="#DejaVuSans-6c" transform="translate(2632.138672 0)"/>
     <use xlink:href="#DejaVuSans-6f" transform="translate(2659.921875 0)"/>
     <use xlink:href="#DejaVuSans-63" transform="translate(2721.103516 0)"/>
     <use xlink:href="#DejaVuSans-69" transform="translate(2776.083984 0)"/>
     <use xlink:href="#DejaVuSans-74" transform="translate(2803.867188 0)"/>
     <use xlink:href="#DejaVuSans-79" transform="translate(2843.076172 0)"/>
    </g>
   </g>
   <g id="legend_3">
    <g id="patch_19">
     <path d="M 483.279687 814.16 
L 630.2 814.16 
Q 632.2 814.16 632.2 812.16 
L 632.2 783.80375 
Q 632.2 781.80375 630.2 781.80375 
L 483.279687 781.80375 
Q 481.279687 781.80375 481.279687 783.80375 
L 481.279687 812.16 
Q 481.279687 814.16 483.279687 814.16 
z
" style="fill: #ffffff; opacity: 0.8; stroke: #cccccc; stroke-linejoin: miter"/>
    </g>
    <g id="line2d_99">
     <path d="M 485.279687 789.902187 
L 495.279687 789.902187 
L 505.279687 789.902187 
" style="fill: none; stroke: #ff0000; stroke-width: 2; stroke-linecap: square"/>
    </g>
    <g id="text_56">
     <!-- Measured Left Velocity -->
     <g transform="translate(513.279687 793.402187) scale(0.1 -0.1)">
      <use xlink:href="#DejaVuSans-4d"/>
      <use xlink:href="#DejaVuSans-65" transform="translate(86.279297 0)"/>
      <use xlink:href="#DejaVuSans-61" transform="translate(147.802734 0)"/>
      <use xlink:href="#DejaVuSans-73" transform="translate(209.082031 0)"/>
      <use xlink:href="#DejaVuSans-75" transform="translate(261.181641 0)"/>
      <use xlink:href="#DejaVuSans-72" transform="translate(324.560547 0)"/>
      <use xlink:href="#DejaVuSans-65" transform="translate(363.423828 0)"/>
      <use xlink:href="#DejaVuSans-64" transform="translate(424.947266 0)"/>
      <use xlink:href="#DejaVuSans-20" transform="translate(488.423828 0)"/>
      <use xlink:href="#DejaVuSans-4c" transform="translate(520.210938 0)"/>
      <use xlink:href="#DejaVuSans-65" transform="translate(574.173828 0)"/>
      <use xlink:href="#DejaVuSans-66" transform="translate(635.697266 0)"/>
      <use xlink:href="#DejaVuSans-74" transform="translate(669.152344 0)"/>
      <use xlink:href="#DejaVuSans-20" transform="translate(708.361328 0)"/>
      <use xlink:href="#DejaVuSans-56" transform="translate(740.148438 0)"/>
      <use xlink:href="#DejaVuSans-65" transform="translate(800.806641 0)"/>
      <use xlink:href="#DejaVuSans-6c" transform="translate(862.330078 0)"/>
      <use xlink:href="#DejaVuSans-6f" transform="translate(890.113281 0)"/>
      <use xlink:href="#DejaVuSans-63" transform="translate(951.294922 0)"/>
      <use xlink:href="#DejaVuSans-69" transform="translate(1006.275391 0)"/>
      <use xlink:href="#DejaVuSans-74" transform="translate(1034.058594 0)"/>
      <use xlink:href="#DejaVuSans-79" transform="translate(1073.267578 0)"/>
     </g>
    </g>
    <g id="line2d_100">
     <path d="M 485.279687 804.580312 
L 495.279687 804.580312 
L 505.279687 804.580312 
" style="fill: none; stroke-dasharray: 7.4,3.2; stroke-dashoffset: 0; stroke: #000000; stroke-width: 2"/>
    </g>
    <g id="text_57">
     <!-- Estimated Left Velocity -->
     <g transform="translate(513.279687 808.080312) scale(0.1 -0.1)">
      <use xlink:href="#DejaVuSans-45"/>
      <use xlink:href="#DejaVuSans-73" transform="translate(63.183594 0)"/>
      <use xlink:href="#DejaVuSans-74" transform="translate(115.283203 0)"/>
      <use xlink:href="#DejaVuSans-69" transform="translate(154.492188 0)"/>
      <use xlink:href="#DejaVuSans-6d" transform="translate(182.275391 0)"/>
      <use xlink:href="#DejaVuSans-61" transform="translate(279.6875 0)"/>
      <use xlink:href="#DejaVuSans-74" transform="translate(340.966797 0)"/>
      <use xlink:href="#DejaVuSans-65" transform="translate(380.175781 0)"/>
      <use xlink:href="#DejaVuSans-64" transform="translate(441.699219 0)"/>
      <use xlink:href="#DejaVuSans-20" transform="translate(505.175781 0)"/>
      <use xlink:href="#DejaVuSans-4c" transform="translate(536.962891 0)"/>
      <use xlink:href="#DejaVuSans-65" transform="translate(590.925781 0)"/>
      <use xlink:href="#DejaVuSans-66" transform="translate(652.449219 0)"/>
      <use xlink:href="#DejaVuSans-74" transform="translate(685.904297 0)"/>
      <use xlink:href="#DejaVuSans-20" transform="translate(725.113281 0)"/>
      <use xlink:href="#DejaVuSans-56" transform="translate(756.900391 0)"/>
      <use xlink:href="#DejaVuSans-65" transform="translate(817.558594 0)"/>
      <use xlink:href="#DejaVuSans-6c" transform="translate(879.082031 0)"/>
      <use xlink:href="#DejaVuSans-6f" transform="translate(906.865234 0)"/>
      <use xlink:href="#DejaVuSans-63" transform="translate(968.046875 0)"/>
      <use xlink:href="#DejaVuSans-69" transform="translate(1023.027344 0)"/>
      <use xlink:href="#DejaVuSans-74" transform="translate(1050.810547 0)"/>
      <use xlink:href="#DejaVuSans-79" transform="translate(1090.019531 0)"/>
     </g>
    </g>
   </g>
  </g>
 </g>
 <defs>
  <clipPath id="pf4da39466c">
   <rect x="62.12" y="27.6" width="575.08" height="234.066667"/>
  </clipPath>
  <clipPath id="p25c41dec63">
   <rect x="62.12" y="306.346667" width="575.08" height="234.066667"/>
  </clipPath>
  <clipPath id="p018739e5e6">
   <rect x="62.12" y="585.093333" width="575.08" height="234.066667"/>
  </clipPath>
 </defs>
</svg>
