<?xml version="1.0" encoding="UTF-8"?>
<svg xmlns="http://www.w3.org/2000/svg" viewBox="0 0 5102.36 2551.18">
  <defs>
    <style>
      .cls-1, .cls-2, .cls-3, .cls-4, .cls-5, .cls-6, .cls-7, .cls-8, .cls-9, .cls-10, .cls-11, .cls-12, .cls-13, .cls-14 {
        fill: none;
      }

      .cls-1, .cls-2, .cls-3, .cls-4, .cls-5, .cls-6, .cls-7, .cls-8, .cls-9, .cls-10, .cls-13, .cls-14 {
        stroke-miterlimit: 10;
      }

      .cls-1, .cls-2, .cls-5, .cls-6, .cls-8, .cls-9, .cls-11, .cls-12, .cls-13, .cls-14 {
        stroke: #231f20;
      }

      .cls-1, .cls-2, .cls-7, .cls-8, .cls-9, .cls-11, .cls-13 {
        stroke-linecap: round;
      }

      .cls-2 {
        stroke-dasharray: 11.93 35.78;
        stroke-width: 18px;
      }

      .cls-3 {
        stroke-width: .5px;
      }

      .cls-3, .cls-4 {
        stroke: #d1d3d4;
      }

      .cls-15 {
        font-size: 70.87px;
      }

      .cls-15, .cls-16, .cls-17, .cls-18 {
        font-family: MyriadPro-Regular, 'Myriad Pro';
      }

      .cls-15, .cls-19 {
        fill: #fff;
      }

      .cls-20 {
        fill: #231f20;
      }

      .cls-4 {
        stroke-width: .75px;
      }

      .cls-16 {
        font-size: 62.99px;
      }

      .cls-16, .cls-18 {
        fill: #939598;
      }

      .cls-5, .cls-11 {
        stroke-width: 3px;
      }

      .cls-17 {
        fill: #808285;
        font-size: 12px;
      }

      .cls-6 {
        stroke-width: 27px;
      }

      .cls-21 {
        letter-spacing: -.01em;
      }

      .cls-7, .cls-10 {
        stroke: #808285;
      }

      .cls-8 {
        stroke-dasharray: 25.25 75.74;
      }

      .cls-8, .cls-12, .cls-13, .cls-14 {
        stroke-width: 36px;
      }

      .cls-9 {
        stroke-width: 2px;
      }

      .cls-18 {
        font-size: 62.99px;
      }

      .cls-22 {
        letter-spacing: 0em;
      }

      .cls-23 {
        letter-spacing: -.03em;
      }

      .cls-24 {
        letter-spacing: 0em;
      }

      .cls-25 {
        letter-spacing: 0em;
      }

      .cls-11, .cls-12 {
        stroke-linejoin: round;
      }

      .cls-26 {
        letter-spacing: 0em;
      }
    </style>
  </defs>
  <g id="Grid">
    <g>
      <rect class="cls-3" width="5102.36" height="2551.18"/>
      <line class="cls-3" y1="2480.31" x2="5102.36" y2="2480.31"/>
      <line class="cls-3" y1="2409.45" x2="5102.36" y2="2409.45"/>
      <line class="cls-3" y1="2338.58" x2="5102.36" y2="2338.58"/>
      <line class="cls-3" y1="2267.72" x2="5102.36" y2="2267.72"/>
      <line class="cls-3" y1="2196.85" x2="5102.36" y2="2196.85"/>
      <line class="cls-3" y1="2125.98" x2="5102.36" y2="2125.98"/>
      <line class="cls-3" y1="2055.12" x2="5102.36" y2="2055.12"/>
      <line class="cls-3" y1="1984.25" x2="5102.36" y2="1984.25"/>
      <line class="cls-3" y1="1913.39" x2="5102.36" y2="1913.39"/>
      <line class="cls-3" y1="1842.52" x2="5102.36" y2="1842.52"/>
      <line class="cls-3" y1="1771.65" x2="5102.36" y2="1771.65"/>
      <line class="cls-3" y1="1700.79" x2="5102.36" y2="1700.79"/>
      <line class="cls-3" y1="1629.92" x2="5102.36" y2="1629.92"/>
      <line class="cls-3" y1="1559.06" x2="5102.36" y2="1559.06"/>
      <line class="cls-3" y1="1488.19" x2="5102.36" y2="1488.19"/>
      <line class="cls-3" y1="1417.32" x2="5102.36" y2="1417.32"/>
      <line class="cls-3" y1="1346.46" x2="5102.36" y2="1346.46"/>
      <line class="cls-3" y1="1275.59" x2="5102.36" y2="1275.59"/>
      <line class="cls-3" y1="1204.72" x2="5102.36" y2="1204.72"/>
      <line class="cls-3" y1="1133.86" x2="5102.36" y2="1133.86"/>
      <line class="cls-3" y1="1062.99" x2="5102.36" y2="1062.99"/>
      <line class="cls-3" y1="992.13" x2="5102.36" y2="992.13"/>
      <line class="cls-3" y1="921.26" x2="5102.36" y2="921.26"/>
      <line class="cls-3" y1="850.39" x2="5102.36" y2="850.39"/>
      <line class="cls-3" y1="779.53" x2="5102.36" y2="779.53"/>
      <line class="cls-3" y1="708.66" x2="5102.36" y2="708.66"/>
      <line class="cls-3" y1="637.8" x2="5102.36" y2="637.8"/>
      <line class="cls-3" y1="566.93" x2="5102.36" y2="566.93"/>
      <line class="cls-3" y1="496.06" x2="5102.36" y2="496.06"/>
      <line class="cls-3" y1="425.2" x2="5102.36" y2="425.2"/>
      <line class="cls-3" y1="354.33" x2="5102.36" y2="354.33"/>
      <line class="cls-3" y1="283.46" x2="5102.36" y2="283.46"/>
      <line class="cls-3" y1="212.6" x2="5102.36" y2="212.6"/>
      <line class="cls-3" y1="141.73" x2="5102.36" y2="141.73"/>
      <line class="cls-3" y1="70.87" x2="5102.36" y2="70.87"/>
      <line class="cls-3" x1="5031.5" x2="5031.5" y2="2551.18"/>
      <line class="cls-3" x1="4960.63" x2="4960.63" y2="2551.18"/>
      <line class="cls-3" x1="4889.76" x2="4889.76" y2="2551.18"/>
      <line class="cls-3" x1="4818.9" x2="4818.9" y2="2551.18"/>
      <line class="cls-3" x1="4748.03" x2="4748.03" y2="2551.18"/>
      <line class="cls-3" x1="4677.17" x2="4677.17" y2="2551.18"/>
      <line class="cls-3" x1="4606.3" x2="4606.3" y2="2551.18"/>
      <line class="cls-3" x1="4535.43" x2="4535.43" y2="2551.18"/>
      <line class="cls-3" x1="4464.57" x2="4464.57" y2="2551.18"/>
      <line class="cls-3" x1="4393.7" x2="4393.7" y2="2551.18"/>
      <line class="cls-3" x1="4322.83" x2="4322.83" y2="2551.18"/>
      <line class="cls-3" x1="4251.97" x2="4251.97" y2="2551.18"/>
      <line class="cls-3" x1="4181.1" x2="4181.1" y2="2551.18"/>
      <line class="cls-3" x1="4110.24" x2="4110.24" y2="2551.18"/>
      <line class="cls-3" x1="4039.37" x2="4039.37" y2="2551.18"/>
      <line class="cls-3" x1="3968.5" x2="3968.5" y2="2551.18"/>
      <line class="cls-3" x1="3897.64" x2="3897.64" y2="2551.18"/>
      <line class="cls-3" x1="3826.77" x2="3826.77" y2="2551.18"/>
      <line class="cls-3" x1="3755.91" x2="3755.91" y2="2551.18"/>
      <line class="cls-3" x1="3685.04" x2="3685.04" y2="2551.18"/>
      <line class="cls-3" x1="3614.17" x2="3614.17" y2="2551.18"/>
      <line class="cls-3" x1="3543.31" x2="3543.31" y2="2551.18"/>
      <line class="cls-3" x1="3472.44" x2="3472.44" y2="2551.18"/>
      <line class="cls-3" x1="3401.57" x2="3401.57" y2="2551.18"/>
      <line class="cls-3" x1="3330.71" x2="3330.71" y2="2551.18"/>
      <line class="cls-3" x1="3259.84" x2="3259.84" y2="2551.18"/>
      <line class="cls-3" x1="3188.98" x2="3188.98" y2="2551.18"/>
      <line class="cls-3" x1="3118.11" x2="3118.11" y2="2551.18"/>
      <line class="cls-3" x1="3047.24" x2="3047.24" y2="2551.18"/>
      <line class="cls-3" x1="2976.38" x2="2976.38" y2="2551.18"/>
      <line class="cls-3" x1="2905.51" x2="2905.51" y2="2551.18"/>
      <line class="cls-3" x1="2834.65" x2="2834.65" y2="2551.18"/>
      <line class="cls-3" x1="2763.78" x2="2763.78" y2="2551.18"/>
      <line class="cls-3" x1="2692.91" x2="2692.91" y2="2551.18"/>
      <line class="cls-3" x1="2622.05" x2="2622.05" y2="2551.18"/>
      <line class="cls-3" x1="2551.18" x2="2551.18" y2="2551.18"/>
      <line class="cls-3" x1="2480.31" x2="2480.31" y2="2551.18"/>
      <line class="cls-3" x1="2409.45" x2="2409.45" y2="2551.18"/>
      <line class="cls-3" x1="2338.58" x2="2338.58" y2="2551.18"/>
      <line class="cls-3" x1="2267.72" x2="2267.72" y2="2551.18"/>
      <line class="cls-3" x1="2196.85" x2="2196.85" y2="2551.18"/>
      <line class="cls-3" x1="2125.98" x2="2125.98" y2="2551.18"/>
      <line class="cls-3" x1="2055.12" x2="2055.12" y2="2551.18"/>
      <line class="cls-3" x1="1984.25" x2="1984.25" y2="2551.18"/>
      <line class="cls-3" x1="1913.39" x2="1913.39" y2="2551.18"/>
      <line class="cls-3" x1="1842.52" x2="1842.52" y2="2551.18"/>
      <line class="cls-3" x1="1771.65" x2="1771.65" y2="2551.18"/>
      <line class="cls-3" x1="1700.79" x2="1700.79" y2="2551.18"/>
      <line class="cls-3" x1="1629.92" x2="1629.92" y2="2551.18"/>
      <line class="cls-3" x1="1559.06" x2="1559.06" y2="2551.18"/>
      <line class="cls-3" x1="1488.19" x2="1488.19" y2="2551.18"/>
      <line class="cls-3" x1="1417.32" x2="1417.32" y2="2551.18"/>
      <line class="cls-3" x1="1346.46" x2="1346.46" y2="2551.18"/>
      <line class="cls-3" x1="1275.59" x2="1275.59" y2="2551.18"/>
      <line class="cls-3" x1="1204.72" x2="1204.72" y2="2551.18"/>
      <line class="cls-3" x1="1133.86" x2="1133.86" y2="2551.18"/>
      <line class="cls-3" x1="1062.99" x2="1062.99" y2="2551.18"/>
      <line class="cls-3" x1="992.13" x2="992.13" y2="2551.18"/>
      <line class="cls-3" x1="921.26" x2="921.26" y2="2551.18"/>
      <line class="cls-3" x1="850.39" x2="850.39" y2="2551.18"/>
      <line class="cls-3" x1="779.53" x2="779.53" y2="2551.18"/>
      <line class="cls-3" x1="708.66" x2="708.66" y2="2551.18"/>
      <line class="cls-3" x1="637.8" x2="637.8" y2="2551.18"/>
      <line class="cls-3" x1="566.93" x2="566.93" y2="2551.18"/>
      <line class="cls-3" x1="496.06" x2="496.06" y2="2551.18"/>
      <line class="cls-3" x1="425.2" x2="425.2" y2="2551.18"/>
      <line class="cls-3" x1="354.33" x2="354.33" y2="2551.18"/>
      <line class="cls-3" x1="283.46" x2="283.46" y2="2551.18"/>
      <line class="cls-3" x1="212.6" x2="212.6" y2="2551.18"/>
      <line class="cls-3" x1="141.73" x2="141.73" y2="2551.18"/>
      <line class="cls-3" x1="70.87" x2="70.87" y2="2551.18"/>
    </g>
    <g>
      <rect class="cls-4" width="5102.36" height="2551.18"/>
      <line class="cls-4" y1="2267.72" x2="5102.36" y2="2267.72"/>
      <line class="cls-4" y1="1984.25" x2="5102.36" y2="1984.25"/>
      <line class="cls-4" y1="1700.79" x2="5102.36" y2="1700.79"/>
      <line class="cls-4" y1="1417.32" x2="5102.36" y2="1417.32"/>
      <line class="cls-4" y1="1133.86" x2="5102.36" y2="1133.86"/>
      <line class="cls-4" y1="850.39" x2="5102.36" y2="850.39"/>
      <line class="cls-4" y1="566.93" x2="5102.36" y2="566.93"/>
      <line class="cls-4" y1="283.46" x2="5102.36" y2="283.46"/>
      <line class="cls-4" x1="4818.9" x2="4818.9" y2="2551.18"/>
      <line class="cls-4" x1="4535.43" x2="4535.43" y2="2551.18"/>
      <line class="cls-4" x1="4251.97" x2="4251.97" y2="2551.18"/>
      <line class="cls-4" x1="3968.5" x2="3968.5" y2="2551.18"/>
      <line class="cls-4" x1="3685.04" x2="3685.04" y2="2551.18"/>
      <line class="cls-4" x1="3401.57" x2="3401.57" y2="2551.18"/>
      <line class="cls-4" x1="3118.11" x2="3118.11" y2="2551.18"/>
      <line class="cls-4" x1="2834.65" x2="2834.65" y2="2551.18"/>
      <line class="cls-4" x1="2551.18" x2="2551.18" y2="2551.18"/>
      <line class="cls-4" x1="2267.72" x2="2267.72" y2="2551.18"/>
      <line class="cls-4" x1="1984.25" x2="1984.25" y2="2551.18"/>
      <line class="cls-4" x1="1700.79" x2="1700.79" y2="2551.18"/>
      <line class="cls-4" x1="1417.32" x2="1417.32" y2="2551.18"/>
      <line class="cls-4" x1="1133.86" x2="1133.86" y2="2551.18"/>
      <line class="cls-4" x1="850.39" x2="850.39" y2="2551.18"/>
      <line class="cls-4" x1="566.93" x2="566.93" y2="2551.18"/>
      <line class="cls-4" x1="283.46" x2="283.46" y2="2551.18"/>
    </g>
    <text class="cls-17" transform="translate(274.23 2549.18)"><tspan x="0" y="0">100</tspan></text>
    <text class="cls-17" transform="translate(557.7 2549.18)"><tspan x="0" y="0">200</tspan></text>
    <text class="cls-17" transform="translate(841.16 2549.18)"><tspan x="0" y="0">300</tspan></text>
    <text class="cls-17" transform="translate(1124.62 2549.18)"><tspan x="0" y="0">400</tspan></text>
    <text class="cls-17" transform="translate(1408.09 2549.18)"><tspan x="0" y="0">500</tspan></text>
    <text class="cls-17" transform="translate(1691.55 2549.18)"><tspan x="0" y="0">600</tspan></text>
    <text class="cls-17" transform="translate(1975.02 2549.18)"><tspan x="0" y="0">700</tspan></text>
    <text class="cls-17" transform="translate(2258.48 2549.18)"><tspan x="0" y="0">800</tspan></text>
    <text class="cls-17" transform="translate(2541.95 2549.18)"><tspan x="0" y="0">900</tspan></text>
    <text class="cls-17" transform="translate(2822.33 2549.18)"><tspan x="0" y="0">1000</tspan></text>
    <text class="cls-17" transform="translate(3105.8 2549.18)"><tspan x="0" y="0">1100</tspan></text>
    <text class="cls-17" transform="translate(3389.26 2549.18)"><tspan x="0" y="0">1200</tspan></text>
    <text class="cls-17" transform="translate(3672.73 2549.18)"><tspan x="0" y="0">1300</tspan></text>
    <text class="cls-17" transform="translate(3956.19 2549.18)"><tspan x="0" y="0">1400</tspan></text>
    <text class="cls-17" transform="translate(4239.66 2549.18)"><tspan x="0" y="0">1500</tspan></text>
    <text class="cls-17" transform="translate(4523.12 2549.18)"><tspan x="0" y="0">1600</tspan></text>
    <text class="cls-17" transform="translate(4806.59 2549.18)"><tspan x="0" y="0">1700</tspan></text>
    <text class="cls-17" transform="translate(2 2258.48) rotate(90)"><tspan x="0" y="0">100</tspan></text>
    <text class="cls-17" transform="translate(2 1975.02) rotate(90)"><tspan x="0" y="0">200</tspan></text>
    <text class="cls-17" transform="translate(2 1691.55) rotate(90)"><tspan x="0" y="0">300</tspan></text>
    <text class="cls-17" transform="translate(2 1408.09) rotate(90)"><tspan x="0" y="0">400</tspan></text>
    <text class="cls-17" transform="translate(2 1124.63) rotate(90)"><tspan x="0" y="0">500</tspan></text>
    <text class="cls-17" transform="translate(2 841.16) rotate(90)"><tspan x="0" y="0">600</tspan></text>
    <text class="cls-17" transform="translate(2 543.52) rotate(90)"><tspan x="0" y="0">700</tspan></text>
    <text class="cls-17" transform="translate(2 274.23) rotate(90)"><tspan x="0" y="0">800</tspan></text>
    <text class="cls-17" transform="translate(292.7 2) rotate(-180)"><tspan x="0" y="0">100</tspan></text>
    <text class="cls-17" transform="translate(576.16 2) rotate(-180)"><tspan x="0" y="0">200</tspan></text>
    <text class="cls-17" transform="translate(859.63 2) rotate(-180)"><tspan x="0" y="0">300</tspan></text>
    <text class="cls-17" transform="translate(1143.09 2) rotate(-180)"><tspan x="0" y="0">400</tspan></text>
    <text class="cls-17" transform="translate(1426.56 2) rotate(-180)"><tspan x="0" y="0">500</tspan></text>
    <text class="cls-17" transform="translate(1710.02 2) rotate(-180)"><tspan x="0" y="0">600</tspan></text>
    <text class="cls-17" transform="translate(1993.49 2) rotate(-180)"><tspan x="0" y="0">700</tspan></text>
    <text class="cls-17" transform="translate(2276.95 2) rotate(-180)"><tspan x="0" y="0">800</tspan></text>
    <text class="cls-17" transform="translate(2560.42 2) rotate(-180)"><tspan x="0" y="0">900</tspan></text>
    <text class="cls-17" transform="translate(2846.96 2) rotate(-180)"><tspan x="0" y="0">1000</tspan></text>
    <text class="cls-17" transform="translate(3130.42 2) rotate(-180)"><tspan x="0" y="0">1100</tspan></text>
    <text class="cls-17" transform="translate(3413.89 2) rotate(-180)"><tspan x="0" y="0">1200</tspan></text>
    <text class="cls-17" transform="translate(3697.35 2) rotate(-180)"><tspan x="0" y="0">1300</tspan></text>
    <text class="cls-17" transform="translate(3980.82 2) rotate(-180)"><tspan x="0" y="0">1400</tspan></text>
    <text class="cls-17" transform="translate(4264.28 2) rotate(-180)"><tspan x="0" y="0">1500</tspan></text>
    <text class="cls-17" transform="translate(4547.75 2) rotate(-180)"><tspan x="0" y="0">1600</tspan></text>
    <text class="cls-17" transform="translate(4831.21 2) rotate(-180)"><tspan x="0" y="0">1700</tspan></text>
    <text class="cls-17" transform="translate(5100.36 2276.95) rotate(-90)"><tspan x="0" y="0">100</tspan></text>
    <text class="cls-17" transform="translate(5100.36 1993.49) rotate(-90)"><tspan x="0" y="0">200</tspan></text>
    <text class="cls-17" transform="translate(5100.36 1710.02) rotate(-90)"><tspan x="0" y="0">300</tspan></text>
    <text class="cls-17" transform="translate(5100.36 1426.56) rotate(-90)"><tspan x="0" y="0">400</tspan></text>
    <text class="cls-17" transform="translate(5100.36 1143.09) rotate(-90)"><tspan x="0" y="0">500</tspan></text>
    <text class="cls-17" transform="translate(5100.36 859.63) rotate(-90)"><tspan x="0" y="0">600</tspan></text>
    <text class="cls-17" transform="translate(5100.36 576.16) rotate(-90)"><tspan x="0" y="0">700</tspan></text>
    <text class="cls-17" transform="translate(5097.23 292.7) rotate(-90)"><tspan x="0" y="0">800</tspan></text>
  </g>
  <g id="Track">
    <line class="cls-14" x1="3968.5" y1="283.46" x2="2125.98" y2="283.46"/>
    <line class="cls-10" x1="4251.97" y1="1629.92" x2="4251.97" y2="2267.72"/>
    <line class="cls-10" x1="4251.97" y1="1629.92" x2="4889.76" y2="1629.92"/>
    <line class="cls-10" x1="3968.5" y1="708.66" x2="3968.5" y2="1204.72"/>
    <line class="cls-10" x1="3968.5" y1="1204.72" x2="4889.76" y2="1204.72"/>
    <line class="cls-10" x1="2125.98" y1="283.46" x2="2125.98" y2="850.39"/>
    <line class="cls-10" x1="2125.98" y1="850.39" x2="2692.91" y2="850.39"/>
    <line class="cls-1" x1="2692.91" y1="1417.32" x2="3543.31" y2="1417.32"/>
    <line class="cls-7" x1="3968.5" y1="283.46" x2="3968.5" y2="708.66"/>
    <line class="cls-7" x1="3543.31" y1="708.66" x2="3968.5" y2="708.66"/>
    <line class="cls-14" x1="4251.97" y1="2267.72" x2="3826.77" y2="2267.72"/>
    <line class="cls-14" x1="425.2" y1="283.46" x2="2125.98" y2="283.46"/>
    <path class="cls-14" d="M2692.91,850.39c0-313.36-253.57-566.93-566.93-566.93"/>
    <path class="cls-14" d="M2692.91,1417.32c0,235.02,190.18,425.2,425.2,425.2"/>
    <path class="cls-14" d="M3118.11,1842.52c235.02,0,425.2-190.18,425.2-425.2"/>
    <g>
      <line class="cls-13" x1="3543.31" y1="1417.32" x2="3543.31" y2="1403.82"/>
      <line class="cls-8" x1="3543.31" y1="1328.08" x2="3543.31" y2="760.03"/>
      <line class="cls-13" x1="3543.31" y1="722.16" x2="3543.31" y2="708.66"/>
    </g>
    <path class="cls-14" d="M4889.76,1204.72c0-509.21-412.05-921.26-921.26-921.26"/>
    <path class="cls-6" d="M3968.5,283.46c-235.02,0-425.2,190.18-425.2,425.2"/>
    <path class="cls-14" d="M4251.97,2267.72c352.53,0,637.8-285.26,637.8-637.8"/>
    <path class="cls-14" d="M2267.72,2055.12c283.46,0,425.2,212.6,708.66,212.6"/>
    <path class="cls-14" d="M496.06,1700.79c0-425.2-212.6-637.8-212.6-1062.99"/>
    <g>
      <line class="cls-14" x1="2976.38" y1="2125.98" x2="3259.84" y2="2125.98"/>
      <line class="cls-13" x1="2976.38" y1="2267.72" x2="2976.38" y2="2125.98"/>
      <line class="cls-13" x1="3259.84" y1="2409.45" x2="3259.84" y2="2125.98"/>
      <line class="cls-13" x1="3543.31" y1="2409.45" x2="3543.31" y2="2125.98"/>
      <line class="cls-13" x1="3826.77" y1="2267.72" x2="3826.77" y2="2125.98"/>
      <line class="cls-14" x1="3259.84" y1="2409.45" x2="3543.31" y2="2409.45"/>
      <line class="cls-14" x1="3543.31" y1="2125.98" x2="3826.77" y2="2125.98"/>
    </g>
    <g>
      <polyline class="cls-12" points="2692.91 921.26 2480.31 1133.86 2692.91 1346.46"/>
      <polyline class="cls-12" points="2692.91 1346.46 2905.51 1133.86 2692.91 921.26"/>
      <line class="cls-14" x1="2692.91" y1="1417.32" x2="2692.91" y2="1346.46"/>
      <line class="cls-14" x1="2692.91" y1="921.26" x2="2692.91" y2="850.39"/>
    </g>
    <g>
      <rect class="cls-20" x="0" y="566.93" width="566.93" height="70.87"/>
      <text class="cls-15" transform="translate(220.85 628.94)"><tspan class="cls-23" x="0" y="0">W</tspan><tspan x="57.61" y="0">all</tspan></text>
      <circle class="cls-19" cx="35.43" cy="602.36" r="8.86"/>
      <path class="cls-20" d="M35.43,604.24c2.41,0,2.42-3.75,0-3.75s-2.42,3.75,0,3.75h0Z"/>
      <circle class="cls-19" cx="531.5" cy="602.36" r="8.86"/>
      <path class="cls-20" d="M531.5,604.24c2.41,0,2.42-3.75,0-3.75s-2.42,3.75,0,3.75h0Z"/>
    </g>
    <g>
      <rect class="cls-19" x="141.73" y="1700.79" width="2125.98" height="708.66"/>
      <rect class="cls-20" x="2232.28" y="1665.35" width="70.87" height="70.87"/>
      <rect class="cls-20" x="2232.28" y="2374.02" width="70.87" height="70.87"/>
      <rect class="cls-20" x="1523.62" y="1665.35" width="70.87" height="70.87"/>
      <rect class="cls-20" x="1523.62" y="2374.02" width="70.87" height="70.87"/>
      <rect class="cls-20" x="814.96" y="1665.35" width="70.87" height="70.87"/>
      <rect class="cls-20" x="814.96" y="2374.02" width="70.87" height="70.87"/>
      <rect class="cls-20" x="106.3" y="1665.35" width="70.87" height="70.87"/>
      <rect class="cls-20" x="106.3" y="2374.02" width="70.87" height="70.87"/>
      <line class="cls-5" x1="141.73" y1="2409.45" x2="141.73" y2="1700.79"/>
      <line class="cls-5" x1="850.39" y1="2409.45" x2="850.39" y2="1700.79"/>
      <line class="cls-5" x1="1559.06" y1="2409.45" x2="1559.06" y2="1700.79"/>
      <line class="cls-5" x1="283.46" y1="2409.45" x2="283.46" y2="1700.79"/>
      <line class="cls-5" x1="992.13" y1="2409.45" x2="992.13" y2="1700.79"/>
      <line class="cls-5" x1="1700.79" y1="2409.45" x2="1700.79" y2="1700.79"/>
      <line class="cls-5" x1="425.2" y1="2409.45" x2="425.2" y2="1700.79"/>
      <line class="cls-5" x1="1133.86" y1="2409.45" x2="1133.86" y2="1700.79"/>
      <line class="cls-5" x1="1842.52" y1="2409.45" x2="1842.52" y2="1700.79"/>
      <line class="cls-5" x1="566.93" y1="2409.45" x2="566.93" y2="1700.79"/>
      <line class="cls-5" x1="1275.59" y1="2409.45" x2="1275.59" y2="1700.79"/>
      <line class="cls-5" x1="1984.25" y1="2409.45" x2="1984.25" y2="1700.79"/>
      <line class="cls-5" x1="708.66" y1="2409.45" x2="708.66" y2="1700.79"/>
      <line class="cls-5" x1="1417.32" y1="2409.45" x2="1417.32" y2="1700.79"/>
      <line class="cls-5" x1="2125.98" y1="2409.45" x2="2125.98" y2="1700.79"/>
      <line class="cls-5" x1="2267.72" y1="2409.45" x2="2267.72" y2="1700.79"/>
      <line class="cls-5" x1="2267.72" y1="1700.79" x2="141.73" y2="1700.79"/>
      <line class="cls-5" x1="2267.72" y1="1842.52" x2="141.73" y2="1842.52"/>
      <line class="cls-5" x1="2267.72" y1="1984.25" x2="141.73" y2="1984.25"/>
      <line class="cls-5" x1="2267.72" y1="2125.98" x2="141.73" y2="2125.98"/>
      <line class="cls-5" x1="2267.72" y1="2267.72" x2="141.73" y2="2267.72"/>
      <line class="cls-5" x1="2267.72" y1="2409.45" x2="141.73" y2="2409.45"/>
      <circle class="cls-19" cx="141.73" cy="1700.79" r="8.86"/>
      <path class="cls-20" d="M141.73,1702.66c2.41,0,2.42-3.75,0-3.75s-2.42,3.75,0,3.75h0Z"/>
      <circle class="cls-19" cx="850.39" cy="1700.79" r="8.86"/>
      <path class="cls-20" d="M850.39,1702.66c2.41,0,2.42-3.75,0-3.75s-2.42,3.75,0,3.75h0Z"/>
      <circle class="cls-19" cx="1559.06" cy="1700.79" r="8.86"/>
      <path class="cls-20" d="M1559.06,1702.66c2.41,0,2.42-3.75,0-3.75s-2.42,3.75,0,3.75h0Z"/>
      <circle class="cls-19" cx="2267.72" cy="1700.79" r="8.86"/>
      <path class="cls-20" d="M2267.72,1702.66c2.41,0,2.42-3.75,0-3.75s-2.42,3.75,0,3.75h0Z"/>
      <circle class="cls-19" cx="2267.72" cy="2409.45" r="8.86"/>
      <path class="cls-20" d="M2267.72,2411.32c2.41,0,2.42-3.75,0-3.75s-2.42,3.75,0,3.75h0Z"/>
      <circle class="cls-19" cx="1559.06" cy="2409.45" r="8.86"/>
      <path class="cls-20" d="M1559.06,2411.32c2.41,0,2.42-3.75,0-3.75s-2.42,3.75,0,3.75h0Z"/>
      <circle class="cls-19" cx="850.39" cy="2409.45" r="8.86"/>
      <path class="cls-20" d="M850.39,2411.32c2.41,0,2.42-3.75,0-3.75s-2.42,3.75,0,3.75h0Z"/>
      <circle class="cls-19" cx="141.73" cy="2409.45" r="8.86"/>
      <path class="cls-20" d="M141.73,2411.32c2.41,0,2.42-3.75,0-3.75s-2.42,3.75,0,3.75h0Z"/>
    </g>
    <text class="cls-18" transform="translate(2229.23 1403.15)"><tspan x="0" y="0">CP#1</tspan></text>
    <text class="cls-18" transform="translate(4078.84 85.04)"><tspan x="0" y="0">CP#2</tspan></text>
    <text class="cls-18" transform="translate(3759.94 2494.49)"><tspan x="0" y="0">CP#3</tspan></text>
    <text class="cls-18" transform="translate(2342.62 2296.06)"><tspan x="0" y="0">CP#4</tspan></text>
    <text class="cls-18" transform="translate(117.42 1516.54)"><tspan x="0" y="0">CP#5</tspan></text>
    <polygon class="cls-20" points="4606.3 0 5102.36 496.06 5102.36 0 4606.3 0"/>
    <text class="cls-16" transform="translate(4627.46 92.02) rotate(45)"><tspan x="0" y="0">IR </tspan><tspan class="cls-24" x="62.3" y="0">C</tspan><tspan x="98.39" y="0">alib</tspan><tspan class="cls-25" x="194.2" y="0">r</tspan><tspan class="cls-26" x="214.49" y="0">a</tspan><tspan x="244.6" y="0">tion </tspan><tspan class="cls-21" x="363.08" y="0">C</tspan><tspan x="398.93" y="0">o</tspan><tspan class="cls-22" x="433.51" y="0">r</tspan><tspan x="454.36" y="0">ner</tspan></text>
    <line class="cls-14" x1="4889.76" y1="1629.92" x2="4889.76" y2="1204.72"/>
    <g>
      <circle class="cls-2" cx="1417.32" cy="1133.86" r="212.6"/>
      <circle class="cls-20" cx="1417.32" cy="1133.86" r="35.43"/>
      <text class="cls-17" transform="translate(1392.93 1137.38)"><tspan x="0" y="0">(500, 500)</tspan></text>
    </g>
    <g>
      <text class="cls-18" transform="translate(125.64 240.95)"><tspan x="0" y="0">CP#0 / CP#6</tspan></text>
      <circle class="cls-20" cx="283.46" cy="283.46" r="35.43"/>
      <g>
        <path class="cls-11" d="M385.51,76.14c76.41,37.68,128.97,116.36,128.97,207.32s-52.57,169.64-128.98,207.32c0,0,0-28.74,0-28.74,0,0-204.09,0-204.09,0,0,0,0,28.74,0,28.74-76.41-37.68-128.98-116.36-128.98-207.32S105.01,113.83,181.42,76.14h0v28.74s204.09,0,204.09,0v-28.73"/>
        <rect class="cls-20" x="273.54" y="385.51" width="19.84" height="198.43" transform="translate(-201.26 768.19) rotate(-90)"/>
        <rect class="cls-20" x="273.54" y="-17.01" width="19.84" height="198.43" transform="translate(201.26 365.67) rotate(-90)"/>
      </g>
      <text class="cls-17" transform="translate(259.08 286.99)"><tspan x="0" y="0">(100, 800)</tspan></text>
    </g>
    <g>
      <circle class="cls-20" cx="2692.91" cy="1346.46" r="35.43"/>
      <text class="cls-17" transform="translate(2668.52 1349.98)"><tspan x="0" y="0">(950, 425)</tspan></text>
    </g>
    <g>
      <circle class="cls-20" cx="3968.5" cy="283.46" r="35.43"/>
      <text class="cls-17" transform="translate(3941.04 286.99)"><tspan x="0" y="0">(1400, 800)</tspan></text>
    </g>
    <g>
      <circle class="cls-20" cx="3826.77" cy="2267.72" r="35.43"/>
      <text class="cls-17" transform="translate(3799.3 2271.24)"><tspan x="0" y="0">(1350, 100)</tspan></text>
    </g>
    <g>
      <circle class="cls-20" cx="2267.72" cy="2055.12" r="35.43"/>
      <text class="cls-17" transform="translate(2243.33 2058.64)"><tspan x="0" y="0">(800, 175)</tspan></text>
    </g>
    <g>
      <circle class="cls-20" cx="496.06" cy="1700.79" r="35.43"/>
      <text class="cls-17" transform="translate(471.67 1704.31)"><tspan x="0" y="0">(175, 300)</tspan></text>
    </g>
    <g>
      <circle class="cls-2" cx="4251.97" cy="1133.86" r="212.6"/>
      <circle class="cls-20" cx="4251.97" cy="1133.86" r="35.43"/>
      <text class="cls-17" transform="translate(4224.5 1137.38)"><tspan x="0" y="0">(1500, 500)</tspan></text>
    </g>
    <g>
      <line class="cls-9" x1="3968.5" y1="722.83" x2="3968.5" y2="694.49"/>
      <line class="cls-9" x1="3982.68" y1="708.66" x2="3954.33" y2="708.66"/>
      <text class="cls-17" transform="translate(3929.41 696.49)"><tspan x="0" y="0">R150</tspan></text>
    </g>
    <g>
      <line class="cls-9" x1="3968.5" y1="1218.9" x2="3968.5" y2="1190.55"/>
      <line class="cls-9" x1="3982.68" y1="1204.72" x2="3954.33" y2="1204.72"/>
      <text class="cls-17" transform="translate(3982.68 1192.55)"><tspan x="0" y="0">R325</tspan></text>
    </g>
    <g>
      <line class="cls-9" x1="4251.97" y1="1644.09" x2="4251.97" y2="1615.75"/>
      <line class="cls-9" x1="4266.14" y1="1629.92" x2="4237.8" y2="1629.92"/>
      <text class="cls-17" transform="translate(4266.14 1646.09)"><tspan x="0" y="0">R225</tspan></text>
    </g>
    <g>
      <text class="cls-17" transform="translate(2140.16 838.22)"><tspan x="0" y="0">R200</tspan></text>
      <line class="cls-9" x1="2125.98" y1="864.57" x2="2125.98" y2="836.22"/>
      <line class="cls-9" x1="2140.16" y1="850.39" x2="2111.81" y2="850.39"/>
    </g>
    <g>
      <line class="cls-9" x1="3118.11" y1="1431.5" x2="3118.11" y2="1403.15"/>
      <line class="cls-9" x1="3132.28" y1="1417.32" x2="3103.94" y2="1417.32"/>
      <text class="cls-17" transform="translate(3105.65 1447.67)"><tspan x="0" y="0">R150</tspan></text>
    </g>
  </g>
</svg>